<?xml version='1.0' encoding='utf-8'?>
<svg xmlns="http://www.w3.org/2000/svg" enable-background="new 0 0 1920 1080" version="1.1" viewBox="0 0 1920 1080"> <path d="m851.8 349.3c-9-20.9-11.8-44.4-7.7-66.8" fill="none" stroke="#000" stroke-linecap="round" stroke-linejoin="round" stroke-miterlimit="10" stroke-width="5.6693"/> <path d="m849.7 293.3c-13.7-39.6-27.3-79.3-41-118.9-1.1-3.2-2.2-6.8-0.6-9.8 1.9-3.7 6.9-4.5 11.1-4.6 22.1-0.4 43.9 6.5 63.4 17 19.4 10.6 36.7 24.7 52.8 39.8 15.4 14.3 30.1 29.7 40.7 47.9s16.9 39.4 14.4 60.3" fill="none" stroke="#000" stroke-linecap="round" stroke-linejoin="round" stroke-miterlimit="10" stroke-width="5.6693"/> <path d="m922.1 351.2c10.6-12.2 21.3-24.4 31.9-36.5 4-4.6 8.2-9.5 10-15.3 2.2-7.2 0.6-15.1-2.8-21.8s-8.5-12.4-13.6-17.9c-20.8-22.6-42.5-44.4-65-65.3-12.8-11.9-27.2-24.1-44.6-25.5-3.6-0.3-7.4-0.1-10.5 1.9-3 2-4.9 6.1-3.3 9.4" fill="none" stroke="#000" stroke-linecap="round" stroke-linejoin="round" stroke-miterlimit="10" stroke-width="5.6693"/> <path d="m948.9 282.2c-5.7 2.8-11.4 5.7-17.1 8.5 1.3 6.9 4.8 13.4 9.8 18.4" fill="none" stroke="#000" stroke-linecap="round" stroke-linejoin="round" stroke-miterlimit="10" stroke-width="5.6693"/> <path d="m984.5 276.7c9.4 5 18.7 10 28.1 15.1-3.2 1.4-6.3 2.8-9.5 4.2 15 6.5 26.6 20.5 30.1 36.5" fill="none" stroke="#000" stroke-linecap="round" stroke-linejoin="round" stroke-miterlimit="10" stroke-width="5.6693"/> <path d="m1022.2 304.7c15.4-7.6 30.7-15.1 46.1-22.7-2.8 4.2-5.6 8.4-8.4 12.7 9.7-9.6 24-14.3 37.5-12.4-2.5 3-4.9 6-7.4 9.1 14.8-10.3 33.6-12.4 51.2-16.4s36.3-11.8 44.2-28" fill="none" stroke="#000" stroke-linecap="round" stroke-linejoin="round" stroke-miterlimit="10" stroke-width="5.6693"/> <path d="m1173.4 274.3c13.6-31.7 36.7-59.1 65.4-78.1 8.1-5.4 16.6-10 25.4-14-7.6 9.6-15.2 19.1-22.8 28.7 14.3-11.6 32.7-18.1 51.1-18.1l-15.7 15.7c8.8-4.2 18.3-7.1 27.9-8.7" fill="none" stroke="#000" stroke-linecap="round" stroke-linejoin="round" stroke-miterlimit="10" stroke-width="5.6693"/> <path d="m1471.3 423.5c-0.2 22.4-0.5 45 3.8 67s13.4 43.7 29.6 59.3l-24.3-9.9c4 4.9 8 9.7 12 14.6-1.8-1.2-3.5-2.3-5.3-3.5 1.5 10.7 3 21.3 4.5 32-1.8-2.8-3.6-5.6-5.4-8.5-1.2 53.8-15.3 107.4-41 154.7" fill="none" stroke="#000" stroke-linecap="round" stroke-linejoin="round" stroke-miterlimit="10" stroke-width="5.6693"/> <path d="m1208.4 542.2c25.4 11.5 47 31 61.1 55-7.5-3.2-15-6.4-22.5-9.7 17.8 12.6 32.2 29.9 41.4 49.6-3.3-3.9-6.6-7.8-9.9-11.7 27.8 36 37.5 85.4 25.3 129.2 0.5-1 0.9-2 1.4-3-4.4 21.1-8.8 42.1-13.2 63.2 5-8 9.9-16.1 14.9-24.1-4.6 17.9-9.3 35.7-13.9 53.6 2.2-2.6 4.3-5.3 6.5-7.9 3.8 25.4 2.1 51.7-4.9 76.5" fill="none" stroke="#000" stroke-linecap="round" stroke-linejoin="round" stroke-miterlimit="10" stroke-width="5.6693"/> <path d="m1457.3 730.2c-25.4 61.3-38.6 127.6-38.9 194" fill="none" stroke="#000" stroke-linecap="round" stroke-linejoin="round" stroke-miterlimit="10" stroke-width="5.6693"/> <path d="m1426.1 878.6c10.9 12.8 21.7 25.6 32.6 38.4" fill="none" stroke="#000" stroke-linecap="round" stroke-linejoin="round" stroke-miterlimit="10" stroke-width="5.6693"/> <path d="m1073.5 531.3c8.9 24.2 21.4 47 37 67.5-0.7-4.9-1.4-9.7-2.1-14.6 9.2 12.1 21.5 21.8 35.3 28 0.1-3.7 0.1-7.3 0.2-11 27.5 20.2 62.5 29.9 96.5 26.6" fill="none" stroke="#000" stroke-linecap="round" stroke-linejoin="round" stroke-miterlimit="10" stroke-width="5.6693"/> <path d="m1100.1 593.4-123 3.3c-4.1 0.1-8.4 0.3-11.6 2.7-3.3 2.4-4.5 7.9-1.4 10.4-1.7-8.9-9.3-15.8-17.9-18.9-8.5-3.1-17.8-2.9-26.9-2.2-12.6 1.1-25.1 3.2-37.3 6.5-8 2.1-16.4 5.2-20.8 12.2-4.5 7.1-3.5 16.7 1 23.9 4.5 7.1 11.8 12 19.5 15.3 5.7 2.5 12 4.3 18.2 3.2 6.1-1.1 11.9-5.9 12.6-12.1 0.5-5-2.4-9.9-6.5-12.9-4.1-2.9-9.2-4.1-14.2-4.4-4.8-0.3-9.9 0.1-13.9 2.8s-6.4 8.1-4.4 12.5" fill="none" stroke="#000" stroke-linecap="round" stroke-linejoin="round" stroke-miterlimit="10" stroke-width="5.6693"/> <path d="m855.8 616.6c-8-1.6-16.2-3.1-24.3-2-8.1 1.2-16.2 5.6-19.5 13.1-3.5 7.7-1.2 16.8 1.6 24.7 3.2 9 7.2 18 13.7 25.1s15.8 12.1 25.4 11.4c9.6-0.6 18.9-7.9 19.9-17.5 1-8.7-4.6-16.8-10.4-23.4-3.3-3.7-6.8-7.3-11.2-9.6s-9.8-3-14.3-1c-8 3.7-9.9 14.9-6.2 23 3.7 8 11.2 13.5 18.3 18.6" fill="none" stroke="#000" stroke-linecap="round" stroke-linejoin="round" stroke-miterlimit="10" stroke-width="5.6693"/> <path d="m857.1 689.6c16.7 16.9 42.8 19.3 66.5 20.7 34.3 2 68.5 4 102.8 6-3.4-2.4-6.8-4.8-10.2-7.3 29.7 6 59.4 12 89.1 17.9-1.2-1.5-2.5-3-3.7-4.6 13.5 2.3 26.2 8.9 35.7 18.7-3.7-4.4-4.1-11.2-1.1-16 6.2 5.9 12.3 11.7 18.5 17.6-4.2-2.1-4.5-9.1-0.4-11.5 4.1-2.3 10.1 1.4 9.7 6.1 2-1.8 4-3.7 6-5.5 5.2 3.3 10.4 6.5 15.6 9.8 15.3 1.3 30.5 4.6 44.9 9.9-0.1-2.9-0.1-5.7-0.2-8.6 14.4 3.6 28.8 7.2 43.2 10.9-1.6-3.1-3.3-6.2-4.9-9.3 6.9 4.3 15.8 5.2 23.5 2.5" fill="none" stroke="#000" stroke-linecap="round" stroke-linejoin="round" stroke-miterlimit="10" stroke-width="5.6693"/> <path d="m901.1 699.5c-9.4-4.1-18.9-8.3-28.3-12.4-0.9-4.6 1.9-9.6 6.2-11.4 4.4-1.8 9.4-0.3 13.7 1.5 4.4 1.9 8.8 4.4 11.6 8.2s3.9 9.4 1.4 13.5-9 5.5-12.3 2.1" fill="none" stroke="#000" stroke-linecap="round" stroke-linejoin="round" stroke-miterlimit="10" stroke-width="5.6693"/> <path d="m931.7 669.3c-6.8-2.5-13.7-4.9-20.5-7.4-2.7 0.7-4.4 3.5-4.5 6.3s1.1 5.4 2.5 7.9c6.7 11.8 19.1 20.2 32.5 22.2 4 0.6 8.1 0.6 11.8-0.9s6.9-4.8 7.4-8.7c0.7-5.6-3.8-10.4-8.3-13.8-8.3-6.1-17.9-10.3-28-12.2" fill="none" stroke="#000" stroke-linecap="round" stroke-linejoin="round" stroke-miterlimit="10" stroke-width="5.6693"/> <path d="m955.6 646.6c-7.2-1.2-14.3-2.5-21.5-3.7-3 1.3-4.2 5.3-3.1 8.5s4 5.3 7.2 6.4c3.1 1.1 6.5 1.2 9.8 1.3 2.4 0.1 4.8 0.1 7.1-0.6s4.4-2.2 5.2-4.5c1-3-0.8-6.4-3.3-8.2-2.6-1.9-5.8-2.5-8.9-3.1" fill="none" stroke="#000" stroke-linecap="round" stroke-linejoin="round" stroke-miterlimit="10" stroke-width="5.6693"/> <path d="m1055.5 672.8c-4.1 2.3-8.4 4.7-11.4 8.3s-4.7 8.8-2.8 13.2c1.5 3.7 5.3 6.1 9.2 6.9s8 0.2 11.8-0.7c4.8-1.1 9.9-3.1 12.2-7.4s1-9.8-1.8-13.7-7-6.7-11.1-9.3" fill="none" stroke="#000" stroke-linecap="round" stroke-linejoin="round" stroke-miterlimit="10" stroke-width="5.6693"/> <path d="m847.3 344c-26.6 33.3-53.5 67.3-69.8 106.7-7.1 17.1-12.1 35.2-14.8 53.5 3.2-3.5 6.3-7 9.5-10.5 0.2 8 0.4 15.9 0.6 23.9 0.9-1.6 1.8-3.2 2.7-4.7 1.4 15.2 6.6 30 15.1 42.6" fill="none" stroke="#000" stroke-linecap="round" stroke-linejoin="round" stroke-miterlimit="10" stroke-width="5.6693"/> <path d="m785.1 525.3c8.5 8.2 8.4 21.6 7.6 33.4s-1.3 25.1 6.9 33.6c4.8 5 11.9 7.4 18.8 7.9s13.9-0.8 20.7-2.1c-3.3 0.3-6.1-2.8-6.9-6s-0.1-6.6 0.2-9.9 0.1-7-2.1-9.5c-2.1-2.5-6-3.2-8.7-1.5s-3.6 5.9-1.5 8.4c1.8 2.2 5.2 2.5 7.7 1.2s4-4 4.4-6.8c0.5-3.7-0.9-7.6-3.8-9.9-4.4-3.3-11.1-1.9-15.3 1.7s-6.6 8.9-8.9 13.9" fill="none" stroke="#000" stroke-linecap="round" stroke-linejoin="round" stroke-miterlimit="10" stroke-width="5.6693"/> <path d="m814.5 602c3.8 5.9 7.6 11.8 11.3 17.7" fill="none" stroke="#000" stroke-linecap="round" stroke-linejoin="round" stroke-miterlimit="10" stroke-width="5.6693"/> <path d="m848.9 604.5c30.9-9.2 57.6-31.8 71.7-60.8 1.5-3 2.9-6.2 5.2-8.6s5.9-4 9.1-2.9" fill="none" stroke="#000" stroke-linecap="round" stroke-linejoin="round" stroke-miterlimit="10" stroke-width="5.6693"/> <path d="m907 567.9c2.5 6.2 2.8 13.3 0.8 19.8" fill="none" stroke="#000" stroke-linecap="round" stroke-linejoin="round" stroke-miterlimit="10" stroke-width="5.6693"/> <path d="m846.4 605.4c0.8 4 1.6 8 2.4 11.9" fill="none" stroke="#000" stroke-linecap="round" stroke-linejoin="round" stroke-miterlimit="10" stroke-width="5.6693"/> <path d="m887.3 519.7c38.4-50.8 90.8-90.9 149.9-114.7" fill="none" stroke="#000" stroke-linecap="round" stroke-linejoin="round" stroke-miterlimit="10" stroke-width="5.6693"/> <path d="m897.3 523.4c32.1-18.8 70.3-27.1 107.3-23.2" fill="none" stroke="#000" stroke-linecap="round" stroke-linejoin="round" stroke-miterlimit="10" stroke-width="5.6693"/> <path d="m907.2 529.4c18.3-1.3 36.6-2.5 55-3.8 9.4-0.6 20.4-0.6 26.3 6.7" fill="none" stroke="#000" stroke-linecap="round" stroke-linejoin="round" stroke-miterlimit="10" stroke-width="5.6693"/> <path d="m804.8 649.8c-18.4 31.7-30.1 67.3-34 103.7" fill="none" stroke="#000" stroke-linecap="round" stroke-linejoin="round" stroke-miterlimit="10" stroke-width="5.6693"/> <path d="m819.6 668.2c-12.6 24.9-18.3 53.3-16.2 81.1" fill="none" stroke="#000" stroke-linecap="round" stroke-linejoin="round" stroke-miterlimit="10" stroke-width="5.6693"/> <path d="m832.7 686.1c-10.2 21.8-11.6 47.6-3.6 70.4" fill="none" stroke="#000" stroke-linecap="round" stroke-linejoin="round" stroke-miterlimit="10" stroke-width="5.6693"/> <path d="m833.5 499.8c2-28.8 13.2-56.8 31.7-78.9-7.2 13.4-14.4 26.8-19.3 41.2-1.5 4.3-2.7 8.7-4 13.1-2.5 8.6-4.9 17.1-7.4 25.7-0.1-9.4 2.8-18.8 8.1-26.5-1.8-6.5-0.3-13.9 3.9-19.2" fill="none" stroke="#000" stroke-linecap="round" stroke-linejoin="round" stroke-miterlimit="10" stroke-width="5.6693"/> <path d="m832.7 367.5c-17.4 7.3-38.1 6.3-54.6-2.8-3.9-2.1-8.3-4.7-12.3-2.9-4.7 2-5.3 8.4-4.7 13.5 2 18.5 10.1 36.4 22.6 50.2-0.6-1.3-1.2-2.6-1.7-3.9" fill="none" stroke="#000" stroke-linecap="round" stroke-linejoin="round" stroke-miterlimit="10" stroke-width="5.6693"/> <path d="m991.7 597.5c1.9-4.4 3.8-8.7 5.7-13.1-0.6-0.7-1.1-1.4-1.7-2.1 10.3 1.2 21-3 27.8-10.8-4.5 2.4-10.2 2.5-14.8 0.2 6.5-1.1 12.8-3.3 18.5-6.5 2.3-1.3 4.6-2.9 5.2-5.4s-2.2-5.5-4.4-4.3c6 0.3 12-1.3 17.1-4.5 1.9-1.2 3.8-2.7 4.4-4.9s-0.4-4.9-2.5-5.4c5.1-0.1 10.2-1.3 14.8-3.5 1.5-0.7 3-1.7 3.7-3.2s0.1-3.7-1.6-4.1c5 1 10.2-1.3 14.2-4.4 4-3.2 7.2-7.3 11-10.7 9.5-8.7 22.6-13.3 35.5-12.3" fill="none" stroke="#000" stroke-linecap="round" stroke-linejoin="round" stroke-miterlimit="10" stroke-width="5.6693"/> <path d="m1133 485.3c-2.1 7-2 14.6 0.3 21.6 0.1-1.7 0.2-3.4 0.4-5.2 1.9 8 6 15.4 11.7 21.2" fill="none" stroke="#000" stroke-linecap="round" stroke-linejoin="round" stroke-miterlimit="10" stroke-width="5.6693"/> </svg>