<?xml version='1.0' encoding='utf-8'?>
<svg xmlns="http://www.w3.org/2000/svg" version="1.1" viewBox="0 0 524.41 744.09"> <defs> <linearGradient id="a" x1="322.79" x2="446.1" y1="783.98" y2="223.63" gradientUnits="userSpaceOnUse"> <stop stop-color="#f60" offset="0"/> <stop stop-color="#f60" offset=".65626"/> <stop stop-color="#ff7f2a" stop-opacity="0" offset="1"/> </linearGradient> </defs> <g transform="translate(0 -308.27)"> <g transform="matrix(.50599 0 0 .50599 130.51 337.2)"> <path d="m319.84 395.48c-28.666 0.44474-44.159 92.73-61.905 135.85-110.18 51.825-260.55 95.93-211.51 290.61 62.911 138.54 207.08 113.74 342.2 110.05l98.017 79.101c-60.958-75.521-171.36-159.38-178.84-177.12-15.662-150.41 92.18-95.872 95.72-235.38-35.174-69.476 54.82-82.587 54.621-99.582-0.36716-31.423-23.52-101.8-52.419-99.968-32.672-16.089-53.213-5.8413-85.885-3.5703z" fill="url(#a)" fill-rule="evenodd"/> <path d="m400 396.65c-29.113-8.9244-47.492 0.93704-61.429 18.571-13.257-6.1104-29.307-11.662-24.286-21.429 7.0773-23.448 17.878-40.985 57.143-49.286 4.3828-2.7758 4.9195 2.0295 9.0095 2.7079 7.5111 1.2459 14.894-2.672 14.894-2.672 4.2621 9.0361-23.998 39.155 4.6682 52.107z" fill="#f60" fill-rule="evenodd"/> <path d="m376.98 343.96c-6.6146 2.5365-12.896 4.9507-19.167 8.2344-6.2709 3.2837-15.698 9.7274-20.924 14.464-5.2266 4.7361-11.466 11.871-14.569 16.297-3.1026 4.4258-8.7478 13.547-12.076 19.634 0.31061-6.677 0.89473-12.28 2.9476-18.394 2.0529-6.1137 6.7392-17.045 16.402-25.53 9.6624-8.4846 16.858-11.123 24.918-13.327 8.0598-2.2043 16.168-1.9266 22.469-1.3785z" fill="#a00" fill-rule="evenodd"/> <path d="m397.78 349.59c-2.6814 3.3761-3.2795 5.4072-5.174 9.1284s-3.5256 9.818-3.3807 14.645 0.72323 10.271 3.6313 14.793c2.9081 4.5226 8.7158 9.0951 12.676 10.73-5.7453 0.40114-14.279-3.8413-17.193-7.438-2.9138-3.5966-8.093-8.9953-8.0215-17.736 0.0715-8.7411 2.9276-12.931 6.2053-16.615s7.5069-6.8204 11.257-7.5079z" fill="#a00" fill-rule="evenodd"/> <path d="m394.25 344.85c-6.0679 3.6561-11.83 7.1336-17.428 11.465s-13.751 12.327-18.067 17.906c-4.316 5.5786-9.209 13.697-11.488 18.597-2.2792 4.9009-6.3126 15.551-8.5232 22.127-0.86401-6.6282-1.1971-12.928-0.24709-19.306 0.95002-6.3788 3.6486-17.963 11.675-28.009 8.0265-10.046 14.649-13.904 22.198-17.487 7.549-3.5823 15.581-4.7295 21.88-5.2938z" fill="#a00" fill-rule="evenodd"/> <path d="m421.27 934.93c-24.095-12.301-51.22-17.683-78.216-19.44-26.996-1.7566-54.079-0.0245-81.106 1.1695s-54.237 1.8409-81.008-2.0586-53.28-12.571-75.118-28.539c-18.944-13.852-33.879-32.916-43.725-54.218s-14.674-44.789-15.057-68.254c-0.56523-34.597 8.5974-69.339 26.398-99.011 17.801-29.672 44.211-54.155 75.272-69.404 20.153-9.8937 41.977-15.889 62.645-24.655s40.848-20.959 53.135-39.748c12.613-19.286 15.467-43.081 21.014-65.448 5.9753-24.097 16.368-46.591 27.628-68.342-17.765 11.321-29.434 29.564-36.83 49.134-4.2018 11.117-6.5929 22.818-9.4954 34.343s-6.3918 23.061-12.537 33.234c-6.2871 10.409-15.202 19.082-25.204 25.998-10.002 6.9155-21.091 12.133-32.45 16.477-22.716 8.6871-46.711 14.006-68.773 24.243-34.64 16.075-63.292 44.11-81.701 77.568s-26.736 72.116-25.548 110.29c0.87139 27.983 6.8204 55.961 18.908 81.214s30.441 47.703 53.721 63.255c36.408 24.322 81.951 30.39 125.73 31.128 43.779 0.73715 87.928-3.1639 131.13 3.9466 54.755 9.0116 106.38 36.112 144.89 76.064-11.137-37.988-38.446-70.942-73.704-88.942z" fill="#a00"/> <path d="m245.25 807.38c-1.8134-5.3507-26.304-21.743-42.018-28.999-19.22-8.8751-47.702-12.169-65.458-7.5711-16.022 4.1493-10.778-2.2368 7.6558-9.3234 21.349-8.2076 50.815-8.6465 66.074-0.98415 10.944 5.4956 21.227 14.841 28.246 25.671 5.9655 9.2041 10.71 29.836 10.71 29.836s-4.807-7.4406-5.21-8.6297z" fill="#a00"/> <path d="m402.86 598.08c46.785 69.713-17.249 105.08-40 181.43 1.3466 30.213 0.31134 58.681 12.857 81.429 29.435 25.275 23.771 38.013 0 44.286l-24.286-7.1428c-65.097-79.261-48.369-102.53-40.139-166.28 42.561-21.068 67.831-75 91.567-133.72z" fill="#f60" fill-rule="evenodd"/> <path d="m402.18 597.55c13.494 6.4391 23.567 25.405 24.568 39.751 1.0016 14.346-2.54 33.071-8.3101 43.413-5.77 10.342-22.571 34.759-34.98 62.168-8.061 17.805-14.268 36.872-14.394 54.163 0.16345 14.88-0.14451 22.26 3.1067 39.754 3.2512 17.494 3.4104 19.219 4.9543 27.918-8.4193-8.8564-12.478-26.875-16.499-44.631-4.552-20.104-7.281-27.004-5.2749-48.525 2.0061-21.522 9.6475-33.232 18.267-49.47 10.294-19.392 21.872-36.307 26.407-43.166 4.5352-6.8593 15.832-24.482 16.837-40.927s-7.1256-29.204-14.683-40.448z" fill="#f60" fill-rule="evenodd"/> <path d="m429.89 449.27c0 5.6017-2.3364 10.148-5.2252 10.168-2.8887 0.0196-5.9246-6.3495-5.9448-11.951-0.0202-5.6016 2.983-8.3253 5.8716-8.384s5.5503 4.8146 5.5906 10.416l-5.5357-0.2484z" fill="#f55"/> <path d="m430.51 450.65c-0.60128-0.30812-0.80971-1.2276-1.1388-2.3939-0.16452-0.58315-0.36255-1.2352-0.6474-1.8954-0.28485-0.66024-0.65631-1.3312-1.1467-1.8876-0.44113-0.52178-1.0099-1.0012-1.6573-1.3768s-1.3729-0.64866-2.06-0.70781c-0.56343-0.0688-1.193-0.0172-1.8028 0.13964s-1.1994 0.41823-1.6408 0.77223c-0.46149 0.33676-0.89006 0.84893-1.2128 1.4266-0.26426 0.47301-0.44761 0.97318-0.51449 1.4374-0.22911 0.94949 0.0684 2.2223 0.50858 3.4737 0.52994 1.4434 1.5496 2.8559 2.5919 4.2274 1.8571 2.3747 3.6915 4.2344 4.9723 5.7048s2.0106 2.5823 1.692 3.3458-1.6822 1.0923-3.868 0.69666c-2.1858-0.39568-5.196-1.5543-8.3256-3.8757-1.8066-1.3113-3.7314-3.1382-5.3343-5.772-1.4432-2.3491-2.3565-5.4042-2.0969-8.8876 0.18522-1.8228 0.73213-3.5964 1.6235-5.2061 1.0884-1.9657 2.649-3.61 4.5103-4.8107 1.8519-1.1639 3.8582-1.8095 5.8281-1.9978 1.97-0.18829 3.9029 0.08 5.6566 0.70681 2.1089 0.78027 3.7969 2.0239 5.0428 3.44 1.2459 1.416 2.0516 3.003 2.4862 4.5367 0.45408 1.6601 0.45591 3.1718 0.23754 4.4234s-0.65488 2.2455-1.1306 2.9698c-0.47568 0.7243-0.9895 1.1821-1.4388 1.4165s-0.83414 0.24798-1.1348 0.0939z" fill="#a00" fill-rule="evenodd"/> <path d="m339.97 907.52c-15.078-11.368-43.588-11.726-94.009-14.307-65.963-3.3774-94.681-12.187-109.46-17.512-17.265-6.2194-17.272-1.9588-0.0156 8.7166 18.09 11.191 43.111 20.086 115.17 20.352 47.316 0.17489 67.926-3.4469 82.087 2.6202 9.982 4.2765 11.784 4.3142 6.2354 0.13081z" fill="#a00"/> <path d="m460.67 486.02 4.3389 9.0097c7.1485-4.5629 16.512-6.5557 25.608-4.9748 6.1098 1.0586 12.128 3.6956 17.265 7.7306-4.2068-4.9972-9.7757-9.0584-16.156-11.589-9.5247-3.7702-20.749-4.0196-31.056-0.17623z" fill="#916f6f" fill-rule="evenodd"/> <path d="m458.41 490.43 0.81024 9.9671c5.8291-1.1135 11.886-1.4946 17.968-1.0918 9.8181 0.64903 19.724 3.3665 28.839 8.0812-7.9901-6.4391-17.484-11.344-27.788-14.167-6.3788-1.7474-13.054-2.7005-19.828-2.7894z" fill="#916f6f" fill-rule="evenodd"/> <path d="m460.15 495.7-2.3468 9.7207c8.3279 1.1289 16.62 3.5658 24.455 7.2655 7.4084 3.498 14.415 8.1284 20.69 13.751-5.0826-6.7197-11.214-12.791-18.19-17.919-7.3785-5.4234-15.692-9.784-24.608-12.818z" fill="#916f6f" fill-rule="evenodd"/> <path d="m446.94 498.77 9.7474-1.5968c-22.402-0.31281-61.095-5.6734-82.787-0.89123v1e-5c-19.234 4.2306-38.115 10.505-55.242 19.954h-1e-5c-2.6175 1.4443-5.1914 2.9611-7.7178 4.5476 2.638-1.3931 5.3126-2.7101 8.0194-3.9493 17.71-8.1089 36.696-12.831 55.844-15.579h1e-5c21.603-3.0905 50.589-4.405 72.136-2.4848z" fill="#916f6f" fill-rule="evenodd"/> <path d="m452.38 497.58 2.5062-6.5188c-10.952-5.5046-30.29-13.208-42.146-15.792h-1e-5c-20.524-4.5064-42.249-4.3101-61.817 2.4588h-1e-5c-7.7917 2.7001-15.181 6.4184-21.926 11.007 7.0994-4.0177 14.693-7.0716 22.508-9.077 19.618-5.046 40.368-3.3495 59.452 2.4588 11.035 3.3774 31.678 9.5124 41.423 15.463z" fill="#916f6f" fill-rule="evenodd"/> <path d="m447.55 505.45 5.0007-6.4947c-21.355 0.91845-48.232 1.9928-67.659 10.27-17.862 7.5766-34.672 18.438-46.864 33.359l-1e-5 1e-5c-5.6877 6.9702-10.301 14.755-13.661 23.002 3.9159-7.9981 9.01-15.368 15.036-21.8 12.899-13.786 29.863-23.028 47.559-29.209 19.291-6.7029 40.854-9.2184 61.012-8.7036z" fill="#916f6f" fill-rule="evenodd"/> <path d="m404.56 398.64c6.1659-0.15062 20.887 5.2191 25.84 9.551 9.695 9.8517 13.707 18.52 17.318 30.199 1.8291 5.8478 3.5061 11.674 5.803 16.884 4.4838 9.5766 10.383 18.849 11.566 28.613-0.8739 16.667-6.3107 27.578-20.098 35.506-9.0515 5.1322-19.404 7.0231-27.841 11.833-10.823 6.7166-18.023 17.463-19.829 29.603-0.7716 6.4217-0.81066 12.726 0.38092 19.426 1.1916 6.7002 2.2634 10.789 5.3355 15.963-5.9695-3.4672-10.04-10.106-12.384-15.681-2.6532-6.5834-3.7035-13.732-3.1832-20.219 1.8744-14.51 9.6768-26.998 21.45-34.262 8.987-5.376 19.288-7.4133 27.702-12.235 10.258-6.2791 17.73-17.359 16.931-29.294-1.2944-10.037-7.084-18.455-10.651-26.93-2.4084-5.9148-2.6706-11.613-4.237-17.367-2.6881-10.62-4.1591-17.78-10.303-24.983-4.0127-5.9485-16.895-13.282-23.801-16.607z" fill="#a00" fill-rule="evenodd"/> <path d="m313.4 729.38c-0.91075 7.9128-1.8757 21.498-2.492 29.307s-0.87845 17.103-0.27418 27.379 1.768 20.025 4.8628 33.04 7.2386 27.192 13.219 39.956c5.98 12.765 15.947 26.413 24.041 37.367-12.724-6.7985-20.855-10.574-33.592-27.663-12.737-17.088-17.351-33.597-19.955-44.749s-2.4761-25.68-2.0733-35.163c0.40282-9.4829 2.0173-19.794 3.8297-27.68 1.8124-7.8855 3.5447-16.814 12.434-31.795z" fill="#a00" fill-rule="evenodd"/> <path transform="matrix(-18.856 20.269 -15.515 -10.98 13194 -3722.6)" d="m391.21 349.91-0.13628 0.50857-0.13627 0.50858-0.7446-0.74461 0.50857-0.13627z" fill="#a00"/> <path transform="matrix(-21.561 15.909 -9.6073 -15.767 12165 -342.66)" d="m391.21 349.91-0.15841 0.5135-0.11414 0.50365-0.37864-0.3781-0.36596-0.36651 0.52391-0.11957z" fill="#a00"/> <path d="m400.98 594.24s8.0827 49.902-5.6363 67.422c-54.46 69.548-42.425 125.06-51.895 183.34-1.0634 2.1763 26.523 20.818 31.646 20.595l5.4684 0.0236s-15.707-64.885-7.762-93.753c9.0051-24.782 19.572-47.005 34.861-71.787 39.14-56.689 14.587-90.789-6.6822-105.84z" fill="#a00" fill-rule="evenodd"/> <path d="m377.11 863.82c0.0491-0.50953 0.57789-0.97005 1.5896-1.2742 1.0117-0.30419 2.5108-0.44506 4.3829-0.19663 1.8721 0.24844 4.1193 0.89455 6.459 2.1654 2.3397 1.2708 4.7696 3.1736 6.8397 5.8172 1.4294 1.8473 2.6452 4.0076 3.5135 6.3987s1.3876 5.0121 1.4538 7.724c0.0632 2.5869-0.28957 5.1298-0.9964 7.4978-0.82151 2.7112-2.0841 5.125-3.5794 7.1541s-3.2213 3.6742-4.9793 4.933c-1.8374 1.3113-3.6834 2.1869-5.3619 2.7363-1.6786 0.54933-3.1899 0.77498-4.4318 0.80176-1.2419 0.0268-2.2154-0.1428-2.8814-0.40716-0.66592-0.26437-1.0256-0.62164-1.0826-1.0267-0.057-0.4051 0.18868-0.83618 0.65279-1.3086s1.1472-0.98888 1.9686-1.6c1.6428-1.2223 3.8705-2.8512 5.847-5.2037 0.94898-1.1243 1.8494-2.4257 2.6135-3.8841 0.76405-1.4584 1.392-3.0732 1.7789-4.7808 0.34089-1.463 0.49719-3.0356 0.45236-4.6552-0.094-3.3957-1.0565-6.6181-2.5108-9.176-1.0289-1.849-2.3518-3.4338-3.6982-4.7508s-2.7183-2.3664-3.9264-3.2223-2.2562-1.5231-2.9917-2.1151-1.1609-1.1173-1.1118-1.6269z" fill="#782121" fill-rule="evenodd"/> </g> </g> </svg>