<?xml version='1.0' encoding='utf-8'?>
<svg xmlns="http://www.w3.org/2000/svg" width="923.42mm" height="977.98mm" viewBox="0 0 2617.6 2772.2"> <g style="isolation:isolate"> <g fill="none" stroke="#211915" stroke-linecap="round" stroke-linejoin="round" data-name="Capa 7"> <path d="m523.11 2538.9s-72.222-61.111-44.444-177.78-6.3591-188.89-6.3591-188.89l161.91-1988.9h261.11c144.44 0 416.67-50 561.11-66.667s405.56-61.247 405.56-61.247 50 316.8 61.111 461.25 33.333 472.22 44.444 577.78 33.333 805.56 27.778 883.33 1.754 361.11 0.877 444.44-200.88 250.75-245.32 250.75-1144.4-122.98-1227.8-134.09z" stroke-width="17.008"/> <path d="m618.08 468.84a11070 11070 0 0 1 1215.7-44.237" stroke-width="17.008"/> <path d="m1704.1 276.55c45.121-2.994 90.121-4.994 134.7-7.739" stroke-width="5.6693"/> <path d="m1565.2 284.75q39.427-2.3589 78.856-4.6821" stroke-width="5.6693"/> <path d="m1407.5 294.33c30.691-2.7701 61.691-2.7701 92.803-5.6714" stroke-width="5.6693"/> <path d="m1277.8 302.42q33.14-2.0925 66.281-4.1598" stroke-width="5.6693"/> <path d="m1118.7 312.61c33.526-2.0567 66.526-5.0567 100.46-6.4692" stroke-width="5.6693"/> <path d="m938.73 324.49c39.494-2.9371 78.494-4.9371 117.88-7.8242" stroke-width="5.6693"/> <path d="m806.21 333.48q32.43-2.2241 64.862-4.4241" stroke-width="5.6693"/> <path d="m671.66 326.51c8.2184-0.82415 14.109-10.375 11.643-18.258s-12.136-12.427-19.97-9.8082-12.804 11.513-11.502 19.67c1.1689 7.3234 6.6297 13.393 13.039 17.125s13.746 5.4848 20.963 7.1911l99.475 23.519c-21.769 6.575-45.561 2.6776-66.677-5.7625s-40.179-21.175-59.627-32.96" stroke-width="5.6693"/> <path d="m680.03 363.39c8.2591-0.09042 15.17 8.7501 13.592 16.858s-10.687 13.693-18.762 11.958-13.999-10.026-13.608-18.276c0.35124-7.4078 5.1068-14.045 11.063-18.463s13.055-6.9723 20.039-9.4668l96.261-34.383c-22.363-4.1255-45.578 2.3809-65.63 13.106s-37.589 25.492-55.613 39.357" stroke-width="5.6693"/> <path d="m590.38 842.04q607.02-16.644 1214.3 3.3046" stroke-width="5.6693"/> <path d="m736.59 522.6q-9.6372 117.84-22.624 235.36" stroke-width="17.827"/> <path d="m730.79 524.99c24.913-0.42938 49.178-6.5168 73.48-9.3816 22.153-2.6115 54.213 1.7217 64.757 22.182 7.0571 13.695 6.2812 28.264 4.9336 44.479-0.731 8.7951-3.3179 20.362-9.1665 27.321-11.05 13.147-31.28 14.771-47.304 15.32-28.39 0.9729-57.29 2.4597-85.937 3.6395" stroke-width="17.827"/> <path d="m801.91 645.66q-4.5 60.044-9.7822 120.02" stroke-width="17.827"/> <path d="m799.18 681.77c15.993-20.293 43.835-30.175 69.155-26.391" stroke-width="17.827"/> <path d="m917.32 704.23c15.041-11.953 41.474-12.33 50.655-30.12 6.0537-11.729 0.47754-27.025-10.182-34.341-10.97-7.5288-25.87-7.8901-38.29-3.3693-12.288 4.4728-22.741 13.16-31.187 22.975-8.7783 10.201-16.096 22.258-19.046 35.521a51.519 51.519 0 0 0 6.6631 38.922c10.108 15.601 30.613 24.667 48.007 26.532 18.636 1.9984 37.242-0.41943 56.168-3.4213" stroke-width="17.827"/> <path d="m1023.8 635.55a1118.1 1118.1 0 0 1-8.6797 127.75" stroke-width="17.827"/> <path d="m1023.3 668.31c9.4116-12.642 24.472-22.358 40.142-24.426 10.423-1.3757 22.995 0.90253 28.883 10.4 3.6826 5.9401 3.603 13.749 3.3354 20.871-1.0156 27.038-3.0762 54.097-5.9341 81.088" stroke-width="17.827"/> <path d="m1097.5 666.15c13.656-11.496 31.143-19.916 48.907-21.954 8.6982-0.99792 18.843-0.446 24.893 6.1476 6.5176 7.1034 6.9883 20.703 6.0669 29.547-2.9893 28.68-4.1196 59.744-6.3594 89.604" stroke-width="17.827"/> <path d="m1216 652.31q-4.6208 53.064-9.7583 106.08" stroke-width="17.827"/> <path d="m1208.4 595.82c-6.2739 8.8426-5.6382 21.769 1.7686 29.289 7.2012 7.312 20.289 7.3581 27.498 0.04352 7.4575-7.5666 8.3232-21.111 1.9668-29.62-6.1523-8.2363-18.652-9.9712-27.236-3.7345" stroke-width="17.827"/> <path d="m1261.4 641.57c-4.5488 16.482-8.8315 32.895-9.8335 49.43-0.95166 15.701 2.7173 34.833 13.524 47.554 9.5356 11.225 27.828 20.216 42.325 12.155 9.831-5.4664 16.33-15.632 20.177-25.71 10.276-26.914 12.411-55.106 13.989-84.197" stroke-width="17.827"/> <path d="m1386.4 615.17q-2.9341 69.378-6.6899 138.71" stroke-width="17.827"/> <path d="m1386.4 650.04c10.668-9.3831 22.373-19.161 35.923-22.95 12.818-3.584 30.268 0.26563 37.106 13.433 6.4326 12.384 5.5117 27.153 3.9849 40.484-3.273 28.581-6.1426 57.786-9.373 86.662" stroke-width="17.827"/> <path d="m1466.7 648.11c12.986-10.399 25.105-19.535 40.515-23.811 14.874-4.1268 33.251 5.8402 38.371 21.123 3.0698 9.1632 2.3779 21.049 1.1362 30.325-4.311 32.214-8.4209 65.709-14.07 98.382" stroke-width="17.827"/> <path d="m1570.4 579.77a336.17 336.17 0 0 0 42.205-39.927" stroke-width="17.827"/> <path d="m1597.1 640.74q26.628-9.6003 53.168-19.436" stroke-width="17.827"/> <path d="m1596.5 743.22q23.823 17.917 47.425 36.12" stroke-width="17.827"/> <path d="m1280.5 1074.7c-24.049-18.078-51.152-37.084-81.12-34.418-18.211 1.6202-34.631 11.16-50.365 20.472l-91.644 54.234a118.68 118.68 0 0 1-15.599 57.229" stroke-width="20.507"/> <path d="m1104.6 1124.1a80.404 80.404 0 0 1-43.155 57.389" stroke-width="20.507"/> <path d="m1090.2 1190.2a96 96 0 0 0 66.365-52.915" stroke-width="20.507"/> <path d="m1115.5 1261.6c46.931-9.3048 87.084-46.867 99.495-93.074 3.2881-12.242 4.7854-25.009 9.4492-36.796s13.369-22.935 25.615-26.21" stroke-width="20.507"/> <path d="m1379.8 1088.3c26.717-21.447 66.104-25.668 96.759-10.369" stroke-width="20.507"/> <path d="m1371.6 1084.4a140.03 140.03 0 0 0-90.608 7.3632" stroke-width="20.507"/> <path d="m1242.9 1134.1c-28.135 35.298-38.781 83.889-27.984 127.72l11.382-24.24a57.484 57.484 0 0 0 25.728 24.946" stroke-width="20.507"/> <path d="m1332 1139.6a67.603 67.603 0 0 0-32.176 100.32" stroke-width="20.507"/> <path d="m1424.1 1151.4c44.956 21.632 74.4 71.954 71.236 121.74" stroke-width="20.507"/> <path d="m1470.3 1128.2c57.629 24.091 97.178 85.992 94.819 148.41l-14.754-13.76q-0.96351 8.3523-1.927 16.705" stroke-width="20.507"/> <path d="m1297.4 1225c8.2997 10.61 26.475 11.041 35.435 0.982s6.6019-27.851-4.5436-35.417-28.361-3.3667-34.972 8.3698-1.4625 28.457 10.5 34.65" stroke-width="20.507"/> <path d="m1474.2 1191.1c-17.591-2.1164-34.277 16.582-30.179 33.819s27.411 26.428 42.169 16.623" stroke-width="20.507"/> <path d="m1486.9 1076.6c2.3578-23.14 24.297-41.035 47.367-43.997s46.267 6.4581 65.027 20.209 33.982 31.652 49.995 48.522 33.449 33.17 54.79 42.422" stroke-width="20.507"/> <path d="m1621.3 1147.2a149.99 149.99 0 0 0 49.552 42.465l-18.172-0.44" stroke-width="20.507"/> <path d="m1613.2 1203.8a85.866 85.866 0 0 0 47.548 47.14" stroke-width="20.507"/> <path d="m1591.5 1250.2a426.42 426.42 0 0 1 27.383 102.38" stroke-width="20.507"/> <path d="m1396.9 1300.3c-7.7348 1.0155-15.613 2.6544-22.149 6.9138s-11.515 11.645-10.972 19.428 7.9768 14.99 15.655 13.612 11.655-12.908 5.5382-17.749" stroke-width="20.507"/> <path d="m1404.9 1303.4c7.7847-3.7617 17.331-4.4414 25.011-0.4707s12.812 13.043 10.959 21.488-11.499 14.705-19.658 11.844-11.368-15.193-4.925-20.958" stroke-width="20.507"/> <path d="m1390.5 1338.2 16.998 19.272 17.14-18.751" stroke-width="20.507"/> <path d="m1340.2 1338.2a207.85 207.85 0 0 0-0.73021 54.564 28.216 28.216 0 0 1-18.36-22.741c-19.274 46.318-15.529 101.58 9.8172 144.87" stroke-width="20.507"/> <path d="m1339.7 1409.6c1.7642 23.148 5.0393 48.164 21.28 64.752 18.977 19.383 53.842 19.821 73.3 0.92114s20.034-53.763 1.2117-73.295" stroke-width="20.507"/> <path d="m1400.8 1363.4a38.132 38.132 0 0 1-58.309 31.042" stroke-width="20.507"/> <path d="m1397.2 1379.6a56.089 56.089 0 0 0 52.322 9.7728" stroke-width="20.507"/> <path d="m1387 1394.6 11.783 42.183" stroke-width="20.507"/> <path d="m1463.4 1380.4a82.163 82.163 0 0 1 1.2196 62.165l5.4848-3.5456a111.17 111.17 0 0 1 14.812 58.626" stroke-width="20.507"/> <path d="m1445.8 1265.1c46.129 21.825 78.398 70.348 80.688 121.33" stroke-width="20.507"/> <path d="m1142.9 1273.2a216.2 216.2 0 0 0-18.567 81.835 58.783 58.783 0 0 0 33.428-28.811c-20.7 101.99 21.761 214.14 104.82 276.84a80.778 80.778 0 0 1-4.0855-43.922 119.78 119.78 0 0 0 53.665 39.365l-2.7179-17.102 18.075 19.069" stroke-width="20.507"/> <path d="m1350.6 1581.5-10.715 50.889a77.122 77.122 0 0 0 55.918-37.728l-6.83 45.276a118.86 118.86 0 0 0 72.705-51.878l-10.096 33.649c59.702-16.743 105.28-74.807 107.36-136.78l4.7399 29.922a185.17 185.17 0 0 0 20.935-136.63" stroke-width="20.507"/> <path d="m1152.6 1373.8a399.34 399.34 0 0 0-152.57 109.44l42.03-17.339a326.7 326.7 0 0 0-92.511 128.38l29.398-14.56a65.6 65.6 0 0 1-18.398 43.296l15.464-1.764c-30.402 42.792-61.598 87.411-71.052 139.05s9.4086 112.44 56.856 134.89c38.097 18.03 82.918 7.5356 123.66-3.2639" stroke-width="20.507"/> <path d="m1030.5 1900.1c5.1368-22.027-4.5447-46.748-23.274-59.428" stroke-width="20.507"/> <path d="m1073.3 1891.9c9.9439-22.992 1.8539-52.385-18.455-67.05" stroke-width="20.507"/> <path d="m1087.3 1640a1432.9 1432.9 0 0 0 24.437 245.62c6.1256 32.65 13.583 65.618 29.708 94.662s42.168 54.072 74.443 61.939 70.432-5.0207 85.814-34.465" stroke-width="20.507"/> <path d="m1290.4 1734.8a303.71 303.71 0 0 0 21.098 158.39l-33.526-28.501a196.77 196.77 0 0 0 25.874 94.747l-12.14-19.977 23.701 43.493" stroke-width="20.507"/> <path d="m1224.8 2030.6a48.185 48.185 0 0 0-2.9554-45.622" stroke-width="18.486"/> <path d="m1266.4 2026.8a46.799 46.799 0 0 0-6.7636-43.721" stroke-width="18.486"/> <path d="m1300.2 1938.2c43.741 23.849 99.539 23.97 143.38 0.31134a227.67 227.67 0 0 1 1.9667-165.84" stroke-width="20.507"/> <path d="m1411.5 1747.3-10.261 37.875a83.47 83.47 0 0 0 53.847-41.852 37.286 37.286 0 0 1-3.1034 34.954l34.856-29.062-0.3573 17.965a118.12 118.12 0 0 0 6.3509-155.85" stroke-width="20.507"/> <path d="m1369.4 1959.2a59.555 59.555 0 0 0-10.326-35.728" stroke-width="20.507"/> <path d="m1402.8 1948.7a43.442 43.442 0 0 0-9.8657-29.651" stroke-width="20.507"/> <path d="m549.36 1194c36.217 237.17 134.49 459.71 231.8 679.01 44.218 99.659 89.204 200.59 157.67 285.44 73.853 91.522 171.66 160.17 268.82 226.43 161.57 110.16 337.33 221.14 532.87 223.31" stroke-width="18.486"/> <path d="m1757.1 2519.9c-28.708-539.49 41.887-1813.6 109.41-2349.6" stroke-width="18.486"/> </g> <g fill="none" stroke-linecap="round" stroke-linejoin="round" data-name="COLOR"> <path d="m546.38 1299.6c7.2206 241.68 14.37 484.74-19.325 724.17-6.2534 44.434-13.925 88.913-13.671 133.78 0.1898 33.581 4.8245 67.041 4.5154 100.62-0.39985 43.435-9.067 86.623-7.2988 130.02s16.326 89.475 51.722 114.65" stroke="#009bdb" stroke-width="45.354"/> <path d="m537.11 1632.8q-33.743 281.97-41.667 566.24" stroke="#009bdb" stroke-width="45.354"/> <path d="m517.59 2528.2c274.68 11.23 550.18 22.541 821.43 67.191 136.19 22.417 272.16 53.303 410.17 51.902" stroke="#009bdb" stroke-width="45.354"/> <path d="m550.48 1328.8c48.996 382.54 233.59 746.33 513.4 1011.8a1699.1 1699.1 0 0 0 606.57 274.63" stroke="#009bdb" stroke-width="45.354"/> <path d="m578.23 1433a1985 1985 0 0 0 341.51 744.42" stroke="#009bdb" stroke-width="45.354"/> <path d="m623.22 1540.1c94.068 368.5 323.68 700.79 635.11 919.1" stroke="#009bdb" stroke-width="45.354"/> <path d="m581.44 1584.5c6.1828 212.65 12.292 426.63-19.088 637.05-7.444 49.914-17.018 100.08-13.81 150.45s20.977 102.13 59.439 134.81" stroke="#009bdb" stroke-width="45.354"/> <path d="m530.67 2209.8a1176.2 1176.2 0 0 0 58.68-319.83" stroke="#009bdb" stroke-width="45.354"/> <path d="m540.06 1887.3-14.758 229.58" stroke="#009bdb" stroke-width="45.354"/> <path d="m566.12 1906.2-25.251 103.81" stroke="#009bdb" stroke-width="45.354"/> <path d="m598.29 1687.9c43.117 180.98 157 335.65 268.23 484.78 50.226 67.342 100.68 134.95 160.14 194.31 137.33 137.09 321.91 225.94 514.72 247.76" stroke="#009bdb" stroke-width="45.354"/> <path d="m1490.9 2582.2c-80.119-18.833-160.64-37.793-236.73-69.173s-148.2-76.019-201.14-139.04" stroke="#009bdb" stroke-width="45.354"/> <path d="m1087.8 2392.2a1147.2 1147.2 0 0 0 190.67 116.01" stroke="#009bdb" stroke-width="45.354"/> <path d="m616.91 1809.1-29.068 155.73 69.044-125.02a1254.6 1254.6 0 0 0-69.483 214.41l99.465-166.36a941.37 941.37 0 0 0-96.228 272.96 1033.5 1033.5 0 0 0 91.879-203.58l-101.01 315.18 149.06-263.06c-51.239 119.94-102.94 241.48-122.6 370.42a791.3 791.3 0 0 0 86.407-234.61c-17.619 61.947-35.385 124.91-35.014 189.31s21.355 131.6 69.923 173.89" stroke="#009bdb" stroke-width="45.354"/> <path d="m591.02 2224.2c-6.7012 47.271-13.417 94.759-12.915 142.5s8.5177 96.125 29.906 138.81c-10.258-57.434-19.852-119.77 6.9644-171.58a361.89 361.89 0 0 0 32.814 145.6c5.1062 11.13 11.171 22.457 21.269 29.385s25.302 7.8706 33.719-1.024" stroke="#009bdb" stroke-width="45.354"/> <path d="m679.53 2061.8a174.96 174.96 0 0 1 35.552-70.29" stroke="#009bdb" stroke-width="45.354"/> <path d="m742.91 2068.2c59.228 107.25 119.07 215.39 199.38 307.91s183.75 169.45 303.18 196.78" stroke="#009bdb" stroke-width="45.354"/> <path d="m744.92 2497.1 478.84 59.809" stroke="#009bdb" stroke-width="45.354"/> <path d="m1199.3 2551a1918.2 1918.2 0 0 1-396.22-419.7" stroke="#009bdb" stroke-width="45.354"/> <path d="m748.04 2073.6a483.32 483.32 0 0 0-67.504 135.88l86.005-109.77-100.1 182.98 107.81-133.9a980.86 980.86 0 0 0-96.804 207.27 1916.2 1916.2 0 0 0 139.07-183.44l-138.85 233.18 130.31-165.44-126.3 227c69.126-49.461 120.62-119.18 170.92-187.71a1041.2 1041.2 0 0 0-147.17 207.13l180.7-163.8-118.29 153.73 172.28-119.83a486.75 486.75 0 0 0-114.66 140.37 507.57 507.57 0 0 0 137.52-98.801l-105.42 111.67 128.1-65.755a278.43 278.43 0 0 1-77.842 65.371 150.36 150.36 0 0 1 76.513-14.942l-10.363 15.97c28.231-10.898 63.378 0.66009 79.632 26.186" stroke="#009bdb" stroke-width="45.354"/> <path d="m1040.9 2504.6c-106.81-51.594-193.04-144.42-236.64-254.73" stroke="#009bdb" stroke-width="45.354"/> <path d="m627.23 494.66 4.4572-14.525q-8.1819 153.32-16.364 306.64 573.58-9.8696 1146.4 34.878" stroke="#009bdb" stroke-width="45.354"/> <path d="m1771.7 820.23a2304.2 2304.2 0 0 1 32.68-368.79" stroke="#009bdb" stroke-width="45.354"/> <path d="m1810.5 445.66a2072.3 2072.3 0 0 0-36.71 360.82" stroke="#009bdb" stroke-width="45.354"/> <path d="m645.66 504.67a6304.6 6304.6 0 0 1 1135.7-25.47" stroke="#009bdb" stroke-width="45.354"/> <path d="m674.11 526.52a2049.3 2049.3 0 0 1 659.51-26.221 5197.6 5197.6 0 0 0-680.34 94.73c189.35-30.226 380.42-60.55 571.88-50.198l-551.39 97.165c184.84-29.171 371.83-58.433 558.3-42.727l-526.95 77.071c192.01-23.887 388.13-47.644 577.66-8.7047q-290.04 15.747-577.59 59.96c212.97-18.005 429.97-35.761 638.4 11.524l-434.95 9.4667a3771.7 3771.7 0 0 1 651.67 40.874" stroke="#009bdb" stroke-width="45.354"/> <path d="m1743.5 781.92a2727.3 2727.3 0 0 1-316.88-27.616 1879.6 1879.6 0 0 0 334.51 3.7238 3082.6 3082.6 0 0 0-412.7-23.061 2509.8 2509.8 0 0 1 402.8-3.7884 4000.5 4000.5 0 0 0-465.3-17.998l468.86-11.097c-164.67-20.678-331.37-15.313-497.25-9.9122l501.75-20.798-507.49-26.535q241.67-11.918 483.75-0.71368a4630 4630 0 0 0-504.58-27.303 3917.9 3917.9 0 0 1 517.25-8.1482q-252.88-17.494-506.65-12.696a5412.6 5412.6 0 0 1 545.78-14.329l-532.02-25.055a4754.6 4754.6 0 0 1 479.38-11.21l-454.72-15.646 435.48-6.3614-372.46-31.269a2123.2 2123.2 0 0 1 348.49-7.9456l-153.22-0.46509" stroke="#009bdb" stroke-width="45.354"/> <path d="m660.81 544.12a1071.3 1071.3 0 0 0-41.361 211.26l97.095-217.99-66.99 239.32 120.55-237.28-64.036 212.72 135.98-225.93-85.959 238.92 178.07-270.24a1110.3 1110.3 0 0 0-110.1 257.48 1603.4 1603.4 0 0 0 172.63-225.38c-48.09 79.583-97.109 161.6-112.72 253.26l129.4-174.09-19.456 109.61" stroke="#009bdb" stroke-width="45.354"/> <path d="m695.93 548.64 319.11-47.746" stroke="#009bdb" stroke-width="45.354"/> <path d="m734.12 774.44a1013.1 1013.1 0 0 1 185.82-28.863" stroke="#009bdb" stroke-width="45.354"/> <path d="m675.89 484.09q546.47-41.274 1095-42.54" stroke="#009bdb" stroke-width="45.354"/> <path d="m1768.1 494.65-69.725 11.763 75.413-0.12867-46.26 13.969 57.193 10.676-44.03 51.649" stroke="#009bdb" stroke-width="45.354"/> <path d="m1886.7 262.23c19.416 224.43 92.467 1439.1 75.647 2175" stroke="#009bdb" stroke-width="45.354"/> <path d="m1877.1 348.75q-82.301 1118.1-85.341 2240.1" stroke="#009bdb" stroke-width="45.354"/> <path d="m1754.3 2646.1a1544.7 1544.7 0 0 0 197.08-180.75" stroke="#009bdb" stroke-width="45.354"/> <path d="m1897.7 688.83-90.996 281.45 67.956-104.37a567.48 567.48 0 0 1-52.135 189.47l82.662-119.15-59.408 221.81 85.191-143.4-97.307 266.24 91.862-138.37-101.01 254.19a510 510 0 0 1 102.06-139.75l-91.196 227.66 103.73-130.61-125.38 282.93 119.22-161.05a1505.5 1505.5 0 0 0-127.13 288.55l125.21-177.52-111.55 283.25 130.81-188.28a1008.6 1008.6 0 0 0-92.797 291.54l106.66-164.87a1564.3 1564.3 0 0 0-123.68 311.21l113.11-137.19-104.14 259.78 99.167-99.818-128.07 284.02 117.29-153.15a986.59 986.59 0 0 1-100.26 246.63" stroke="#009bdb" stroke-width="45.354"/> <path d="m1833.1 2533.5a2999.1 2999.1 0 0 0 6.7578-772.32 2938.4 2938.4 0 0 0-8.125 731.4" stroke="#009bdb" stroke-width="45.354"/> <path d="m1943 2443.4-31.99-836.53" stroke="#009bdb" stroke-width="45.354"/> <path d="m1919 1480.1c-20.321 176.29 0.01248 354.35 6.355 531.69s-2.5902 360.57-76.728 521.8a239.91 239.91 0 0 0 85.337-90.294" stroke="#009bdb" stroke-width="45.354"/> <path d="m1834 2166.1a251.01 251.01 0 0 1-13.636-95.455" stroke="#009bdb" stroke-width="45.354"/> <path d="m1871.7 593.44a3300.1 3300.1 0 0 0 5.9878 445.53" stroke="#009bdb" stroke-width="45.354"/> <path d="m1871.8 784.13 22.596 209.11" stroke="#009bdb" stroke-width="45.354"/> <path d="m1887.2 752.53 8.6918 195.47" stroke="#009bdb" stroke-width="45.354"/> <path d="m1829.8 561.61c-18.325 94.144-73.821 1957.4-68.066 2053.1" stroke="#009bdb" stroke-width="45.354"/> <path d="m1127.6 1402.1-38.763 41.768a23.026 23.026 0 0 0 26.243 4.921l-89.443 67.351 66.615-29.51a422.79 422.79 0 0 0-92.544 77.052 101.32 101.32 0 0 0 49.274-30.124l-61.046 98.548 25.004-21.717c-20.627 28.16-41.405 56.6-55.594 88.493s-21.458 67.942-13.808 102 32.133 65.418 65.638 75.208 74.395-6.6198 86.809-39.244" stroke="#bc9e6c" stroke-width="48.189"/> <path d="m1088.7 1814.3c-18.502 14.045-43.027 28.673-63.278 17.296-14.927-8.3862-19.839-27.334-21.695-44.355a274.11 274.11 0 0 1 36.475-168.22c17.784-29.963 41.144-56.219 60.451-85.225s34.857-62.279 33.924-97.11" stroke="#bc9e6c" stroke-width="48.189"/> <path d="m1008.7 1668.6c-16.727 28.54-33.861 58.316-36.687 91.275s13.132 70.031 44.507 80.517" stroke="#bc9e6c" stroke-width="48.189"/> <path d="m1111.1 1617.1a1465.7 1465.7 0 0 0 29.637 282.03c5.1427 25.154 11.106 50.592 23.837 72.888s33.282 41.366 58.416 46.609 54.394-6.4133 64.417-30.051" stroke="#bc9e6c" stroke-width="48.189"/> <path d="m1293.8 1987.4a197.29 197.29 0 0 1-25.396-124.63 103.05 103.05 0 0 0 156.07 55.477 449.69 449.69 0 0 1-10.306-162.35c37.109 7.2026 71.708-27.746 78.488-64.934s-6.2764-74.814-19.133-110.36c49.936-40.424 77.682-103.21 88.264-166.58s5.7236-128.18 0.83611-192.24l32.647 43.661-8.3069-69.879a233.81 233.81 0 0 1 34.93 99.815c13.022-28.119 5.8489-64.264-16.924-85.278a219.31 219.31 0 0 0 51.944 72.31" stroke="#bc9e6c" stroke-width="48.189"/> <path d="m1666.7 1225.9a116.21 116.21 0 0 1-49.208-82.862" stroke="#bc9e6c" stroke-width="48.189"/> <path d="m1695 1169.6a688.85 688.85 0 0 1-102.81-79.532c-9.2804-8.6972-18.443-17.746-29.455-24.11s-24.344-9.8341-36.59-6.3961-22.571 15.098-21.689 27.786" stroke="#bc9e6c" stroke-width="48.189"/> <path d="m1509.2 1103.9c-35.677-17.163-80.235-14.255-113.38 7.4008-33.626-16.594-76.593-12.145-106.11 10.987a67.048 67.048 0 0 0-95.373-57.601c-23.219 10.857-38.011 33.627-55.499 52.366s-43.256 34.965-67.536 26.752" stroke="#bc9e6c" stroke-width="48.189"/> <path d="m1072.3 1136.3a275.73 275.73 0 0 1 76.025-46.783" stroke="#bc9e6c" stroke-width="48.189"/> <path d="m1090.6 1207.6c20.322-5.3696 40.276-13.815 55.887-27.89s26.447-34.387 25.721-55.394a191.52 191.52 0 0 1-65.715 120.47c50.734-27.538 88.431-78.01 100.44-134.47" stroke="#bc9e6c" stroke-width="48.189"/> <path d="m1195.8 1125.8c24.002-21.304 63.909-21.557 88.18-0.5609" stroke="#bc9e6c" stroke-width="48.189"/> <path d="m1296.2 1124.4c-28.896 28.02-40.23 72.793-28.145 111.19 4.3366 13.778 12.353 27.541 25.607 33.284 7.9326 3.4374 17.007 3.6131 25.455 1.7746 23.071-5.021 41.841-26.054 43.748-49.589s-13.537-47.527-35.901-55.101a121.18 121.18 0 0 1 73.622-33.694" stroke="#bc9e6c" stroke-width="48.189"/> <path d="m1382 1145.4 41.628 34.69" stroke="#bc9e6c" stroke-width="48.189"/> <path d="m1426.6 1176.9c-11.785 5.8798-17.898 19.925-17.372 33.085s6.6139 25.491 13.994 36.4c7.2897 10.776 16.158 20.779 27.395 27.335s25.104 9.349 37.513 5.4423c20.196-6.3581 31.744-29.156 31.054-50.318s-11.076-40.765-22.835-58.373c-12.969-19.42-27.879-37.456-42.76-55.454" stroke="#bc9e6c" stroke-width="48.189"/> <path d="m1456 1154.6-45.594-17.504-5.1331 6.0728" stroke="#bc9e6c" stroke-width="48.189"/> <path d="m1484.4 1121.7 66.713 73.129-41.639-82.063c27.515 18.082 56.738 38.268 67.854 69.259a532.22 532.22 0 0 0-47.346-77.487 135.09 135.09 0 0 1 72.088 49.847" stroke="#bc9e6c" stroke-width="48.189"/> <path d="m1246.9 1137.5a91.085 91.085 0 0 0 14.474 144.93" stroke="#bc9e6c" stroke-width="48.189"/> <path d="m1229.4 1200.9-71.015 73.174 38.878-21.747-42.249 64.1 55.714-33.869c-44.317 94.733-15.522 218.08 66.16 283.39a75.962 75.962 0 0 1-10.831-57.818 187.84 187.84 0 0 0 62.562 73.571l-7.5965-30.424 36.828 56.483 26.446-53.584a127.4 127.4 0 0 1 3.1236 58.518 354.46 354.46 0 0 1 58.879-75.422 87.024 87.024 0 0 1-5.2842 60.627l19.963-10.162" stroke="#bc9e6c" stroke-width="48.189"/> <path d="m1241 1296.7c-30.024 71.568-18.615 158.87 28.791 220.32-11.071-34.153-22.216-68.662-25.371-104.43s2.3385-73.413 22.266-103.28a340.66 340.66 0 0 0 41.211 216.69c-2.7655-32.294-13.407-63.297-22.211-94.49s-15.872-63.763-11.271-95.847 22.961-63.865 52.766-76.6a535.84 535.84 0 0 0-4.0795 246.77c-6.1905-61.511-11.931-126.17 12.633-182.9 14.511-33.515 38.649-61.785 62.433-89.5q-37.38 72.261-74.759 144.52a488.5 488.5 0 0 1 96.628-91.654 446.41 446.41 0 0 1-85.046 76.206l142.84-48.59-118.28 63.686 150.87-34.319-52.031 19.505" stroke="#bc9e6c" stroke-width="48.189"/> <path d="m1479.9 1355.7 16.505 97.466a165.79 165.79 0 0 1-26.203-60.077c3.9383 25.876 15.193 50.177 19.455 76.002s-0.44857 55.934-21.637 71.3l-3.171-57.377a96.499 96.499 0 0 1-47.041 72.632l7.0836-54.514a88.189 88.189 0 0 1-50.535 54.351l8.0362-56.651-43.692 51.424" stroke="#bc9e6c" stroke-width="48.189"/> <path d="m1319.7 1492c48.43 27.803 115.38 17.854 153.63-22.829s44.064-108.12 13.334-154.75c20.644 22.912 29.921 54.271 31.571 85.067s-3.6833 61.491-8.9954 91.87a541.78 541.78 0 0 0 22.28-218.24" stroke="#bc9e6c" stroke-width="48.189"/> <path d="m1384.1 1205.6a141.58 141.58 0 0 0-38.811-60.525" stroke="#bc9e6c" stroke-width="48.189"/> <path d="m1175.8 1477.9c-81.479 83.911-119.43 207.99-98.819 323.12" stroke="#bc9e6c" stroke-width="48.189"/> <path d="m1050.9 1817.3c-34.201-59.133-32.117-137.42 5.1822-194.65" stroke="#bc9e6c" stroke-width="48.189"/> <path d="m1106.8 1435.4a113.85 113.85 0 0 0-70.573 22.899" stroke="#bc9e6c" stroke-width="48.189"/> <path d="m1177.3 1512.1c-59.103 151.76-34.366 333.24 63.197 463.65a909.77 909.77 0 0 1-48.388-466.52 895.89 895.89 0 0 0-14.455 324.03c7.8624 56.634 23.268 116.22 65.644 154.61 14.91-26.536 5.7867-59.445-2.194-88.819a900.46 900.46 0 0 1-26.308-331.03c16.027 53.434 9.9347 110.56 9.5712 166.34s6.8119 115.63 43.325 157.81c-25.091-91.887-49.954-191.14-16.545-280.34l34.434 268.21c16.632-45.062 5.2344-94.943-3.772-142.12s-14.508-99.613 11.444-140.03l25.936 276.17-8.6361-242.57 15.143 1.0133c27.571 37.203 20.67 88.624 13.464 134.37s-11.644 98.147 18.97 132.89a778.59 778.59 0 0 1-3.8049-292.01c41.314 85.719-17.755 194.01 20.722 281.04 22.451-79.419-25.703-170.25 10.277-244.53a145.32 145.32 0 0 1 35.616 75.755l16.358-71.212-10.099 89.223 35.288-76.659-1.8453 59.853" stroke="#bc9e6c" stroke-width="48.189"/> <path d="m1454 1623.5c-65.676 11.986-136.38-7.4818-186.67-51.395" stroke="#bc9e6c" stroke-width="48.189"/> <path d="m1178 1876.3 27.558 107.35a5.8335 5.8335 0 0 1 7.9645-4.1709" stroke="#bc9e6c" stroke-width="48.189"/> </g> <g fill="#211915" opacity=".2" style="mix-blend-mode:multiply" data-name="sombras"> <path d="m2006.7 1844.7q-4.6091-235.67-18.097-471.06-13.485-235.33-35.83-470.04-21.108-221.69-50.111-442.54-3.0264-59.09-6.0522-118.18c-0.28027-5.4722-10.304-13.012-14.553-11.593q-1.7351-22.184-3.7119-44.349l0.08789-3.2646a6.4197 6.4197 0 0 0-0.63525-2.7719c-0.582-4.5797-4.2881-8.7048-8.3735-10.622-3.5942-1.6868-7.544-1.392-7.998 3.1178a1706.5 1706.5 0 0 0-7.5669 231.6q0.49072 13.799 1.227 27.588-1.2817 47.504-2.5635 95.008-4.7183 174.89-9.4365 349.78-1.0042 37.222-2.0088 74.444-5.6748 45.52-12.645 90.867c-0.71094 4.6138 2.4219 8.8547 6.083 11.409a15.333 15.333 0 0 0 3.7554 1.746q-0.26147 9.7051-0.52392 19.41c-0.11279 4.191 4.0332 8.4683 7.3628 10.352 2.0171 1.1414 8.2339 3.3594 8.8364-0.81494q14.053-97.379 23.199-195.37 2.3452 28.41 5.4321 56.754 5.5356 50.808 13.445 101.32a14.926 14.926 0 0 0 8.4214 10.975c2.8545 1.3397 8.4966 1.6517 7.998-3.1178q-11.604-111.02-23.208-222.04-1.8054-33.808-2.564-67.663 0.991-16.294 1.8589-32.595 6.1523-117.72 5.0972-235.68l28.909 564.49c14.027 273.89 30.19 547.78 41.147 821.81 6.1377 153.49 9.0244 307.2 3.125 460.75-25.521 6.7156-53.436-1.6008-68.916-23.595-1.6821-2.3901-12.26-10.326-13.719-3.5015q-8.4756 39.62-16.95 79.24-17.602-7.5568-35.204-15.114c-2.5679-1.1025-6.5083-1.8882-7.7773 1.4382q-34.159 89.544-68.318 179.09c-2.4102 6.3179 9.4399 17.28 15.183 12.555q91.433-75.23 182.87-150.46c14.775-12.156 29.962-23.949 44.385-36.52 6.7436-5.8772 4.8027-13.411 5.063-22.03q0.45044-14.941 0.86572-29.883 1.6274-58.619 2.7036-117.25 4.3477-236.83-0.2876-473.7z"/> <path d="m917.97 2553.7c-0.55078-3.5159-3.2915-6.7978-6.1421-8.771-40.503-28.036-88.037-42.521-136.25-50.382-24.412-3.9807-49.038-6.4983-73.674-8.5969-25.264-2.1523-50.751-3.3088-75.778-7.5625-41.663-7.0813-91.67-27.162-101.38-73.588-3.794-18.14 0.90479-38.851 12.249-53.5 14.138-18.258 36.173-23.171 58.235-19.171 26.144 4.7405 50.152 17.182 76.867 19.283 21.191 1.6672 45.189-2.9377 57.608-21.896 4.3438-6.6316-5.6299-14.299-11.406-15.014-48.074-5.9507-93.814-27.129-130.93-58.026-37.511-31.23-67.117-72.499-83.608-118.51q-3.0945-8.6345-5.5566-17.44l-0.0249-21.879c-0.00439-3.9876-3.3433-7.8806-6.7739-10.06a245.45 245.45 0 0 1-2.5576-32.211c-0.06006-4.6431-4.4668-9.1194-8.4214-10.975-3.187-1.4956-8.0586-1.5574-7.998 3.1179a260.19 260.19 0 0 0 9.3579 65.342l0.18457 160.67c0.05566 48.618-2.1538 98.029 6.707 146.08 7.7178 41.853 26.447 83.528 63.413 107.26 21.773 13.979 46.762 20.013 72.247 22.584 27.998 2.825 56.379 2.5029 84.485 3.2061l205.31 5.1357c2.957 0.07399 4.2466-2.4702 3.835-5.0972z"/> <path d="m1453.5 1619.7c-2.8228-4.7891-9.2402-9.2919-12.885-7.2089q-24.288 13.88-48.576 27.761a16.496 16.496 0 0 0-3.4873-2.4666q1.3469-1.8744 2.6934-3.7488c2.353-3.2749-0.02588-7.4673-2.3481-10.05-1.9434-2.1614-7.4272-6.7891-10.729-4.6847q-5.5086 3.5109-11.017 7.0217-14.342-8.5331-28.682-17.066c-2.3648-1.407-6.6064-3.7278-9.0996-1.146a3.4676 3.4676 0 0 0-0.39551 0.49585q-10.761-5.7894-21.523-11.579c-2.5005-1.3453-6.5361-1.7218-7.7773 1.4381a4.4272 4.4272 0 0 0-0.25732 1.0541 40.305 40.305 0 0 0-7.1475-2.4684 5.6868 5.6868 0 0 0-3.8589 0.27q-13.613-7.2532-27.225-14.506a18.624 18.624 0 0 0-6.2124-3.28c-2.4898-1.0933-6.0054-1.2255-7.1856 1.6494a4.5324 4.5324 0 0 0-4.2002 1.038c-2.4155 2.5015-0.16162 6.8295 1.4629 9.0537q3.0688 4.2004 6.3364 8.246a9.2736 9.2736 0 0 0 2.4517 6.1155 3.6792 3.6792 0 0 0-1.5547 1.029c-1.1406-2.9601-4.0547-5.7789-5.957-7.227a142.86 142.86 0 0 1-32.9-35.476c0.98633-1.817 0.47168-4.454-0.59375-6.2251l-14.843-24.68c-2.1865-3.6354-5.8159-7.4673-10.299-7.9052a6.1814 6.1814 0 0 0-0.873-0.01758 111.62 111.62 0 0 1-13.654-43.507c-0.43115-4.3541-3.6465-8.2495-7.3628-10.352a14.438 14.438 0 0 0-3.792-1.4099q-4.1887-10.95-8.3774-21.9c-1.3384-3.4998-3.5288-7.4394-4.252-11.116-0.67578-3.4371 0.02246-7.2922-0.17725-10.81a79.125 79.125 0 0 0-1.1748-9.7139q-0.26807-9.9419-0.53662-19.884c-0.1416-5.2498-9.9546-16.185-15.403-10.875l-7.5474 7.3547a15.257 15.257 0 0 0-5.9453-4.9899c-2.919-1.3698-8.4102-1.6365-7.998 3.1178q0.31567 3.6383 0.70508 7.2684a163.81 163.81 0 0 0-67.818 51.879c-2.2715 2.9761-0.98145 6.3013 1.4468 9.0764q-7.3052 4.7631-14.61 9.5261c-3.273 2.1338 0.85791 8.3926 2.3481 10.05a20.075 20.075 0 0 0 4.8066 3.904q-6.4988 6.7658-12.691 13.82a115.2 115.2 0 0 0-43.292 50.493q-10.546 11.165-21.093 22.33c-3.7837 4.0054 1.855 11.695 7.6338 14.202l-2.2568 3.2742c-4.4595 6.4684 8.104 18.902 14.387 13.893q0.88916-0.709 1.7788-1.4182a477.06 477.06 0 0 0-23.189 59.992 5.5507 5.5507 0 0 0-4.29 1.063c-13.102 10.318-22.295 24.029-28.094 39.205a3.1078 3.1078 0 0 0-0.88525 1.6113q-0.2666 1.1503-0.53174 2.3032a120.27 120.27 0 0 0-5.5278 25.177c-4.4248 21.808-7.6484 43.935-7.0532 66.021-2.3887 0.59009-3.4136 2.8477-2.623 5.8064q1.5337 5.7374 3.0664 11.475a11.759 11.759 0 0 0 1.2466 2.8926c0.50439 3.5029 1.1152 7.0022 1.8633 10.496a122.35 122.35 0 0 0 39.045 66.114 25.96 25.96 0 0 0 5.7183 4.6492 111.39 111.39 0 0 0 14.976 9.6533c16.35 8.7446 34.761 11.978 52.969 8.2812 3.0005-0.60937 2.3291-4.9565 1.584-6.7993a15.519 15.519 0 0 0-7.6797-8.0356c-3.6299-1.5549-7.1567-3.2817-10.598-5.1392a59.832 59.832 0 0 0 12.687 3.2183c10.301 1.4072 4.2275-10.406-0.38086-13.612-15.009-10.441-30.255-21.131-43.911-33.45a108.23 108.23 0 0 1-5.0776-11.18c-10.093-25.884-10.686-54.184-16.638-81.087q-0.71045-3.212-1.5386-6.3782 2.9604-23.325 8.231-46.251 3.2454-9.5079 6.9688-18.854a5.0425 5.0425 0 0 0 1.311-1.8342l15.324-34.487a6.1731 6.1731 0 0 0-0.40283-5.0666q11.556-28.024 23.113-56.047a325.87 325.87 0 0 1 34.062-47.218c5.2241-6.0206-8.2456-18.7-14.387-13.893l-15.747 12.326c-0.02051-0.03393-0.042-0.06763-0.0625-0.10132q7.2517-7.6772 14.503-15.354 34.958-29.533 69.916-59.066c3.0093-2.5422-0.585-8.0891-2.3486-10.05a18.396 18.396 0 0 0-3.9912-3.3814c-0.19775-0.36084-0.42334-0.72107-0.66455-1.08l24.288-15.835a383.59 383.59 0 0 0 85.146 171.41q2.5679 2.9584 5.1943 5.8535c-1.7983 12.528 6.3135 24.363 17.601 29.552 3.3506 1.5403 7.8008 1.4321 7.998-3.1179a5.9988 5.9988 0 0 0-0.01758-0.66846q8.9062 8.1735 18.326 15.828c3.9614 3.213 11.823 3.1365 9.792-3.7877q-0.60425-2.062-1.209-4.1239c2.523 1.4758 5.6069 2.3315 7.6846 0.56177a115.5 115.5 0 0 0 21.324 11.947c4.7944 2.045 8.6738 0.57654 7.6748-5.0338a105.55 105.55 0 0 0-3.7959-14.879q4.9219 3.5651 10.038 6.8596a13.951 13.951 0 0 0 5.541 2.189c0.60742 5.7283 9.4707 13.15 14.24 10.864q5.3511-2.5649 10.702-5.13c2.5571 5.2079 9.8052 10.892 13.543 8.5089q1.8054-1.151 3.6113-2.3018a13.114 13.114 0 0 0 3.165 5.6658c2.0264 2.2539 7.3101 6.6743 10.729 4.6848q1.2334-0.71814 2.4668-1.4358-1.0591 2.2844-2.1186 4.5693c-2.6509 5.7178 8.3335 15.997 13.873 13.397a297.4 297.4 0 0 0 54.152-32.885c2.8784 1.6503 5.8384 2.0678 7.5679-0.04187q8.8784-10.83 17.757-21.661c2.8164-3.4358-0.36186-9.2015-4.6778-12.552zm-504.79 189.12c0.043-1.4663 0.06738-2.9331 0.08643-4.4002q1.4993 5.6975 3.2407 11.329-1.73-3.4442-3.3272-6.9284zm44.489 87.676c0.356 0.25513 0.71729 0.50342 1.0757 0.75586a20.971 20.971 0 0 0 1.8887 1.625c-1.1831-0.19312-2.3599-0.415-3.5273-0.67773 0.20162-0.56689 0.39059-1.1345 0.56295-1.7031zm213.21-319.99q-9.2227-13.29-17.143-27.386 1.9255 2.2295 3.9473 4.3788a177.31 177.31 0 0 0 15.22 23.535 9.2556 9.2556 0 0 0-2.0244-0.52807zm28.527 33.855q-2.2778-3.301-4.5562-6.6023l5.1899 3.1135a4.8005 4.8005 0 0 0-0.63379 3.4888zm15.116 2.73a3.4052 3.4052 0 0 0 0.94238-0.434c-0.00146 0.62219 0.01123 1.2426 0.0459 1.8591-0.33399-0.47031-0.66211-0.94675-0.98828-1.4251zm77.448 22.286c-0.04395-0.255-0.09814-0.50842-0.14648-0.76282a4.2088 4.2088 0 0 0 3.0342-1.0613q0.14209 0.07562 0.28418 0.15137c0.05029 0.02686 0.10547 0.05078 0.15723 0.0769zm11.217-5.3771a8.3445 8.3445 0 0 0-0.834-2.7378l3.0845 1.6592q-1.1257 0.53923-2.2505 1.0786z"/> <path d="m1317.1 1344.3a88.35 88.35 0 0 0-12.876 20.011c-3.4336-2.7351-7.3589-3.9899-9.5273 0.22192-26.38 51.238-20.196 114.86 12.37 161.8 2.1025 3.03 6.8374 6.6711 10.779 5.8209 4.0532-0.87415 3.3071-4.985 2.0015-7.9624-0.23682-0.53979-0.47363-1.0844-0.71094-1.6271 2.0879 1.8047 4.6831 3.2725 7.2188 3.1067 3.3721-0.22046 4.4898-3.0024 3.6733-6.0549q-11.276-42.159-22.552-84.318 0.62476-4.0701 1.5625-8.0958a5.043 5.043 0 0 0 0.11963-1.1742c1.7007 0.08154 3.2295-0.48144 3.7778-2.4214a81.513 81.513 0 0 0 2.169-34.334 79.69 79.69 0 0 1 16.381-31.079c5.1592-6.0322-9.3813-19.746-14.387-13.893z"/> <path d="m1265.7 1270.8q-9.0432-7.5472-18.086-15.094c-3.0396-2.5367-11.847-7.3857-12.169 0.17163a34.423 34.423 0 0 1-2.8872 12.39 32.926 32.926 0 0 1-2.1186-5.1487 15.523 15.523 0 0 0-7.0396-8.4362c-1.5283-0.86487-4.333-2.1017-6.4136-1.553q0.15234-2.0023 0.43945-4.0028c0.59424-2.4661 1.1055-4.9573 1.5186-7.4734 0.75488-4.5977-2.4492-8.8737-6.083-11.409a14.761 14.761 0 0 0-4.2114-1.9298c-3.2812-5.0471-10.149-9.4277-13.665-5.7361a61.932 61.932 0 0 0-4.0776 4.7395c-2.8745-1.6248-7.3115-2.8572-8.8091 0.8717-0.38477 0.95813-0.78076 1.9103-1.1812 2.8597-0.064 0.04663-0.13135 0.08289-0.19385 0.13306q-22.426 18.064-44.852 36.129c-2.6406 2.1274 0.041 7.1606 1.4634 9.0537 2.2725 3.0262 6.0156 5.8894 9.9429 5.9606a47.254 47.254 0 0 0 4.9517-0.17859c1.9399 5.8228 10.52 11.815 15.154 8.3546a128.63 128.63 0 0 0 11.666-9.8678c0.24658 1.1619 0.51758 2.3206 0.82715 3.4734 1.0962 4.084 10.53 14.309 15.08 8.9592a108.2 108.2 0 0 0 11.402-16.224 16.063 16.063 0 0 0 4.6323 4.0138c1.9873 1.1245 6.1367 2.8905 8.04 0.52307q2.2119-2.7504 4.4233-5.5009a65.562 65.562 0 0 0 10.995 11.181c1.7554 1.4168 7.2046 3.8379 9.0991 1.1461a44.763 44.763 0 0 0 7.0156-15.228q3.6086 3.0117 7.2173 6.0236c2.602 2.1713 7.8784 6.0795 11.153 2.8463 3.0273-2.9892-0.86573-9.0706-3.2334-11.047z"/> <path d="m1634.7 1318.6q-4.3923-10.662-8.7842-21.324a198.07 198.07 0 0 0-16.711-40.569c-2.0522-3.7378-6.5957-8.323-11.263-8.0333a6.376 6.376 0 0 0-0.92969 0.12732 15.097 15.097 0 0 0-2.1543-1.2441c-2.9062-1.364-8.4268-1.6396-7.998 3.1177 0.28271 3.1376 0.68066 6.2543 1.1484 9.3557-3.5503-3.0746-10.675-7.0537-11.934-1.6238a277.42 277.42 0 0 0-7.104 57.577 149.66 149.66 0 0 0 4.0562 53.461 14.929 14.929 0 0 0 10.173 9.824c4.4805 1.0029 6.3013-1.6921 5.5996-5.7986a258.98 258.98 0 0 1-3.6309-47.027 137.23 137.23 0 0 1 4.1836-22.67c0.584-2.1367-0.40088-4.6935-2.123-7.0269q0.67236-5.3445 1.5644-10.657a138.67 138.67 0 0 1 8.0381 27.516c0.76074 4.1024 5.3882 8.1685 9.1352 9.4415 1.6934 0.57532 4.3452 0.72949 5.8594-0.35571q3.3779 5.2108 7.1548 10.183c2.0884 2.7335 5.4487 5.4876 8.98 5.8324 2.5327 0.24732 5.2344-0.95117 4.96-4.0109-0.24023-2.6809-0.5498-5.3508-0.897-8.0139 4.6581-0.39502 4.017-4.8286 2.6766-8.0823z"/> <path d="m1668.3 1247.3a94.9 94.9 0 0 0-33.329-40.873q-5.655-6.8544-11.31-13.708c-2.4014-2.9111-6.6152-6.719-10.779-5.821-4.0298 0.86938-3.3408 4.9929-2.001 7.9624 0.23975 0.532 0.49951 1.0549 0.751 1.5815a3.5216 3.5216 0 0 0-1.6436 1.9127c-1.2949 3.2977 1.8232 7.6252 4.0298 9.7086l33.311 31.451 8.1904 9.9281c2.4019 2.9113 6.6152 6.719 10.779 5.821 4.0938-0.88304 3.2471-4.9719 2.001-7.9624z"/> <path d="m1663.6 1149.1c-2.7432-1.8809-8.1372-3.9988-9.895 0.192a4.5664 4.5664 0 0 0-0.33545 1.7718q-7.4773-8.5012-14.954-17.003c-2.3462-2.6675-5.9751-6.22-9.9434-5.9604-3.1465 0.20581-4.8144 3.0503-3.6733 6.0549a92.749 92.749 0 0 0 44.599 49.838c2.3628 1.2102 6.7109 1.8396 7.7773-1.4381 4.1655-12.799-2.9946-26.201-13.575-33.455z"/> <path d="m1236.9 2036c-0.709-4.5244-4.5142-7.8572-8.2598-10.017a205.56 205.56 0 0 1-41.145-31.375 85.657 85.657 0 0 1-11.328-23.139c-1.3799-4.4087-5.5737-8.7944-10.173-9.824-2.0703-0.46362-3.7158-0.06641-4.7275 0.95044a58.359 58.359 0 0 1-3.2695-16.023q0.24024 0.27173 0.48145 0.5437c2.5244 2.8494 7.2983 7.4941 11.614 5.6814 4.2373-1.7798 1.7051-7.3828-0.15332-9.8955a154.44 154.44 0 0 1-22.219-42.746 10.18 10.18 0 0 0 4.4775 1.6279c3.6499 0.35645 5.8198-2.2385 4.6367-5.9268a418.88 418.88 0 0 1-15.318-65.257 13.003 13.003 0 0 0 2.9409 1.4541c3.3354 1.1333 6.6719 0.613 6.9604-3.5002a82.732 82.732 0 0 0-9.3882-43.818 205.68 205.68 0 0 1 11.342-92.619c1.5317-4.1873-3.0952-9.3137-6.083-11.409q-18.128-12.712-36.256-25.423c-2.727-1.9121-8.1465-3.9766-9.895 0.19214-1.0029 2.3921 0.2959 5.2234 2.1157 7.5606a3.0946 3.0946 0 0 0-1.3115 1.5627c-3.1011 0.05933-4.6377 2.4658-3.8184 5.9858a102.05 102.05 0 0 0 8.4341 23.058q0.32007 0.876 0.64063 1.7524-1.4099-2.6755-2.728-5.397a13.359 13.359 0 0 0-1.2959-2.7358q-2.7458-5.9418-5.0435-12.073c-1.6401-4.3889-5.4053-8.7568-10.173-9.824a5.8176 5.8176 0 0 0-3.6621 0.24878c-0.03369-3.2715-0.10156-6.5435-0.23047-9.8148-0.18408-4.6731-4.3867-9.0815-8.4214-10.975-3.0903-1.4503-8.1836-1.5886-7.998 3.1178a330.49 330.49 0 0 1-32.102 155.31c-2.8291 5.925 9.9941 17.749 15.183 12.555q6.471-6.4786 12.942-12.958 0.32813 5.2577 0.65674 10.516c0.29346 4.6963 4.3169 9.0491 8.4214 10.975a10.512 10.512 0 0 0 2.2246 0.76123 367.86 367.86 0 0 0 5.0283 39.24c0.91943 5.0293 12.966 14.134 15.61 8.0706 2.2007-0.08569 4.1265-1.1003 3.7632-3.9514l-0.4624-3.6272c3.0132 1.1304 7.7632 1.0666 7.3882-3.3728a324.31 324.31 0 0 0-7.333-46.438l-0.23877-1.5102a13.802 13.802 0 0 0-0.877-3.1101q-3.0908-12.403-7.1733-24.549a14.874 14.874 0 0 0-1.2891-2.7878q-1.552-10.346-3.623-20.62c-0.74317-3.6504-7.3076-9.5772-11.834-10.063a339.6 339.6 0 0 0 10.287-75.307q5.2581 16.711 10.516 33.421c-3.9014-0.52856-5.4898 2.0786-4.8184 5.9387l1.8579 10.683c-3.6948-0.40772-5.5161 2.1221-4.6728 5.9495q12.363 56.08 24.725 112.16c-2.8169-0.66992-6.5034-0.15039-6.1597 3.7251a241.09 241.09 0 0 0 22.837 82.539l11.898 42.608c1.2319 4.4119 5.6704 8.8159 10.173 9.8237 3.6084 0.80786 5.6841-0.88184 5.7827-3.845a79.779 79.779 0 0 0 13.381 14.676 18.949 18.949 0 0 0 5.2925 3.458c0.69873 0.71753 1.3965 1.4365 2.104 2.1455a117.51 117.51 0 0 0 51.785 39.634c0.04834 0.02783 0.0957 0.05762 0.144 0.08545l-0.00537-0.03247c0.69189 0.269 1.3828 0.54126 2.0806 0.79736 3.5595 1.3063 6.3061-1.3639 5.7612-4.8405zm-115.79-233.37a7.2099 7.2099 0 0 0 1.4453 0.30127q0.5105 5.068 1.1465 10.121z"/> <path d="m1425.8 1917.9c-4.2329-4.3672-4.5913-11.566-3.2124-17.134 1.647-6.6492-11.934-19.467-15.978-11.217q-3.1428 6.412-6.2861 12.824-2.2317-7.1916-4.4634-14.383a15.812 15.812 0 0 0-8.0981-9.0591 10.389 10.389 0 0 0-4.833-0.92358 181.87 181.87 0 0 0-35.976-40.697q-5.5869-13.158-11.174-26.316-13.29-31.298-26.579-62.596c-1.5791-3.7195-12.493-12.722-15.039-5.574a63.479 63.479 0 0 0-3.165 28.011 5.6256 5.6256 0 0 0-0.60205 0.4502c-12.429 10.773-8.5186 29.374-1.1655 41.825 7.3823 12.5 16.715 24.077 25.796 35.6 0.39844 0.85986 0.792 1.7222 1.1992 2.5769a7.9756 7.9756 0 0 0-3.7065-0.78394c-3.334 0.218-4.5449 3.0083-3.6733 6.0549a156.23 156.23 0 0 0 11.532 28.968c-0.58887-0.96777-1.1821-1.9326-1.79-2.8887-2.2944-3.6089-5.7398-7.46-10.299-7.9053-3.4883-0.34058-6.0498 2.2527-4.6367 5.9268 0.26563 0.69067 0.56348 1.3638 0.84131 2.0478l-0.00439-7.3e-4 0.01221 0.02026a117.98 117.98 0 0 0 11.538 21.679 157.52 157.52 0 0 1 7.0815 19.704c-9.6636-8.7974-16.02-20.784-18.748-33.789-0.86426-4.1186-5.314-8.1431-9.1357-9.4414-2.7373-0.93018-7.5024-0.7749-6.9604 3.5002q1.1374 8.9692 3.0566 17.753a4.2716 4.2716 0 0 0-0.44434 4.419q3.5405 9.3527 7.081 18.706c0.75342 2.0989 1.5376 4.1892 2.3716 6.2659 1.7568 4.374 5.332 8.7402 10.173 9.824 3.7993 0.85059 7.1787-1.6267 5.5996-5.7986q-0.73462-1.9413-1.4697-3.8823a95.193 95.193 0 0 0 19.666 14.197c4.6763 2.5391 8.7261 0.21021 7.6748-5.0337q-1.1118-5.5441-2.5938-10.999a118.55 118.55 0 0 0 19.507 12.872c5.625 2.9546 8.502-0.70337 7.354-5.4712a11.101 11.101 0 0 0 9.813-1.188 9.9121 9.9121 0 0 0 6.6089 0.21338c3.1772-1.1152 5.1089-4.0435 6.1948-7.1333q3.9287 4.3535 8.0234 8.5752c2.3584 2.4202 8.0478 5.9126 11.153 2.8462 2.2944-2.2659 0.72559-5.8403-1.1348-8.4927a5.6672 5.6672 0 0 0 1.1186-1.5854q2.5005-5.101 5.001-10.202a49.016 49.016 0 0 0 4.8506 5.8362c2.352 2.4263 8.0522 5.9084 11.153 2.8464 3.1946-3.1551-1.091-8.8355-3.2341-11.047zm-56.734-39.365a141.58 141.58 0 0 1 8.5542 14.789q-0.26953 1.4769-0.53906 2.9539-3.2366-4.5396-6.291-9.2053-0.86135-4.2689-1.7242-8.5374zm-58.556-93.415a14.474 14.474 0 0 0-2.2646-1.4087c-0.397-2.0442-0.70508-4.0998-0.90332-6.1653q1.585 3.7862 3.168 7.574zm19.808 119.32q-2.1284-4.745-4.5435-9.356 3.4497 5.6495 7.3667 11.009c2.8735 3.9243 5.9507 7.7256 9.1929 11.378a84.388 84.388 0 0 1-12.016-13.031zm32.093 17.098a0.1863 0.1863 0 0 0-0.041 0.0625c-0.68262-0.54-1.5181-1.4914-1.9004-1.8474-1.0825-1.0076-2.1343-2.0471-3.1836-3.0894-0.959-2.0168-1.9478-4.0183-2.938-6.019a4.4218 4.4218 0 0 0 2.73-2.1809 18.849 18.849 0 0 0 3.1211 1.8818 68.333 68.333 0 0 0 2.5889 10.808c-0.12406 0.12813-0.24027 0.25606-0.37699 0.38476z"/> </g> <g fill="#211915" data-name="LINEAS"> <path d="m1750.9 2681.5c-46.936 0-1155.2-124.33-1228.9-134.16a8.5084 8.5084 0 0 1-4.3691-1.9375c-0.793-0.6709-19.594-16.79-34.787-47.899-13.915-28.493-27.369-75.624-12.437-138.34 13.936-58.528 11.623-105.24 7.2295-134.12-4.7627-31.304-12.93-49.006-13.012-49.181a8.5648 8.5648 0 0 1-0.78027-4.3096l161.92-1988.9a8.5038 8.5038 0 0 1 8.4756-7.814h261.11c97.942 0 254.04-22.992 391.75-43.277 62.932-9.269 122.37-18.025 168.38-23.334 142.57-16.45 402.49-60.736 405.1-61.182a8.5041 8.5041 0 0 1 9.8311 7.0571c0.5 3.1714 50.18 318.79 61.19 461.92 3.3652 43.759 7.8203 105.29 12.535 170.43 10.763 148.65 24.155 333.66 31.887 407.11 5.8086 55.176 14.321 267.13 20.182 452.71 5.4434 172.36 10.706 388.96 7.6221 432.12-3.5654 49.91-1.7617 187.58-0.3125 298.2 0.81641 62.328 1.5215 116.16 1.21 145.73-0.57812 55.037-76.423 132.14-109 162.74-51.031 47.921-117.16 96.432-144.82 96.432zm-1224-150.67c50.425 6.5068 338.44 39.125 625.63 70.84 356.23 39.339 579.92 62.825 598.37 62.825 17.093 0 74.686-36.896 133.18-91.822 64.543-60.607 103.29-116.88 103.64-150.52 0.30957-29.372-0.39453-83.107-1.21-145.33-1.4531-110.94-3.2617-249 0.35449-299.63 5.4092-75.722-16.638-776.25-27.753-881.84-7.7607-73.729-21.165-258.89-31.936-407.66-4.7148-65.123-9.167-126.63-12.53-170.35-9.9453-129.29-51.694-400.63-59.704-452.08-46.185 7.7954-269.13 45.058-397.51 59.872-45.746 5.2778-105.06 14.015-167.86 23.264-138.29 20.37-295.04 43.458-394.23 43.458h-253.27l-161.1 1978.9c5.6152 13.273 31.806 83.859 5.9814 192.32-10.976 46.098-7.3359 88.558 10.816 126.2 11.053 22.92 24.436 36.996 29.134 41.527z"/> <path d="m618.07 477.35a8.5041 8.5041 0 0 1-0.7666-16.973 11119 11119 0 0 1 1216.7-44.271 8.5039 8.5039 0 1 1-0.31641 17.005 11102 11102 0 0 0-1214.8 44.203q-0.39694 0.03662-0.7861 0.03613z"/> <path d="m1704.1 279.38a2.8349 2.8349 0 0 1-0.18457-5.6636c25.4-1.6856 51.131-3.0762 76.015-4.4209 19.275-1.0415 39.207-2.1186 58.697-3.3188a2.8344 2.8344 0 1 1 0.34766 5.6582c-19.511 1.2017-39.453 2.2793-58.739 3.3218-24.866 1.3438-50.579 2.7334-75.945 4.417-0.06349 0.0039-0.12696 0.00634-0.19044 0.00634z"/> <path d="m1565.2 287.58a2.8348 2.8348 0 0 1-0.166-5.6646q39.428-2.3591 78.857-4.6821a2.8345 2.8345 0 1 1 0.334 5.6592q-39.428 2.3232-78.854 4.6821c-0.05764 0.00342-0.11428 0.00537-0.1719 0.00537z"/> <path d="m1407.5 297.16a2.8348 2.8348 0 0 1-0.252-5.6582c15.105-1.3633 30.533-2.0698 45.453-2.7529 15.509-0.71 31.545-1.4443 47.341-2.9175a2.8346 2.8346 0 0 1 0.52734 5.6445c-15.93 1.4858-32.034 2.2231-47.609 2.9365-14.857 0.68018-30.222 1.3838-45.202 2.7358q-0.13033 0.01172-0.25777 0.01172z"/> <path d="m1277.8 305.26a2.8349 2.8349 0 0 1-0.17578-5.6641q33.141-2.0925 66.282-4.1597a2.8346 2.8346 0 0 1 0.35352 5.6582q-33.141 2.0669-66.278 4.1597-0.09083 0.00586-0.18165 0.00586z"/> <path d="m1118.7 315.45a2.8347 2.8347 0 0 1-0.1709-5.6641c12.467-0.76514 25.076-1.6758 37.271-2.5571 20.6-1.4878 41.9-3.0269 63.241-3.915a2.8345 2.8345 0 0 1 0.23633 5.6641c-21.256 0.88525-42.513 2.4209-63.069 3.9058-12.21 0.88184-24.835 1.794-37.332 2.5606-0.0596 0.00386-0.11819 0.00582-0.17678 0.00582z"/> <path d="m938.73 327.33a2.8347 2.8347 0 0 1-0.207-5.6616c20.246-1.5059 40.687-2.7856 60.454-4.0234 18.797-1.1768 38.234-2.394 57.432-3.8013a2.8347 2.8347 0 1 1 0.41406 5.6543c-19.228 1.4092-38.68 2.6274-57.491 3.8052-19.751 1.2368-40.175 2.5156-60.389 4.0186-0.07132 0.00537-0.14261 0.0083-0.21292 0.0083z"/> <path d="m806.21 336.31a2.8349 2.8349 0 0 1-0.19141-5.6631q32.432-2.2244 64.865-4.4243a2.8346 2.8346 0 1 1 0.38281 5.6562q-32.43 2.2002-64.859 4.4243c-0.0664 0.0044-0.13183 0.00684-0.19726 0.00684z"/> <path d="m762.04 372.1c-16.906 4.9e-4 -32.695-4.5718-44.466-9.2764-12.578-5.0273-24.515-11.606-36.069-18.509-6.1592-1.5107-12.376-3.3076-18.066-6.6211-7.958-4.6338-13.211-11.605-14.411-19.128-1.5576-9.7559 4.3301-19.773 13.402-22.805a18.949 18.949 0 0 1 14.519 1.2959 17.657 17.657 0 0 1 9.0547 10.354 17.263 17.263 0 0 1-2.3379 14.468 16.16 16.16 0 0 1-11.728 7.457 2.8345 2.8345 0 0 1-0.56641-5.6406 10.534 10.534 0 0 0 7.5644-4.9419 11.558 11.558 0 0 0 1.6572-9.6499 12.205 12.205 0 0 0-6.2246-6.9985 13.258 13.258 0 0 0-10.142-0.96729c-6.4072 2.1416-10.715 9.5591-9.6016 16.535a17.99 17.99 0 0 0 2.8926 7.1411 2.833 2.833 0 0 1 2.9502-0.00684c3.4268 2.0767 6.8418 4.1826 10.258 6.2896 4.2754 2.6362 8.5908 5.2978 12.955 7.9136q1.4033 0.33911 2.7988 0.6665l99.476 23.519a2.8347 2.8347 0 0 1 0.167 5.4722 83.05 83.05 0 0 1-24.082 3.4327zm-60.698-23.084a195.94 195.94 0 0 0 18.336 8.543c13.633 5.4497 32.893 10.726 52.657 8.2417z"/> <path d="m677.89 395.36a17.246 17.246 0 0 1-3.624-0.38037c-9.3516-2.0098-16.312-11.314-15.844-21.182 0.36035-7.6089 4.8096-15.119 12.206-20.605 5.292-3.9243 11.271-6.398 17.225-8.5806 10.72-8.1382 21.854-15.998 33.798-22.386 16.39-8.7661 41.398-18.206 67.481-13.394a2.8347 2.8347 0 0 1 0.43848 5.457l-96.262 34.383q-1.3491 0.48193-2.707 0.97217c-4.0469 3.081-8.04 6.2031-11.996 9.2954q-4.7446 3.7097-9.5029 7.3892a2.8309 2.8309 0 0 1-2.9053 0.333 17.955 17.955 0 0 0-2.1133 7.4048c-0.334 7.0557 4.7676 13.951 11.373 15.37a13.251 13.251 0 0 0 9.9727-2.0835 12.206 12.206 0 0 0 5.4111-7.6445 11.554 11.554 0 0 0-2.7158-9.4077 10.557 10.557 0 0 0-7.9688-4.0742c-0.041 0-0.08594 0.00146-0.126 4.9e-4a2.8346 2.8346 0 0 1-0.03027-5.669 16.151 16.151 0 0 1 12.48 6.1133 17.264 17.264 0 0 1 3.9248 14.12 17.657 17.657 0 0 1-7.8525 11.293 19.487 19.487 0 0 1-10.663 3.2749zm96.754-82.161c-19.51 0-37.613 7.23-50.319 14.026a196.13 196.13 0 0 0-17.277 10.52l68.699-24.538q-0.55225-8e-3 -1.1025-0.0078z"/> <path d="m1804.7 848.18c-0.03223 0-0.06348-1e-3 -0.09473-2e-3 -219.69-7.2202-441.13-10.834-662.37-10.834-184.4 0-368.64 2.5083-551.77 7.5298a2.8346 2.8346 0 1 1-0.15625-5.667c402.97-11.048 811.58-9.9365 1214.5 3.3052a2.8348 2.8348 0 0 1-0.09082 5.668z"/> <path d="m713.97 766.88a9.0526 9.0526 0 0 1-0.99023-0.05469 8.914 8.914 0 0 1-7.8799-9.8398c8.5908-77.685 16.194-156.79 22.6-235.11a8.9134 8.9134 0 0 1 17.768 1.4531c-6.419 78.491-14.039 157.76-22.648 235.62a8.9142 8.9142 0 0 1-8.8486 7.9346z"/> <path d="m731.55 637.47a8.9139 8.9139 0 0 1-0.36035-17.82q16.134-0.66431 32.332-1.415c17.649-0.79541 35.899-1.6177 53.667-2.2266 16.353-0.56055 32.61-2.4199 40.786-12.146 3.5947-4.2773 6.3174-12.831 7.1064-22.323 1.3389-16.108 1.8369-28.381-3.9746-39.658-7.6504-14.848-33.855-20-55.789-17.413-8.5176 1.0039-17.292 2.4565-25.777 3.8618-15.716 2.602-31.968 5.293-48.593 5.5791-0.05176 1e-3 -0.10449 0.00146-0.15625 0.00146a8.9135 8.9135 0 0 1-0.15039-17.826c15.313-0.26416 30.907-2.8462 45.987-5.3428 8.6875-1.4385 17.671-2.9263 26.602-3.979 28.08-3.3086 61.764 3.7402 73.725 26.952 7.9551 15.438 7.375 31.461 5.8926 49.3-0.52539 6.3257-2.6709 22.139-11.225 32.317-14.408 17.142-40.048 18.021-53.822 18.493-17.673 0.60547-35.874 1.4258-53.476 2.2188q-16.213 0.731-32.4 1.4185c-0.12497 0.00483-0.24997 0.00727-0.374 0.00776z"/> <path d="m792.14 774.59q-0.39258 0-0.792-0.03467a8.9131 8.9131 0 0 1-8.0967-9.6611c3.502-39.77 6.79-80.112 9.7725-119.91a8.9136 8.9136 0 1 1 17.777 1.332c-2.9883 39.871-6.2822 80.291-9.792 120.14a8.9144 8.9144 0 0 1-8.8691 8.1324z"/> <path d="m799.17 690.68a8.9141 8.9141 0 0 1-6.9951-14.432c17.677-22.427 48.085-34.08 77.473-29.689a8.9138 8.9138 0 0 1-2.6348 17.632c-22.812-3.4116-47.263 5.8691-60.836 23.093a8.899 8.899 0 0 1-7.0068 3.3965z"/> <path d="m938.18 769.99a142.23 142.23 0 0 1-15.187-0.78125c-17.225-1.8472-41.843-10.956-54.537-30.548a60.367 60.367 0 0 1-7.8838-45.704c2.9883-13.429 10.051-26.685 20.991-39.399 10.672-12.401 22.412-20.993 34.895-25.537 16.111-5.8643 33.886-4.1816 46.383 4.396 14.938 10.251 20.796 30.788 13.059 45.778-7.0957 13.747-21.299 19.067-33.831 23.761-7.3545 2.7549-14.302 5.3564-19.199 9.249a8.9138 8.9138 0 0 1-11.092-13.957c7.1016-5.6431 15.712-8.8682 24.038-11.987 10.439-3.9102 20.299-7.603 24.242-15.243 4.0186-7.7852-0.625-18.318-7.3047-22.903-7.832-5.375-19.402-6.2715-30.197-2.3423-9.5781 3.4868-18.823 10.354-27.479 20.413-9.0049 10.465-14.76 21.111-17.103 31.643a42.435 42.435 0 0 0 5.4424 32.138c8.6914 13.414 27.095 20.974 41.477 22.517 17.961 1.9258 36.437-0.605 53.821-3.3618a8.9138 8.9138 0 0 1 2.793 17.607c-13.876 2.2002-28.448 4.2612-43.328 4.2612z"/> <path d="m1015.1 772.21a8.9211 8.9211 0 0 1-8.8545-10.028 1115.5 1115.5 0 0 0 8.6104-126.73 8.9136 8.9136 0 0 1 17.826 0.19434 1133.5 1133.5 0 0 1-8.749 128.76 8.9156 8.9156 0 0 1-8.833 7.8008z"/> <path d="m1089.7 765.16a9.0411 9.0411 0 0 1-0.94922-0.05029 8.9139 8.9139 0 0 1-7.9258-9.8027c2.9492-27.849 4.9316-54.927 5.8916-80.484 0.23535-6.2642 0.25879-12.189-2.0049-15.84-3.7725-6.085-13.204-7.1738-20.14-6.2602-12.718 1.6782-25.807 9.6909-34.16 20.912a8.9132 8.9132 0 1 1-14.299-10.646c11.297-15.174 28.54-25.619 46.126-27.94 12.785-1.6875 29.384 1.2451 37.625 14.541 4.9072 7.9155 4.9961 17.136 4.667 25.902-0.97461 25.958-2.9863 53.444-5.9775 81.692a8.916 8.916 0 0 1-8.8535 7.9761z"/> <path d="m1171 778.41q-0.33545 0-0.67676-0.02539a8.9138 8.9138 0 0 1-8.2216-9.5552c0.82617-11.014 1.5127-22.404 2.1777-33.42 1.1328-18.785 2.3047-38.209 4.2051-56.442 1.0342-9.9312-0.48144-19.013-3.7705-22.597-3.6377-3.9658-11.417-3.9917-17.309-3.3184-15.101 1.7324-31.205 8.9922-44.183 19.917a8.9133 8.9133 0 1 1-11.48-13.638c15.818-13.317 34.865-21.837 53.632-23.99 14.556-1.6699 25.479 1.3511 32.476 8.9766 9.8613 10.748 9.1357 29.104 8.3662 36.497-1.8604 17.847-3.0205 37.074-4.1416 55.668-0.66894 11.08-1.3594 22.536-2.1953 33.68a8.9144 8.9144 0 0 1-8.879 8.2476z"/> <path d="m1206.3 767.3q-0.43213 0-0.87109-0.042a8.9139 8.9139 0 0 1-8.0117-9.7319c3.4014-35.093 6.6816-70.754 9.75-105.99a8.9135 8.9135 0 1 1 17.76 1.5459c-3.0732 35.295-6.3584 71.014-9.7656 106.16a8.9146 8.9146 0 0 1-8.8613 8.0542z"/> <path d="m1224 639.52h-0.00488a28.327 28.327 0 0 1-20.139-8.166c-10.288-10.446-11.469-28.324-2.6875-40.701a26.843 26.843 0 0 0 6.0273-6.0762c12.448-9.0415 30.59-6.4731 39.617 5.6113 8.999 12.048 7.7617 30.536-2.7598 41.211a28.213 28.213 0 0 1-20.054 8.1201zm-7.5674-39.763a8.9332 8.9332 0 0 1-0.72461 1.2114c-3.8027 5.3608-3.4141 13.547 0.84961 17.876a10.427 10.427 0 0 0 7.4404 2.8481h2e-3a10.31 10.31 0 0 0 7.3564-2.8066c4.3594-4.4228 4.919-13.016 1.1738-18.029-3.2627-4.3682-10.204-5.2358-14.855-1.8574a9.0088 9.0088 0 0 1-1.2422 0.7573z"/> <path d="m1295.4 762.66c-14.069 4.9e-4 -28.287-7.9966-37.069-18.334-11.043-12.999-16.885-33.135-15.628-53.865 1.042-17.192 5.3896-34.058 10.138-51.262a8.914 8.914 0 0 1 17.186 4.7432c-4.4863 16.255-8.5908 32.126-9.5283 47.597-0.76074 12.545 1.8398 29.968 11.419 41.244 6.5859 7.751 20.621 16.021 31.2 10.136 6.6533-3.6992 12.4-11.192 16.183-21.099 9.6943-25.393 11.811-51.934 13.415-81.501a8.9135 8.9135 0 0 1 17.801 0.96582c-1.624 29.947-3.9609 59.127-14.562 86.894-3.7314 9.7754-10.955 22.971-24.173 30.321a33.35 33.35 0 0 1-16.381 4.1597z"/> <path d="m1379.7 762.79c-0.16309 0-0.32617-0.00439-0.49023-0.01367a8.9128 8.9128 0 0 1-8.418-9.3828c2.4824-45.789 4.7305-92.423 6.6846-138.61a8.9132 8.9132 0 1 1 17.811 0.75293c-1.956 46.255-4.208 92.961-6.6943 138.82a8.9146 8.9146 0 0 1-8.8926 8.4316z"/> <path d="m1454 776.58a9.0279 9.0279 0 0 1-1.002-0.05615 8.9138 8.9138 0 0 1-7.8672-9.8496c1.4756-13.187 2.8994-26.667 4.2754-39.704 1.6328-15.457 3.3213-31.44 5.1006-46.981 1.3398-11.698 2.3213-25.042-3.0391-35.361-4.6074-8.8716-17.496-11.556-26.796-8.9565-11.502 3.2158-21.907 11.796-32.438 21.058a8.9134 8.9134 0 1 1-11.773-13.386c11.656-10.253 24.302-20.617 39.41-24.841 16.136-4.5117 38.236 0.23291 47.417 17.908 7.3125 14.078 6.6904 30.239 4.9297 45.607-1.7705 15.462-3.4541 31.406-5.082 46.825-1.3799 13.063-2.8066 26.572-4.2881 39.814a8.9157 8.9157 0 0 1-8.8476 7.9233z"/> <path d="m1532.7 783.04a8.9218 8.9218 0 0 1-8.794-10.434c4.583-26.512 8.1787-53.812 11.656-80.213q1.1821-8.9678 2.3613-17.832c1.9033-14.208 0.64063-22.15-0.75293-26.312-3.5596-10.622-17.195-18.237-27.536-15.364-13.646 3.7861-24.524 11.928-37.326 22.179a8.9136 8.9136 0 1 1-11.143-13.916c13.923-11.148 26.821-20.758 43.703-25.442 19.594-5.4321 42.588 7.126 49.206 26.88 2.9404 8.7793 3.4375 20.012 1.5186 34.339q-1.1836 8.8389-2.3564 17.795c-3.5 26.576-7.1201 54.057-11.765 80.922a8.9171 8.9171 0 0 1-8.7725 7.3964z"/> <path d="m1570.4 588.69a8.9142 8.9142 0 0 1-5.5449-15.898 327.46 327.46 0 0 0 41.097-38.881 8.9137 8.9137 0 1 1 13.295 11.877 345.06 345.06 0 0 1-43.313 40.972 8.8776 8.8776 0 0 1-5.5332 1.9301z"/> <path d="m1597.1 649.66a8.915 8.915 0 0 1-3.0234-17.301c17.625-6.3545 35.488-12.885 53.094-19.409a8.9139 8.9139 0 0 1 6.1953 16.717c-17.655 6.5425-35.568 13.091-53.242 19.463a8.9014 8.9014 0 0 1-3.0234 0.53076z"/> <path d="m1643.9 788.25a8.8722 8.8722 0 0 1-5.4365-1.8555c-15.673-12.087-31.601-24.218-47.339-36.055a8.9133 8.9133 0 1 1 10.715-14.247c15.797 11.88 31.781 24.055 47.511 36.185a8.914 8.914 0 0 1-5.4502 15.973z"/> <path d="m1041.8 1182.5a10.256 10.256 0 0 1-8.8887-15.35 108.07 108.07 0 0 0 14.244-52.259 10.254 10.254 0 0 1 5.0312-8.6997l91.645-54.234c15.845-9.3765 33.803-20.003 54.679-21.861 32.765-2.9058 61.536 16.401 88.189 36.436a10.254 10.254 0 1 1-12.322 16.393c-24.441-18.372-48.469-34.673-74.051-32.401-16.247 1.4453-32.081 10.815-46.052 19.083l-86.818 51.378a128.66 128.66 0 0 1-16.748 56.355 10.251 10.251 0 0 1-8.9082 5.1602z"/> <path d="m1061.4 1191.7a10.255 10.255 0 0 1-4.5107-19.468 69.952 69.952 0 0 0 37.559-49.946 10.253 10.253 0 1 1 20.199 3.5391 90.796 90.796 0 0 1-48.752 64.831 10.219 10.219 0 0 1-4.4951 1.0439z"/> <path d="m1090.2 1200.5a10.255 10.255 0 0 1-2.0967-20.29 85.683 85.683 0 0 0 59.158-47.171 10.254 10.254 0 1 1 18.627 8.5781c-13.588 29.506-41.778 51.983-73.57 58.661a10.278 10.278 0 0 1-2.1182 0.22164z"/> <path d="m1115.4 1271.9a10.255 10.255 0 0 1-1.9834-20.313c43.324-8.5908 80.13-43.021 91.586-85.676 1.1143-4.1514 2.0127-8.375 2.9629-12.846 1.748-8.2236 3.5557-16.727 6.8545-25.064 6.6514-16.81 18.497-28.598 32.501-32.343a10.254 10.254 0 0 1 5.2969 19.812c-7.5527 2.0195-14.554 9.5249-18.729 20.076-2.666 6.7388-4.2197 14.046-5.8643 21.783-0.96387 4.5352-1.9609 9.2256-3.2168 13.901-13.435 50.021-56.596 90.397-107.4 100.47a10.275 10.275 0 0 1-2.0049 0.19827z"/> <path d="m1379.8 1098.5a10.254 10.254 0 0 1-6.4258-18.25c30.014-24.093 73.317-28.736 107.76-11.547a10.254 10.254 0 1 1-9.1582 18.349c-26.977-13.464-62.245-9.686-85.761 9.1909a10.214 10.214 0 0 1-6.4121 2.2578z"/> <path d="m1281 1102a10.255 10.255 0 0 1-4.1367-19.641 149.69 149.69 0 0 1 97.302-7.9067 10.254 10.254 0 1 1-5.125 19.856 129.11 129.11 0 0 0-83.915 6.8188 10.214 10.214 0 0 1-4.125 0.87207z"/> <path d="m1252.1 1272.8a10.211 10.211 0 0 1-4.4551-1.0244 67.5 67.5 0 0 1-19.355-14.121l-4.0107 8.542a10.254 10.254 0 0 1-19.237-1.9053c-11.495-46.658-0.0293-98.985 29.921-136.56a10.254 10.254 0 0 1 16.037 12.782c-19.659 24.664-30.169 56.629-29.86 88.273a10.256 10.256 0 0 1 14.331 4.0684 47.07 47.07 0 0 0 21.101 20.46 10.255 10.255 0 0 1-4.4707 19.487z"/> <path d="m1299.8 1250.1a10.245 10.245 0 0 1-8.5703-4.6104 77.857 77.857 0 0 1 37.057-115.53 10.254 10.254 0 1 1 7.3594 19.141 57.35 57.35 0 0 0-27.295 85.101 10.255 10.255 0 0 1-8.5508 15.899z"/> <path d="m1495.3 1283.4q-0.32812 0-0.66016-0.02051a10.255 10.255 0 0 1-9.583-10.884c2.919-45.91-23.994-91.905-65.448-111.85a10.254 10.254 0 0 1 8.8926-18.479c48.784 23.474 80.457 77.604 77.022 131.63a10.255 10.255 0 0 1-10.224 9.6035z"/> <path d="m1548.4 1289.8a10.267 10.267 0 0 1-10.198-11.431l1.9268-16.704a10.254 10.254 0 0 1 13.526-8.5186c-6.8438-49.74-40.994-96.113-87.36-115.5a10.254 10.254 0 0 1 7.9102-18.921c29.779 12.449 56.27 35.097 74.591 63.772 18.32 28.675 27.738 62.23 26.519 94.485a10.253 10.253 0 0 1-17.239 7.1104l-0.3457-0.32129a10.263 10.263 0 0 1-9.3291 6.0225z"/> <path d="m1303.8 1243.9a10.222 10.222 0 0 1-4.7051-1.1494 35.645 35.645 0 0 1-17.373-21.571 35.197 35.197 0 0 1 2.6533-27.218 34.795 34.795 0 0 1 22.522-16.407 34.37 34.37 0 0 1 27.142 4.5869 33.99 33.99 0 0 1 14.247 24.143 33.59 33.59 0 0 1-7.8047 26.577c-6.3408 7.1182-15.854 11.006-26.096 10.685a36.367 36.367 0 0 1-6.0508-0.70019 10.305 10.305 0 0 1-4.5352 1.0547zm-2.3223-28.246a10.207 10.207 0 0 1 3.9873 3.0879c2.0098 2.5693 5.5898 4.1797 9.5762 4.3066 4.0869 0.13086 7.876-1.2998 10.127-3.8272a13.327 13.327 0 0 0 2.7666-10.414 12.51 12.51 0 0 0-16.347-11.289 14.478 14.478 0 0 0-9.3457 6.5088 14.636 14.636 0 0 0-0.87012 11.287q0.05123 0.17138 0.10543 0.33984z"/> <path d="m1472.3 1255.8a40.845 40.845 0 0 1-14.959-2.8926c-11.893-4.6885-20.604-14.267-23.302-25.621-2.6992-11.354 0.77051-23.828 9.2812-33.365 8.5107-9.5381 20.507-14.407 32.099-13.004a10.253 10.253 0 0 1-2.4512 20.359c-4.9248-0.59082-10.297 1.7607-14.347 6.2988-4.0488 4.5371-5.7803 10.133-4.6309 14.969s5.2129 9.0547 10.871 11.285c5.6572 2.2295 11.508 1.918 15.647-0.83105a10.254 10.254 0 1 1 11.35 17.08 35.219 35.219 0 0 1-19.559 5.7217z"/> <path d="m1704.1 1154a10.222 10.222 0 0 1-4.0742-0.84863c-23.376-10.136-41.761-27.508-58.146-44.771-3.1006-3.2661-6.2041-6.606-9.2061-9.8364-12.871-13.849-25.027-26.93-39.414-37.475-19.249-14.109-39.72-20.609-57.66-18.309-17.393 2.2339-36.538 15.886-38.472 34.867a10.254 10.254 0 0 1-20.402-2.0781c2.7022-26.516 26.889-49.356 56.263-53.128 23.165-2.9741 48.885 4.876 72.395 22.109 15.958 11.696 29.356 26.113 42.312 40.055 2.9658 3.1909 6.0322 6.4907 9.0576 9.6782 14.891 15.688 31.428 31.401 51.432 40.075a10.255 10.255 0 0 1-4.084 19.663z"/> <path d="m1670.9 1199.9c-0.085 0-0.168-1e-3 -0.25293-0.00293l-18.171-0.44043a10.258 10.258 0 0 1-8.751-15.171 160.45 160.45 0 0 1-30.593-30.964 10.254 10.254 0 0 1 16.424-12.281 140.05 140.05 0 0 0 46.151 39.551 10.253 10.253 0 0 1-4.8076 19.309z"/> <path d="m1660.8 1261.2a10.231 10.231 0 0 1-3.7539-0.71484 96.743 96.743 0 0 1-53.299-52.842 10.254 10.254 0 0 1 19.016-7.6777 75.862 75.862 0 0 0 41.797 41.438 10.255 10.255 0 0 1-3.7598 19.797z"/> <path d="m1618.8 1362.9a10.255 10.255 0 0 1-10.146-8.8584 415.86 415.86 0 0 0-26.724-99.918 10.254 10.254 0 0 1 18.998-7.7227 436.47 436.47 0 0 1 28.042 104.85 10.262 10.262 0 0 1-10.171 11.651z"/> <path d="m1377.5 1350.7a22.734 22.734 0 0 1-14.005-4.998 25.966 25.966 0 0 1-9.9268-18.33c-0.76465-10.951 5.2139-21.961 15.603-28.729 8.501-5.541 18.121-7.4014 26.411-8.4893a10.253 10.253 0 0 1 2.6699 20.332 67.677 67.677 0 0 0-10.664 2.1162 10.231 10.231 0 0 1 3.7656 1.8818c5.7715 4.5674 8.1543 12.192 6.2197 19.898-2.0859 8.3057-8.4873 14.579-16.31 15.983a21.298 21.298 0 0 1-3.7637 0.33494zm-2.7607-28.438a8.0567 8.0567 0 0 0-0.71387 3.6836 5.4762 5.4762 0 0 0 2.0732 3.5781 3.2001 3.2001 0 0 0 1.2295 0.63965 2.6479 2.6479 0 0 0 0.27637-0.52637 10.244 10.244 0 0 1-2.8652-7.375z"/> <path d="m1425.4 1347.2a22.806 22.806 0 0 1-7.5557-1.2695c-7.4394-2.6084-13.088-9.3848-14.739-17.687a22.617 22.617 0 0 1 1.793-14.595 10.255 10.255 0 0 1-4.4346-19.488c11.282-5.4502 24.062-5.5791 34.182-0.34668 12.21 6.3125 19.051 20.104 16.266 32.795a26.854 26.854 0 0 1-13.144 17.305 25.464 25.464 0 0 1-12.367 3.2861zm-2.1816-24.324a3.4953 3.4953 0 0 0 0.24219 2.1807 2.824 2.824 0 0 0 1.1699 1.5225 4.1039 4.1039 0 0 0 3.1475-0.57422 6.2773 6.2773 0 0 0 3.1016-3.791c0.708-3.2236-1.3828-7.3848-4.668-9.5986a10.253 10.253 0 0 1-2.9931 10.261z"/> <path d="m1407.5 1367.7c-0.03027 0-0.06055 0-0.0918-1e-3a10.247 10.247 0 0 1-7.5977-3.4707l-16.998-19.271a10.253 10.253 0 0 1 15.379-13.564l9.4443 10.707 9.4356-10.321a10.253 10.253 0 1 1 15.137 13.834l-17.141 18.753a10.255 10.255 0 0 1-7.5674 3.335z"/> <path d="m1330.9 1525.1a10.246 10.246 0 0 1-8.8584-5.0742c-26.866-45.892-30.865-104.9-10.436-153.99a10.253 10.253 0 0 1 16.2-3.793 217.79 217.79 0 0 1 2.2109-25.574 10.253 10.253 0 1 1 20.291 2.9668 197.39 197.39 0 0 0-0.69336 51.869 10.253 10.253 0 0 1-13.536 10.901 37.165 37.165 0 0 1-12.478-7.3662c-9.4502 38.331-3.7978 80.576 16.138 114.63a10.256 10.256 0 0 1-8.8389 15.436z"/> <path d="m1398.2 1499.5c-0.28223 0-0.56152-2e-3 -0.84375-0.00586-16.823-0.21094-32.739-6.7344-43.668-17.896-18.766-19.166-22.319-46.773-24.177-71.146a10.253 10.253 0 0 1 20.447-1.5586c1.584 20.768 4.4404 44.117 18.383 58.357 14.932 15.251 43.521 15.609 58.829 0.73926 15.31-14.869 15.782-43.457 0.97266-58.824a10.253 10.253 0 1 1 14.766-14.23c10.84 11.248 16.897 27.347 16.619 44.169-0.27734 16.823-6.8633 32.713-18.069 43.597-11.017 10.701-26.744 16.799-43.259 16.799z"/> <path d="m1362.8 1410.3a48.641 48.641 0 0 1-25.696-7.2285 10.254 10.254 0 0 1 10.863-17.395 27.877 27.877 0 0 0 42.63-22.695 10.254 10.254 0 1 1 20.496 0.69922 49.167 49.167 0 0 1-25.62 41.062 48.333 48.333 0 0 1-22.673 5.5576z"/> <path d="m1432.7 1402.3a66.619 66.619 0 0 1-42.04-14.767 10.253 10.253 0 1 1 13.043-15.824 45.752 45.752 0 0 0 42.574 7.9522 10.253 10.253 0 0 1 6.4531 19.465 63.695 63.695 0 0 1-20.03 3.1738z"/> <path d="m1398.8 1447.1a10.259 10.259 0 0 1-9.8701-7.4971l-11.783-42.184a10.254 10.254 0 1 1 19.752-5.5176l11.783 42.184a10.26 10.26 0 0 1-9.8818 13.015z"/> <path d="m1484.9 1507.9c-0.10352 0-0.20605-2e-3 -0.31055-0.00488a10.254 10.254 0 0 1-9.9443-10.554 101.76 101.76 0 0 0-9.0127-44.574 10.253 10.253 0 0 1-10.582-13.941 72.405 72.405 0 0 0-1.0654-54.314 10.253 10.253 0 0 1 18.785-8.2236 92.145 92.145 0 0 1 5.4717 56.522 10.155 10.155 0 0 1 0.71484 1.0742 120.64 120.64 0 0 1 16.187 64.066 10.254 10.254 0 0 1-10.243 9.9492z"/> <path d="m1526.5 1396.7a10.254 10.254 0 0 1-10.235-9.7939c-2.1172-47.126-32.189-92.345-74.831-112.52a10.254 10.254 0 0 1 8.7715-18.537 154.54 154.54 0 0 1 86.546 130.14 10.253 10.253 0 0 1-9.7832 10.703c-0.15627 0.00687-0.31252 0.01077-0.4678 0.01077z"/> <path d="m1262.6 1613.3a10.24 10.24 0 0 1-6.1777-2.0703c-42.299-31.934-75.056-76.279-94.73-128.24-15.541-41.046-21.818-83.934-18.574-125.74a67.838 67.838 0 0 1-15.522 7.499 10.254 10.254 0 0 1-13.492-10.006 227.8 227.8 0 0 1 19.451-85.729 10.253 10.253 0 0 1 18.732 8.3438 207.28 207.28 0 0 0-16.362 59.76 48.255 48.255 0 0 0 12.714-15.549 10.254 10.254 0 0 1 19.191 6.6816c-18.136 89.354 13.352 185.58 79.081 248.06a90.565 90.565 0 0 1 1.5264-19.075 10.254 10.254 0 0 1 18.212-4.3506 110.06 110.06 0 0 0 32.562 28.311 10.254 10.254 0 0 1 17.693-6.8584l18.075 19.068a10.253 10.253 0 1 1-14.883 14.107l-1.2041-1.2695c-0.0625 0.05469-0.125 0.10742-0.18945 0.16016a10.25 10.25 0 0 1-10.033 1.7227 130.58 130.58 0 0 1-40.489-23.918 69.759 69.759 0 0 0 3.9756 15.124 10.254 10.254 0 0 1-9.5557 13.972z"/> <path d="m1389 1650.2a10.254 10.254 0 0 1-10.139-11.783l1.7959-11.904a86.792 86.792 0 0 1-39.387 16.049 10.253 10.253 0 0 1-11.393-12.276l10.716-50.889a10.253 10.253 0 1 1 20.066 4.2266l-7.3184 34.756a66.99 66.99 0 0 0 33.573-28.774 10.254 10.254 0 0 1 19.054 6.5957l-4.3867 29.078a108.12 108.12 0 0 0 51.441-42.664 10.253 10.253 0 0 1 18.503 8.4014l-4.1973 13.99c45.883-21.226 79.695-69.875 81.396-120.41a10.255 10.255 0 0 1 19.786-3.4238 174.29 174.29 0 0 0 6.165-100.54 10.254 10.254 0 1 1 19.943-4.7793 194.83 194.83 0 0 1-22.108 144.28 10.255 10.255 0 0 1-10.203 4.8916 163.63 163.63 0 0 1-27.345 51.6c-21.011 26.767-49.63 46.289-80.585 54.971a10.254 10.254 0 0 1-12.396-6.3438 128.24 128.24 0 0 1-50.647 24.684 10.269 10.269 0 0 1-2.3349 0.26954z"/> <path d="m1008.8 1915.3c-17.752 1e-3 -34.948-3.0059-51.381-10.782-53.945-25.53-72.303-92.776-62.556-146.01 8.706-47.55 34.931-89.147 60.92-126.35a10.253 10.253 0 0 1-2.5879-16.243 54.834 54.834 0 0 0 11.473-17.629l-10.58 5.2402a10.253 10.253 0 0 1-14.078-12.979 336.49 336.49 0 0 1 59.377-97.013 10.254 10.254 0 0 1-7.1436-16.919 409.51 409.51 0 0 1 156.51-112.26 10.254 10.254 0 0 1 7.6797 19.016 388.96 388.96 0 0 0-115.27 72.377 10.255 10.255 0 0 1 7.498 18.056 316.06 316.06 0 0 0-78.003 98.636l3.7295-1.8477a10.254 10.254 0 0 1 14.8 9.5059 75.725 75.725 0 0 1-8.3984 32.146 10.253 10.253 0 0 1 3.5742 15.008c-28.173 39.653-60.105 84.598-69.325 134.95-8.3369 45.533 6.5576 102.67 51.155 123.78 33.787 15.986 74.456 7.2764 116.65-3.9072a10.253 10.253 0 1 1 5.2539 19.822c-27.13 7.1913-53.781 13.402-79.291 13.403z"/> <path d="m1030.5 1910.4a10.263 10.263 0 0 1-9.9941-12.585c4.1689-17.875-3.8369-38.317-19.036-48.607a10.254 10.254 0 1 1 11.496-16.982c22.321 15.111 33.634 43.998 27.511 70.248a10.257 10.257 0 0 1-9.9766 7.9268z"/> <path d="m1073.3 1902.1a10.258 10.258 0 0 1-9.4062-14.326c8.0947-18.717 1.4854-42.729-15.047-54.667a10.253 10.253 0 0 1 12.006-16.625 67.502 67.502 0 0 1 21.863 79.433 10.256 10.256 0 0 1-9.416 6.1856z"/> <path d="m1235.2 2054.8a91.674 91.674 0 0 1-21.711-2.5918c-32.21-7.8516-61.726-32.244-80.98-66.924-17.396-31.336-25.031-66.886-30.822-97.748a1446.5 1446.5 0 0 1-24.611-247.38 10.254 10.254 0 0 1 10.121-10.385c0.04492 0 0.08984-1e-3 0.13477-1e-3a10.253 10.253 0 0 1 10.25 10.122 1425.7 1425.7 0 0 0 24.262 243.86c5.4932 29.281 12.688 62.921 28.596 91.574 16.486 29.695 41.237 50.454 67.907 56.955 29.35 7.1553 61.99-5.6934 74.297-29.251a10.253 10.253 0 0 1 18.176 9.4961c-13.64 26.109-43.926 42.271-75.618 42.271z"/> <path d="m1315.4 1993.2a10.252 10.252 0 0 1-9.0127-5.3496l-23.701-43.492a10.221 10.221 0 0 1-0.93359-7.4336 206.51 206.51 0 0 1-14.05-72.108 10.254 10.254 0 0 1 16.894-7.9463l4.6494 3.9522a312.42 312.42 0 0 1-9.0215-127.41 10.254 10.254 0 1 1 20.32 2.7676 291.86 291.86 0 0 0 20.381 153.01 10.254 10.254 0 0 1-16.085 11.807l-14.764-12.551a185.99 185.99 0 0 0 22.65 65.89 10.212 10.212 0 0 1 1.3535 4.7764l10.314 18.928a10.257 10.257 0 0 1-8.9951 15.162z"/> <path d="m1224.8 2039.8a9.2467 9.2467 0 0 1-8.3574-13.182 38.852 38.852 0 0 0-2.377-36.703 9.243 9.243 0 1 1 15.57-9.9648 57.734 57.734 0 0 1 3.5332 54.541 9.2441 9.2441 0 0 1-8.3691 5.3086z"/> <path d="m1266.4 2036.1a9.2508 9.2508 0 0 1-8.6846-12.407 37.498 37.498 0 0 0-5.4033-34.923 9.2435 9.2435 0 1 1 14.65-11.275 56.392 56.392 0 0 1 8.124 52.521 9.2468 9.2468 0 0 1-8.6865 6.085z"/> <path d="m1372.2 1966.4h-0.36426a160.98 160.98 0 0 1-76.539-19.222 10.254 10.254 0 0 1 9.8164-18.006c37.963 20.697 86.376 22.109 125.74 4.1943a237.97 237.97 0 0 1 5.2109-164.61 10.254 10.254 0 0 1 18.975 7.7793 217.05 217.05 0 0 0-1.877 158.29 10.254 10.254 0 0 1-4.708 12.687 160.93 160.93 0 0 1-76.258 18.89z"/> <path d="m1401.2 1795.4a10.252 10.252 0 0 1-9.8965-12.935l10.261-37.876a10.253 10.253 0 1 1 19.793 5.3633l-5.001 18.462a72.974 72.974 0 0 0 29.609-29.883 10.253 10.253 0 0 1 18.479 0.66113 46.211 46.211 0 0 1 3.4443 12.41l12.345-10.293a10.253 10.253 0 0 1 13.07-0.05176 107.64 107.64 0 0 0-8.4805-123.51 10.254 10.254 0 1 1 15.939-12.902 128.37 128.37 0 0 1-6.9014 169.38 10.255 10.255 0 0 1-16.995-3.4111l-18.356 15.305a10.255 10.255 0 0 1-16.438-10.655 93.097 93.097 0 0 1-38.499 19.654 10.288 10.288 0 0 1-2.3731 0.27837z"/> <path d="m1369.4 1969.4c-0.13477 0-0.27051-0.00293-0.40625-0.00781a10.255 10.255 0 0 1-9.8467-10.646 49.129 49.129 0 0 0-8.5332-29.526 10.254 10.254 0 1 1 16.908-11.605 69.781 69.781 0 0 1 12.117 41.931 10.255 10.255 0 0 1-10.239 9.8545z"/> <path d="m1402.8 1958.9c-0.17578 0-0.35254-0.00488-0.53027-0.01367a10.253 10.253 0 0 1-9.7188-10.762 33.085 33.085 0 0 0-7.5127-22.577 10.254 10.254 0 0 1 15.773-13.105 53.824 53.824 0 0 1 12.22 36.726 10.254 10.254 0 0 1-10.231 9.7324z"/> <path d="m1740.5 2617.4h-0.10449c-89.791-1.001-182.37-24.567-283.01-72.047-92.085-43.439-179.89-101.69-254.96-152.87-105.36-71.84-198.46-138.6-270.81-228.26-69.68-86.351-115.05-188.61-158.93-287.5-96.277-216.99-195.83-441.36-232.48-681.37a9.2436 9.2436 0 0 1 18.275-2.791c36.277 237.56 135.32 460.78 231.11 676.66 43.393 97.798 88.263 198.92 156.42 283.38 70.762 87.69 162.71 153.6 266.84 224.59 169.58 115.63 337.55 219.59 527.76 221.71a9.2434 9.2434 0 0 1-0.10059 18.486z"/> <path d="m1757.1 2529.1a9.2437 9.2437 0 0 1-9.2227-8.752c-13.099-246.16-6.3125-675.19 18.617-1177.1 22.916-461.33 57.729-911.26 90.854-1174.2a9.2434 9.2434 0 0 1 18.342 2.3106c-70.398 558.84-137.34 1821.9-109.35 2348a9.2438 9.2438 0 0 1-8.7393 9.7217c-0.16703 0.00885-0.33403 0.01276-0.49903 0.01276z"/> </g> </g> </svg>