<?xml version='1.0' encoding='utf-8'?>
<svg xmlns="http://www.w3.org/2000/svg" version="1.1" viewBox="0 0 612 408"> <g fill="none" stroke-width="2"> <path d="m338.75 66.15q-9.25 1.39-16.06 7.8" stroke="#e0c2a5" vector-effect="non-scaling-stroke"/> <path d="m322.69 73.95q-4.36 2.47-9.88 6.86-5.39 4.3-6.98 10.46-3.18 12.35-1.99 24.9 0.59 6.19 1.33 10.15 0.96 5.11 3.03 9.82 1.73 3.93 7.69 11.98 11.75 15.83 21.06 33.24 6.09 11.39 14.66 21.04 1.74 1.95 2 4.59 0.11 1.04 0.19-0.24 0.12-2.03 0.26 0.25 0.32 5.4 0.48 0" stroke="#f8f7f5" vector-effect="non-scaling-stroke"/> <path d="m354.54 207q0.79 2.64 0.93 5.36 0.1 1.89 0.46 3.21 0.44 1.59 0.86 3.18" stroke="#e0c2a5" vector-effect="non-scaling-stroke"/> <path d="m356.79 218.75q-0.08 0.25 0 0.5" stroke="#9a9694" vector-effect="non-scaling-stroke"/> <path d="m356.79 219.25q-0.06 3.76-0.05 7.52 0.01 1.55-0.28 2.43-0.91 2.82-3.17 0.05" stroke="#f9f8f7" vector-effect="non-scaling-stroke"/> <path d="m353.29 229.25q-1.46-2.88-3.58-0.5" stroke="#dad9d6" vector-effect="non-scaling-stroke"/> <path d="m349.71 228.75q-1.1 1.96-2.65 0.94-3.31-2.18-6.7-0.4-0.51 0.26-0.4-0.3 0.24-1.31-0.42-2.24" stroke="#f9f8f7" vector-effect="non-scaling-stroke"/> <path d="m339.54 226.75q-1.52-2.96-3.49-0.29" stroke="#cbc9c7" vector-effect="non-scaling-stroke"/> <path d="m336.05 226.46-6.13-0.4a1.56 1.54 89.3 0 1-1.43-1.41q-0.11-1.2-0.29-2.43-0.17-1.15 0.03-2.42 0.48-3.01-0.23-4.93-0.7-1.91-0.03-3.83 1.24-3.59 0.26-5.84a0.71 0.62-14.6 0 0-0.72-0.36q-1.92 0.25-2.55-1.59" stroke="#f9f8f7" vector-effect="non-scaling-stroke"/> <path d="m324.96 203.25v-1.25" stroke="#dad9d6" vector-effect="non-scaling-stroke"/> <path d="m324.96 202q1.21-10.09-5.19-15.7-3.6-3.16-10.95-4.66-16.25-3.3-32.46 0.2-7.18 1.55-10.8 4.7-7.23 6.28-4.77 17.46" stroke="#8c8987" vector-effect="non-scaling-stroke"/> <path d="m260.79 204q-0.37 2.64-2.36 0.23a1.97 1.95 22.9 0 1-0.42-1.02q-0.11-1-0.37-1.27-0.41-0.43-0.5 0.49-0.44 4.41 0.01 8.83 0.46 4.5-0.21 9.41-0.31 2.34-2.63 1.9-3.59-0.68-6.64 1.55-2.04 1.49-4.57 1.45-3.96-0.05-5.85 2.22" stroke="#faf9f8" vector-effect="non-scaling-stroke"/> <path d="m237.25 227.79q-1.07-0.52-2.21-0.04" stroke="#cbc9c7" vector-effect="non-scaling-stroke"/> <path d="m235.04 227.75q-1.08-2.18-3.06-3.54a1.66 1.38 11.6 0 1-0.6-0.75q-1.06-2.98-0.67-6.21" stroke="#faf9f8" vector-effect="non-scaling-stroke"/> <path d="m230.71 217.25v-1" stroke="#e0c2a5" vector-effect="non-scaling-stroke"/> <path d="m230.71 216.25 2.63-9.57" stroke="#d5b699" vector-effect="non-scaling-stroke"/> <path d="m233.34 206.68q2.56-3.47 5.09-6.75 8.69-11.22 14.63-24.12 6.58-14.29 19.11-29.39 4.76-5.73 5.83-9.17 4.69-15.11 3.75-33.25-0.44-8.51-3.23-15.16-1.4-3.33-3.81-6.18-2.6-3.08-5.4-4.97-1.16-0.79-3.27-0.44" stroke="#f8f7f5" vector-effect="non-scaling-stroke"/> <path d="m266.04 77.25q-5.8-8.74-16.14-11.25" stroke="#e1c2a4" vector-effect="non-scaling-stroke"/> <path d="m324.96 203.25-1.75 6.5" stroke="#d4d2ce" vector-effect="non-scaling-stroke"/> <path d="m323.21 209.75-0.46-0.54" stroke="#756f6b" vector-effect="non-scaling-stroke"/> <path d="m322.75 209.21q-0.54-0.5-0.54-1.21" stroke="#918d88" vector-effect="non-scaling-stroke"/> <path d="m336.05 226.46q2.08 5.09 3.49 0.29" stroke="#c5c2bf" vector-effect="non-scaling-stroke"/> <path d="m349.71 228.75q1.36 3.69 3.58 0.5" stroke="#d4d2ce" vector-effect="non-scaling-stroke"/> <path d="m356.79 219.25q0.88 4.74 0.79 9.51-0.12 6.11-0.47 9.49-0.92 8.79-6.8 15.56-8.44 9.72-21.56 7.19-1.96-0.38-6.79-3.75" stroke="#948f8b" vector-effect="non-scaling-stroke"/> <path d="m321.96 257.25q2.99-1.1 2.15-3.81-0.1-0.29-0.43-1.55-0.24-0.86-0.82-1.53a1.26 1.04 30.7 0 1-0.31-0.86q0.18-2.4-0.42-4.66-0.66-2.53-0.57-4.18 0.29-5.42 0.37-10.85 0.01-0.43-0.23-0.93-0.79-1.68 0.55-3.09" stroke="#e5e3de" vector-effect="non-scaling-stroke"/> <path d="m322.25 225.79q1.2-2.41-1.75-2.25" stroke="#c5c2bf" vector-effect="non-scaling-stroke"/> <path d="m320.5 223.54q-2.9-0.51-3.29-3.29" stroke="#e5e3de" vector-effect="non-scaling-stroke"/> <path d="m317.21 220.25q3.8-4.8 6-10.5" stroke="#948f8b" vector-effect="non-scaling-stroke"/> <path d="m237.11 191.97-3.77 14.71" stroke="#ceae8f" vector-effect="non-scaling-stroke"/> <path d="m230.71 216.25q-4.09 1.5-6.96 4.79" stroke="#b6793f" vector-effect="non-scaling-stroke"/> <path d="m223.75 221.04q-5.12-8.78-6.5-19.29-0.62-4.68-2.32-10.04" stroke="#bd9a7a" vector-effect="non-scaling-stroke"/> <path d="m214.93 191.71q-0.06-17.9-2.63-35.72-3.32-22.97 0.01-45.93 1.65-11.37 5.66-19.74 0.4-0.82 0.28-1.2-0.21-0.74-1.75-0.16" stroke="#643b1b" vector-effect="non-scaling-stroke"/> <path d="m216.5 88.96q0.26-0.42 0.21-0.77a0.63 0.47-8.8 0 0-0.7-0.37q-2.13 0.36-3.98 1.49-7.5 4.58-11.32 11.9-2.85 5.47-4.71 15.23-2.66 13.91 0.54 28.06" stroke="#b6793e" vector-effect="non-scaling-stroke"/> <path d="m196.54 144.5q-0.11 1.6-0.75 1.06-0.27-0.22-0.39-0.73-5.75-23.53 4.66-45.27 0.89-1.86 4.55-6.5 0.58-0.74 1.48-1.42 4.7-3.57-2.1-2.24-0.44 0.09-0.85 0.43-1.8 1.52-2.85-0.33" stroke="#9c5d26" vector-effect="non-scaling-stroke"/> <path d="m324.96 202-2.75 6" stroke="#67625e" vector-effect="non-scaling-stroke"/> <path d="m322.21 208q-5.4 7.48-13.71 6-5.41-0.96-7.71-7" stroke="#433d39" vector-effect="non-scaling-stroke"/> <path d="m300.79 207q-0.27-3.42 1.21-6 1.33-2.32 3.69-2.44 1.9-0.09 3.75 1.26 2.63 1.93 3.31 5.44 0.46 2.33 2.83 2.24 7.81-0.32 7.64-8.25-0.06-2.9-2.47-5.25-3.79-3.7-8.05-4.65" stroke="#312824" vector-effect="non-scaling-stroke"/> <path d="m312.7 189.35q-10.42-4.08-21.4-3.6-6.98 0.31-10.6 0.9-5.28 0.85-10.17 3.51" stroke="#67625e" vector-effect="non-scaling-stroke"/> <path d="m270.53 190.16q-3.54 0.85-6.04 3.38-2.38 2.42-2.57 5.96-0.41 7.73 8.49 8.05a2.2 2.19-79.4 0 0 2.15-1.48q0.79-2.32 1.97-4.1 1.44-2.16 3.38-2.88 3.66-1.37 6.52 2.92" stroke="#312824" vector-effect="non-scaling-stroke"/> <path d="m284.43 202.01q0.96 10.35-7.74 11.95-3.39 0.62-6.73-0.74-3.24-1.32-5.92-3.72" stroke="#433d39" vector-effect="non-scaling-stroke"/> <path d="m264.04 209.5-3.25-5.5" stroke="#878380" vector-effect="non-scaling-stroke"/> <path d="m351.56 72.66 8.4 13.59" stroke="#a96b32" vector-effect="non-scaling-stroke"/> <path d="m359.96 86.25q4.83 9.95 6.54 18 4.07 19.2 2.75 41.49-0.98 16.59-1 20.26-0.05 8.8 1.5 19.25 0.67 4.55 0.79 11.25" stroke="#b7783d" vector-effect="non-scaling-stroke"/> <path d="m370.54 196.5q-1.96 13.97-8.86 26.18" stroke="#c0a181" vector-effect="non-scaling-stroke"/> <path d="m361.68 222.68q0.36-1.57-0.63-2.43-0.67-0.57-1.91-1.21-1.09-0.56-2.35-0.29" stroke="#7b5939" vector-effect="non-scaling-stroke"/> <path d="m354.54 207q-4.14-16.85-10.35-29.69-5.89-12.17-17.15-30.66-7.93-13.05-11.18-27.97-3.28-15.07 0.51-29.78 1.4-5.43 2.3-7.8 1.46-3.81 4.02-7.15" stroke="#d9ba9a" vector-effect="non-scaling-stroke"/> <path d="m300.21 209.25q5.29 9.8 15.98 5.69 1.79-0.69 6.56-5.73" stroke="#504a45" vector-effect="non-scaling-stroke"/> <path d="m317.21 220.25-3.25 4" stroke="#86807b" vector-effect="non-scaling-stroke"/> <path d="m313.96 224.25q-8.67 7-19.79 8.44a0.42 0.41-4 0 0-0.36 0.41q0.07 5.62 0.39 11.27 0.06 1.02 0.57 1.57 0.61 0.67 1.48 1.02" stroke="#504a45" vector-effect="non-scaling-stroke"/> <path d="m296.25 246.96q6.61 4.08 14 6.5" stroke="#65605c" vector-effect="non-scaling-stroke"/> <path d="m310.25 253.46 10.21 3.29" stroke="#756f6b" vector-effect="non-scaling-stroke"/> <path d="m320.46 256.75q0.66 0.5 1.5 0.5" stroke="#86807b" vector-effect="non-scaling-stroke"/> <path d="m224.71 222.75q1.28-4.25 5.75-5" stroke="#7b5939" vector-effect="non-scaling-stroke"/> <path d="m266.75 256.79 0.25-0.08" stroke="#827a74" vector-effect="non-scaling-stroke"/> <path d="m267 256.71 8-2.5" stroke="#756f6b" vector-effect="non-scaling-stroke"/> <path d="m275 254.21q8.62-2.71 16.59-8.29" stroke="#65605c" vector-effect="non-scaling-stroke"/> <path d="m291.59 245.92q1.29-5.05 0.24-11.73a1.36 1.35-87.4 0 0-1-1.1q-8.29-2.1-14.53-5.62-4.4-2.48-7.51-6.47" stroke="#504a45" vector-effect="non-scaling-stroke"/> <path d="m268.79 221q-0.79-1.77-2.25-3" stroke="#86807b" vector-effect="non-scaling-stroke"/> <path d="m264.04 209.5q-0.24 0.38-1.29 0.31" stroke="#b1adaa" vector-effect="non-scaling-stroke"/> <path d="m262.75 209.81q0.62 4.69 3.79 8.19" stroke="#95908d" vector-effect="non-scaling-stroke"/> <path d="m266.54 218 0.75 3.3a1 0.67 66.8 0 1-0.15 0.8q-1.4 1.46-0.34 2.9" stroke="#e6e4e0" vector-effect="non-scaling-stroke"/> <path d="m266.8 225 0.24 1.75" stroke="#b1adaa" vector-effect="non-scaling-stroke"/> <path d="m267.04 226.75q-0.36 2.33-1.5 4.3-2.68 4.59 1.55 5.56 2 0.46 2.5 0.9 1.26 1.09 0.65 2.96a1 0.93 37.8 0 0 0.14 0.86q0.83 1.2-0.38 1.96" stroke="#e6e4e0" vector-effect="non-scaling-stroke"/> <path d="m270 243.29q-4.63-0.85-1.71 2.71" stroke="#c6c3c0" vector-effect="non-scaling-stroke"/> <path d="m268.29 246q2.06 2.34-0.48 4.64" stroke="#e6e4e0" vector-effect="non-scaling-stroke"/> <path d="m267.81 250.64q-2.87 2.67-1.06 6.15" stroke="#e2ddd9" vector-effect="non-scaling-stroke"/> <path d="m266.75 256.79q-2.33 1.24-4.67 2.43-8.28 4.19-16.77 0.48-8.29-3.63-12-11.51-3.82-8.14-3.38-17.69 0.3-6.38 0.53-12.75" stroke="#95908d" vector-effect="non-scaling-stroke"/> <path d="m230.46 217.75q-0.02-0.41 0.25-0.5" stroke="#dbbc9e" vector-effect="non-scaling-stroke"/> <path d="m235.04 227.75q-1.33 2.85 1.4 2.19 1.88-0.46 0.81-2.15" stroke="#c6c3c0" vector-effect="non-scaling-stroke"/> <path d="m266.04 77.25q2.74 5.48 4.01 11.49 6.72 31.89-10.3 58.55-3.21 5.04-4.19 6.68-2.01 3.39-4.09 6.74-9.18 14.78-14.36 31.26" stroke="#daba9a" vector-effect="non-scaling-stroke"/> <path d="m237.11 191.97q-7.73-4.35-15.36-2.47-1.87 0.46-2.96 0.22a1.49 1.22-47 0 0-0.9 0.12q-0.62 0.29-0.58-0.65 0.26-5.83 1.57-13.96 1.69-10.56 0.96-21.24-0.8-11.73-0.77-23.49 0.05-20.51 7.24-39.69 2.32-6.18 7.73-13.55 0.66-0.9 2.84-3.13 1.49-1.53 2.61-3.37" stroke="#b6793e" vector-effect="non-scaling-stroke"/> <path d="m320.5 223.54q0.4 1.52 1.75 2.25" stroke="#b7b4af" vector-effect="non-scaling-stroke"/> <path d="m320.46 256.75q0.24-3.83-2.41-6.36a1.65 1.37-78.1 0 1-0.44-0.83q-0.29-1.49-1.42-2.5-2.66-2.36-1.13-4.5 1.73-2.41-0.56-4.1" stroke="#c6c3be" vector-effect="non-scaling-stroke"/> <path d="m314.5 238.46q-0.08-0.48-0.54-0.71" stroke="#a29e98" vector-effect="non-scaling-stroke"/> <path d="m313.96 237.75 0.37-2.7a1.38 1.36 34 0 0-0.18-0.9q-0.75-1.29 0.85-1.69" stroke="#c6c3be" vector-effect="non-scaling-stroke"/> <path d="m315 232.46q2.03 0.8 1.7-0.79a1.19 1.11-82.2 0 0-0.54-0.76q-0.75-0.42-1.66-0.37" stroke="#a29e98" vector-effect="non-scaling-stroke"/> <path d="m314.5 230.54q-1.65-0.27-2.04-1.79" stroke="#c6c3be" vector-effect="non-scaling-stroke"/> <path d="m312.46 228.75 1.74-3.09a0.73 0.62 44.1 0 0-0.07-0.73q-0.2-0.28-0.17-0.68" stroke="#a29e98" vector-effect="non-scaling-stroke"/> <path d="m366.71 223q-0.19 0.68-0.71 1.04" stroke="#cbc8c3" vector-effect="non-scaling-stroke"/> <path d="m349.43 268.34q-11.92 7.9-26.01 5.72a0.59 0.59 88.9 0 0-0.67 0.7q1.98 10.12-5.73 14.36-2.58 1.41-5.27 1.29-2.81-0.13-5.43-1.47-3.2-1.65-6.26-3.52-1.84-1.13-2.97-1.08-1.5 0.06-3.15 1.1-1.69 1.06-3.35 2.15-1.98 1.3-3.48 1.89-12.68 4.97-18.1-7.88-1.42-3.37-1.57-7.05a0.74 0.74 84.1 0 0-0.86-0.7q-9.65 1.55-19.33-0.81" stroke="#cbc8c3" vector-effect="non-scaling-stroke"/> <path d="m224.54 222.75h0.17" stroke="#c0a181" vector-effect="non-scaling-stroke"/> <path d="m224.71 222.75q1.88 7.68 3.58 15.4 1.72 7.85 1.87 8.29 1.3 3.9 4.03 7.62 5.56 7.6 13.92 9.72 4.67 1.18 8.8 0.32 4.48-0.94 8.16-4.05a0.96 0.96 52.9 0 1 1.41 0.2q1.34 1.96 3.88 3.36 10.06 5.58 21.65 5.11 2.15-0.09 8.24-0.22 8.39-0.18 15.25-3.5 4.43-2.15 6.46-4.84a0.47 0.46-51.2 0 1 0.67-0.08q7.57 6.44 16.62 3.92 15.49-4.31 19.5-20.75 0.86-3.54 2.93-20.57" stroke="#7a7470" vector-effect="non-scaling-stroke"/> <path d="m223.75 221.04q0.95 0.57 0.79 1.71" stroke="#c8a685" vector-effect="non-scaling-stroke"/> <path d="m224.54 222.75q0.25 1.33-0.5 2.25" stroke="#c7c2bc" vector-effect="non-scaling-stroke"/> <path d="m211.96 199.02q-0.12 13.66-6.23 26.21" stroke="#552c0e" vector-effect="non-scaling-stroke"/> <path d="m205.73 225.23q0-3.26 1.3-6.47 2.33-5.81 2.07-11.23a1.86 1.86 89 0 0-1.84-1.78q-6.23-0.08-12.43 0.53-16.22 1.61-32.52 1.28-9.77-0.19-15.98-1.08-0.25-0.04-0.5-0.18-1.29-0.73-0.56 0.37a0.38 0.34 61 0 1-0.12 0.54q-0.4 0.16-0.9 0.08" stroke="#7e4515" vector-effect="non-scaling-stroke"/> <path d="m144.25 207.29q-5.52-12.74-7.21-26.54" stroke="#552c0e" vector-effect="non-scaling-stroke"/> <path d="m137.04 180.75q3.42-4.24 10.27-11.19 12.82-12.99 22.59-28.31a0.39 0.37 29.3 0 0-0.16-0.54q-1.57-0.75-3.24-0.5" stroke="#9d5d25" vector-effect="non-scaling-stroke"/> <path d="m216.5 88.96q-5.89 1.62-9.6 6.45-3.64 4.74-5.4 9.59-5.44 14.97-3.97 30.77 0.71 7.65 3.55 16.23 2.63 7.92 6.41 15.41 3.79 7.54 4.7 14.9 0.94 7.67-0.23 16.71" stroke="#704826" vector-effect="non-scaling-stroke"/> <path d="m211.96 199.02q-0.34-13.2-3.65-23.83-2.17-6.98-7-16.5-1.78-3.53-4.77-14.19" stroke="#a86a31" vector-effect="non-scaling-stroke"/> <path d="m214.93 191.71-1.39 11.04" stroke="#766962" vector-effect="non-scaling-stroke"/> <path d="m213.54 202.75q-1.79 13.45-7.04 25.96" stroke="#867b75" vector-effect="non-scaling-stroke"/> <path d="m206.5 228.71q-3.21 7.6-7.44 12.85-6.48 8.06-17.19 9.4" stroke="#8e8581" vector-effect="non-scaling-stroke"/> <path d="m138.2 168.8q-2.05 5.85-1.16 11.95" stroke="#653b1a" vector-effect="non-scaling-stroke"/> <path d="m144.25 207.29q5.19 13.2 12.6 25.3 4.6 7.51 11.86 12.44 6.07 4.12 12.95 3.96 5.11-0.12 10.05-3.42 10.66-7.12 14.02-20.34" stroke="#46230a" vector-effect="non-scaling-stroke"/> <path d="m300.79 207q-1.2 0.84-0.58 2.25" stroke="#5a534d" vector-effect="non-scaling-stroke"/> <path d="m300.21 209.25q-4.82-3.39-10.65-3.78a1.92 1.41-17.4 0 1-0.91-0.31l-1.77-1.31q-0.91-0.66-0.6 0.41 0.53 1.8-0.24 1.99" stroke="#3e3530" vector-effect="non-scaling-stroke"/> <path d="m286.04 206.25q-0.04-1.62-0.28-3.23-0.08-0.53-0.33-0.84-0.53-0.65-1-0.17" stroke="#5a534d" vector-effect="non-scaling-stroke"/> <path d="m286.04 206.25q-0.16 3.14-1.98 5.31-5.93 7.09-14.81 3.19-1.44-0.63-6.5-4.94" stroke="#504a45" vector-effect="non-scaling-stroke"/> <path d="m312.7 189.35q-21.16-4.34-42.17 0.81" stroke="#7f7873" vector-effect="non-scaling-stroke"/> <path d="m371.46 92.25q2.2 4.17 3.54 10 4.39 19.16 3.56 38.03-0.23 5.25-2.31 19.85-1.85 13-3.06 26.14" stroke="#653b1a" vector-effect="non-scaling-stroke"/> <path d="m373.19 186.27-1.48 8.23" stroke="#ceac8b" vector-effect="non-scaling-stroke"/> <path d="m371.71 194.5q-1.3 0.47-1.17 2" stroke="#b69474" vector-effect="non-scaling-stroke"/> <path d="m406.04 114-0.1 2.95q-0.02 0.7 0.11 0.94 4.27 8.2 9.29 15.96 2.13 3.29 3.63 5.91 2.84 4.96 3.53 5.99 12.23 18.25 30.33 34.19" stroke="#9e5e25" vector-effect="non-scaling-stroke"/> <path d="m452.83 179.94q0.42 4.23-0.87 8.81" stroke="#572d0f" vector-effect="non-scaling-stroke"/> <path d="m451.96 188.75q-1.51-0.54-0.96-2.51a0.98 0.98 6.5 0 0-0.99-1.24q-1.45 0.06-2.85 0.39-0.52 0.13-0.82-0.04-0.43-0.25-0.45-0.8a0.55 0.47 89.8 0 0-0.45-0.52q-4.9-0.33-9.76 0.15-4.36 0.44-8.4 0.41-6.05-0.04-12.01 1.01-6.59 1.16-12.72-1.42-1.91-0.8-3.28 0.75-2.03 2.29-6 1.47-2.34-0.48-4.54 0.19a1.86 1.42-39.1 0 1-0.97 0.03q-3.65-1-6.4-3.53-0.3-0.28-0.38 0.16l-0.51 2.71q-0.11 0.59-0.24-0.02-0.25-1.21-0.81-0.01-0.5 1.07-1.13 2.07" stroke="#884b18" vector-effect="non-scaling-stroke"/> <path d="m378.29 188q0.7-11.63 6.65-22.81 3.85-7.24 6.4-15.78 2.56-8.54 2.68-16.69 0.17-11.84-3.26-23.2-2.23-7.34-5.22-11.41-3.67-5.02-9.6-8.55-1.47-0.87-2.19 0.15" stroke="#a96b32" vector-effect="non-scaling-stroke"/> <path d="m373.75 89.71-4.01-1.21q-2.1-0.64-0.41 0.82 1.37 1.18 2.13 2.93" stroke="#572d0f" vector-effect="non-scaling-stroke"/> <path d="m371.46 92.25q-1.08 1.21-1.21 0-3.53-3.82-7.67-6.95-0.8-0.61-1.44-0.65-1.33-0.09-1.18 1.6" stroke="#9e5e25" vector-effect="non-scaling-stroke"/> <path d="m268.79 221q-0.2 2.41 1.55 4.16 4.87 4.86 6.02 11.47" stroke="#a29e98" vector-effect="non-scaling-stroke"/> <path d="m276.36 236.63q-5.7-1.35-2.72 3.68a0.51 0.51 62 0 1-0.22 0.72q-2.1 1.07-0.88 2.47" stroke="#c6c3be" vector-effect="non-scaling-stroke"/> <path d="m272.54 243.5q-1.07 4.48-4.73 7.14" stroke="#d3cec7" vector-effect="non-scaling-stroke"/> <path d="m268.29 246q2.88-0.23 1.71-2.71" stroke="#b7b4af" vector-effect="non-scaling-stroke"/> <path d="m267.04 226.75q3.12-1.4-0.24-1.75" stroke="#a29e98" vector-effect="non-scaling-stroke"/> <path d="m314.5 230.54q-0.78 1.28 0.5 1.92" stroke="#918d88" vector-effect="non-scaling-stroke"/> <path d="m313.96 237.75q-0.69-0.92-1.68-1.29a0.37 0.36-80.4 0 0-0.49 0.36q0.04 2.38 2.71 1.64" stroke="#918d88" vector-effect="non-scaling-stroke"/> <path d="m310.25 253.46 0.39-1.43a0.74 0.62 5 0 1 0.67-0.47q3.51-0.11 1.34-2.63a0.76 0.7-28.9 0 0-0.8-0.19q-2.74 0.91-3.55-1.76a0.8 0.37 75.6 0 0-0.49-0.6q-0.26 0.01-0.44 0.46-0.79 2.09-1.43 0.67-0.16-0.35-0.23-1.05-0.35-3.73-3.46-0.96-1.37 1.22-2.04-0.25" stroke="#a6a39e" vector-effect="non-scaling-stroke"/> <path d="m312.46 228.75q-5.1 9.04-12.25 16.5" stroke="#918d88" vector-effect="non-scaling-stroke"/> <path d="m300.21 245.25-3.96 1.71" stroke="#817d79" vector-effect="non-scaling-stroke"/> <path d="m279.04 238.25q-0.68 1.63-1.81 2.96-0.94 1.12-1.08 1.79-0.33 1.53 1.13 2.1a0.58 0.52 18.6 0 1 0.36 0.64q-0.3 1.03-0.99 1.84a0.59 0.58 47.3 0 0-0.02 0.73q0.64 0.87 0.44 1.89a0.87 0.68-5 0 1-0.62 0.58q-1.26 0.34-1.78 1.5a0.81 0.56 38.7 0 0 0.23 0.76q0.45 0.48 0.1 1.17" stroke="#a6a39e" vector-effect="non-scaling-stroke"/> <path d="m267 256.71q0.84-0.61 1.1-1.53a0.93 0.83-89.7 0 1 0.57-0.63q4.13-1.3 4.1-5.81a1.3 1.13-27.1 0 1 0.34-0.85q1.15-1.3 1.08-2.83-0.08-1.53-1.65-1.56" stroke="#c2bdb7" vector-effect="non-scaling-stroke"/> <path d="m291.59 245.92q-3.36 0.3-6.11-0.93-1.63-0.73-3.42-3.09-1.42-1.9-3.02-3.65" stroke="#817d79" vector-effect="non-scaling-stroke"/> <path d="m279.04 238.25q-0.46-0.98-1.36-1.36a0.68 0.59-56.7 0 0-0.71 0.2q-0.9 1.03-0.61-0.46" stroke="#918d88" vector-effect="non-scaling-stroke"/> <path d="m405.99 250.92q-0.53 3.62-1.13 7.23-0.57 3.46-1.66 7.1-5.85 19.47-7.14 25.06-1.59 6.89-2.07 13.94-1.01 14.49 5.76 27.25 1.67 3.15 0.54 5.5" stroke="#f7f6f3" vector-effect="non-scaling-stroke"/> <path d="m198.18 335.52q6.82-11.96 6.83-25.43 0-4.55-1.12-10.62-1.02-5.48-2.45-10.41-2.31-7.92-6.54-21.36-2.66-8.46-3.98-16.21a2.29 2.28-20.7 0 1 1.06-2.33q11.57-7 15.62-19.2 0.19-0.58 0.04-0.94-0.26-0.63-1.14-0.31" stroke="#f7f6f3" vector-effect="non-scaling-stroke"/> <path d="m213.54 202.75q0.39 0.49 0.93 0.76a0.64 0.56 20 0 1 0.36 0.66q-1.65 7.77 1.15 15.22 1.31 3.47 4.44 5.41a0.74 0.74 33.2 0 1 0.22 1.05q-10.12 14.51-11.43 31.65-0.19 2.53 0.57 1.37 0.21-0.32 0.27-0.78 1.74-13.01 6.76-24.03 2.17-4.75 6.31-9.29 0.23-0.25 0.47-0.28 0.48-0.07 0.45 0.51" stroke="#dfdad3" vector-effect="non-scaling-stroke"/> <path d="m224.04 225q-1.11 0.86-1.29 2.5-0.99 9.07 2.18 17.03 2.13 5.33 2.26 5.67 5.73 15.01 20.06 22.84" stroke="#d7d4cf" vector-effect="non-scaling-stroke"/> <path d="m247.25 273.04q8.29 5.05 11.9 13.87 1.42 3.48 1.44 3.52 1.98 4.23 4.71 8.02 7.91 11.02 21.7 10.83 3.44-0.04 7.54-1.91a0.79 0.78-29.2 0 1 0.98 0.27q2.17 3.19 5.04 3.8 8.01 1.68 15.37-1.78 6.94-3.27 9.57-10.64a0.74 0.74-67.2 0 1 1.02-0.42q4.43 2.16 8.36-0.04 1.69-0.95 1.84-2.88 0.3-3.93 0.6-7.42 0.49-5.7 4.1-10.1 3.93-4.79 8.01-9.82" stroke="#e3e0da" vector-effect="non-scaling-stroke"/> <path d="m349.43 268.34q11.36-11.33 14.52-27.14 0.48-2.41 0.7-6.47 0.24-4.74 0.6-6.48 0.48-2.33-1.13-4.01-1.04-1.08 0.46-0.93 0.53 0.05 1.42 0.73" stroke="#d7d4cf" vector-effect="non-scaling-stroke"/> <path d="m366 224.04q1.97 1.8 3.43 4.02 9.11 13.82 11.74 30.2a0.96 0.61 88.1 0 0 0.51 0.74q0.64 0.19 0.46-1.51-2.1-19.3-15.13-33.46a1.23 0.67-82.7 0 1-0.26-0.66l-0.04-0.37" stroke="#e3e0da" vector-effect="non-scaling-stroke"/> <path d="m366.71 223q8.36-13.14 5-28.5" stroke="#d7d4cf" vector-effect="non-scaling-stroke"/> <path d="m373.75 89.71 3.75 2.5" stroke="#6f4827" vector-effect="non-scaling-stroke"/> <path d="m377.5 92.21q-0.44-0.07-0.81 0.05a0.48 0.41 64.9 0 0-0.19 0.67q1.4 2.41 3.02 4.67 2.24 3.12 3.04 4.62 6.68 12.42 5.82 26.77-0.59 9.63-1.1 19.26-0.03 0.45-0.31 0.92-1.33 2.2 0.9 3.94" stroke="#150803" vector-effect="non-scaling-stroke"/> <path d="m387.87 153.11q-3.2 8.27-7.27 16.22-3.77 7.37-4.1 15.67-0.31 7.54 0.79 15" stroke="#6f4827" vector-effect="non-scaling-stroke"/> <path d="m377.29 200q2.95 23.16 14.77 40.69 5.11 7.58 14.89 8.25 1.07 0.07 3.1-0.1 1.56-0.13 3.12-0.14 2.63-0.02 4.46-0.89 8.83-4.25 14.68-12.75 7.19-10.44 11.49-21.4" stroke="#442209" vector-effect="non-scaling-stroke"/> <path d="m443.8 213.66q5.65-11.82 8.16-24.91" stroke="#4e280c" vector-effect="non-scaling-stroke"/> <path d="m452.83 179.94q0.78-6.33-2.28-11.61" stroke="#653b1a" vector-effect="non-scaling-stroke"/> <path d="m415.67 250.56-9.68 0.36" stroke="#8e8581" vector-effect="non-scaling-stroke"/> <path d="m405.99 250.92q-6.71-1-11.3-5.11-6.15-5.5-10.23-14.57-9.65-21.46-11.27-44.97" stroke="#867b75" vector-effect="non-scaling-stroke"/> <path d="m443.8 213.66q-12.2-0.5-24.3 1.31-1.82 0.28-3.52 0.22-1.78-0.05-3.56-0.11-1.67-0.05-5.32 0.09-4.03 0.16-8.03-0.33-2.04-0.25-4.59 0.17-3.49 0.57-7.04-0.12a0.2 0.18-63.6 0 1-0.09-0.32q0.28-0.36-0.61-0.45-2.69-0.27-5.31-0.93a0.85 0.78 2.3 0 1-0.61-0.61l-2.61-13.33" stroke="#754012" vector-effect="non-scaling-stroke"/> <path d="m378.29 188-0.08 11.25" stroke="#a06630" vector-effect="non-scaling-stroke"/> <path d="m378.21 199.25q-0.42 0.89-0.92 0.75" stroke="#965f2d" vector-effect="non-scaling-stroke"/> <path d="m387.87 153.11q8.55-24.46-1.01-48.44-2.99-7.51-9.36-12.46" stroke="#674627" vector-effect="non-scaling-stroke"/> <path d="m254.54 131.75q-1.82-0.52-2.5 1.5" stroke="#88522a" vector-effect="non-scaling-stroke"/> <path d="m252.04 133.25q0.04-0.59-0.5-0.5" stroke="#c1a180" vector-effect="non-scaling-stroke"/> <path d="m251.54 132.75 2.62-3.15q0.33-0.4 0.73-0.64 1.06-0.65 1.15-1.96" stroke="#684626" vector-effect="non-scaling-stroke"/> <path d="m256.04 127q0.81 1.37 0.98 2.94a0.68 0.53 85.9 0 0 0.54 0.6q0.65 0 1.41-0.67" stroke="#dcbc9d" vector-effect="non-scaling-stroke"/> <path d="m258.97 129.87q0.58 0.73 0.78-0.37 0.08-0.44-0.04-2.75" stroke="#88522a" vector-effect="non-scaling-stroke"/> <path d="m259.71 126.75q2-9.46-0.71-17.25-2.6-7.46-9.37-8.84-5.45-1.11-11.45 1.76-8.06 3.86-11.37 12.89-1.6 4.39-2.34 9.47-0.53 3.62 0.46 6.98 1.03 3.5 3.07 8.99 2.28 6.14 6.61 9.58 4.51 3.58 9.56 3.33 6.2-0.32 8.87-7.49 1.29-3.47 2.96-12.92 0.32-1.81-1.46-1.5" stroke="#b4753b" vector-effect="non-scaling-stroke"/> <path d="m259.71 126.75q-2-4.87-4.74-9.32-1.61-2.61-3.95-3.82-3.78-1.95-7.96-2.23-4.13-0.27-7.68 1.96-5.69 3.56-8.26 10.13a1.79 1.34-12.9 0 1-0.61 0.72q-1.38 0.9-0.94 2.34 0.14 0.48 0.43 0.05 0.81-1.23 2.25-1.62" stroke="#7a421c" vector-effect="non-scaling-stroke"/> <path d="m228.25 124.96q0.34 0.17 0.29 0.54" stroke="#ceac8f" vector-effect="non-scaling-stroke"/> <path d="m228.54 125.5q-1.65 6.1 3.37 9.27" stroke="#b4753b" vector-effect="non-scaling-stroke"/> <path d="m231.91 134.77q7.25 10.11 16.33 3.72 1.46-1.02 3.28-3.22 1.48-1.79 3.02-3.52" stroke="#7a421c" vector-effect="non-scaling-stroke"/> <path d="m231.54 128.75-0.58 1" stroke="#c0a181" vector-effect="non-scaling-stroke"/> <path d="m230.96 129.75-0.94-2.08a0.45 0.41 55.2 0 0-0.7-0.16q-0.26 0.27-0.08 0.71 0.25 0.59 0.29 0.73 0.74 3.08 2.38 5.82" stroke="#87522b" vector-effect="non-scaling-stroke"/> <path d="m230.96 129.75q1.16 4.09 4.13 6.67 2.94 2.56 6.91 2.66 6.26 0.15 10.04-5.83" stroke="#866e61" vector-effect="non-scaling-stroke"/> <path d="m258.97 129.87q-1.75-8.2-7.97-13.86-5.6-5.09-12.19-2.7-7.84 2.85-10.56 11.65" stroke="#a1897e" vector-effect="non-scaling-stroke"/> <path d="m256.04 127q-2.34-6.73-6.35-9.44-5.13-3.46-10.75-1.62-5.02 1.64-7.48 6.81" stroke="#817d7a" vector-effect="non-scaling-stroke"/> <path d="m231.46 122.75q-0.85 2.09-2.92 2.75" stroke="#dbbc9e" vector-effect="non-scaling-stroke"/> <path d="m251.54 132.75q-3.42 3.98-7.54 4.5-9.75 1.22-12.46-8.5" stroke="#66615d" vector-effect="non-scaling-stroke"/> <path d="m231.54 128.75-0.08-6" stroke="#674627" vector-effect="non-scaling-stroke"/> <path d="m327.97 126.52q-0.45 1.44 0.03 2.82a1.01 0.85 0.9 0 0 0.67 0.58q1.35 0.37 2.37 1.33" stroke="#965f2d" vector-effect="non-scaling-stroke"/> <path d="m331.04 131.25q0.66 5.93 2.01 11.74 0.63 2.69 2.51 5.7 3.85 6.13 10.93 4.75 6.11-1.18 9.77-6.17 3.63-4.95 5.87-10.57 2.37-5.93 1.89-11.71-1.08-13.03-12.3-21.22-6.55-4.78-13.63-2.99-4.47 1.14-7.2 4.45-2.8 3.41-3.39 8.27-0.83 6.87 0.47 13.02" stroke="#b4753b" vector-effect="non-scaling-stroke"/> <path d="m331.04 131.25q0.29-0.68 0.96-0.79" stroke="#894f1e" vector-effect="non-scaling-stroke"/> <path d="m332 130.46q0.74 0.21 1.12 0.89 2.13 3.78 5.46 6.54 3.81 3.16 8.26 3.05 4.19-0.11 7.39-3.34 3.13-3.14 4.22-7.74" stroke="#7a421c" vector-effect="non-scaling-stroke"/> <path d="m358.45 129.86q2.01-0.77 1.09-3.61" stroke="#cdab8d" vector-effect="non-scaling-stroke"/> <path d="m359.54 126.25q1.68-0.09 0.67-1.75" stroke="#894f1e" vector-effect="non-scaling-stroke"/> <path d="m360.21 124.5q0.97-1.22 0.19-1.96a1.2 1.05 23.7 0 1-0.37-0.79q-0.04-0.96-0.81-1.34a0.72 0.63 17.4 0 1-0.4-0.65l0.34-3.71a1.57 1.3 36.2 0 0-0.23-0.92q-1.98-3.19-6.18-4.88-4.2-1.68-5.42-1.91" stroke="#9b5b23" vector-effect="non-scaling-stroke"/> <path d="m347.33 108.34q-11.15-1.22-15.28 8.68-1.97 4.72-4.08 9.5" stroke="#894f1e" vector-effect="non-scaling-stroke"/> <path d="m347.33 108.34q-0.71 2.12-3.83 1.66-2.96-0.44-6.25 1.72-1.28 0.83-0.42 1.52a0.83 0.67-38.2 0 0 0.85 0.01q4.15-2.4 8.65-1.97 4.12 0.39 7.62 3.51 4.34 3.87 6.26 9.71" stroke="#7e4515" vector-effect="non-scaling-stroke"/> <path d="m359.54 126.25q-2.15-7.18-6.85-10.69-8.87-6.62-17.38 1.25-3.72 3.45-6.37 10.25-0.51 1.32-0.17 2.04 0.53 1.15 2.48 0.69" stroke="#af957f" vector-effect="non-scaling-stroke"/> <path d="m331.25 129.79q0.46 0.26 0.75 0.67" stroke="#5c2c0d" vector-effect="non-scaling-stroke"/> <path d="m335.09 131.55q2.22 6.54 9.31 7.73 5.84 0.97 9.66-3.47 2.48-2.87 2.98-6.31" stroke="#866e61" vector-effect="non-scaling-stroke"/> <path d="m357.04 129.5q0.12-1.12 0.67-2" stroke="#5d4337" vector-effect="non-scaling-stroke"/> <path d="m358.45 129.86-0.74-2.36" stroke="#a0887d" vector-effect="non-scaling-stroke"/> <path d="m357.71 127.5-0.92-2.25" stroke="#b0aca8" vector-effect="non-scaling-stroke"/> <path d="m356.79 125.25q-2.72-8.66-10.73-9.69-4.32-0.55-7.7 1.76-3.5 2.4-5.15 6.68" stroke="#86827f" vector-effect="non-scaling-stroke"/> <path d="m333.21 124q-1.55 2.55-1.46 5 0.03 0.81-0.5 0.79" stroke="#a0887d" vector-effect="non-scaling-stroke"/> <path d="m356.79 125.25q-0.58 1.58-0.5 3.25" stroke="#433d39" vector-effect="non-scaling-stroke"/> <path d="m356.29 128.5q-1.13 4.73-4.64 7.22-3.35 2.36-7.71 1.56-5.34-0.97-8.85-5.73" stroke="#6c6763" vector-effect="non-scaling-stroke"/> <path d="m335.09 131.55q-1.89-3.61-1.88-7.55" stroke="#33190d" vector-effect="non-scaling-stroke"/> <path d="m357.04 129.5q0.22-1.19-0.75-1" stroke="#96928d" vector-effect="non-scaling-stroke"/> <path d="m239.34 125.46a2.7 1.82 109.9 0 0 2.6303-1.9193 2.7 1.82 109.9 0 0-0.7923-3.1583 2.7 1.82 109.9 0 0-2.6303 1.9193 2.7 1.82 109.9 0 0 0.7923 3.1583" stroke="#868381" vector-effect="non-scaling-stroke"/> <path d="m353.38 129.17q2.17-2.83-0.18-5.87-2.51-3.23-4.45-3.55-3.14-0.52-6.26-1.15a1.08 0.73 22 0 0-0.89 0.19l-3.63 3.74a1.36 0.57-54 0 1-0.78 0.47l-2.7 0.23a0.82 0.68 4.2 0 0-0.68 0.48q-0.25 0.79 0 1.57a0.71 0.52-7.9 0 0 0.68 0.37q0.64-0.03 0.6 0.61a1.38 0.86-72.8 0 0 0.23 0.87q1 1.25 1.78 2.64 0.96 1.71 1.89 2.49 4.56 3.79 10.01 2.74 3.73-0.72 4.04-4.94a1.74 1.54-27.5 0 1 0.34-0.89" stroke="#130c09" vector-effect="non-scaling-stroke"/> <path d="m341.19 122.19q-1.08 2.92 2.06 3.06a1.17 1.12 22.3 0 0 0.87-0.34q1.64-1.65 0.46-3.79a1.1 1.04 78.8 0 0-0.76-0.54q-1.93-0.29-2.63 1.61" stroke="#7f7b77" vector-effect="non-scaling-stroke"/> <path d="m285.94 183.31q5.02-0.4 10.06-0.29 1.53 0.03 2.93 0.58 1.77 0.69 2.79 0.77 2.44 0.2 4.89 0.37 0.36 0.02 2.04 0.55 1.34 0.42 2.27-0.82a0.41 0.39 29.1 0 0-0.19-0.6q-4.24-1.7-7.73-1.62-8.3 0.19-16.58 0.43-0.24 0.01-0.43 0.11-1.05 0.6-0.05 0.52" stroke="#33190d" vector-effect="non-scaling-stroke"/> <path d="m263.84 225.14q1.74-2.79-1.68-1a1.03 1.03-34.7 0 0-0.29 1.59q1.12 1.28 1.55 0.33 0.36-0.83 0.42-0.92" stroke="#c6c3c0" vector-effect="non-scaling-stroke"/> <path d="m246.71 225.58q-1.36 0.01-1.21 1.67 0.15 1.71 1.81 1.62a1.13 1.08-71.7 0 0 0.83-0.44q0.94-1.24 0.08-2.2-0.59-0.67-1.51-0.65" stroke="#c6c3c0" vector-effect="non-scaling-stroke"/> <path d="m259.12 228.79q-0.07-1.14-1.31-1.41a1.09 1.04 30 0 0-0.91 0.22q-1.02 0.84-0.15 2.15 0.96 1.45 1.87 0.44 0.55-0.6 0.5-1.4" stroke="#d5d3cf" vector-effect="non-scaling-stroke"/> <path d="m261.28 236.39q1.27-0.57 0.67-1.5-0.36-0.57-1.24-0.85-2.81-0.91-2.52 1.9 0.09 0.84 0.62 1.3 0.95 0.84 1.74-0.26a1.82 1.72-82.2 0 1 0.73-0.59" stroke="#d5d3cf" vector-effect="non-scaling-stroke"/> <path d="m250.86 236.59a1.58 1.58 0 0 0-1.58-1.58 1.58 1.58 0 0 0-1.58 1.58 1.58 1.58 0 0 0 1.58 1.58 1.58 1.58 0 0 0 1.58-1.58" stroke="#d5d3cf" vector-effect="non-scaling-stroke"/> <path d="m259.44 244.17q-0.69 1.9 0.63 2.25 0.88 0.24 1.78-0.31 1.56-0.96-0.36-2.5a1.31 1.31 29.6 0 0-2.05 0.56" stroke="#c6c3c0" vector-effect="non-scaling-stroke"/> <path d="m252.07 244.33q-2.64-0.49-1.15 2.05a0.92 0.92-14.4 0 0 0.78 0.46q2.39 0.06 1.14-1.98a1.13 1.11-10 0 0-0.77-0.53" stroke="#c6c3c0" vector-effect="non-scaling-stroke"/> <path d="m328.06 229.06q0.13-1.48-1.04-1.75-0.74-0.18-1.47 0.28-1.35 0.84 0.39 1.97a1.46 1.07 23 0 0 2.12-0.5" stroke="#c5c2bf" vector-effect="non-scaling-stroke"/> <path d="m327.9 236.92a1.88 1.35 32.3 0 0-0.8677-2.1457 1.88 1.35 32.3 0 0-2.3105 0.1365 1.88 1.35 32.3 0 0 0.8677 2.1457 1.88 1.35 32.3 0 0 2.3105-0.1365" stroke="#c5c2bf" vector-effect="non-scaling-stroke"/> <path d="m335.2 236.43q0.17 2.68 2.44 1.39a0.81 0.8-16.7 0 0 0.41-0.75q-0.16-2.32-2.41-1.35a0.73 0.73 76.8 0 0-0.44 0.71" stroke="#d4d2ce" vector-effect="non-scaling-stroke"/> <path d="m325.38 244.43q-0.3 1.39 0.78 1.86 0.74 0.32 1.68 0.01 2.09-0.69-0.6-2.59a1.2 1.2 23.8 0 0-1.86 0.72" stroke="#d4d2ce" vector-effect="non-scaling-stroke"/> <path d="m337.74 245.81a1.52 1.52 0 0 0-1.52-1.52 1.52 1.52 0 0 0-1.52 1.52 1.52 1.52 0 0 0 1.52 1.52 1.52 1.52 0 0 0 1.52-1.52" stroke="#d4d2ce" vector-effect="non-scaling-stroke"/> <path d="m270 230.79q-3.9 0.59-2.1 2.62 0.66 0.76 1.44 0.72 1.03-0.06 1.37-1.38" stroke="#c6c3be" vector-effect="non-scaling-stroke"/> <path d="m270.71 232.75q2.14-3-0.71-1.96" stroke="#a29e98" vector-effect="non-scaling-stroke"/> <path d="m270.71 232.75q-1.17-0.56-0.71-1.96" stroke="#918d88" vector-effect="non-scaling-stroke"/> <path d="m317.43 225.22q-0.21 1.3 1.02 1.88 2.21 1.05-0.21-2.09-0.64-0.82-0.81 0.21" stroke="#b7b4af" vector-effect="non-scaling-stroke"/> <path d="m319.03 232.59q-1.07 1.13-0.06 1.66a0.59 0.59 29.8 0 0 0.78-0.21q0.57-0.91-0.23-1.88a0.17 0.15 51.8 0 0-0.21-0.04q-0.05 0.04-0.08 0.1-0.2 0.37-0.2 0.37" stroke="#c6c3be" vector-effect="non-scaling-stroke"/> <path d="m319.85 244.7q0.2-1.93-1.68-1.67-0.97 0.14-1.57 0.91-1.32 1.7 2.03 1.82a1.18 1.18 3.9 0 0 1.22-1.06" stroke="#b7b4af" vector-effect="non-scaling-stroke"/> </g> <path d="m338.75 66.15q-9.25 1.39-16.06 7.8-4.36 2.47-9.88 6.86-5.39 4.3-6.98 10.46-3.18 12.35-1.99 24.9 0.59 6.19 1.33 10.15 0.96 5.11 3.03 9.82 1.73 3.93 7.69 11.98 11.75 15.83 21.06 33.24 6.09 11.39 14.66 21.04 1.74 1.95 2 4.59 0.11 1.04 0.19-0.24 0.12-2.03 0.26 0.25 0.32 5.4 0.48 0 0.79 2.64 0.93 5.36 0.1 1.89 0.46 3.21 0.44 1.59 0.86 3.18-0.08 0.25 0 0.5-0.06 3.76-0.05 7.52 0.01 1.55-0.28 2.43-0.91 2.82-3.17 0.05-1.46-2.88-3.58-0.5-1.1 1.96-2.65 0.94-3.31-2.18-6.7-0.4-0.51 0.26-0.4-0.3 0.24-1.31-0.42-2.24-1.52-2.96-3.49-0.29l-6.13-0.4a1.56 1.54 89.3 0 1-1.43-1.41q-0.11-1.2-0.29-2.43-0.17-1.15 0.03-2.42 0.48-3.01-0.23-4.93-0.7-1.91-0.03-3.83 1.24-3.59 0.26-5.84a0.71 0.62-14.6 0 0-0.72-0.36q-1.92 0.25-2.55-1.59v-1.25q1.21-10.09-5.19-15.7-3.6-3.16-10.95-4.66-16.25-3.3-32.46 0.2-7.18 1.55-10.8 4.7-7.23 6.28-4.77 17.46-0.37 2.64-2.36 0.23a1.97 1.95 22.9 0 1-0.42-1.02q-0.11-1-0.37-1.27-0.41-0.43-0.5 0.49-0.44 4.41 0.01 8.83 0.46 4.5-0.21 9.41-0.31 2.34-2.63 1.9-3.59-0.68-6.64 1.55-2.04 1.49-4.57 1.45-3.96-0.05-5.85 2.22-1.07-0.52-2.21-0.04-1.08-2.18-3.06-3.54a1.66 1.38 11.6 0 1-0.6-0.75q-1.06-2.98-0.67-6.21v-1l2.63-9.57q2.56-3.47 5.09-6.75 8.69-11.22 14.63-24.12 6.58-14.29 19.11-29.39 4.76-5.73 5.83-9.17 4.69-15.11 3.75-33.25-0.44-8.51-3.23-15.16-1.4-3.33-3.81-6.18-2.6-3.08-5.4-4.97-1.16-0.79-3.27-0.44-5.8-8.74-16.14-11.25 11.2-7.24 25.1-5.75 7.14 0.76 11.43 1.31 5.77 0.73 9.66 0.39 4.33-0.38 9.66-1.2 4.79-0.73 11.75-0.87 11.61-0.23 21.25 6.27z" fill="#fff"/> <path d="m249.9 66q10.34 2.51 16.14 11.25 2.74 5.48 4.01 11.49 6.72 31.89-10.3 58.55-3.21 5.04-4.19 6.68-2.01 3.39-4.09 6.74-9.18 14.78-14.36 31.26-7.73-4.35-15.36-2.47-1.87 0.46-2.96 0.22a1.49 1.22-47 0 0-0.9 0.12q-0.62 0.29-0.58-0.65 0.26-5.83 1.57-13.96 1.69-10.56 0.96-21.24-0.8-11.73-0.77-23.49 0.05-20.51 7.24-39.69 2.32-6.18 7.73-13.55 0.66-0.9 2.84-3.13 1.49-1.53 2.61-3.37 5.03-3.18 10.41-4.76zm4.64 65.75q-1.82-0.52-2.5 1.5 0.04-0.59-0.5-0.5l2.62-3.15q0.33-0.4 0.73-0.64 1.06-0.65 1.15-1.96 0.81 1.37 0.98 2.94a0.68 0.53 85.9 0 0 0.54 0.6q0.65 0 1.41-0.67 0.58 0.73 0.78-0.37 0.08-0.44-0.04-2.75 2-9.46-0.71-17.25-2.6-7.46-9.37-8.84-5.45-1.11-11.45 1.76-8.06 3.86-11.37 12.89-1.6 4.39-2.34 9.47-0.53 3.62 0.46 6.98 1.03 3.5 3.07 8.99 2.28 6.14 6.61 9.58 4.51 3.58 9.56 3.33 6.2-0.32 8.87-7.49 1.29-3.47 2.96-12.92 0.32-1.81-1.46-1.5z" fill="#c28549"/> <path d="m338.75 66.15q6.97 2.35 12.81 6.51l8.4 13.59q4.83 9.95 6.54 18 4.07 19.2 2.75 41.49-0.98 16.59-1 20.26-0.05 8.8 1.5 19.25 0.67 4.55 0.79 11.25-1.96 13.97-8.86 26.18 0.36-1.57-0.63-2.43-0.67-0.57-1.91-1.21-1.09-0.56-2.35-0.29-0.42-1.59-0.86-3.18-0.36-1.32-0.46-3.21-0.14-2.72-0.93-5.36-4.14-16.85-10.35-29.69-5.89-12.17-17.15-30.66-7.93-13.05-11.18-27.97-3.28-15.07 0.51-29.78 1.4-5.43 2.3-7.8 1.46-3.81 4.02-7.15 6.81-6.41 16.06-7.8zm-10.78 60.37q-0.45 1.44 0.03 2.82a1.01 0.85 0.9 0 0 0.67 0.58q1.35 0.37 2.37 1.33 0.66 5.93 2.01 11.74 0.63 2.69 2.51 5.7 3.85 6.13 10.93 4.75 6.11-1.18 9.77-6.17 3.63-4.95 5.87-10.57 2.37-5.93 1.89-11.71-1.08-13.03-12.3-21.22-6.55-4.78-13.63-2.99-4.47 1.14-7.2 4.45-2.8 3.41-3.39 8.27-0.83 6.87 0.47 13.02z" fill="#c1854a"/> <path d="m239.49 70.76q-1.12 1.84-2.61 3.37-2.18 2.23-2.84 3.13-5.41 7.37-7.73 13.55-7.19 19.18-7.24 39.69-0.03 11.76 0.77 23.49 0.73 10.68-0.96 21.24-1.31 8.13-1.57 13.96-0.04 0.94 0.58 0.65a1.49 1.22-47 0 1 0.9-0.12q1.09 0.24 2.96-0.22 7.63-1.88 15.36 2.47l-3.77 14.71-2.63 9.57q-4.09 1.5-6.96 4.79-5.12-8.78-6.5-19.29-0.62-4.68-2.32-10.04-0.06-17.9-2.63-35.72-3.32-22.97 0.01-45.93 1.65-11.37 5.66-19.74 0.4-0.82 0.28-1.2-0.21-0.74-1.75-0.16 0.26-0.42 0.21-0.77a0.63 0.47-8.8 0 0-0.7-0.37q-2.13 0.36-3.98 1.49-7.5 4.58-11.32 11.9-2.85 5.47-4.71 15.23-2.66 13.91 0.54 28.06-0.11 1.6-0.75 1.06-0.27-0.22-0.39-0.73-5.75-23.53 4.66-45.27 0.89-1.86 4.55-6.5 0.58-0.74 1.48-1.42 4.7-3.57-2.1-2.24-0.44 0.09-0.85 0.43-1.8 1.52-2.85-0.33 1.87-1.72 6.4-3.81 4.87-2.26 9.89-0.25a1.42 1.42-53.9 0 0 1.46-0.23q9.94-8.3 21.45-14.45z" fill="#aa6c33"/> <path d="m351.56 72.66 18.76 12.36a2.23 1.98 50.4 0 0 1.79 0.28q6.96-2.25 12.7 1.89 5.36 3.86 8.21 7.53 7.15 9.21 13.02 19.28l-0.1 2.95q-0.02 0.7 0.11 0.94 4.27 8.2 9.29 15.96 2.13 3.29 3.63 5.91 2.84 4.96 3.53 5.99 12.23 18.25 30.33 34.19 0.42 4.23-0.87 8.81-1.51-0.54-0.96-2.51a0.98 0.98 6.5 0 0-0.99-1.24q-1.45 0.06-2.85 0.39-0.52 0.13-0.82-0.04-0.43-0.25-0.45-0.8a0.55 0.47 89.8 0 0-0.45-0.52q-4.9-0.33-9.76 0.15-4.36 0.44-8.4 0.41-6.05-0.04-12.01 1.01-6.59 1.16-12.72-1.42-1.91-0.8-3.28 0.75-2.03 2.29-6 1.47-2.34-0.48-4.54 0.19a1.86 1.42-39.1 0 1-0.97 0.03q-3.65-1-6.4-3.53-0.3-0.28-0.38 0.16l-0.51 2.71q-0.11 0.59-0.24-0.02-0.25-1.21-0.81-0.01-0.5 1.07-1.13 2.07 0.7-11.63 6.65-22.81 3.85-7.24 6.4-15.78 2.56-8.54 2.68-16.69 0.17-11.84-3.26-23.2-2.23-7.34-5.22-11.41-3.67-5.02-9.6-8.55-1.47-0.87-2.19 0.15l-4.01-1.21q-2.1-0.64-0.41 0.82 1.37 1.18 2.13 2.93-1.08 1.21-1.21 0-3.53-3.82-7.67-6.95-0.8-0.61-1.44-0.65-1.33-0.09-1.18 1.6l-8.4-13.59z" fill="#90501a"/> <path d="m322.69 73.95q-2.56 3.34-4.02 7.15-0.9 2.37-2.3 7.8-3.79 14.71-0.51 29.78 3.25 14.92 11.18 27.97 11.26 18.49 17.15 30.66 6.21 12.84 10.35 29.69-0.16 5.4-0.48 0-0.14-2.28-0.26-0.25-0.08 1.28-0.19 0.24-0.26-2.64-2-4.59-8.57-9.65-14.66-21.04-9.31-17.41-21.06-33.24-5.96-8.05-7.69-11.98-2.07-4.71-3.03-9.82-0.74-3.96-1.33-10.15-1.19-12.55 1.99-24.9 1.59-6.16 6.98-10.46 5.52-4.39 9.88-6.86z" fill="#f1efea"/> <path d="m266.04 77.25q2.11-0.35 3.27 0.44 2.8 1.89 5.4 4.97 2.41 2.85 3.81 6.18 2.79 6.65 3.23 15.16 0.94 18.14-3.75 33.25-1.07 3.44-5.83 9.17-12.53 15.1-19.11 29.39-5.94 12.9-14.63 24.12-2.53 3.28-5.09 6.75l3.77-14.71q5.18-16.48 14.36-31.26 2.08-3.35 4.09-6.74 0.98-1.64 4.19-6.68 17.02-26.66 10.3-58.55-1.27-6.01-4.01-11.49z" fill="#f1efea"/> <path d="m371.46 92.25q2.2 4.17 3.54 10 4.39 19.16 3.56 38.03-0.23 5.25-2.31 19.85-1.85 13-3.06 26.14l-1.48 8.23q-1.3 0.47-1.17 2-0.12-6.7-0.79-11.25-1.55-10.45-1.5-19.25 0.02-3.67 1-20.26 1.32-22.29-2.75-41.49-1.71-8.05-6.54-18-0.15-1.69 1.18-1.6 0.64 0.04 1.44 0.65 4.14 3.13 7.67 6.95 0.13 1.21 1.21 0z" fill="#ac6b30"/> <path d="m216.5 88.96q-5.89 1.62-9.6 6.45-3.64 4.74-5.4 9.59-5.44 14.97-3.97 30.77 0.71 7.65 3.55 16.23 2.63 7.92 6.41 15.41 3.79 7.54 4.7 14.9 0.94 7.67-0.23 16.71-0.34-13.2-3.65-23.83-2.17-6.98-7-16.5-1.78-3.53-4.77-14.19-3.2-14.15-0.54-28.06 1.86-9.76 4.71-15.23 3.82-7.32 11.32-11.9 1.85-1.13 3.98-1.49a0.63 0.47-8.8 0 1 0.7 0.37q0.05 0.35-0.21 0.77z" fill="#c28549"/> <path d="m373.75 89.71 3.75 2.5q-0.44-0.07-0.81 0.05a0.48 0.41 64.9 0 0-0.19 0.67q1.4 2.41 3.02 4.67 2.24 3.12 3.04 4.62 6.68 12.42 5.82 26.77-0.59 9.63-1.1 19.26-0.03 0.45-0.31 0.92-1.33 2.2 0.9 3.94-3.2 8.27-7.27 16.22-3.77 7.37-4.1 15.67-0.31 7.54 0.79 15 2.95 23.16 14.77 40.69 5.11 7.58 14.89 8.25 1.07 0.07 3.1-0.1 1.56-0.13 3.12-0.14 2.63-0.02 4.46-0.89 8.83-4.25 14.68-12.75 7.19-10.44 11.49-21.4 5.65-11.82 8.16-24.91 1.29-4.58 0.87-8.81 0.78-6.33-2.28-11.61 4.35 4.53 3.95 10.42-0.58 8.49-2.99 17.1-2.07 7.4-5.69 16.32-6.96 17.13-17.88 30.02-3.88 4.57-12.27 8.37l-9.68 0.36q-6.71-1-11.3-5.11-6.15-5.5-10.23-14.57-9.65-21.46-11.27-44.97 1.21-13.14 3.06-26.14 2.08-14.6 2.31-19.85 0.83-18.87-3.56-38.03-1.34-5.83-3.54-10-0.76-1.75-2.13-2.93-1.69-1.46 0.41-0.82l4.01 1.21z" fill="#1d0a03"/> <path d="m196.54 144.5q2.99 10.66 4.77 14.19 4.83 9.52 7 16.5 3.31 10.63 3.65 23.83-0.12 13.66-6.23 26.21 0-3.26 1.3-6.47 2.33-5.81 2.07-11.23a1.86 1.86 89 0 0-1.84-1.78q-6.23-0.08-12.43 0.53-16.22 1.61-32.52 1.28-9.77-0.19-15.98-1.08-0.25-0.04-0.5-0.18-1.29-0.73-0.56 0.37a0.38 0.34 61 0 1-0.12 0.54q-0.4 0.16-0.9 0.08-5.52-12.74-7.21-26.54 3.42-4.24 10.27-11.19 12.82-12.99 22.59-28.31a0.39 0.37 29.3 0 0-0.16-0.54q-1.57-0.75-3.24-0.5 7.02-9.52 12.91-19.79 2.1-3.66 12.03-19.98 4.11-6.76 8.85-10.94 1.05 1.85 2.85 0.33 0.41-0.34 0.85-0.43 6.8-1.33 2.1 2.24-0.9 0.68-1.48 1.42-3.66 4.64-4.55 6.5-10.41 21.74-4.66 45.27 0.12 0.51 0.39 0.73 0.64 0.54 0.75-1.06z" fill="#8d4e19"/> <path d="m214.93 191.71-1.39 11.04q-1.79 13.45-7.04 25.96-3.21 7.6-7.44 12.85-6.48 8.06-17.19 9.4-11.9-1.56-19.43-9.4-3.83-3.98-7.31-9.7-2.24-3.7-5.9-10.58-11.04-20.78-13.98-43.03-0.65-4.9 2.95-9.45-2.05 5.85-1.16 11.95 1.69 13.8 7.21 26.54 5.19 13.2 12.6 25.3 4.6 7.51 11.86 12.44 6.07 4.12 12.95 3.96 5.11-0.12 10.05-3.42 10.66-7.12 14.02-20.34 6.11-12.55 6.23-26.21 1.17-9.04 0.23-16.71-0.91-7.36-4.7-14.9-3.78-7.49-6.41-15.41-2.84-8.58-3.55-16.23-1.47-15.8 3.97-30.77 1.76-4.85 5.4-9.59 3.71-4.83 9.6-6.45 1.54-0.58 1.75 0.16 0.12 0.38-0.28 1.2-4.01 8.37-5.66 19.74-3.33 22.96-0.01 45.93 2.57 17.82 2.63 35.72z" fill="#1d0a03"/> <path d="m378.29 188-0.08 11.25q-0.42 0.89-0.92 0.75-1.1-7.46-0.79-15 0.33-8.3 4.1-15.67 4.07-7.95 7.27-16.22 8.55-24.46-1.01-48.44-2.99-7.51-9.36-12.46l-3.75-2.5q0.72-1.02 2.19-0.15 5.93 3.53 9.6 8.55 2.99 4.07 5.22 11.41 3.43 11.36 3.26 23.2-0.12 8.15-2.68 16.69-2.55 8.54-6.4 15.78-5.95 11.18-6.65 22.81z" fill="#c1854a"/> <path d="m377.5 92.21q6.37 4.95 9.36 12.46 9.56 23.98 1.01 48.44-2.23-1.74-0.9-3.94 0.28-0.47 0.31-0.92 0.51-9.63 1.1-19.26 0.86-14.35-5.82-26.77-0.8-1.5-3.04-4.62-1.62-2.26-3.02-4.67a0.48 0.41 64.9 0 1 0.19-0.67q0.37-0.12 0.81-0.05z" fill="#0d0603"/> <path d="m259.71 126.75q-2-4.87-4.74-9.32-1.61-2.61-3.95-3.82-3.78-1.95-7.96-2.23-4.13-0.27-7.68 1.96-5.69 3.56-8.26 10.13a1.79 1.34-12.9 0 1-0.61 0.72q-1.38 0.9-0.94 2.34 0.14 0.48 0.43 0.05 0.81-1.23 2.25-1.62 0.34 0.17 0.29 0.54-1.65 6.1 3.37 9.27 7.25 10.11 16.33 3.72 1.46-1.02 3.28-3.22 1.48-1.79 3.02-3.52 1.78-0.31 1.46 1.5-1.67 9.45-2.96 12.92-2.67 7.17-8.87 7.49-5.05 0.25-9.56-3.33-4.33-3.44-6.61-9.58-2.04-5.49-3.07-8.99-0.99-3.36-0.46-6.98 0.74-5.08 2.34-9.47 3.31-9.03 11.37-12.89 6-2.87 11.45-1.76 6.77 1.38 9.37 8.84 2.71 7.79 0.71 17.25z" fill="#a6652c"/> <path d="m331.04 131.25q0.29-0.68 0.96-0.79 0.74 0.21 1.12 0.89 2.13 3.78 5.46 6.54 3.81 3.16 8.26 3.05 4.19-0.11 7.39-3.34 3.13-3.14 4.22-7.74 2.01-0.77 1.09-3.61 1.68-0.09 0.67-1.75 0.97-1.22 0.19-1.96a1.2 1.05 23.7 0 1-0.37-0.79q-0.04-0.96-0.81-1.34a0.72 0.63 17.4 0 1-0.4-0.65l0.34-3.71a1.57 1.3 36.2 0 0-0.23-0.92q-1.98-3.19-6.18-4.88-4.2-1.68-5.42-1.91-11.15-1.22-15.28 8.68-1.97 4.72-4.08 9.5-1.3-6.15-0.47-13.02 0.59-4.86 3.39-8.27 2.73-3.31 7.2-4.45 7.08-1.79 13.63 2.99 11.22 8.19 12.3 21.22 0.48 5.78-1.89 11.71-2.24 5.62-5.87 10.57-3.66 4.99-9.77 6.17-7.08 1.38-10.93-4.75-1.88-3.01-2.51-5.7-1.35-5.81-2.01-11.74z" fill="#a6652c"/> <path d="m347.33 108.34q-0.71 2.12-3.83 1.66-2.96-0.44-6.25 1.72-1.28 0.83-0.42 1.52a0.83 0.67-38.2 0 0 0.85 0.01q4.15-2.4 8.65-1.97 4.12 0.39 7.62 3.51 4.34 3.87 6.26 9.71 1.01 1.66-0.67 1.75-2.15-7.18-6.85-10.69-8.87-6.62-17.38 1.25-3.72 3.45-6.37 10.25-0.51 1.32-0.17 2.04 0.53 1.15 2.48 0.69 0.46 0.26 0.75 0.67-0.67 0.11-0.96 0.79-1.02-0.96-2.37-1.33a1.01 0.85 0.9 0 1-0.67-0.58q-0.48-1.38-0.03-2.82 2.11-4.78 4.08-9.5 4.13-9.9 15.28-8.68z" fill="#6b390f"/> <path d="m347.33 108.34q1.22 0.23 5.42 1.91 4.2 1.69 6.18 4.88a1.57 1.3 36.2 0 1 0.23 0.92l-0.34 3.71a0.72 0.63 17.4 0 0 0.4 0.65q0.77 0.38 0.81 1.34a1.2 1.05 23.7 0 0 0.37 0.79q0.78 0.74-0.19 1.96-1.92-5.84-6.26-9.71-3.5-3.12-7.62-3.51-4.5-0.43-8.65 1.97a0.83 0.67-38.2 0 1-0.85-0.01q-0.86-0.69 0.42-1.52 3.29-2.16 6.25-1.72 3.12 0.46 3.83-1.66z" fill="#90501a"/> <path d="m259.71 126.75q0.12 2.31 0.04 2.75-0.2 1.1-0.78 0.37-1.75-8.2-7.97-13.86-5.6-5.09-12.19-2.7-7.84 2.85-10.56 11.65-1.44 0.39-2.25 1.62-0.29 0.43-0.43-0.05-0.44-1.44 0.94-2.34a1.79 1.34-12.9 0 0 0.61-0.72q2.57-6.57 8.26-10.13 3.55-2.23 7.68-1.96 4.18 0.28 7.96 2.23 2.34 1.21 3.95 3.82 2.74 4.45 4.74 9.32z" fill="#4d1f0b"/> <path d="m258.97 129.87q-0.76 0.67-1.41 0.67a0.68 0.53 85.9 0 1-0.54-0.6q-0.17-1.57-0.98-2.94-2.34-6.73-6.35-9.44-5.13-3.46-10.75-1.62-5.02 1.64-7.48 6.81-0.85 2.09-2.92 2.75 0.05-0.37-0.29-0.54 2.72-8.8 10.56-11.65 6.59-2.39 12.19 2.7 6.22 5.66 7.97 13.86z" fill="#f5f3f1"/> <path d="m359.54 126.25q0.92 2.84-1.09 3.61l-0.74-2.36-0.92-2.25q-2.72-8.66-10.73-9.69-4.32-0.55-7.7 1.76-3.5 2.4-5.15 6.68-1.55 2.55-1.46 5 0.03 0.81-0.5 0.79-1.95 0.46-2.48-0.69-0.34-0.72 0.17-2.04 2.65-6.8 6.37-10.25 8.51-7.87 17.38-1.25 4.7 3.51 6.85 10.69z" fill="#f3f1ee"/> <path d="m406.04 114q5.29 8.34 10.58 16.68 12.25 19.31 29.69 33.01 2.85 2.24 4.24 4.64 3.06 5.28 2.28 11.61-18.1-15.94-30.33-34.19-0.69-1.03-3.53-5.99-1.5-2.62-3.63-5.91-5.02-7.76-9.29-15.96-0.13-0.24-0.11-0.94l0.1-2.95z" fill="#ac6b30"/> <path d="m256.04 127q-0.09 1.31-1.15 1.96-0.4 0.24-0.73 0.64l-2.62 3.15q-3.42 3.98-7.54 4.5-9.75 1.22-12.46-8.5l-0.08-6q2.46-5.17 7.48-6.81 5.62-1.84 10.75 1.62 4.01 2.71 6.35 9.44zm-16.699-1.5412a2.7 1.82 109.9 0 0 2.6303-1.9193 2.7 1.82 109.9 0 0-0.7923-3.1583 2.7 1.82 109.9 0 0-2.6303 1.9193 2.7 1.82 109.9 0 0 0.7923 3.1583z" fill="#0d0603"/> <path d="m356.79 125.25q-0.58 1.58-0.5 3.25-1.13 4.73-4.64 7.22-3.35 2.36-7.71 1.56-5.34-0.97-8.85-5.73-1.89-3.61-1.88-7.55 1.65-4.28 5.15-6.68 3.38-2.31 7.7-1.76 8.01 1.03 10.73 9.69zm-3.41 3.92q2.17-2.83-0.18-5.87-2.51-3.23-4.45-3.55-3.14-0.52-6.26-1.15a1.08 0.73 22 0 0-0.89 0.19l-3.63 3.74a1.36 0.57-54 0 1-0.78 0.47l-2.7 0.23a0.82 0.68 4.2 0 0-0.68 0.48q-0.25 0.79 0 1.57a0.71 0.52-7.9 0 0 0.68 0.37q0.64-0.03 0.6 0.61a1.38 0.86-72.8 0 0 0.23 0.87q1 1.25 1.78 2.64 0.96 1.71 1.89 2.49 4.56 3.79 10.01 2.74 3.73-0.72 4.04-4.94a1.74 1.54-27.5 0 1 0.34-0.89z" fill="#19120f"/> <path d="m353.04 130.06q-0.31 4.22-4.04 4.94-5.45 1.05-10.01-2.74-0.93-0.78-1.89-2.49-0.78-1.39-1.78-2.64a1.38 0.86-72.8 0 1-0.23-0.87q0.04-0.64-0.6-0.61a0.71 0.52-7.9 0 1-0.68-0.37q-0.25-0.78 0-1.57a0.82 0.68 4.2 0 1 0.68-0.48l2.7-0.23a1.36 0.57-54 0 0 0.78-0.47l3.63-3.74a1.08 0.73 22 0 1 0.89-0.19q3.12 0.63 6.26 1.15 1.94 0.32 4.45 3.55 2.35 3.04 0.18 5.87a1.74 1.54-27.5 0 0-0.34 0.89zm-11.85-7.87q-1.08 2.92 2.06 3.06a1.17 1.12 22.3 0 0 0.87-0.34q1.64-1.65 0.46-3.79a1.1 1.04 78.8 0 0-0.76-0.54q-1.93-0.29-2.63 1.61z" fill="#0d0603"/> <ellipse transform="translate(240.26,122.92) rotate(109.9)" rx="2.7" ry="1.82" fill="#fff"/> <path d="m341.19 122.19q0.7-1.9 2.63-1.61a1.1 1.04 78.8 0 1 0.76 0.54q1.18 2.14-0.46 3.79a1.17 1.12 22.3 0 1-0.87 0.34q-3.14-0.14-2.06-3.06z" fill="#f1efea"/> <path d="m231.46 122.75 0.08 6-0.58 1-0.94-2.08a0.45 0.41 55.2 0 0-0.7-0.16q-0.26 0.27-0.08 0.71 0.25 0.59 0.29 0.73 0.74 3.08 2.38 5.82-5.02-3.17-3.37-9.27 2.07-0.66 2.92-2.75z" fill="#c1854a"/> <path d="m333.21 124q-0.01 3.94 1.88 7.55 2.22 6.54 9.31 7.73 5.84 0.97 9.66-3.47 2.48-2.87 2.98-6.31 0.12-1.12 0.67-2l0.74 2.36q-1.09 4.6-4.22 7.74-3.2 3.23-7.39 3.34-4.45 0.11-8.26-3.05-3.33-2.76-5.46-6.54-0.38-0.68-1.12-0.89-0.29-0.41-0.75-0.67 0.53 0.02 0.5-0.79-0.09-2.45 1.46-5z" fill="#4d1f0b"/> <path d="m356.79 125.25 0.92 2.25q-0.55 0.88-0.67 2 0.22-1.19-0.75-1-0.08-1.67 0.5-3.25z" fill="#6c6762"/> <path d="m230.96 129.75q1.16 4.09 4.13 6.67 2.94 2.56 6.91 2.66 6.26 0.15 10.04-5.83 0.68-2.02 2.5-1.5-1.54 1.73-3.02 3.52-1.82 2.2-3.28 3.22-9.08 6.39-16.33-3.72-1.64-2.74-2.38-5.82-0.04-0.14-0.29-0.73-0.18-0.44 0.08-0.71a0.45 0.41 55.2 0 1 0.7 0.16l0.94 2.08z" fill="#4d1f0b"/> <path d="m356.29 128.5q0.97-0.19 0.75 1-0.5 3.44-2.98 6.31-3.82 4.44-9.66 3.47-7.09-1.19-9.31-7.73 3.51 4.76 8.85 5.73 4.36 0.8 7.71-1.56 3.51-2.49 4.64-7.22z" fill="#bfbcb7"/> <path d="m231.54 128.75q2.71 9.72 12.46 8.5 4.12-0.52 7.54-4.5 0.54-0.09 0.5 0.5-3.78 5.98-10.04 5.83-3.97-0.1-6.91-2.66-2.97-2.58-4.13-6.67l0.58-1z" fill="#bfbcb7"/> <path d="m137.04 180.75q-0.89-6.1 1.16-11.95 1.64-2.65 4.99-5.36 12.24-9.93 23.31-23.23 1.67-0.25 3.24 0.5a0.39 0.37 29.3 0 1 0.16 0.54q-9.77 15.32-22.59 28.31-6.85 6.95-10.27 11.19z" fill="#ac6b30"/> <path d="m324.96 202-2.75 6q-5.4 7.48-13.71 6-5.41-0.96-7.71-7-0.27-3.42 1.21-6 1.33-2.32 3.69-2.44 1.9-0.09 3.75 1.26 2.63 1.93 3.31 5.44 0.46 2.33 2.83 2.24 7.81-0.32 7.64-8.25-0.06-2.9-2.47-5.25-3.79-3.7-8.05-4.65-10.42-4.08-21.4-3.6-6.98 0.31-10.6 0.9-5.28 0.85-10.17 3.51-3.54 0.85-6.04 3.38-2.38 2.42-2.57 5.96-0.41 7.73 8.49 8.05a2.2 2.19-79.4 0 0 2.15-1.48q0.79-2.32 1.97-4.1 1.44-2.16 3.38-2.88 3.66-1.37 6.52 2.92 0.96 10.35-7.74 11.95-3.39 0.62-6.73-0.74-3.24-1.32-5.92-3.72l-3.25-5.5q-2.46-11.18 4.77-17.46 3.62-3.15 10.8-4.7 16.21-3.5 32.46-0.2 7.35 1.5 10.95 4.66 6.4 5.61 5.19 15.7zm-39.02-18.69q5.02-0.4 10.06-0.29 1.53 0.03 2.93 0.58 1.77 0.69 2.79 0.77 2.44 0.2 4.89 0.37 0.36 0.02 2.04 0.55 1.34 0.42 2.27-0.82a0.41 0.39 29.1 0 0-0.19-0.6q-4.24-1.7-7.73-1.62-8.3 0.19-16.58 0.43-0.24 0.01-0.43 0.11-1.05 0.6-0.05 0.52z" fill="#19120f"/> <path d="m285.94 183.31q-1 0.08 0.05-0.52 0.19-0.1 0.43-0.11 8.28-0.24 16.58-0.43 3.49-0.08 7.73 1.62a0.41 0.39 29.1 0 1 0.19 0.6q-0.93 1.24-2.27 0.82-1.68-0.53-2.04-0.55-2.45-0.17-4.89-0.37-1.02-0.08-2.79-0.77-1.4-0.55-2.93-0.58-5.04-0.11-10.06 0.29z" fill="#4d1f0b"/> <path d="m451.96 188.75q-2.51 13.09-8.16 24.91-12.2-0.5-24.3 1.31-1.82 0.28-3.52 0.22-1.78-0.05-3.56-0.11-1.67-0.05-5.32 0.09-4.03 0.16-8.03-0.33-2.04-0.25-4.59 0.17-3.49 0.57-7.04-0.12a0.2 0.18-63.6 0 1-0.09-0.32q0.28-0.36-0.61-0.45-2.69-0.27-5.31-0.93a0.85 0.78 2.3 0 1-0.61-0.61l-2.61-13.33 0.08-11.25q0.63-1 1.13-2.07 0.56-1.2 0.81 0.01 0.13 0.61 0.24 0.02l0.51-2.71q0.08-0.44 0.38-0.16 2.75 2.53 6.4 3.53a1.86 1.42-39.1 0 0 0.97-0.03q2.2-0.67 4.54-0.19 3.97 0.82 6-1.47 1.37-1.55 3.28-0.75 6.13 2.58 12.72 1.42 5.96-1.05 12.01-1.01 4.04 0.03 8.4-0.41 4.86-0.48 9.76-0.15a0.55 0.47 89.8 0 1 0.45 0.52q0.02 0.55 0.45 0.8 0.3 0.17 0.82 0.04 1.4-0.33 2.85-0.39a0.98 0.98 6.5 0 1 0.99 1.24q-0.55 1.97 0.96 2.51z" fill="#7f4615"/> <path d="m312.7 189.35q-21.16-4.34-42.17 0.81 4.89-2.66 10.17-3.51 3.62-0.59 10.6-0.9 10.98-0.48 21.4 3.6z" fill="#b5b2ad"/> <path d="m373.19 186.27q1.62 23.51 11.27 44.97 4.08 9.07 10.23 14.57 4.59 4.11 11.3 5.11-0.53 3.62-1.13 7.23-0.57 3.46-1.66 7.1-5.85 19.47-7.14 25.06-1.59 6.89-2.07 13.94-1.01 14.49 5.76 27.25 1.67 3.15 0.54 5.5-20.48 17.97-47.73 25.56-44.26 12.33-89.57 4.23-20.07-3.58-38.8-12.98-14.57-7.3-26.01-18.29 6.82-11.96 6.83-25.43 0-4.55-1.12-10.62-1.02-5.48-2.45-10.41-2.31-7.92-6.54-21.36-2.66-8.46-3.98-16.21a2.29 2.28-20.7 0 1 1.06-2.33q11.57-7 15.62-19.2 0.19-0.58 0.04-0.94-0.26-0.63-1.14-0.31 5.25-12.51 7.04-25.96 0.39 0.49 0.93 0.76a0.64 0.56 20 0 1 0.36 0.66q-1.65 7.77 1.15 15.22 1.31 3.47 4.44 5.41a0.74 0.74 33.2 0 1 0.22 1.05q-10.12 14.51-11.43 31.65-0.19 2.53 0.57 1.37 0.21-0.32 0.27-0.78 1.74-13.01 6.76-24.03 2.17-4.75 6.31-9.29 0.23-0.25 0.47-0.28 0.48-0.07 0.45 0.51-1.11 0.86-1.29 2.5-0.99 9.07 2.18 17.03 2.13 5.33 2.26 5.67 5.73 15.01 20.06 22.84 8.29 5.05 11.9 13.87 1.42 3.48 1.44 3.52 1.98 4.23 4.71 8.02 7.91 11.02 21.7 10.83 3.44-0.04 7.54-1.91a0.79 0.78-29.2 0 1 0.98 0.27q2.17 3.19 5.04 3.8 8.01 1.68 15.37-1.78 6.94-3.27 9.57-10.64a0.74 0.74-67.2 0 1 1.02-0.42q4.43 2.16 8.36-0.04 1.69-0.95 1.84-2.88 0.3-3.93 0.6-7.42 0.49-5.7 4.1-10.1 3.93-4.79 8.01-9.82 11.36-11.33 14.52-27.14 0.48-2.41 0.7-6.47 0.24-4.74 0.6-6.48 0.48-2.33-1.13-4.01-1.04-1.08 0.46-0.93 0.53 0.05 1.42 0.73 1.97 1.8 3.43 4.02 9.11 13.82 11.74 30.2a0.96 0.61 88.1 0 0 0.51 0.74q0.64 0.19 0.46-1.51-2.1-19.3-15.13-33.46a1.23 0.67-82.7 0 1-0.26-0.66l-0.04-0.37q8.36-13.14 5-28.5l1.48-8.23z" fill="#efece6"/> <path d="m312.7 189.35q4.26 0.95 8.05 4.65 2.41 2.35 2.47 5.25 0.17 7.93-7.64 8.25-2.37 0.09-2.83-2.24-0.68-3.51-3.31-5.44-1.85-1.35-3.75-1.26-2.36 0.12-3.69 2.44-1.48 2.58-1.21 6-1.2 0.84-0.58 2.25-4.82-3.39-10.65-3.78a1.92 1.41-17.4 0 1-0.91-0.31l-1.77-1.31q-0.91-0.66-0.6 0.41 0.53 1.8-0.24 1.99-0.04-1.62-0.28-3.23-0.08-0.53-0.33-0.84-0.53-0.65-1-0.17-2.86-4.29-6.52-2.92-1.94 0.72-3.38 2.88-1.18 1.78-1.97 4.1a2.2 2.19-79.4 0 1-2.15 1.48q-8.9-0.32-8.49-8.05 0.19-3.54 2.57-5.96 2.5-2.53 6.04-3.38 21.01-5.15 42.17-0.81z" fill="#483e38"/> <path d="m214.93 191.71q1.7 5.36 2.32 10.04 1.38 10.51 6.5 19.29 0.95 0.57 0.79 1.71 0.25 1.33-0.5 2.25 0.03-0.58-0.45-0.51-0.24 0.03-0.47 0.28-4.14 4.54-6.31 9.29-5.02 11.02-6.76 24.03-0.06 0.46-0.27 0.78-0.76 1.16-0.57-1.37 1.31-17.14 11.43-31.65a0.74 0.74 33.2 0 0-0.22-1.05q-3.13-1.94-4.44-5.41-2.8-7.45-1.15-15.22a0.64 0.56 20 0 0-0.36-0.66q-0.54-0.27-0.93-0.76l1.39-11.04z" fill="#cfc7c0"/> <path d="m371.71 194.5q3.36 15.36-5 28.5-0.19 0.68-0.71 1.04-0.89-0.68-1.42-0.73-1.5-0.15-0.46 0.93 1.61 1.68 1.13 4.01-0.36 1.74-0.6 6.48-0.22 4.06-0.7 6.47-3.16 15.81-14.52 27.14-11.92 7.9-26.01 5.72a0.59 0.59 88.9 0 0-0.67 0.7q1.98 10.12-5.73 14.36-2.58 1.41-5.27 1.29-2.81-0.13-5.43-1.47-3.2-1.65-6.26-3.52-1.84-1.13-2.97-1.08-1.5 0.06-3.15 1.1-1.69 1.06-3.35 2.15-1.98 1.3-3.48 1.89-12.68 4.97-18.1-7.88-1.42-3.37-1.57-7.05a0.74 0.74 84.1 0 0-0.86-0.7q-9.65 1.55-19.33-0.81-14.33-7.83-20.06-22.84-0.13-0.34-2.26-5.67-3.17-7.96-2.18-17.03 0.18-1.64 1.29-2.5 0.75-0.92 0.5-2.25h0.17q1.88 7.68 3.58 15.4 1.72 7.85 1.87 8.29 1.3 3.9 4.03 7.62 5.56 7.6 13.92 9.72 4.67 1.18 8.8 0.32 4.48-0.94 8.16-4.05a0.96 0.96 52.9 0 1 1.41 0.2q1.34 1.96 3.88 3.36 10.06 5.58 21.65 5.11 2.15-0.09 8.24-0.22 8.39-0.18 15.25-3.5 4.43-2.15 6.46-4.84a0.47 0.46-51.2 0 1 0.67-0.08q7.57 6.44 16.62 3.92 15.49-4.31 19.5-20.75 0.86-3.54 2.93-20.57 6.9-12.21 8.86-26.18-0.13-1.53 1.17-2z" fill="#bfbcb7"/> <path d="m378.21 199.25 2.61 13.33a0.85 0.78 2.3 0 0 0.61 0.61q2.62 0.66 5.31 0.93 0.89 0.09 0.61 0.45a0.2 0.18-63.6 0 0 0.09 0.32q3.55 0.69 7.04 0.12 2.55-0.42 4.59-0.17 4 0.49 8.03 0.33 3.65-0.14 5.32-0.09 1.78 0.06 3.56 0.11 1.7 0.06 3.52-0.22 12.1-1.81 24.3-1.31-4.3 10.96-11.49 21.4-5.85 8.5-14.68 12.75-1.83 0.87-4.46 0.89-1.56 0.01-3.12 0.14-2.03 0.17-3.1 0.1-9.78-0.67-14.89-8.25-11.82-17.53-14.77-40.69 0.5 0.14 0.92-0.75z" fill="#6b390f"/> <path d="m260.79 204 3.25 5.5q-0.24 0.38-1.29 0.31 0.62 4.69 3.79 8.19l0.75 3.3a1 0.67 66.8 0 1-0.15 0.8q-1.4 1.46-0.34 2.9l0.24 1.75q-0.36 2.33-1.5 4.3-2.68 4.59 1.55 5.56 2 0.46 2.5 0.9 1.26 1.09 0.65 2.96a1 0.93 37.8 0 0 0.14 0.86q0.83 1.2-0.38 1.96-4.63-0.85-1.71 2.71 2.06 2.34-0.48 4.64-2.87 2.67-1.06 6.15-2.33 1.24-4.67 2.43-8.28 4.19-16.77 0.48-8.29-3.63-12-11.51-3.82-8.14-3.38-17.69 0.3-6.38 0.53-12.75-0.02-0.41 0.25-0.5-0.39 3.23 0.67 6.21a1.66 1.38 11.6 0 0 0.6 0.75q1.98 1.36 3.06 3.54-1.33 2.85 1.4 2.19 1.88-0.46 0.81-2.15 1.89-2.27 5.85-2.22 2.53 0.04 4.57-1.45 3.05-2.23 6.64-1.55 2.32 0.44 2.63-1.9 0.67-4.91 0.21-9.41-0.45-4.42-0.01-8.83 0.09-0.92 0.5-0.49 0.26 0.27 0.37 1.27a1.97 1.95 22.9 0 0 0.42 1.02q1.99 2.41 2.36-0.23zm3.05 21.14q1.74-2.79-1.68-1a1.03 1.03-34.7 0 0-0.29 1.59q1.12 1.28 1.55 0.33 0.36-0.83 0.42-0.92zm-17.13 0.44q-1.36 0.01-1.21 1.67 0.15 1.71 1.81 1.62a1.13 1.08-71.7 0 0 0.83-0.44q0.94-1.24 0.08-2.2-0.59-0.67-1.51-0.65zm12.41 3.21q-0.07-1.14-1.31-1.41a1.09 1.04 30 0 0-0.91 0.22q-1.02 0.84-0.15 2.15 0.96 1.45 1.87 0.44 0.55-0.6 0.5-1.4zm2.16 7.6q1.27-0.57 0.67-1.5-0.36-0.57-1.24-0.85-2.81-0.91-2.52 1.9 0.09 0.84 0.62 1.3 0.95 0.84 1.74-0.26a1.82 1.72-82.2 0 1 0.73-0.59zm-10.42 0.2a1.58 1.58 0 0 0-1.58-1.58 1.58 1.58 0 0 0-1.58 1.58 1.58 1.58 0 0 0 1.58 1.58 1.58 1.58 0 0 0 1.58-1.58zm8.58 7.58q-0.69 1.9 0.63 2.25 0.88 0.24 1.78-0.31 1.56-0.96-0.36-2.5a1.31 1.31 29.6 0 0-2.05 0.56zm-7.37 0.16q-2.64-0.49-1.15 2.05a0.92 0.92-14.4 0 0 0.78 0.46q2.39 0.06 1.14-1.98a1.13 1.11-10 0 0-0.77-0.53z" fill="#f5f3f1"/> <path d="m286.04 206.25q-0.16 3.14-1.98 5.31-5.93 7.09-14.81 3.19-1.44-0.63-6.5-4.94 1.05 0.07 1.29-0.31 2.68 2.4 5.92 3.72 3.34 1.36 6.73 0.74 8.7-1.6 7.74-11.95 0.47-0.48 1 0.17 0.25 0.31 0.33 0.84 0.24 1.61 0.28 3.23z" fill="#6c6762"/> <path d="m324.96 202v1.25l-1.75 6.5-0.46-0.54q-0.54-0.5-0.54-1.21l2.75-6z" fill="#b5b2ad"/> <path d="m324.96 203.25q0.63 1.84 2.55 1.59a0.71 0.62-14.6 0 1 0.72 0.36q0.98 2.25-0.26 5.84-0.67 1.92 0.03 3.83 0.71 1.92 0.23 4.93-0.2 1.27-0.03 2.42 0.18 1.23 0.29 2.43a1.56 1.54 89.3 0 0 1.43 1.41l6.13 0.4q2.08 5.09 3.49 0.29 0.66 0.93 0.42 2.24-0.11 0.56 0.4 0.3 3.39-1.78 6.7 0.4 1.55 1.02 2.65-0.94 1.36 3.69 3.58 0.5 2.26 2.77 3.17-0.05 0.29-0.88 0.28-2.43-0.01-3.76 0.05-7.52 0.88 4.74 0.79 9.51-0.12 6.11-0.47 9.49-0.92 8.79-6.8 15.56-8.44 9.72-21.56 7.19-1.96-0.38-6.79-3.75 2.99-1.1 2.15-3.81-0.1-0.29-0.43-1.55-0.24-0.86-0.82-1.53a1.26 1.04 30.7 0 1-0.31-0.86q0.18-2.4-0.42-4.66-0.66-2.53-0.57-4.18 0.29-5.42 0.37-10.85 0.01-0.43-0.23-0.93-0.79-1.68 0.55-3.09 1.2-2.41-1.75-2.25-2.9-0.51-3.29-3.29 3.8-4.8 6-10.5l1.75-6.5zm3.1 25.81q0.13-1.48-1.04-1.75-0.74-0.18-1.47 0.28-1.35 0.84 0.39 1.97a1.46 1.07 23 0 0 2.12-0.5zm-0.1609 7.8646a1.88 1.35 32.3 0 0-0.8677-2.1457 1.88 1.35 32.3 0 0-2.3105 0.1365 1.88 1.35 32.3 0 0 0.8677 2.1457 1.88 1.35 32.3 0 0 2.3105-0.1365zm7.3009-0.4946q0.17 2.68 2.44 1.39a0.81 0.8-16.7 0 0 0.41-0.75q-0.16-2.32-2.41-1.35a0.73 0.73 76.8 0 0-0.44 0.71zm-9.82 8q-0.3 1.39 0.78 1.86 0.74 0.32 1.68 0.01 2.09-0.69-0.6-2.59a1.2 1.2 23.8 0 0-1.86 0.72zm12.36 1.38a1.52 1.52 0 0 0-1.52-1.52 1.52 1.52 0 0 0-1.52 1.52 1.52 1.52 0 0 0 1.52 1.52 1.52 1.52 0 0 0 1.52-1.52z" fill="#f3f1ee"/> <path d="m300.21 209.25q5.29 9.8 15.98 5.69 1.79-0.69 6.56-5.73l0.46 0.54q-2.2 5.7-6 10.5l-3.25 4q-8.67 7-19.79 8.44a0.42 0.41-4 0 0-0.36 0.41q0.07 5.62 0.39 11.27 0.06 1.02 0.57 1.57 0.61 0.67 1.48 1.02 6.61 4.08 14 6.5l10.21 3.29q0.66 0.5 1.5 0.5 4.83 3.37 6.79 3.75 13.12 2.53 21.56-7.19 5.88-6.77 6.8-15.56 0.35-3.38 0.47-9.49 0.09-4.77-0.79-9.51-0.08-0.25 0-0.5 1.26-0.27 2.35 0.29 1.24 0.64 1.91 1.21 0.99 0.86 0.63 2.43-2.07 17.03-2.93 20.57-4.01 16.44-19.5 20.75-9.05 2.52-16.62-3.92a0.47 0.46-51.2 0 0-0.67 0.08q-2.03 2.69-6.46 4.84-6.86 3.32-15.25 3.5-6.09 0.13-8.24 0.22-11.59 0.47-21.65-5.11-2.54-1.4-3.88-3.36a0.96 0.96 52.9 0 0-1.41-0.2q-3.68 3.11-8.16 4.05-4.13 0.86-8.8-0.32-8.36-2.12-13.92-9.72-2.73-3.72-4.03-7.62-0.15-0.44-1.87-8.29-1.7-7.72-3.58-15.4 1.28-4.25 5.75-5-0.23 6.37-0.53 12.75-0.44 9.55 3.38 17.69 3.71 7.88 12 11.51 8.49 3.71 16.77-0.48 2.34-1.19 4.67-2.43l0.25-0.08 8-2.5q8.62-2.71 16.59-8.29 1.29-5.05 0.24-11.73a1.36 1.35-87.4 0 0-1-1.1q-8.29-2.1-14.53-5.62-4.4-2.48-7.51-6.47-0.79-1.77-2.25-3-3.17-3.5-3.79-8.19 5.06 4.31 6.5 4.94 8.88 3.9 14.81-3.19 1.82-2.17 1.98-5.31 0.77-0.19 0.24-1.99-0.31-1.07 0.6-0.41l1.77 1.31a1.92 1.41-17.4 0 0 0.91 0.31q5.83 0.39 10.65 3.78z" fill="#342c28"/> <path d="m205.73 225.23q-3.36 13.22-14.02 20.34-4.94 3.3-10.05 3.42-6.88 0.16-12.95-3.96-7.26-4.93-11.86-12.44-7.41-12.1-12.6-25.3 0.5 0.08 0.9-0.08a0.38 0.34 61 0 0 0.12-0.54q-0.73-1.1 0.56-0.37 0.25 0.14 0.5 0.18 6.21 0.89 15.98 1.08 16.3 0.33 32.52-1.28 6.2-0.61 12.43-0.53a1.86 1.86 89 0 1 1.84 1.78q0.26 5.42-2.07 11.23-1.3 3.21-1.3 6.47z" fill="#6e3b10"/> <path d="m300.79 207q2.3 6.04 7.71 7 8.31 1.48 13.71-6 0 0.71 0.54 1.21-4.77 5.04-6.56 5.73-10.69 4.11-15.98-5.69-0.62-1.41 0.58-2.25z" fill="#6c6762"/> <path d="m230.71 216.25v1q-0.27 0.09-0.25 0.5-4.47 0.75-5.75 5h-0.17q0.16-1.14-0.79-1.71 2.87-3.29 6.96-4.79z" fill="#c1854a"/> <path d="m266.54 218q1.46 1.23 2.25 3-0.2 2.41 1.55 4.16 4.87 4.86 6.02 11.47-5.7-1.35-2.72 3.68a0.51 0.51 62 0 1-0.22 0.72q-2.1 1.07-0.88 2.47-1.07 4.48-4.73 7.14 2.54-2.3 0.48-4.64 2.88-0.23 1.71-2.71 1.21-0.76 0.38-1.96a1 0.93 37.8 0 1-0.14-0.86q0.61-1.87-0.65-2.96-0.5-0.44-2.5-0.9-4.23-0.97-1.55-5.56 1.14-1.97 1.5-4.3 3.12-1.4-0.24-1.75-1.06-1.44 0.34-2.9a1 0.67 66.8 0 0 0.15-0.8l-0.75-3.3zm3.46 12.79q-3.9 0.59-2.1 2.62 0.66 0.76 1.44 0.72 1.03-0.06 1.37-1.38 2.14-3-0.71-1.96z" fill="#d7d4ce"/> <path d="m317.21 220.25q0.39 2.78 3.29 3.29 0.4 1.52 1.75 2.25-1.34 1.41-0.55 3.09 0.24 0.5 0.23 0.93-0.08 5.43-0.37 10.85-0.09 1.65 0.57 4.18 0.6 2.26 0.42 4.66a1.26 1.04 30.7 0 0 0.31 0.86q0.58 0.67 0.82 1.53 0.33 1.26 0.43 1.55 0.84 2.71-2.15 3.81-0.84 0-1.5-0.5 0.24-3.83-2.41-6.36a1.65 1.37-78.1 0 1-0.44-0.83q-0.29-1.49-1.42-2.5-2.66-2.36-1.13-4.5 1.73-2.41-0.56-4.1-0.08-0.48-0.54-0.71l0.37-2.7a1.38 1.36 34 0 0-0.18-0.9q-0.75-1.29 0.85-1.69 2.03 0.8 1.7-0.79a1.19 1.11-82.2 0 0-0.54-0.76q-0.75-0.42-1.66-0.37-1.65-0.27-2.04-1.79l1.74-3.09a0.73 0.62 44.1 0 0-0.07-0.73q-0.2-0.28-0.17-0.68l3.25-4zm0.22 4.97q-0.21 1.3 1.02 1.88 2.21 1.05-0.21-2.09-0.64-0.82-0.81 0.21zm1.6 7.37q-1.07 1.13-0.06 1.66a0.59 0.59 29.8 0 0 0.78-0.21q0.57-0.91-0.23-1.88a0.17 0.15 51.8 0 0-0.21-0.04q-0.05 0.04-0.08 0.1-0.2 0.37-0.2 0.37zm0.82 12.11q0.2-1.93-1.68-1.67-0.97 0.14-1.57 0.91-1.32 1.7 2.03 1.82a1.18 1.18 3.9 0 0 1.22-1.06z" fill="#d7d4ce"/> <path d="m268.79 221q3.11 3.99 7.51 6.47 6.24 3.52 14.53 5.62a1.36 1.35-87.4 0 1 1 1.1q1.05 6.68-0.24 11.73-3.36 0.3-6.11-0.93-1.63-0.73-3.42-3.09-1.42-1.9-3.02-3.65-0.46-0.98-1.36-1.36a0.68 0.59-56.7 0 0-0.71 0.2q-0.9 1.03-0.61-0.46-1.15-6.61-6.02-11.47-1.75-1.75-1.55-4.16z" fill="#6c6762"/> <path d="m366.71 223 0.04 0.37a1.23 0.67-82.7 0 0 0.26 0.66q13.03 14.16 15.13 33.46 0.18 1.7-0.46 1.51a0.96 0.61 88.1 0 1-0.51-0.74q-2.63-16.38-11.74-30.2-1.46-2.22-3.43-4.02 0.52-0.36 0.71-1.04z" fill="#d7d4ce"/> <path d="m263.42 226.06q-0.43 0.95-1.55-0.33a1.03 1.03-34.7 0 1 0.29-1.59q3.42-1.79 1.68 1-0.06 0.09-0.42 0.92z" fill="#96938f"/> <path d="m320.5 223.54q2.95-0.16 1.75 2.25-1.35-0.73-1.75-2.25z" fill="#96938f"/> <path d="m313.96 224.25q-0.03 0.4 0.17 0.68a0.73 0.62 44.1 0 1 0.07 0.73l-1.74 3.09q-5.1 9.04-12.25 16.5l-3.96 1.71q-0.87-0.35-1.48-1.02-0.51-0.55-0.57-1.57-0.32-5.65-0.39-11.27a0.42 0.41-4 0 1 0.36-0.41q11.12-1.44 19.79-8.44z" fill="#6c6762"/> <path d="m267.04 226.75-0.24-1.75q3.36 0.35 0.24 1.75z" fill="#6c6762"/> <path d="m317.43 225.22q0.17-1.03 0.81-0.21 2.42 3.14 0.21 2.09-1.23-0.58-1.02-1.88z" fill="#96938f"/> <path d="m339.54 226.75q-1.41 4.8-3.49-0.29 1.97-2.67 3.49 0.29z" fill="#96938f"/> <path d="m248.22 226.23q0.86 0.96-0.08 2.2a1.13 1.08-71.7 0 1-0.83 0.44q-1.66 0.09-1.81-1.62-0.15-1.66 1.21-1.67 0.92-0.02 1.51 0.65z" fill="#96938f"/> <path d="m258.62 230.19q-0.91 1.01-1.87-0.44-0.87-1.31 0.15-2.15a1.09 1.04 30 0 1 0.91-0.22q1.24 0.27 1.31 1.41 0.05 0.8-0.5 1.4z" fill="#b5b2ad"/> <path d="m328.06 229.06a1.46 1.07 23 0 1-2.12 0.5q-1.74-1.13-0.39-1.97 0.73-0.46 1.47-0.28 1.17 0.27 1.04 1.75z" fill="#96938f"/> <path d="m237.25 227.79q1.07 1.69-0.81 2.15-2.73 0.66-1.4-2.19 1.14-0.48 2.21 0.04z" fill="#96938f"/> <path d="m353.29 229.25q-2.22 3.19-3.58-0.5 2.12-2.38 3.58 0.5z" fill="#b5b2ad"/> <path d="m198.18 335.52q-25.56-23.85-21.93-58.77 1.18-11.39 5.62-25.79 10.71-1.34 17.19-9.4 4.23-5.25 7.44-12.85 0.88-0.32 1.14 0.31 0.15 0.36-0.04 0.94-4.05 12.2-15.62 19.2a2.29 2.28-20.7 0 0-1.06 2.33q1.32 7.75 3.98 16.21 4.23 13.44 6.54 21.36 1.43 4.93 2.45 10.41 1.12 6.07 1.12 10.62-0.01 13.47-6.83 25.43z" fill="#fff"/> <path d="m312.46 228.75q0.39 1.52 2.04 1.79-0.78 1.28 0.5 1.92-1.6 0.4-0.85 1.69a1.38 1.36 34 0 1 0.18 0.9l-0.37 2.7q-0.69-0.92-1.68-1.29a0.37 0.36-80.4 0 0-0.49 0.36q0.04 2.38 2.71 1.64 2.29 1.69 0.56 4.1-1.53 2.14 1.13 4.5 1.13 1.01 1.42 2.5a1.65 1.37-78.1 0 0 0.44 0.83q2.65 2.53 2.41 6.36l-10.21-3.29 0.39-1.43a0.74 0.62 5 0 1 0.67-0.47q3.51-0.11 1.34-2.63a0.76 0.7-28.9 0 0-0.8-0.19q-2.74 0.91-3.55-1.76a0.8 0.37 75.6 0 0-0.49-0.6q-0.26 0.01-0.44 0.46-0.79 2.09-1.43 0.67-0.16-0.35-0.23-1.05-0.35-3.73-3.46-0.96-1.37 1.22-2.04-0.25 7.15-7.46 12.25-16.5z" fill="#b5b2ad"/> <path d="m270.71 232.75q-1.17-0.56-0.71-1.96 2.85-1.04 0.71 1.96z" fill="#6c6762"/> <path d="m314.5 230.54q0.91-0.05 1.66 0.37a1.19 1.11-82.2 0 1 0.54 0.76q0.33 1.59-1.7 0.79-1.28-0.64-0.5-1.92z" fill="#6c6762"/> <path d="m270 230.79q-0.46 1.4 0.71 1.96-0.34 1.32-1.37 1.38-0.78 0.04-1.44-0.72-1.8-2.03 2.1-2.62z" fill="#b5b2ad"/> <path d="m319.23 232.22q0.03-0.06 0.08-0.1a0.17 0.15 51.8 0 1 0.21 0.04q0.8 0.97 0.23 1.88a0.59 0.59 29.8 0 1-0.78 0.21q-1.01-0.53 0.06-1.66 0 0 0.2-0.37z" fill="#b5b2ad"/> <path d="m260.55 236.98q-0.79 1.1-1.74 0.26-0.53-0.46-0.62-1.3-0.29-2.81 2.52-1.9 0.88 0.28 1.24 0.85 0.6 0.93-0.67 1.5a1.82 1.72-82.2 0 0-0.73 0.59z" fill="#b5b2ad"/> <ellipse transform="translate(326.31,235.92) rotate(32.3)" rx="1.88" ry="1.35" fill="#96938f"/> <circle cx="249.28" cy="236.59" r="1.58" fill="#b5b2ad"/> <path d="m335.64 235.72q2.25-0.97 2.41 1.35a0.81 0.8-16.7 0 1-0.41 0.75q-2.27 1.29-2.44-1.39a0.73 0.73 76.8 0 1 0.44-0.71z" fill="#b5b2ad"/> <path d="m276.36 236.63q-0.29 1.49 0.61 0.46a0.68 0.59-56.7 0 1 0.71-0.2q0.9 0.38 1.36 1.36-0.68 1.63-1.81 2.96-0.94 1.12-1.08 1.79-0.33 1.53 1.13 2.1a0.58 0.52 18.6 0 1 0.36 0.64q-0.3 1.03-0.99 1.84a0.59 0.58 47.3 0 0-0.02 0.73q0.64 0.87 0.44 1.89a0.87 0.68-5 0 1-0.62 0.58q-1.26 0.34-1.78 1.5a0.81 0.56 38.7 0 0 0.23 0.76q0.45 0.48 0.1 1.17l-8 2.5q0.84-0.61 1.1-1.53a0.93 0.83-89.7 0 1 0.57-0.63q4.13-1.3 4.1-5.81a1.3 1.13-27.1 0 1 0.34-0.85q1.15-1.3 1.08-2.83-0.08-1.53-1.65-1.56-1.22-1.4 0.88-2.47a0.51 0.51 62 0 0 0.22-0.72q-2.98-5.03 2.72-3.68z" fill="#b5b2ad"/> <path d="m313.96 237.75q0.46 0.23 0.54 0.71-2.67 0.74-2.71-1.64a0.37 0.36-80.4 0 1 0.49-0.36q0.99 0.37 1.68 1.29z" fill="#6c6762"/> <path d="m279.04 238.25q1.6 1.75 3.02 3.65 1.79 2.36 3.42 3.09 2.75 1.23 6.11 0.93-7.97 5.58-16.59 8.29 0.35-0.69-0.1-1.17a0.81 0.56 38.7 0 1-0.23-0.76q0.52-1.16 1.78-1.5a0.87 0.68-5 0 0 0.62-0.58q0.2-1.02-0.44-1.89a0.59 0.58 47.3 0 1 0.02-0.73q0.69-0.81 0.99-1.84a0.58 0.52 18.6 0 0-0.36-0.64q-1.46-0.57-1.13-2.1 0.14-0.67 1.08-1.79 1.13-1.33 1.81-2.96z" fill="#96938f"/> <path d="m270 243.29q1.17 2.48-1.71 2.71-2.92-3.56 1.71-2.71z" fill="#96938f"/> <path d="m319.85 244.7a1.18 1.18 3.9 0 1-1.22 1.06q-3.35-0.12-2.03-1.82 0.6-0.77 1.57-0.91 1.88-0.26 1.68 1.67z" fill="#96938f"/> <path d="m259.44 244.17a1.31 1.31 29.6 0 1 2.05-0.56q1.92 1.54 0.36 2.5-0.9 0.55-1.78 0.31-1.32-0.35-0.63-2.25z" fill="#96938f"/> <path d="m272.54 243.5q1.57 0.03 1.65 1.56 0.07 1.53-1.08 2.83a1.3 1.13-27.1 0 0-0.34 0.85q0.03 4.51-4.1 5.81a0.93 0.83-89.7 0 0-0.57 0.63q-0.26 0.92-1.1 1.53l-0.25 0.08q-1.81-3.48 1.06-6.15 3.66-2.66 4.73-7.14z" fill="#cfc7c0"/> <path d="m325.38 244.43a1.2 1.2 23.8 0 1 1.86-0.72q2.69 1.9 0.6 2.59-0.94 0.31-1.68-0.01-1.08-0.47-0.78-1.86z" fill="#b5b2ad"/> <path d="m252.84 244.86q1.25 2.04-1.14 1.98a0.92 0.92-14.4 0 1-0.78-0.46q-1.49-2.54 1.15-2.05a1.13 1.11-10 0 1 0.77 0.53z" fill="#96938f"/> <circle cx="336.22" cy="245.81" r="1.52" fill="#b5b2ad"/> <path d="m310.25 253.46q-7.39-2.42-14-6.5l3.96-1.71q0.67 1.47 2.04 0.25 3.11-2.77 3.46 0.96 0.07 0.7 0.23 1.05 0.64 1.42 1.43-0.67 0.18-0.45 0.44-0.46a0.8 0.37 75.6 0 1 0.49 0.6q0.81 2.67 3.55 1.76a0.76 0.7-28.9 0 1 0.8 0.19q2.17 2.52-1.34 2.63a0.74 0.62 5 0 0-0.67 0.47l-0.39 1.43z" fill="#96938f"/> <path d="m415.67 250.56q6.29 17.33 6.91 35.45 0.36 10.54-2.19 19.24-5.39 18.43-20.1 31.75 1.13-2.35-0.54-5.5-6.77-12.76-5.76-27.25 0.48-7.05 2.07-13.94 1.29-5.59 7.14-25.06 1.09-3.64 1.66-7.1 0.6-3.61 1.13-7.23l9.68-0.36z" fill="#fff"/> <path d="m349.43 268.34q-4.08 5.03-8.01 9.82-3.61 4.4-4.1 10.1-0.3 3.49-0.6 7.42-0.15 1.93-1.84 2.88-3.93 2.2-8.36 0.04a0.74 0.74-67.2 0 0-1.02 0.42q-2.63 7.37-9.57 10.64-7.36 3.46-15.37 1.78-2.87-0.61-5.04-3.8a0.79 0.78-29.2 0 0-0.98-0.27q-4.1 1.87-7.54 1.91-13.79 0.19-21.7-10.83-2.73-3.79-4.71-8.02-0.02-0.04-1.44-3.52-3.61-8.82-11.9-13.87 9.68 2.36 19.33 0.81a0.74 0.74 84.1 0 1 0.86 0.7q0.15 3.68 1.57 7.05 5.42 12.85 18.1 7.88 1.5-0.59 3.48-1.89 1.66-1.09 3.35-2.15 1.65-1.04 3.15-1.1 1.13-0.05 2.97 1.08 3.06 1.87 6.26 3.52 2.62 1.34 5.43 1.47 2.69 0.12 5.27-1.29 7.71-4.24 5.73-14.36a0.59 0.59 88.9 0 1 0.67-0.7q14.09 2.18 26.01-5.72z" fill="#d7d4ce"/> </svg>