<?xml version='1.0' encoding='utf-8'?>
<svg xmlns="http://www.w3.org/2000/svg" enable-background="new 0 0 1114.24 290.615" version="1.1" viewBox="0 0 1114.2 290.62"> <path d="m121.36 244.34s-32.144 0-43.833-37.016-11.482-61.315-18.183-79.627c-6.699-18.312-14.516-26.127-14.516-26.127s-11.351-7.167-19.38-15.198c-8.03-8.03-16.62-9.337-20.915-20.915s-6.909-14.938 2.801-19.98c9.711-5.042 13.633-4.298 33.986-14.754 20.356-10.458 43.323-24.277 59.757-28.384 16.434-4.109 23.529-1.681 34.36 20.354 0 0-1.867-1.867 31.932-1.867 33.798 0 52.1-2.055 52.1-2.055s10.642-19.793 26.329-14.191 33.426 18.301 46.684 24.089c13.259 5.789 40.522 23.155 47.059 26.704 6.535 3.548 21.102 11.017 11.951 25.583s-18.673 19.235-28.384 21.477-18.485 13.071-25.956 18.487-8.404 10.831-12.139 32.866c-3.734 22.036-5.043 30.253-15.687 54.342-10.644 24.087-16.807 37.533-51.912 37.533 0 0-12.323 23.156-31.932 23.156-19.607 0-32.118 3.548-44.257-6.723-12.137-10.272-19.865-14.78-19.865-17.754z" fill="#333"/> <path d="m121.83 142.11c-12.015-10.775-21.149 3.536-23.873-17.446-1.799-13.864 6.288-23.997 11.577-35.898 5.127-11.537 8.45-20.669 11.419-32.828 3.292-13.482 9.867-24.367 12.886-36.398-9.962-19.093-17.15-21.101-32.759-17.198-16.434 4.107-39.401 17.926-59.756 28.384-20.353 10.456-24.275 9.712-33.986 14.754-9.71 5.042-7.096 8.402-2.801 19.98 4.295 11.577 12.885 12.885 20.915 20.915 8.029 8.03 19.38 15.198 19.38 15.198s7.816 7.815 14.516 26.127 6.493 42.612 18.183 79.627c4.092 12.956 10.688 21.365 17.536 26.84 1.197-6.915 1.948-14.291 5.21-20.704 3.195-6.278 6.518-6.747 7.784-13.502 1.532-8.175-4.989-14.603 1.817-21.72 12.836-0.271 20.76-28.231 11.952-36.131z" opacity=".5"/> <path d="m351.5 80.955c9.15-14.565-5.416-22.034-11.951-25.583-6.536-3.548-33.8-20.915-47.059-26.704-13.258-5.788-30.997-18.487-46.684-24.089-12.138-4.334-21.25 6.53-24.755 11.67 6.138 3.892 13.816 5.544 19.663 9.392-8.638 12.356-23.423 28.285-23.078 44.085 0.311 14.17 24.494 24.161 33.616 39.484-12.643-2.747-43.447 0.254-48.818 14.884-3.485 9.497 3.094 19.298 8.15 26.75 9.531 14.047 18.052 29 17.004 47.223-1.008 17.501-8.339 40.362 2.284 46.89 24.348-3.039 30.224-15.923 39.462-36.832 10.644-24.089 11.952-32.306 15.687-54.342 3.734-22.035 4.668-27.45 12.139-32.866s16.245-16.246 25.956-18.487 19.234-6.909 28.384-21.475z" opacity=".5"/> <path d="m351.5 80.955c9.15-14.565-5.416-22.034-11.951-25.583-6.536-3.548-33.8-20.915-47.059-26.704-13.258-5.788-30.997-18.487-46.684-24.089s-26.329 14.191-26.329 14.191 20.743-15.418 31.547-4.615c10.804 10.805-3.149 39.616-5.401 53.571-2.251 13.955 5.853 43.217 25.21 43.217 18.451 0 21.902 2.109 48.245-7.082 1.328-0.617 2.673-1.116 4.038-1.431 1.842-0.664 3.567-1.147 5.191-1.483 7.914-2.749 15.68-8.032 23.193-19.992z" fill="#333"/> <path d="m77.702 108.69c16.657-5.853 29.261-20.709 22.959-43.667-5.788-21.086-12.687-55.819 14.118-64.14-3.863-0.541-8.269 0.096-13.698 1.453-16.434 4.107-39.401 17.926-59.756 28.384-20.353 10.456-24.275 9.712-33.986 14.754-9.71 5.042-7.096 8.402-2.801 19.98 4.295 11.577 12.885 12.885 20.915 20.915 8.029 8.03 19.38 15.198 19.38 15.198s16.213 12.976 32.869 7.123z" fill="#515151"/> <path d="m217.07 244.48c-0.318-1.877 2.863-3.693 3.108-5.408 0.148-1.036 2.029-3.815 3.053-7.791 0.752-2.924 0.092-11.002-0.038-14.297-0.595-15.267-1.71-30.502-10.293-43.081-9.637-14.128-23.322-29.99-26.694-47.493-4.262-22.126 13.035-41.828 9.822-64.626-1.479-0.287-3.192 0.97-4.512 1.59-0.742-0.073-1.15-3.106-1.869-3.359-1.381 1.438-2.683 2.685-4.384 3.842-0.302-2.965-2.278-7.191-1.83-10.735 0.085 0.07-5.346-3.535-6.461-4.164-0.425 3.269-2.838 6.385-3.458 8.73-1.733-5.466-3.781-11.017-6.891-15.858-4.452 17.239 0.318 38.161 1.955 55.577 1.381 14.688 5.566 36.788-5.062 46.053-3.729 3.251-14.183 3.19-17.996 6.188-3.521 2.768-7.66 9.35-10.227 13.651-8.112 13.604-12.622 27.94-16.573 43.21-2.903 11.218 1.578 20.204 1.077 31.295 0.903 1.707 1.105 3.194 1.026 4.746 0.337 0.015 0.536 0.017 0.536 0.017 0 2.95 7.728 7.418 19.865 17.598 12.139 10.181 24.649 6.666 44.257 6.666 17.714-2e-3 29.48-18.73 31.589-22.351z" fill="#fff"/> <path d="m219.47 18.771s20.743-15.418 31.547-4.615c10.804 10.805-3.149 39.616-5.401 53.571-1.354 8.401 1.049 22.344 7.396 32.117-6.377-20.518 3.298-44.884 7.064-69.538 1.345-8.796 0.81-15.053-0.428-19.478-4.683-2.443-9.352-4.643-13.85-6.25-15.686-5.6-26.328 14.193-26.328 14.193z" fill="#515151"/> <path d="m351.5 80.955c6.462-10.286 1.096-17.028-4.915-21.355-9.62 3.678-6.95 15.309-12.879 28.577-7.146 15.997-35.73 21.795-36.078 21.865 5.344-1 11.884-2.842 21.45-6.18 1.328-0.617 2.673-1.116 4.038-1.431 1.842-0.664 3.567-1.147 5.191-1.483 7.914-2.75 15.68-8.033 23.193-19.993z" fill="#515151"/> <path d="m138.07 111.1c4.27 6.551 11.206 9.454 18.805 8.119 1.703-4.886 3.268-30.205 1.682-35.653-4.494-15.438-18.947-5.615-28.218-17.352-6.782 10.91-9.335 15.382-19.656 22.541-6.913 4.795-21.622 12.015-16.125 22.714 16.82-8.743 27.863-12.304 43.513 0.059" fill="#AF800B" opacity=".18"/> <path d="m266.3 139.97c-3.844-4.896-6.981-10.176-9.475-15.668-12.309 8.787-17.809 27.337-37.19 23.177 2.26 8.784 0.425 19.805 5.604 26.855l-0.429 0.428c2.098 2.799 9.597 5.658 10.348 7.124 6.287 12.272-12.28 26.975-4.212 40.349 10.371 17.191 18.22-12.101 30.954-15.041 2.969-4.176 10.337-12.93 16.513-22.399 3.003-9.626 4.369-17.856 6.6-31.014 7e-3 -0.036 0.012-0.071 0.018-0.107-4.89-4.707-15.141-9.13-18.731-13.704z" fill="#AF800B" opacity=".18"/> <path d="m195.76 117.51c-25.673-40.989 44.606-47.162 49.083-11.581-23.858-11.019-31.215 16.01-50.793 11.581" fill="#AF800B" opacity=".18"/> <path d="m136.61 22.107c-1.822 9.569-6.942 19.373-11.386 26.187 9.063 1.536 26.153-11.278 34.562-15.995 6.441-3.613 13.387-2.779 12.988-11.492-1.758 0.012-3.553 0.019-5.403 0.019-21.19 0-28.359 0.734-30.761 1.281z" fill="#AF800B" opacity=".18"/> <path d="m220.26 17.456c-0.513 0.815-0.782 1.315-0.782 1.315s-10.713 1.201-30.863 1.766c1.512 1.149 3.306 2.367 5.497 4.129 2.442 1.965 7.52-0.582 10.132 1.533 2.198 1.778 1.716 5.875 3.399 7.32 5.183 4.452 4.953 10.805 15.14 12.596 2.662-8.574 1.623-19.774-2.523-28.659z" fill="#AF800B" opacity=".18"/> <path d="m157.6 209.49c0-1e-3 -1e-3 -1e-3 0 0 1.894-0.152 4.945-0.713 4.79-2.789-0.226-2.999-3.179-7.949 2.177-8.349 5.355-0.403 9.612 4.665 6.045 8.811-2.601 3.019-8.791 3.477-12.147 3.517 0.104 0.297 0.177 0.634 0.208 1.04 0.417 5.568 5.11 7.803 11.417 8.624 6.312 0.821 6.196 7.938 6.196 7.938 0.877-11.27 16.538-6.411 18.614-13.242 0.564-1.864 1.496-3.127 2.555-4.259-4.445 0.396-10.207 0.081-11.685-3.863-2.489-6.643 1.869-9.248 5.915-8.411 3.638 0.752 0.299 9.485 8.147 9.89 2.198-2.297 4.251-5.339 4.398-12.583 0.272-13.593-19.805-17.045-27.518-16.467-7.714 0.577-28.933-0.85-27.664 16.073 1.01 13.477 6.246 12.298 8.552 14.07z"/> <path d="m204.89 242.98c-2.013 1.332-3.943 0.956-5.308-0.241-0.585 0.175-1.202 0.369-1.766 0.597 0.079-0.035-0.387-0.295-0.586-0.253-0.416 0.288-0.987 0.724-1.35 0.994-2.127-0.72-3.759-1.669-5.344-2.134-0.01-2e-3 -0.019-5e-3 -0.025-8e-3 -1.77-0.512-3.48-0.418-5.765 1.31-4.3-2.493-8.782-4.308-10.482-8.544-0.291 0.754-0.62 1.498-1.024 2.275-0.463-0.093-0.532-0.277-1.069-0.36-0.779 1.318-1.931 2.7-3.02 3.043-0.036 0.015 0.102 0.508 0.022 0.597 0.086 0.019-0.955-0.65-0.857-0.579-0.381 0.849-1.441 1.335-2.028 1.942-1.695-1.188-3.766-1.575-4.843 0.174-0.258 0.092-0.521-0.566-0.886-0.378-0.609 0.587-1.422 1.002-2.359 1.292-0.32 0.098-0.656 0.183-1 0.25-0.021 6e-3 -0.049 8e-3 -0.069 0.012-0.329 0.063-0.667 0.121-1.013 0.164-0.023 3e-3 -0.047 6e-3 -0.071 7e-3 -0.351 0.044-0.71 0.077-1.079 0.102-0.017 3e-3 -0.029 3e-3 -0.046 3e-3 -0.373 0.025-0.756 0.04-1.141 0.049-3.396 0.07-7.149-0.412-9.71-0.405-3.544 0.01-8.938 1.33-11.467-0.775 7.843 6.711 17.646 13.185 30.859 13.12 12.032-0.059 26.64-1.861 37.698-5.79 4.024-1.432 8.964-4.099 9.763-7.535-1.827 1.515-4.233 2.69-6.034 1.071z"/> <path d="m96.855 117.38s7.896-10.43 20.113-10.43c12.218 0 15.049 19.07 15.049 19.07s-28.01 12.218-35.162-8.64z"/> <path d="m128.35 118.05c0-0.018-3e-3 -0.034-4e-3 -0.053-1.965-4.223-5.507-8.859-11.606-8.859-7.585 0-13.344 3.918-16.274 6.448-0.24 0.793-0.379 1.615-0.379 2.464 0 1.752 0.552 3.402 1.51 4.867 5.362 5.472 14.143 5.254 20.628 4.084 3.697-1.96 6.125-5.235 6.125-8.951z" fill="#664C21"/> <ellipse cx="117.26" cy="116.92" rx="6.791" ry="6.014"/> <ellipse cx="113.79" cy="114.51" rx="3.464" ry="3.115" fill="#fff" opacity=".3"/> <path d="m247.36 118.73s-7.588-9.272-19.328-9.272c-11.742 0-14.463 16.954-14.463 16.954s26.918 10.861 33.791-7.682z"/> <path d="m217.1 119.11c0-0.017 2e-3 -0.032 2e-3 -0.048 1.889-3.851 5.295-8.079 11.156-8.079 7.288 0 12.823 3.573 15.639 5.88 0.231 0.723 0.365 1.473 0.365 2.247 0 1.598-0.531 3.102-1.451 4.438-5.153 4.989-13.592 4.792-19.823 3.725-3.557-1.788-5.888-4.775-5.888-8.163z" fill="#664C21"/> <ellipse cx="227.68" cy="117.77" rx="6.526" ry="5.484"/> <ellipse cx="231.01" cy="115.57" rx="3.328" ry="2.841" fill="#fff" opacity=".3"/> <path d="m117.78 214.51c0.089-2.117 0.365-4.287 0.945-6.55 3.951-15.404 8.461-29.869 16.573-43.592 2.566-4.34 6.706-10.98 10.227-13.773 3.071-2.434 10.444-2.87 15.146-4.66 1.359-4.31-0.993-7.743-10.178-9.741-15.312-3.332-46.966 7.169-57.712-10.997l-0.428 2.135c-6.085-8.449-14.762 5.356-19.291 11.052-4.385-1.435-7.741-0.637-10.292 1.48 3.692 16.724 5.481 38.075 14.761 67.458 5.563 17.619 15.76 26.842 24.92 31.679 1.818-6.708-2.089-13.474-3.836-19.146 1.836 0.061 4.132 0.102 5.694 0.146-0.75-2.768 0.208-5.746-0.356-8.511 7.579 3.4 11.31 4.448 13.827 3.02z" fill="#AF800B" opacity=".18"/> <path d="m101.08 2.339c-14.782 3.695-34.849 15.242-53.549 25.138 4e-3 -1e-3 7e-3 -2e-3 0.01-4e-3 -2.085 1.909-6.005 3.993-12.262 6.266l-0.021 9e-3c0.013-7e-3 0.028-0.014 0.041-0.021-3.28 1.585-6.045 2.824-8.446 3.835-35.348 20.178 18 58.704 18.664 59.182 13.678 6.281 27.634 8.68 37.184 1.708 21.573-15.752 4.109-31.161 6.849-65.746 2.645-33.387 23.688-31.965 25.144-31.827-3.843-0.522-8.223 0.112-13.614 1.46z" fill="#333"/> <path d="m151.42 250.38c-2.726-1.942-5.688-3.297-7.875-5.604 2.66-4 1.457-9.443 1.323-13.068 2.371-3.109 2.312-6.69-1.429-8.42 0.254 0.012 0.5-0.027 0.738-0.118-2.939-3.301-6.948-4.88-11.14-6.002-0.061-4.438-2.076-12.091 3.274-12.54 0.738-5.125 0.75-10.143 4.008-14.553 2.627-3.559 9.123-2.825 7.772-9.738 2.318-2.201 2.189-2.643 3.55-5.77 7.784 2.088 4.413-4.587 7.456-8.021 3.632-4.099 7.2-4.088 12.696-4.868 0.823 5.771 1.129 9.935 3.327 15.296 0.531-0.973 1.997-1.779 2.634-3.09 4.104 2.004 10.544 4.31 10.872-2.835 8.506 2.386 20.603 21.31 22.411 28.928 2.739 11.53 2.195 22.164-10.192 26.793 1.338 9.383 3.832 17.579-4.898 20.817-11.97 4.442-27.577 4.351-40.027 3.03" opacity=".23"/> <path d="m140.79 262.61c-6.054-5.123-11.007-8.803-14.473-11.6-3.062-2.529-5.057-4.2-5.53-6.003-4.43-0.201-32.999-2.951-43.908-37.481-11.708-37.099-11.527-61.483-18.17-79.6-3.332-9.104-6.937-15.587-9.7-19.789-2.514-3.818-4.303-5.724-4.609-6.04-0.966-0.616-11.686-7.505-19.429-15.247-7.804-7.865-16.629-9.261-21.074-21.16-2.115-5.736-3.873-9.445-3.894-12.622-0.013-3.298 2.09-5.678 7.024-8.204 9.851-5.104 13.686-4.325 33.987-14.754 20.339-10.442 43.291-24.277 59.903-28.442 4.153-1.037 7.742-1.672 10.987-1.672 9.628-0.017 15.884 5.696 23.793 21.659 0.077-0.027 0.158-0.055 0.242-0.086 0.696-0.207 1.863-0.425 3.978-0.635 4.227-0.422 12.227-0.797 27.459-0.8 16.884 0 29.896-0.512 38.685-1.024 7.406-0.433 11.795-0.863 12.997-0.988 1.285-2.211 9.115-15.147 21.155-15.232 1.857 0 3.804 0.319 5.82 1.041 15.82 5.656 33.577 18.374 46.729 24.105 13.354 5.834 40.623 23.21 47.112 26.729 4.998 2.75 15.171 7.846 15.244 17.306 0 2.769-0.909 5.846-3.041 9.244-9.211 14.696-18.983 19.53-28.81 21.778-9.359 2.121-18.14 12.851-25.709 18.375-7.222 5.236-8.105 10.31-11.865 32.427-3.729 22.016-5.073 30.388-15.733 54.502-10.491 23.97-17.174 37.938-52.144 37.942-1.691 2.967-13.62 23.076-32.326 23.156-7.98 0-14.797 0.59-20.941 0.593h-0.087c-8.84 1e-3 -16.373-1.29-23.672-7.478zm-18.737-18.959v0.685c-0.106 0.894 1.663 2.881 5.124 5.605 3.432 2.77 8.413 6.476 14.497 11.626 7.035 5.938 14.095 7.143 22.875 7.15 6.055 0 12.895-0.593 20.941-0.593 9.519 0.01 17.354-5.641 22.821-11.367 5.466-5.715 8.498-11.412 8.503-11.427l0.193-0.362h0.411c34.897-0.101 40.53-13.007 51.288-37.125 10.626-24.063 11.893-32.127 15.636-54.179 3.712-21.954 4.693-27.71 12.413-33.305 7.374-5.309 16.14-16.237 26.204-18.601 9.597-2.232 18.869-6.741 27.956-21.174 2.031-3.233 2.831-6.05 2.831-8.515 0.072-8.307-9.432-13.37-14.528-16.103-6.581-3.575-33.842-20.934-47.005-26.676-13.365-5.844-31.087-18.525-46.64-24.072-1.876-0.672-3.66-0.959-5.361-0.959-5.994-9e-3 -11.037 3.646-14.587 7.381-3.547 3.725-5.544 7.44-5.55 7.449l-0.17 0.316-0.355 0.039c-0.022 3e-3 -18.35 2.059-52.175 2.059-13.306 0-21.075 0.291-25.582 0.641-4.486 0.324-5.815 0.814-5.854 0.887l-0.26-0.376-0.722 0.517c-0.039-0.041-0.113-0.123-0.164-0.254-8.124-16.428-13.854-21.536-22.89-21.552-3.065-3e-3 -6.554 0.607-10.654 1.633-16.253 4.051-39.236 17.854-59.608 28.327-20.408 10.481-24.415 9.775-33.985 14.755-4.848 2.545-6.271 4.388-6.285 6.987-0.02 2.641 1.659 6.383 3.812 12.145 4.146 11.259 12.5 12.478 20.757 20.67 7.949 7.955 19.239 15.09 19.261 15.102l0.068 0.042 0.05 0.053c0.062 0.059 7.938 7.961 14.676 26.377 6.753 18.509 6.523 42.723 18.19 79.656 8.69 27.472 28.642 34.238 38.099 35.971 3.147 0.57 5.077 0.567 5.083 0.567v0.685-0.685h0.686zm14.057-221.02h-0.401 0.401z" fill="#333"/> <path d="m16.689 290s12.864-47.352 21.075-66.783c8.21-19.432 27.643-66.781 31.2-78.551 3.559-11.768 14.369-31.884 20.527-38.042s14.607-15.43 24.354-9.724c0 0 14.5-5.11 24.484-3.804 9.983 1.308 3.507 7.785 3.507 7.785s4.338-3.505 4.338 4.22 0 16.046-3.922 22.82c-3.923 6.775-6.716 11.589-2.972 11.529s6.537-1.665 7.012 1.426c0.476 3.091 2.081 11.944-6.061 20.088-8.143 8.141-8.558 6.416-20.443 18.302-11.887 11.888-17.604 20.312-25.137 24.078-6.492 3.247-22.139 47.182-26.341 84.688" fill="#F9F9F9"/> <path d="m16.028 289.82c7e-3 -0.017 12.856-47.34 21.104-66.867 8.202-19.412 27.651-66.806 31.177-78.482 3.626-11.92 14.375-31.973 20.699-38.331 4.803-4.767 11.038-11.662 18.615-11.71 2.037 0 4.153 0.523 6.293 1.723 1.864-0.626 12.062-3.948 20.871-3.956 1.243 0 2.463 0.067 3.631 0.221 4.431 0.526 6.182 2.332 6.167 4.363-0.021 0.973-0.37 1.879-0.789 2.625 0.017-1e-3 0.033-1e-3 0.05-1e-3 0.763-0.02 1.653 0.392 2.18 1.326 0.538 0.921 0.83 2.28 0.832 4.374v5e-3c-8e-3 7.72 0.025 16.16-4.012 23.157-2.632 4.486-4.702 8.249-4.646 9.74 0.098 0.633 0 0.647 1.012 0.76 0.037 0 0.064 0 0.059 2e-3 1.833-0.025 3.455-0.462 4.842-0.471 1.307-0.101 2.683 0.721 2.859 2.478 0.156 1.034 0.456 2.782 0.454 4.948 8e-3 4.253-1.17 10.192-6.709 15.726-8.229 8.223-8.608 6.465-20.444 18.304-11.855 11.84-17.536 20.291-25.314 24.207-1.261 0.567-3.562 3.893-5.949 9.008-2.429 5.124-5.116 12.07-7.734 20.088-5.236 16.036-10.188 36.367-12.281 55.056l-1.362-0.153c3.167-28.229 12.759-59.985 20.14-75.576 2.502-5.209 4.593-8.592 6.576-9.646 7.288-3.618 13.044-12.019 24.959-23.953 11.934-11.931 12.388-10.237 20.441-18.301 5.248-5.26 6.302-10.741 6.311-14.759 0-2.046-0.28-3.693-0.44-4.741-0.291-1.252-0.474-1.213-1.505-1.314-1.084-0.012-2.805 0.431-4.85 0.467h-0.051c-0.689 0-1.294-0.145-1.751-0.546-0.46-0.406-0.636-1.006-0.631-1.583 0.057-2.326 2.219-5.859 4.831-10.427 3.803-6.552 3.836-14.745 3.827-22.471v-6e-3c6e-3 -1.962-0.3-3.111-0.642-3.68-0.355-0.563-0.627-0.63-1-0.649-0.337-6e-3 -0.754 0.145-1.07 0.316-0.317 0.168-0.508 0.323-0.508 0.325l-0.916-1.017c-3e-3 -6e-3 0.471-0.471 0.947-1.186 0.484-0.711 0.925-1.647 0.917-2.432-0.015-1.101-0.715-2.393-4.977-3.003-1.097-0.146-2.256-0.211-3.452-0.211-9.365-8e-3 -20.697 3.968-20.714 3.979l-0.301 0.106-0.273-0.16c-2.049-1.199-3.994-1.689-5.876-1.692-6.675-0.048-12.843 6.464-17.648 11.309-5.993 5.96-16.863 26.139-20.354 37.757-3.59 11.86-23.009 59.163-31.225 78.619-4.082 9.659-9.354 26.351-13.593 40.605-4.24 14.258-7.445 26.063-7.454 26.087l3e-3 3e-3 -1.326-0.36z" fill="#333"/> <path d="m112.63 96.266c-2e-3 2e-3 -13.239 21.457-11.045 19.264s13.724-19.111 13.725-19.113c-0.927 0.293-1.461 0.481-1.461 0.481-0.409-0.24-0.815-0.444-1.219-0.632zm8.631 55.153c4.934-2.504 16.914-12.171 16.915-12.171-1.234-0.626-0.614-2.68 0.898-5.641 0 0-22.748 20.319-17.813 17.812zm-0.027-28.259c5.523-3.619 23.171-22.906 23.224-22.964-1.211-0.449-2.618 0.682-2.618 0.682s1.878-1.881 2.05-3.821c0 1e-3 -28.188 29.728-22.656 26.103z" opacity=".5"/> <path d="m147.37 91.493c-2.519-0.767-6.478 0.416-9.397 1.562 0.119 0.014 0.242 0.024 0.36 0.04 9.983 1.308 3.507 7.785 3.507 7.785s0.301-0.239 0.74-0.456c3.997-4.067 7.318-8.162 4.79-8.931zm-1.192 13.606c0 1.87-2e-3 3.774-0.058 5.683 3.436-5.388 6.44-11.467 3.73-11.467-1.496 0-3.054 0.737-4.463 1.7 0.466 0.737 0.791 1.988 0.791 4.084zm-30.284-19.329c-3.139 1.308-7.35 6.377-9.689 9.438 2.438-0.301 4.993 0.137 7.645 1.689 0 0 0.16-0.057 0.444-0.151 2.81-5.335 4.717-12.276 1.6-10.976zm36.436 50.745c-1.731 0-4.603 1.212-7.305 2.588 0.66 0.204 1.106 0.704 1.271 1.771 0.212 1.375 0.643 3.895 0.343 6.981 5.031-5.01 8.534-11.34 5.691-11.34z" fill="#CAC3BE"/> <path d="m68.965 144.66c0.25-0.824 0.539-1.696 0.855-2.596-2.003-3.984-9.062 2.84-10.017 15.049-0.953 12.21-3.455 20.861-3.455 20.861 5.829-14.552 10.955-27.816 12.617-33.314z" fill="#F9F9F9"/> <path d="m55.688 177.79c-2e-3 -0.022 2.482-8.58 3.432-20.723 0.391-5.021 1.792-9.16 3.486-12.079 1.721-2.893 3.629-4.679 5.561-4.74 0.812-0.017 1.566 0.418 2.048 1.137h0.573l-0.322 0.913c-0.315 0.894-0.6 1.753-0.846 2.567-1.681 5.56-6.805 18.804-12.636 33.368l-0.053 0.134-0.1 0.098-1.143-0.675zm8.104-32.113c-1.579 2.717-2.93 6.672-3.308 11.497-0.382 4.897-1.011 9.224-1.63 12.659 4.459-11.289 8.115-20.931 9.453-25.365 0.227-0.742 0.482-1.521 0.76-2.322-0.272-0.41-0.535-0.514-0.9-0.53-0.021-1e-3 -0.04-2e-3 -0.061-2e-3 -0.946 0-2.792 1.384-4.314 4.063z" fill="#333"/> <path d="m331.4 276.94c-4.422-15.476-11.951-40.787-17.417-53.725-8.21-19.432-27.643-66.781-31.201-78.551-3.558-11.768-14.368-31.884-20.526-38.042s-14.608-15.43-24.354-9.724c0 0-14.501-5.11-24.484-3.804-9.984 1.308-3.507 7.785-3.507 7.785s-4.338-3.505-4.338 4.22-1e-3 16.046 3.922 22.82c3.923 6.775 6.716 11.589 2.972 11.529s-6.537-1.665-7.013 1.426-2.08 11.944 6.062 20.088c8.142 8.141 8.558 6.416 20.443 18.302 11.886 11.888 17.603 20.312 25.136 24.078 6.526 3.265 22.301 47.635 26.405 85.266" fill="#F9F9F9"/> <path d="m262.78 213.04c-2.401-5.158-4.719-8.518-5.988-9.088-7.777-3.919-13.456-12.369-25.313-24.207-11.838-11.839-12.216-10.084-20.444-18.304-5.545-5.536-6.719-11.47-6.71-15.726-3e-3 -2.166 0.297-3.914 0.456-4.948 0.171-1.757 1.55-2.58 2.855-2.477 1.387 8e-3 3.012 0.445 4.813 0.47 0.022-2e-3 0.05-2e-3 0.086-2e-3 1.013-0.112 0.914-0.126 1.015-0.759 0.054-1.491-2.015-5.256-4.646-9.742-4.04-6.996-4.006-15.438-4.012-23.157v-5e-3c3e-3 -2.093 0.294-3.452 0.832-4.374 0.524-0.933 1.415-1.348 2.178-1.325 0.017 0 0.034 0 0.052 1e-3 -0.419-0.745-0.771-1.651-0.792-2.624-0.014-2.032 1.74-3.835 6.169-4.362 1.166-0.154 2.388-0.222 3.631-0.222 8.81 8e-3 19.011 3.327 20.872 3.955 2.139-1.199 4.255-1.725 6.294-1.722 7.574 0.047 13.811 6.942 18.615 11.708 6.323 6.36 17.074 26.412 20.699 38.332 3.524 11.677 22.973 59.07 31.176 78.482 5.494 13.01 13.017 38.314 17.443 53.803l-1.316 0.375c-4.418-15.46-11.952-40.78-17.391-53.646-8.218-19.456-27.634-66.757-31.226-78.618-3.491-11.618-14.359-31.799-20.354-37.759-4.806-4.844-10.975-11.355-17.646-11.308-1.885 3e-3 -3.829 0.491-5.875 1.689l-0.274 0.163-0.303-0.106c-0.011 2e-3 -2.85-0.995-6.853-1.992-4.004-0.995-9.179-1.993-13.861-1.987-1.195 0-2.358 0.064-3.451 0.208-4.261 0.613-4.962 1.902-4.979 3.006-8e-3 0.781 0.434 1.72 0.919 2.432 0.476 0.715 0.947 1.183 0.947 1.186l-0.914 1.017c-5e-3 2e-3 -0.193-0.157-0.51-0.325-0.316-0.171-0.734-0.322-1.072-0.317-0.373 0.02-0.646 0.087-0.998 0.65-0.342 0.569-0.647 1.717-0.645 3.679v5e-3c-6e-3 7.727 0.025 15.919 3.833 22.47 2.611 4.567 4.771 8.103 4.828 10.428 5e-3 0.577-0.172 1.176-0.631 1.583-0.46 0.401-1.065 0.546-1.755 0.546h-0.075c-2.018-0.037-3.737-0.479-4.824-0.468-1.031 0.101-1.21 0.062-1.502 1.314-0.16 1.048-0.44 2.695-0.442 4.741 8e-3 4.018 1.062 9.496 6.312 14.756 8.055 8.063 8.506 6.373 20.443 18.304 11.914 11.937 17.669 20.336 24.956 23.954 1.994 1.059 4.1 4.471 6.615 9.725 2.479 5.244 5.197 12.294 7.842 20.418 5.284 16.246 10.263 36.779 12.325 55.656l-1.361 0.15c-3.064-28.122-12.706-60.122-20.043-75.636z" fill="#333"/> <path d="m237.9 96.897s-0.534-0.188-1.461-0.481c1e-3 2e-3 11.53 16.92 13.725 19.113s-11.044-19.262-11.045-19.264c-0.404 0.189-0.809 0.393-1.219 0.632zm-25.225 36.71c1.512 2.961 2.132 5.015 0.898 5.641 0 0 11.981 9.667 16.915 12.171 4.934 2.507-17.813-17.812-17.813-17.812zm-4.816-36.549c0.172 1.939 2.05 3.821 2.05 3.821s-1.407-1.131-2.619-0.682c0.054 0.058 17.701 19.345 23.225 22.964 5.532 3.624-22.656-26.103-22.656-26.103z" opacity=".5"/> <path d="m209.17 100.42c0.439 0.216 0.74 0.456 0.74 0.456s-6.478-6.477 3.507-7.785c0.118-0.016 0.24-0.025 0.36-0.04-2.92-1.146-6.88-2.328-9.398-1.562-2.526 0.77 0.794 4.865 4.791 8.931zm-2.808 0.592c-1.409-0.963-2.968-1.7-4.463-1.7-2.71 0 0.295 6.079 3.729 11.467-0.056-1.908-0.057-3.812-0.057-5.683 1e-3 -2.096 0.325-3.347 0.791-4.084zm31.095-4.269c0.284 0.095 0.444 0.151 0.444 0.151 2.65-1.553 5.205-1.99 7.645-1.689-2.34-3.062-6.552-8.131-9.689-9.438-3.118-1.3-1.211 5.641 1.6 10.976zm-32.346 51.109c-0.3-3.087 0.131-5.606 0.342-6.981 0.165-1.067 0.61-1.567 1.271-1.771-2.702-1.376-5.573-2.588-7.306-2.588-2.841 0 0.662 6.33 5.693 11.34z" fill="#CAC3BE"/> <path d="m282.78 144.66c-0.249-0.824-0.538-1.696-0.855-2.596h1e-3c2.003-3.984 9.062 2.84 10.016 15.049 0.954 12.21 3.456 20.861 3.456 20.861h-1e-3c-5.828-14.552-10.955-27.816-12.617-33.314z" fill="#F9F9F9"/> <path d="m294.82 178.36-0.053-0.134c-5.834-14.564-10.955-27.809-12.637-33.368l0.655-0.198 0.654-0.199c1.339 4.435 4.996 14.074 9.456 25.362-0.62-3.434-1.25-7.761-1.633-12.656-0.375-4.825-1.729-8.78-3.31-11.497-1.556-2.737-3.445-4.122-4.372-4.061-0.366 0.016-0.628 0.121-0.899 0.531 0.279 0.8 0.534 1.578 0.758 2.32l-0.654 0.199-0.655 0.198c-0.247-0.813-0.532-1.673-0.846-2.567l-0.322-0.913h0.57c0.481-0.719 1.236-1.154 2.049-1.137 1.929 0.061 3.837 1.847 5.557 4.74 1.694 2.919 3.096 7.059 3.49 12.079 0.948 12.143 3.426 20.703 3.432 20.723l-1.144 0.675-0.096-0.097z" fill="#333"/> <path d="m880.49 244.34s-32.145 0-43.834-37.016c-11.688-37.016-11.483-61.315-18.182-79.627s-14.516-26.127-14.516-26.127-11.351-7.167-19.381-15.198c-8.029-8.03-16.619-9.337-20.914-20.915-4.296-11.578-6.91-14.938 2.801-19.98 9.709-5.042 13.631-4.298 33.987-14.754 20.353-10.458 43.322-24.276 59.754-28.384 16.433-4.109 23.53-1.681 34.361 20.354 0 0-1.868-1.867 31.931-1.867s52.1-2.055 52.1-2.055 10.644-19.793 26.33-14.191 33.425 18.301 46.684 24.089c13.258 5.789 40.522 23.155 47.059 26.704 6.535 3.548 21.102 11.017 11.951 25.583s-18.674 19.235-28.385 21.477-18.485 13.071-25.955 18.487c-7.471 5.416-8.404 10.831-12.139 32.866-3.735 22.036-5.043 30.253-15.688 54.342-10.643 24.087-16.807 37.533-51.912 37.533 0 0-12.322 23.156-31.932 23.156-19.607 0-32.117 3.548-44.257-6.723-12.135-10.272-19.863-14.78-19.863-17.754z" fill="#333"/> <path d="m880.96 142.11c-12.015-10.775-21.15 3.536-23.874-17.446-1.798-13.864 6.288-23.997 11.577-35.898 5.127-11.537 8.451-20.669 11.419-32.828 3.293-13.482 9.868-24.367 12.887-36.398-9.963-19.093-17.15-21.101-32.76-17.198-16.432 4.107-39.401 17.926-59.754 28.384-20.356 10.456-24.278 9.712-33.987 14.754-9.711 5.042-7.097 8.402-2.801 19.98 4.295 11.577 12.885 12.885 20.914 20.915 8.03 8.03 19.381 15.198 19.381 15.198s7.817 7.815 14.516 26.127 6.493 42.612 18.182 79.627c4.092 12.956 10.689 21.365 17.538 26.84 1.195-6.915 1.947-14.291 5.208-20.704 3.196-6.278 6.518-6.747 7.785-13.502 1.531-8.175-4.989-14.603 1.816-21.72 12.836-0.271 20.76-28.231 11.953-36.131z" opacity=".5"/> <path d="m1110.6 80.955c9.15-14.565-5.416-22.034-11.951-25.583-6.536-3.548-33.801-20.915-47.059-26.704-13.259-5.788-30.998-18.487-46.684-24.089-12.138-4.334-21.251 6.53-24.756 11.67 6.139 3.892 13.816 5.544 19.663 9.392-8.637 12.356-23.423 28.285-23.077 44.085 0.311 14.17 24.494 24.161 33.616 39.484-12.644-2.747-43.448 0.254-48.818 14.884-3.485 9.497 3.094 19.298 8.149 26.75 9.532 14.047 18.053 29 17.004 47.223-1.007 17.501-8.338 40.362 2.285 46.89 24.347-3.039 30.223-15.923 39.461-36.832 10.645-24.089 11.952-32.306 15.688-54.342 3.734-22.035 4.668-27.45 12.139-32.866 7.47-5.416 16.244-16.246 25.955-18.487s19.235-6.909 28.385-21.475z" opacity=".5"/> <path d="m1110.6 80.955c9.15-14.565-5.416-22.034-11.951-25.583-6.536-3.548-33.801-20.915-47.059-26.704-13.259-5.788-30.998-18.487-46.684-24.089-15.687-5.602-26.33 14.191-26.33 14.191s20.744-15.418 31.548-4.615c10.804 10.805-3.15 39.616-5.401 53.571-2.252 13.955 5.852 43.217 25.21 43.217 18.45 0 21.901 2.109 48.245-7.082 1.328-0.617 2.672-1.116 4.037-1.431 1.842-0.664 3.568-1.147 5.191-1.483 7.915-2.749 15.68-8.032 23.194-19.992z" fill="#333"/> <path d="m836.83 108.69c16.657-5.853 29.26-20.709 22.958-43.667-5.787-21.086-12.686-55.819 14.119-64.14-3.863-0.541-8.27 0.096-13.699 1.453-16.432 4.107-39.401 17.926-59.754 28.384-20.356 10.456-24.278 9.712-33.987 14.754-9.711 5.042-7.097 8.402-2.801 19.98 4.295 11.577 12.885 12.885 20.914 20.915 8.03 8.03 19.381 15.198 19.381 15.198s16.212 12.976 32.869 7.123z" fill="#515151"/> <path d="m976.2 244.48c-0.318-1.877 2.864-3.693 3.109-5.408 0.148-1.036 2.029-3.815 3.052-7.791 0.752-2.924 0.093-11.002-0.037-14.297-0.595-15.267-1.711-30.502-10.293-43.081-9.638-14.128-23.322-29.99-26.694-47.493-4.262-22.126 13.035-41.828 9.822-64.626-1.48-0.287-3.193 0.97-4.512 1.59-0.742-0.073-1.15-3.106-1.869-3.359-1.382 1.438-2.684 2.685-4.385 3.842-0.301-2.965-2.277-7.191-1.83-10.735 0.086 0.07-5.345-3.535-6.461-4.164-0.425 3.269-2.838 6.385-3.457 8.73-1.733-5.466-3.781-11.017-6.892-15.858-4.451 17.239 0.318 38.161 1.956 55.577 1.381 14.688 5.565 36.788-5.062 46.053-3.73 3.251-14.184 3.19-17.997 6.188-3.519 2.768-7.66 9.35-10.226 13.651-8.112 13.604-12.623 27.94-16.573 43.21-2.903 11.218 1.579 20.204 1.076 31.295 0.903 1.707 1.105 3.194 1.026 4.746 0.338 0.015 0.537 0.017 0.537 0.017 0 2.95 7.728 7.418 19.864 17.598 12.14 10.181 24.649 6.666 44.257 6.666 17.714-2e-3 29.48-18.73 31.589-22.351z" fill="#fff"/> <path d="m978.6 18.771s20.744-15.418 31.548-4.615c10.804 10.805-3.15 39.616-5.401 53.571-1.355 8.401 1.049 22.344 7.396 32.117-6.376-20.518 3.298-44.884 7.065-69.538 1.344-8.796 0.809-15.053-0.428-19.478-4.684-2.443-9.352-4.643-13.85-6.25-15.687-5.6-26.33 14.193-26.33 14.193z" fill="#515151"/> <path d="m1110.6 80.955c6.462-10.286 1.096-17.028-4.916-21.355-9.62 3.678-6.95 15.309-12.879 28.577-7.146 15.997-35.729 21.795-36.077 21.865 5.343-1 11.883-2.842 21.45-6.18 1.328-0.617 2.672-1.116 4.037-1.431 1.842-0.664 3.568-1.147 5.191-1.483 7.915-2.75 15.68-8.033 23.194-19.993z" fill="#515151"/> <path d="m897.2 111.1c4.271 6.551 11.206 9.454 18.805 8.119 1.702-4.886 3.268-30.205 1.681-35.653-4.494-15.438-18.946-5.615-28.216-17.352-6.783 10.91-9.337 15.382-19.658 22.541-6.912 4.795-21.622 12.015-16.124 22.714 16.82-8.743 27.863-12.304 43.513 0.059" fill="#AF800B" opacity=".18"/> <path d="m1025.4 139.97c-3.843-4.896-6.981-10.176-9.474-15.668-12.309 8.787-17.81 27.337-37.191 23.177 2.261 8.784 0.426 19.805 5.604 26.855l-0.428 0.428c2.097 2.799 9.596 5.658 10.348 7.124 6.286 12.272-12.28 26.975-4.212 40.349 10.37 17.191 18.219-12.101 30.953-15.041 2.97-4.176 10.337-12.93 16.513-22.399 3.003-9.626 4.37-17.856 6.601-31.014 6e-3 -0.036 0.012-0.071 0.017-0.107-4.889-4.707-15.14-9.13-18.731-13.704z" fill="#AF800B" opacity=".18"/> <path d="m954.88 117.51c-25.672-40.989 44.606-47.162 49.084-11.581-23.859-11.019-31.215 16.01-50.793 11.581" fill="#AF800B" opacity=".18"/> <path d="m895.74 22.107c-1.822 9.569-6.942 19.373-11.386 26.187 9.063 1.536 26.154-11.278 34.562-15.995 6.44-3.613 13.387-2.779 12.988-11.492-1.758 0.012-3.553 0.019-5.404 0.019-21.189 0-28.357 0.734-30.76 1.281z" fill="#AF800B" opacity=".18"/> <path d="m979.38 17.456c-0.513 0.815-0.783 1.315-0.783 1.315s-10.713 1.201-30.862 1.766c1.512 1.149 3.306 2.367 5.496 4.129 2.442 1.965 7.521-0.582 10.132 1.533 2.198 1.778 1.717 5.875 3.399 7.32 5.183 4.452 4.953 10.805 15.141 12.596 2.662-8.574 1.623-19.774-2.523-28.659z" fill="#AF800B" opacity=".18"/> <path d="m916.72 209.49c0-1e-3 -1e-3 -1e-3 0 0 1.893-0.152 4.945-0.713 4.79-2.789-0.227-2.999-3.18-7.949 2.176-8.349 5.355-0.403 9.612 4.665 6.045 8.811-2.6 3.019-8.791 3.477-12.146 3.517 0.104 0.297 0.176 0.634 0.207 1.04 0.418 5.568 5.111 7.803 11.418 8.624 6.311 0.821 6.195 7.938 6.195 7.938 0.878-11.27 16.539-6.411 18.615-13.242 0.564-1.864 1.496-3.127 2.555-4.259-4.445 0.396-10.208 0.081-11.685-3.863-2.489-6.643 1.868-9.248 5.915-8.411 3.637 0.752 0.299 9.485 8.146 9.89 2.198-2.297 4.252-5.339 4.398-12.583 0.273-13.593-19.805-17.045-27.518-16.467-7.713 0.577-28.932-0.85-27.664 16.073 1.01 13.477 6.247 12.298 8.553 14.07z"/> <path d="m964.02 242.98c-2.013 1.332-3.943 0.956-5.307-0.241-0.585 0.175-1.203 0.369-1.766 0.597 0.078-0.035-0.387-0.295-0.586-0.253-0.416 0.288-0.988 0.724-1.35 0.994-2.127-0.72-3.76-1.669-5.344-2.134-0.01-2e-3 -0.02-5e-3 -0.025-8e-3 -1.77-0.512-3.48-0.418-5.766 1.31-4.299-2.493-8.781-4.308-10.481-8.544-0.292 0.754-0.62 1.498-1.024 2.275-0.463-0.093-0.533-0.277-1.07-0.36-0.778 1.318-1.93 2.7-3.02 3.043-0.035 0.015 0.102 0.508 0.023 0.597 0.086 0.019-0.955-0.65-0.857-0.579-0.381 0.849-1.441 1.335-2.029 1.942-1.695-1.188-3.766-1.575-4.842 0.174-0.258 0.092-0.521-0.566-0.886-0.378-0.61 0.587-1.422 1.002-2.359 1.292-0.321 0.098-0.657 0.183-1.001 0.25-0.021 6e-3 -0.048 8e-3 -0.069 0.012-0.329 0.063-0.666 0.121-1.013 0.164-0.022 3e-3 -0.047 6e-3 -0.07 7e-3 -0.352 0.044-0.711 0.077-1.08 0.102-0.016 3e-3 -0.029 3e-3 -0.045 3e-3 -0.373 0.025-0.756 0.04-1.141 0.049-3.396 0.07-7.15-0.412-9.71-0.405-3.544 0.01-8.937 1.33-11.468-0.775 7.844 6.711 17.646 13.185 30.859 13.12 12.032-0.059 26.641-1.861 37.698-5.79 4.024-1.432 8.965-4.099 9.763-7.535-1.827 1.515-4.232 2.69-6.034 1.071z"/> <path d="m855.98 117.38s7.896-10.43 20.113-10.43c12.216 0 15.048 19.07 15.048 19.07s-28.01 12.218-35.161-8.64z"/> <path d="m887.48 118.05c0-0.018-2e-3 -0.034-4e-3 -0.053-1.964-4.223-5.507-8.859-11.606-8.859-7.585 0-13.343 3.918-16.274 6.448-0.239 0.793-0.379 1.615-0.379 2.464 0 1.752 0.553 3.402 1.511 4.867 5.362 5.472 14.141 5.254 20.627 4.084 3.697-1.96 6.125-5.235 6.125-8.951z" fill="#664C21"/> <ellipse cx="876.38" cy="116.92" rx="6.791" ry="6.014"/> <ellipse cx="872.92" cy="114.51" rx="3.463" ry="3.115" fill="#fff" opacity=".3"/> <path d="m1006.5 118.73s-7.589-9.272-19.329-9.272c-11.741 0-14.462 16.954-14.462 16.954s26.918 10.861 33.791-7.682z"/> <path d="m976.22 119.11c0-0.017 3e-3 -0.032 3e-3 -0.048 1.889-3.851 5.294-8.079 11.155-8.079 7.288 0 12.823 3.573 15.64 5.88 0.23 0.723 0.365 1.473 0.365 2.247 0 1.598-0.531 3.102-1.451 4.438-5.154 4.989-13.592 4.792-19.824 3.725-3.557-1.788-5.888-4.775-5.888-8.163z" fill="#664C21"/> <ellipse cx="986.8" cy="117.77" rx="6.526" ry="5.484"/> <ellipse cx="990.13" cy="115.57" rx="3.328" ry="2.841" fill="#fff" opacity=".3"/> <path d="m876.9 214.51c0.089-2.117 0.366-4.287 0.946-6.55 3.95-15.404 8.461-29.869 16.573-43.592 2.565-4.34 6.707-10.98 10.226-13.773 3.071-2.434 10.444-2.87 15.147-4.66 1.359-4.31-0.994-7.743-10.178-9.741-15.313-3.332-46.966 7.169-57.713-10.997l-0.428 2.135c-6.085-8.449-14.762 5.356-19.291 11.052-4.385-1.435-7.74-0.637-10.291 1.48 3.691 16.724 5.481 38.075 14.76 67.458 5.563 17.619 15.76 26.842 24.92 31.679 1.818-6.708-2.088-13.474-3.835-19.146 1.835 0.061 4.131 0.102 5.694 0.146-0.75-2.768 0.207-5.746-0.357-8.511 7.58 3.4 11.31 4.448 13.827 3.02z" fill="#AF800B" opacity=".18"/> <path d="m860.21 2.339c-14.781 3.695-34.848 15.242-53.548 25.138 3e-3 -1e-3 7e-3 -2e-3 0.01-4e-3 -2.086 1.909-6.005 3.993-12.263 6.266l-0.02 9e-3c0.012-7e-3 0.028-0.014 0.04-0.021-3.279 1.585-6.045 2.824-8.447 3.835-35.346 20.178 18.002 58.704 18.665 59.182 13.679 6.281 27.635 8.68 37.185 1.708 21.572-15.752 4.108-31.161 6.849-65.746 2.645-33.387 23.688-31.965 25.143-31.827-3.842-0.522-8.223 0.112-13.614 1.46z" fill="#333"/> <path d="m910.55 250.38c-2.725-1.942-5.688-3.297-7.874-5.604 2.66-4 1.456-9.443 1.322-13.068 2.372-3.109 2.312-6.69-1.429-8.42 0.255 0.012 0.501-0.027 0.738-0.118-2.938-3.301-6.948-4.88-11.139-6.002-0.061-4.438-2.078-12.091 3.274-12.54 0.738-5.125 0.75-10.143 4.009-14.553 2.625-3.559 9.122-2.825 7.771-9.738 2.318-2.201 2.19-2.643 3.551-5.77 7.783 2.088 4.412-4.587 7.455-8.021 3.633-4.099 7.201-4.088 12.697-4.868 0.822 5.771 1.129 9.935 3.326 15.296 0.531-0.973 1.997-1.779 2.634-3.09 4.105 2.004 10.544 4.31 10.872-2.835 8.506 2.386 20.604 21.31 22.412 28.928 2.739 11.53 2.195 22.164-10.193 26.793 1.338 9.383 3.832 17.579-4.898 20.817-11.97 4.442-27.576 4.351-40.027 3.03" opacity=".23"/> <path d="m899.91 262.61c-6.053-5.123-11.005-8.803-14.472-11.6-3.061-2.529-5.055-4.2-5.531-6.003-4.427-0.201-32.998-2.951-43.905-37.481-11.712-37.099-11.527-61.483-18.174-79.6-3.331-9.104-6.937-15.587-9.696-19.789-2.527-3.835-4.322-5.74-4.617-6.043-1.008-0.642-11.695-7.518-19.424-15.243-7.801-7.865-16.629-9.261-21.071-21.16-2.117-5.737-3.876-9.446-3.896-12.623-0.014-3.298 2.093-5.678 7.023-8.204 9.852-5.104 13.687-4.325 33.987-14.754 20.339-10.441 43.291-24.276 59.903-28.441 4.153-1.038 7.742-1.673 10.99-1.673 9.628-0.017 15.88 5.696 23.793 21.659 0.078-0.027 0.158-0.056 0.242-0.086 0.694-0.207 1.86-0.425 3.977-0.635 4.227-0.422 12.227-0.797 27.457-0.8 16.887 0 29.896-0.512 38.686-1.024 7.41-0.434 11.797-0.864 12.998-0.988 1.285-2.211 9.111-15.147 21.153-15.232 1.856 0 3.804 0.319 5.823 1.041 15.818 5.656 33.574 18.374 46.726 24.105 13.354 5.834 40.623 23.21 47.11 26.729 5.003 2.75 15.176 7.846 15.246 17.306 0 2.769-0.906 5.846-3.041 9.244-9.211 14.696-18.984 19.53-28.811 21.778-9.355 2.121-18.139 12.851-25.708 18.375-7.22 5.236-8.106 10.31-11.864 32.427-3.727 22.016-5.075 30.388-15.734 54.502-10.488 23.97-17.171 37.938-52.142 37.942-1.692 2.967-13.622 23.076-32.329 23.156-7.979 0-14.796 0.59-20.938 0.593h-0.088c-8.841 1e-3 -16.374-1.29-23.673-7.478zm-18.738-18.959v0.685c-0.106 0.894 1.664 2.881 5.128 5.605 3.429 2.77 8.411 6.476 14.497 11.626 7.031 5.938 14.092 7.143 22.875 7.15 6.055 0 12.891-0.593 20.938-0.593 9.52 0.01 17.354-5.641 22.822-11.367 5.465-5.715 8.498-11.412 8.506-11.427l0.193-0.362h0.412c34.895-0.101 40.526-13.007 51.283-37.125 10.627-24.063 11.896-32.127 15.64-54.179 3.708-21.954 4.689-27.71 12.41-33.305 7.373-5.309 16.14-16.237 26.204-18.601 9.596-2.232 18.867-6.741 27.959-21.174 2.027-3.233 2.827-6.05 2.827-8.515 0.073-8.307-9.431-13.37-14.526-16.103-6.582-3.575-33.843-20.934-47.006-26.676-13.365-5.844-31.086-18.525-46.641-24.072-1.875-0.672-3.659-0.959-5.36-0.959-5.993-9e-3 -11.036 3.646-14.588 7.381-3.546 3.725-5.544 7.44-5.546 7.449l-0.172 0.316-0.356 0.039c-0.022 3e-3 -18.349 2.059-52.175 2.059-13.305 0-21.074 0.291-25.581 0.641-4.486 0.324-5.813 0.814-5.853 0.887l-0.261-0.375-0.721 0.516c-0.042-0.041-0.116-0.123-0.168-0.253-8.119-16.43-13.852-21.537-22.886-21.554-3.066-3e-3 -6.558 0.607-10.658 1.633-16.253 4.05-39.237 17.854-59.609 28.327-20.403 10.48-24.415 9.775-33.983 14.755-4.848 2.545-6.269 4.388-6.285 6.987-0.02 2.641 1.661 6.383 3.812 12.145 4.146 11.259 12.5 12.478 20.757 20.67 7.949 7.955 19.239 15.09 19.261 15.102l0.067 0.042 0.053 0.053c0.059 0.059 7.936 7.961 14.673 26.377 6.755 18.509 6.524 42.723 18.194 79.656 8.687 27.472 28.639 34.238 38.095 35.971 3.147 0.57 5.078 0.567 5.083 0.567v0.685-0.685h0.686v1e-3zm14.057-221.02h-0.398 0.398z" fill="#333"/> <path d="m818.55 277.41c14.762-17.774 43.511-53.039 49.904-62.595 6.837-10.219 23.049-26.306 30.734-30.398 7.688-4.093 18.475-10.495 26.131-2.193 0 0 15.361-0.658 24.529 3.505 9.168 4.165 1.082 8.469 1.082 8.469s5.173-2.086 2.918 5.303c-2.254 7.389-4.682 15.348-10.409 20.684-5.729 5.336-9.805 9.125-6.206 10.16 3.598 1.037 6.738 0.314 6.29 3.41-0.446 3.095-1.495 12.033-11.659 17.444-10.164 5.412-10.057 3.642-24.894 11.541s-22.764 14.291-31.069 15.695c-2.076 0.353-5.889 3.753-10.62 9.253" fill="#F9F9F9"/> <path d="m864.76 287.24c4.809-5.53 8.489-8.98 11.024-9.48 8.028-1.334 15.984-7.688 30.861-15.626 14.898-7.931 14.836-6.18 24.895-11.541 9.872-5.272 10.846-13.842 11.301-16.934 0.027-0.177 0.037-0.328 0.037-0.458-0.053-0.876-0.283-0.979-1.385-1.324-1.061-0.267-2.687-0.372-4.453-0.877-1.061-0.26-1.877-1.022-1.854-2.013 0.049-1.303 0.998-2.506 2.376-4.05 1.394-1.522 3.29-3.286 5.407-5.257 5.551-5.158 7.972-12.988 10.221-20.381 0.391-1.28 0.539-2.238 0.539-2.926-0.098-1.72-0.615-1.661-1.371-1.768-0.594-3e-3 -1.171 0.222-1.174 0.225l-0.578-1.238c-5e-3 -9e-3 0.758-0.406 1.515-1.078 0.768-0.675 1.431-1.587 1.415-2.424 0.014-0.912-0.732-2.261-3.973-3.74-6.76-3.085-17.273-3.491-21.89-3.483-1.46 0-2.323 0.038-2.326 0.038l-0.315 0.013-0.217-0.232c-2.608-2.814-5.487-3.815-8.566-3.823-5.587-0.018-11.779 3.502-16.74 6.158-7.472 3.949-23.757 20.08-30.488 30.177-6.448 9.631-35.173 44.855-49.945 62.647v5e-3l-1.055-0.878c14.749-17.76 43.523-53.059 49.86-62.537 6.945-10.345 23.082-26.386 30.983-30.623 4.948-2.624 11.242-6.303 17.385-6.318 3.299-0.01 6.564 1.113 9.357 4.034 0.383-0.013 1.1-0.03 2.067-0.03 4.704 0.01 15.279 0.359 22.454 3.606 3.396 1.533 4.764 3.233 4.777 4.987-0.057 1.387-0.84 2.482-1.664 3.266 0.335 0.097 0.67 0.263 0.969 0.533 0.572 0.523 0.895 1.363 0.889 2.484 0 0.881-0.182 1.956-0.597 3.323-2.261 7.386-4.692 15.471-10.599 20.984-2.115 1.97-4 3.727-5.332 5.181-1.348 1.435-2.062 2.661-2.015 3.125 0.026 0.259 0.04 0.415 0.864 0.696 1.6 0.466 3.141 0.558 4.4 0.865 1.229 0.228 2.478 1.067 2.427 2.652 0 0.206-0.017 0.419-0.051 0.647-0.434 3.094-1.558 12.401-12.013 17.951-10.268 5.463-10.119 3.673-24.895 11.543-14.797 7.862-22.694 14.289-31.278 15.768-1.616 0.198-5.56 3.555-10.212 9.023l-1.037-0.892z" fill="#333"/> <path d="m924.34 181.26c-4e-3 1e-3 -18.925 16.659-16.186 15.203 2.739-1.459 18.702-14.276 18.705-14.278-0.973 0.011-1.539 0.035-1.539 0.035-0.32-0.349-0.649-0.663-0.98-0.96zm-7.839 55.271c5.449-0.957 19.729-6.706 19.731-6.706-0.997-0.959 0.193-2.742 2.505-5.134 0 0-27.686 12.798-22.236 11.84zm8.221-27.038c6.341-1.849 28.847-15.146 28.913-15.187-1.027-0.784-2.703-0.113-2.703-0.113s2.346-1.252 3.076-3.055c0 1e-3 -35.635 20.21-29.286 18.355z" opacity=".5"/> <path d="m958.96 186.83c-2.187-1.469-6.319-1.494-9.446-1.25 0.112 0.049 0.225 0.094 0.334 0.143 9.168 4.165 1.082 8.469 1.082 8.469s0.357-0.14 0.842-0.219c5.009-2.723 9.378-5.672 7.188-7.143zm-5.112 12.664c-0.546 1.79-1.103 3.609-1.713 5.42 4.859-4.153 9.506-9.09 6.913-9.879-1.429-0.438-3.136-0.188-4.765 0.323 0.231 0.84 0.177 2.132-0.435 4.136zm-23.325-27.324c-3.384 0.334-8.892 3.956-12.022 6.201 2.421 0.424 4.736 1.588 6.818 3.847 0 0 0.17-8e-3 0.469-0.017 4.245-4.282 8.095-10.364 4.735-10.031zm20.041 59.169c-1.655-0.505-4.754-0.184-7.742 0.344 0.573 0.388 0.854 0.996 0.7 2.065-0.199 1.377-0.522 3.913-1.71 6.777 6.276-3.324 11.473-8.357 8.752-9.186z" fill="#CAC3BE"/> <path d="m868.45 214.81c0.48-0.717 1.01-1.466 1.576-2.233h-1e-3c-0.752-4.396-9.496 0.07-13.971 11.471-4.476 11.399-9.393 18.946-9.393 18.946v-1e-3c9.822-12.22 18.597-23.41 21.789-28.183z" fill="#F9F9F9"/> <path d="m846.09 242.62c3e-3 -0.024 4.88-7.486 9.331-18.822 3.451-8.645 9.08-13.474 12.676-13.574 1.209-0.049 2.299 0.758 2.567 2.019l0.268 0.265-0.353 0.477c-0.561 0.76-1.085 1.501-1.558 2.207-3.229 4.826-11.994 16.003-21.822 28.231l-0.096 0.115-2.394 1.197 1.381-2.115zm10.604-18.323c-1.795 4.572-3.659 8.526-5.254 11.63 7.561-9.495 13.871-17.648 16.443-21.497 0.43-0.646 0.901-1.312 1.4-1.996-0.198-0.638-0.495-0.793-1.188-0.839-0.027-2e-3 -0.054-2e-3 -0.082-2e-3 -2.458 0-8.143 4.455-11.319 12.704z" fill="#333"/> <path d="m1046.4 289.93c-2.553-3.473-4.947-6.586-7.041-9.093-13.523-16.19-45.926-55.808-52.764-66.027s-23.047-26.306-30.734-30.398c-7.687-4.093-18.475-10.495-26.133-2.193 0 0-15.359-0.658-24.527 3.505-9.166 4.165-1.082 8.469-1.082 8.469s-5.171-2.086-2.918 5.303c2.255 7.389 4.682 15.348 10.412 20.684 5.727 5.336 9.805 9.125 6.206 10.16-3.6 1.037-6.739 0.314-6.292 3.41 0.446 3.095 1.495 12.033 11.658 17.444 10.163 5.412 10.058 3.642 24.896 11.541 14.837 7.899 22.764 14.291 31.067 15.695 2.375 0.401 7.02 4.794 12.714 11.747" fill="#F9F9F9"/> <path d="m978.99 279.11c-8.584-1.478-16.48-7.905-31.276-15.769-14.776-7.869-14.626-6.081-24.896-11.54-10.456-5.551-11.582-14.86-12.014-17.945-0.037-0.232-0.053-0.451-0.053-0.655-0.051-1.583 1.202-2.425 2.426-2.653 1.262-0.307 2.805-0.398 4.406-0.864 0.818-0.281 0.835-0.437 0.859-0.696 0.045-0.464-0.666-1.691-2.015-3.127-1.329-1.452-3.213-3.207-5.329-5.178-5.907-5.515-8.34-13.6-10.6-20.982-0.417-1.367-0.599-2.447-0.599-3.324-6e-3 -1.121 0.316-1.961 0.888-2.485 0.3-0.272 0.635-0.438 0.97-0.535-0.825-0.785-1.606-1.88-1.664-3.265 0.015-1.754 1.385-3.455 4.778-4.988 7.174-3.245 17.748-3.594 22.455-3.604 0.967 0 1.685 0.015 2.068 0.025 2.789-2.918 6.056-4.041 9.355-4.033 6.14 0.018 12.436 3.696 17.385 6.32 7.902 4.236 24.038 20.278 30.981 30.623 6.782 10.138 39.214 49.798 52.722 65.967 2.107 2.524 4.51 5.646 7.066 9.127l-1.102 0.811c-2.549-3.465-4.936-6.569-7.015-9.058-13.539-16.21-45.915-55.79-52.809-66.085-6.728-10.094-23.015-26.227-30.489-30.178-4.96-2.654-11.156-6.174-16.74-6.156-3.08 8e-3 -5.961 1.009-8.563 3.822l-0.216 0.234-0.318-0.014c-2e-3 0-0.866-0.038-2.326-0.038-4.615-7e-3 -15.131 0.4-21.89 3.483-3.239 1.479-3.987 2.826-3.973 3.74-0.019 0.837 0.646 1.749 1.418 2.424 0.753 0.672 1.509 1.079 1.512 1.079l-0.579 1.238c-3e-3 6e-3 -0.154-0.056-0.379-0.112-0.215-0.059-0.501-0.115-0.792-0.111-0.76 0.105-1.278 0.045-1.377 1.768 0 0.686 0.149 1.645 0.541 2.922 2.25 7.396 4.673 15.225 10.224 20.382 2.117 1.973 4.016 3.738 5.406 5.257 1.375 1.545 2.328 2.748 2.372 4.051 0.025 0.99-0.79 1.75-1.851 2.013-1.766 0.505-3.392 0.612-4.453 0.877-1.1 0.343-1.333 0.45-1.387 1.324 0 0.134 0.013 0.28 0.038 0.452 0.46 3.101 1.431 11.664 11.304 16.938 10.058 5.363 9.996 3.612 24.895 11.543 14.878 7.938 22.832 14.294 30.858 15.626 2.876 0.573 7.352 5.001 13.132 11.987l-1.062 0.869c-5.602-6.924-10.419-11.28-12.292-11.507z" fill="#333"/> <path d="m929.68 182.22s-0.564-0.024-1.535-0.035c0 2e-3 15.966 12.819 18.704 14.278 2.737 1.456-16.184-15.202-16.185-15.203-0.334 0.297-0.66 0.611-0.984 0.96zm-13.412 42.471c2.309 2.392 3.501 4.175 2.504 5.134 0 0 14.279 5.749 19.73 6.706 5.451 0.958-22.234-11.84-22.234-11.84zm-15.274-33.552c0.73 1.803 3.076 3.055 3.076 3.055s-1.676-0.671-2.704 0.113c0.069 0.04 22.575 13.338 28.913 15.187 6.352 1.854-29.285-18.355-29.285-18.355z" opacity=".5"/> <path d="m903.23 193.98c0.481 0.079 0.84 0.219 0.84 0.219s-8.084-4.304 1.082-8.469c0.108-0.049 0.224-0.094 0.333-0.143-3.127-0.244-7.258-0.219-9.443 1.25-2.193 1.471 2.178 4.42 7.188 7.143zm-2.514 1.385c-1.629-0.511-3.333-0.761-4.765-0.323-2.592 0.789 2.058 5.726 6.914 9.879-0.609-1.811-1.168-3.63-1.713-5.42-0.61-2.004-0.667-3.296-0.436-4.136zm28.497-13.157c0.299 9e-3 0.467 0.017 0.467 0.017 2.084-2.259 4.401-3.423 6.821-3.847-3.132-2.245-8.64-5.867-12.021-6.201-3.363-0.333 0.488 5.749 4.733 10.031zm-16.025 58.324c-1.188-2.864-1.512-5.4-1.709-6.777-0.155-1.069 0.125-1.678 0.697-2.065-2.984-0.527-6.085-0.849-7.741-0.344-2.718 0.829 2.479 5.862 8.753 9.186z" fill="#CAC3BE"/> <path d="m986.55 214.81c-0.479-0.717-1.01-1.466-1.575-2.233 0.753-4.396 9.497 0.07 13.973 11.471 4.474 11.399 9.393 18.946 9.393 18.946l-3e-3 -1e-3c-9.821-12.22-18.593-23.41-21.788-28.183z" fill="#F9F9F9"/> <path d="m1008 243.61-0.137-0.07-0.091-0.115c-9.829-12.228-18.595-23.402-21.824-28.227l0.569-0.383 0.57-0.379c2.572 3.848 8.885 12.004 16.445 21.502-1.596-3.104-3.461-7.06-5.258-11.635-3.213-8.342-8.988-12.805-11.402-12.703-0.691 0.047-0.989 0.198-1.188 0.838 0.498 0.685 0.969 1.351 1.402 1.998l-0.57 0.379-0.569 0.383c-0.471-0.707-0.995-1.449-1.558-2.211l-0.352-0.475 0.267-0.265c0.267-1.26 1.356-2.067 2.567-2.017 3.594 0.099 9.22 4.928 12.678 13.571 4.451 11.337 9.318 18.807 9.329 18.823l1.388 2.121-2.266-1.135z" fill="#333"/> <path d="m505.33 244.34s-32.145 0-43.833-37.016c-11.689-37.016-11.483-61.315-18.183-79.627s-14.516-26.127-14.516-26.127-11.351-7.167-19.381-15.198c-8.029-8.03-16.619-9.337-20.914-20.915s-6.91-14.938 2.801-19.98c9.71-5.042 13.632-4.298 33.986-14.754 20.354-10.458 43.322-24.276 59.756-28.384 16.433-4.109 23.529-1.681 34.36 20.354 0 0-1.868-1.867 31.931-1.867s52.101-2.055 52.101-2.055 10.643-19.793 26.329-14.191 33.426 18.301 46.684 24.089c13.259 5.789 40.522 23.155 47.059 26.704 6.535 3.548 21.102 11.017 11.951 25.583s-18.673 19.235-28.384 21.477-18.485 13.071-25.956 18.487-8.404 10.831-12.139 32.866c-3.735 22.036-5.043 30.253-15.687 54.342-10.644 24.087-16.807 37.533-51.912 37.533 0 0-12.323 23.156-31.932 23.156s-32.119 3.548-44.257-6.723-19.864-14.78-19.864-17.754z" fill="#333"/> <path d="m505.8 142.11c-12.016-10.775-21.149 3.536-23.873-17.446-1.799-13.864 6.287-23.997 11.576-35.898 5.127-11.537 8.451-20.669 11.42-32.828 3.292-13.482 9.867-24.367 12.886-36.398-9.963-19.093-17.15-21.101-32.759-17.198-16.434 4.107-39.401 17.926-59.756 28.384-20.354 10.456-24.276 9.712-33.986 14.754-9.711 5.042-7.096 8.402-2.801 19.98 4.295 11.577 12.885 12.885 20.914 20.915 8.03 8.03 19.381 15.198 19.381 15.198s7.816 7.815 14.516 26.127 6.493 42.612 18.183 79.627c4.092 12.956 10.688 21.365 17.536 26.84 1.196-6.915 1.947-14.291 5.21-20.704 3.195-6.278 6.517-6.747 7.783-13.502 1.532-8.175-4.989-14.603 1.817-21.72 12.837-0.271 20.76-28.231 11.953-36.131z" opacity=".5"/> <path d="m735.46 80.955c9.15-14.565-5.416-22.034-11.951-25.583-6.536-3.548-33.8-20.915-47.059-26.704-13.258-5.788-30.998-18.487-46.684-24.089-12.138-4.334-21.251 6.53-24.755 11.67 6.138 3.892 13.815 5.544 19.662 9.392-8.637 12.356-23.423 28.285-23.077 44.085 0.311 14.17 24.494 24.161 33.616 39.484-12.643-2.747-43.447 0.254-48.818 14.884-3.485 9.497 3.094 19.298 8.15 26.75 9.531 14.047 18.052 29 17.003 47.223-1.007 17.501-8.338 40.362 2.285 46.89 24.347-3.039 30.223-15.923 39.462-36.832 10.644-24.089 11.951-32.306 15.687-54.342 3.734-22.035 4.668-27.45 12.139-32.866s16.245-16.246 25.956-18.487 19.233-6.909 28.384-21.475z" opacity=".5"/> <path d="m601.04 244.48c-0.318-1.877 2.863-3.693 3.108-5.408 0.148-1.036 2.029-3.815 3.053-7.791 0.751-2.924 0.092-11.002-0.038-14.297-0.595-15.267-1.711-30.502-10.293-43.081-9.637-14.128-23.322-29.99-26.694-47.493-4.262-22.126 13.035-41.828 9.822-64.626-1.479-0.287-3.193 0.97-4.512 1.59-0.742-0.073-1.15-3.106-1.869-3.359-1.382 1.438-2.683 2.685-4.385 3.842-0.301-2.965-2.277-7.191-1.829-10.735 0.085 0.07-5.346-3.535-6.461-4.164-0.426 3.269-2.839 6.385-3.458 8.73-1.733-5.466-3.781-11.017-6.892-15.858-4.451 17.239 0.318 38.161 1.956 55.577 1.38 14.688 5.565 36.788-5.063 46.053-3.729 3.251-14.183 3.19-17.996 6.188-3.52 2.768-7.659 9.35-10.226 13.651-8.112 13.604-12.623 27.94-16.573 43.21-2.903 11.218 1.578 20.204 1.076 31.295 0.904 1.707 1.105 3.194 1.027 4.746 0.337 0.015 0.536 0.017 0.536 0.017 0 2.95 7.728 7.418 19.865 17.598 12.138 10.181 24.648 6.666 44.257 6.666 17.714-2e-3 29.48-18.73 31.589-22.351z" fill="#fff"/> <path d="m522.04 111.1c4.27 6.551 11.206 9.454 18.805 8.119 1.703-4.886 3.268-30.205 1.682-35.653-4.495-15.438-18.947-5.615-28.218-17.352-6.782 10.91-9.335 15.382-19.657 22.541-6.913 4.795-21.622 12.015-16.124 22.714 16.82-8.743 27.863-12.304 43.513 0.059" fill="#AF800B" opacity=".18"/> <path d="m650.27 139.97c-3.843-4.896-6.98-10.176-9.474-15.668-12.309 8.787-17.81 27.337-37.191 23.177 2.261 8.784 0.426 19.805 5.605 26.855l-0.429 0.428c2.098 2.799 9.596 5.658 10.348 7.124 6.287 12.272-12.28 26.975-4.212 40.349 10.37 17.191 18.22-12.101 30.953-15.041 2.97-4.176 10.338-12.93 16.513-22.399 3.003-9.626 4.37-17.856 6.601-31.014 6e-3 -0.036 0.012-0.071 0.017-0.107-4.889-4.707-15.14-9.13-18.731-13.704z" fill="#AF800B" opacity=".18"/> <path d="m579.73 117.51c-25.673-40.989 44.606-47.162 49.084-11.581-23.859-11.019-31.215 16.01-50.793 11.581" fill="#AF800B" opacity=".18"/> <path d="m520.58 22.107c-1.822 9.569-6.943 19.373-11.386 26.187 9.063 1.536 26.153-11.278 34.562-15.995 6.44-3.613 13.387-2.779 12.988-11.492-1.758 0.012-3.553 0.019-5.404 0.019-21.191 0-28.36 0.734-30.76 1.281z" fill="#AF800B" opacity=".18"/> <path d="m604.22 17.456c-0.513 0.815-0.782 1.315-0.782 1.315s-10.713 1.201-30.863 1.766c1.512 1.149 3.306 2.367 5.496 4.129 2.443 1.965 7.521-0.582 10.133 1.533 2.197 1.778 1.716 5.875 3.398 7.32 5.184 4.452 4.953 10.805 15.141 12.596 2.662-8.574 1.623-19.774-2.523-28.659z" fill="#AF800B" opacity=".18"/> <path d="m541.56 209.49c0-1e-3 -1e-3 -1e-3 0 0 1.893-0.152 4.945-0.713 4.79-2.789-0.226-2.999-3.18-7.949 2.176-8.349 5.356-0.403 9.612 4.665 6.045 8.811-2.601 3.019-8.791 3.477-12.146 3.517 0.104 0.297 0.177 0.634 0.207 1.04 0.418 5.568 5.111 7.803 11.418 8.624 6.311 0.821 6.196 7.938 6.196 7.938 0.877-11.27 16.538-6.411 18.614-13.242 0.564-1.864 1.496-3.127 2.555-4.259-4.445 0.396-10.207 0.081-11.685-3.863-2.489-6.643 1.869-9.248 5.915-8.411 3.637 0.752 0.299 9.485 8.147 9.89 2.198-2.297 4.251-5.339 4.398-12.583 0.272-13.593-19.805-17.045-27.518-16.467-7.714 0.577-28.933-0.85-27.664 16.073 1.009 13.477 6.247 12.298 8.552 14.07z"/> <path d="m588.86 242.98c-2.014 1.332-3.943 0.956-5.308-0.241-0.585 0.175-1.203 0.369-1.766 0.597 0.079-0.035-0.387-0.295-0.586-0.253-0.416 0.288-0.987 0.724-1.35 0.994-2.127-0.72-3.759-1.669-5.344-2.134-0.01-2e-3 -0.019-5e-3 -0.025-8e-3 -1.77-0.512-3.48-0.418-5.766 1.31-4.299-2.493-8.781-4.308-10.481-8.544-0.292 0.754-0.62 1.498-1.024 2.275-0.463-0.093-0.532-0.277-1.07-0.36-0.778 1.318-1.93 2.7-3.019 3.043-0.036 0.015 0.102 0.508 0.022 0.597 0.086 0.019-0.955-0.65-0.857-0.579-0.381 0.849-1.442 1.335-2.029 1.942-1.694-1.188-3.766-1.575-4.842 0.174-0.259 0.092-0.521-0.566-0.886-0.378-0.61 0.587-1.422 1.002-2.359 1.292-0.321 0.098-0.657 0.183-1.001 0.25-0.021 6e-3 -0.048 8e-3 -0.069 0.012-0.329 0.063-0.666 0.121-1.013 0.164-0.022 3e-3 -0.047 6e-3 -0.07 7e-3 -0.351 0.044-0.711 0.077-1.08 0.102-0.016 3e-3 -0.029 3e-3 -0.045 3e-3 -0.373 0.025-0.756 0.04-1.142 0.049-3.396 0.07-7.149-0.412-9.709-0.405-3.544 0.01-8.938 1.33-11.467-0.775 7.842 6.711 17.645 13.185 30.859 13.12 12.031-0.059 26.64-1.861 37.697-5.79 4.025-1.432 8.965-4.099 9.764-7.535-1.827 1.515-4.232 2.69-6.034 1.071z"/> <path d="m480.82 117.38s7.896-10.43 20.113-10.43 15.048 19.07 15.048 19.07-28.009 12.218-35.161-8.64z"/> <path d="m512.32 118.05c0-0.018-2e-3 -0.034-3e-3 -0.053-1.965-4.223-5.508-8.859-11.607-8.859-7.585 0-13.343 3.918-16.274 6.448-0.239 0.793-0.378 1.615-0.378 2.464 0 1.752 0.552 3.402 1.509 4.867 5.363 5.472 14.143 5.254 20.628 4.084 3.698-1.96 6.125-5.235 6.125-8.951z" fill="#664C21"/> <ellipse cx="501.23" cy="116.92" rx="6.791" ry="6.014"/> <ellipse cx="497.76" cy="114.51" rx="3.463" ry="3.115" fill="#fff" opacity=".3"/> <path d="m631.33 118.73s-7.589-9.272-19.329-9.272c-11.741 0-14.462 16.954-14.462 16.954s26.918 10.861 33.791-7.682z"/> <path d="m601.07 119.11c0-0.017 3e-3 -0.032 3e-3 -0.048 1.889-3.851 5.294-8.079 11.155-8.079 7.289 0 12.824 3.573 15.64 5.88 0.231 0.723 0.365 1.473 0.365 2.247 0 1.598-0.531 3.102-1.451 4.438-5.154 4.989-13.592 4.792-19.823 3.725-3.557-1.788-5.889-4.775-5.889-8.163z" fill="#664C21"/> <ellipse cx="611.65" cy="117.77" rx="6.526" ry="5.484"/> <ellipse cx="614.98" cy="115.57" rx="3.328" ry="2.841" fill="#fff" opacity=".3"/> <path d="m501.75 214.51c0.089-2.117 0.365-4.287 0.946-6.55 3.95-15.404 8.461-29.869 16.573-43.592 2.566-4.34 6.706-10.98 10.226-13.773 3.071-2.434 10.444-2.87 15.147-4.66 1.359-4.31-0.994-7.743-10.178-9.741-15.312-3.332-46.966 7.169-57.712-10.997l-0.428 2.135c-6.085-8.449-14.763 5.356-19.292 11.052-4.385-1.435-7.74-0.637-10.291 1.48 3.691 16.724 5.481 38.075 14.761 67.458 5.563 17.619 15.759 26.842 24.919 31.679 1.818-6.708-2.088-13.474-3.835-19.146 1.836 0.061 4.132 0.102 5.694 0.146-0.75-2.768 0.208-5.746-0.356-8.511 7.579 3.4 11.309 4.448 13.826 3.02z" fill="#AF800B" opacity=".18"/> <path d="m535.39 250.38c-2.725-1.942-5.688-3.297-7.874-5.604 2.66-4 1.456-9.443 1.322-13.068 2.372-3.109 2.312-6.69-1.429-8.42 0.255 0.012 0.501-0.027 0.739-0.118-2.939-3.301-6.948-4.88-11.14-6.002-0.061-4.438-2.077-12.091 3.274-12.54 0.738-5.125 0.75-10.143 4.008-14.553 2.626-3.559 9.123-2.825 7.772-9.738 2.317-2.201 2.189-2.643 3.55-5.77 7.783 2.088 4.413-4.587 7.456-8.021 3.631-4.099 7.2-4.088 12.696-4.868 0.822 5.771 1.129 9.935 3.326 15.296 0.531-0.973 1.998-1.779 2.635-3.09 4.104 2.004 10.544 4.31 10.872-2.835 8.505 2.386 20.603 21.31 22.411 28.928 2.739 11.53 2.195 22.164-10.192 26.793 1.337 9.383 3.832 17.579-4.898 20.817-11.971 4.442-27.578 4.351-40.028 3.03" opacity=".23"/> <path d="m524.76 262.61c-6.053-5.123-11.004-8.803-14.473-11.6-3.06-2.529-5.056-4.2-5.53-6.003-4.428-0.201-32.998-2.951-43.905-37.481-11.711-37.099-11.529-61.483-18.173-79.6-3.331-9.104-6.937-15.587-9.7-19.789-2.523-3.835-4.317-5.74-4.614-6.043-1.008-0.642-11.693-7.518-19.424-15.243-7.802-7.865-16.629-9.261-21.073-21.16-2.114-5.737-3.874-9.446-3.894-12.623-0.014-3.298 2.092-5.678 7.023-8.204 9.852-5.104 13.686-4.325 33.987-14.754 20.338-10.441 43.291-24.276 59.902-28.441 4.155-1.038 7.744-1.673 10.991-1.673 9.625-0.017 15.881 5.696 23.79 21.66 0.079-0.028 0.16-0.056 0.245-0.086 0.694-0.207 1.86-0.425 3.975-0.635 4.227-0.422 12.227-0.797 27.46-0.8 16.884 0 29.896-0.512 38.684-1.024 7.403-0.433 11.791-0.863 12.998-0.988 1.284-2.209 9.113-15.147 21.155-15.232 1.857 0 3.804 0.319 5.82 1.041 15.82 5.656 33.577 18.374 46.728 24.105 13.354 5.834 40.623 23.21 47.112 26.729 4.999 2.75 15.172 7.846 15.244 17.306 0 2.769-0.906 5.846-3.041 9.244-9.21 14.696-18.983 19.53-28.81 21.778-9.355 2.121-18.14 12.851-25.708 18.375-7.223 5.236-8.106 10.31-11.865 32.427-3.726 22.016-5.074 30.388-15.733 54.502-10.493 23.973-17.169 37.939-52.145 37.942-1.691 2.967-13.62 23.076-32.325 23.156-7.98 0-14.797 0.59-20.939 0.593h-0.087c-8.843 0-16.376-1.291-23.675-7.479zm-18.738-18.959v0.685c-0.105 0.894 1.665 2.881 5.128 5.605 3.429 2.77 8.411 6.476 14.494 11.626 7.035 5.938 14.095 7.143 22.878 7.15 6.053 0 12.893-0.593 20.939-0.593 9.519 0.01 17.354-5.641 22.821-11.367 5.466-5.715 8.498-11.412 8.503-11.427l0.193-0.362h0.414c34.896-0.101 40.526-13.007 51.284-37.125 10.627-24.063 11.896-32.127 15.637-54.179 3.711-21.954 4.693-27.71 12.413-33.305 7.373-5.309 16.139-16.237 26.203-18.601 9.597-2.232 18.869-6.741 27.957-21.174 2.03-3.233 2.831-6.05 2.831-8.515 0.072-8.307-9.432-13.37-14.528-16.103-6.582-3.575-33.843-20.934-47.005-26.676-13.365-5.844-31.088-18.525-46.64-24.072-1.876-0.672-3.661-0.959-5.361-0.959-5.994-9e-3 -11.035 3.646-14.587 7.381-3.547 3.725-5.544 7.44-5.55 7.449l-0.168 0.316-0.358 0.039c-0.021 3e-3 -18.349 2.059-52.174 2.059-13.306 0-21.073 0.291-25.582 0.641-4.487 0.324-5.815 0.814-5.853 0.887l-0.262-0.375-0.72 0.516c-0.04-0.041-0.115-0.123-0.167-0.253-8.123-16.43-13.854-21.537-22.887-21.554-3.068-3e-3 -6.557 0.607-10.657 1.633-16.254 4.05-39.237 17.854-59.608 28.327-20.405 10.48-24.416 9.775-33.984 14.755-4.848 2.545-6.271 4.388-6.286 6.987-0.019 2.641 1.662 6.383 3.813 12.145 4.146 11.259 12.5 12.478 20.757 20.67 7.949 7.955 19.238 15.09 19.261 15.102l0.067 0.042 0.051 0.053c0.062 0.059 7.938 7.961 14.676 26.377 6.752 18.509 6.522 42.723 18.192 79.656 8.688 27.472 28.639 34.238 38.097 35.971 3.146 0.57 5.076 0.567 5.082 0.567v0.685-0.685h0.686v1e-3zm14.058-221.02h-0.4 0.4z" fill="#333"/> <path d="m430.75 277.86c-1.638-12.967-3.775-31.821-3.775-41.987 0-16.487 0-28.103 12.74-40.845 12.739-12.739 20.983-33.724 23.606-46.463 2.623-12.741 2.997-34.475-10.118-38.596 0 0 1.688-13.302-4.495-19.485 0 0-7.869-8.244-11.991-4.122s-22.483 22.483-22.483 41.594-1.732 26.304-10.492 42.717c-19.646 36.812-22.482 52.97-22.482 98.685" fill="#F9F9F9"/> <path d="m426.29 235.88c-0.014-16.446 0.015-28.432 12.943-41.33 12.59-12.571 20.834-33.499 23.42-46.116 0.837-4.068 1.443-9.079 1.443-14.117 9e-3 -10.62-2.729-21.119-11.095-23.688l-0.549-0.171 0.073-0.568c-4e-3 -3e-3 0.204-1.612 0.204-3.991 0.017-4.364-0.745-11.203-4.516-14.933-5e-3 0-1.223-1.282-2.947-2.564-1.718-1.29-3.949-2.519-5.718-2.502-0.891 9e-3 -1.649 0.263-2.346 0.955-4.121 4.081-22.328 22.429-22.283 41.11 0.017 19.131-1.783 26.608-10.572 43.039-19.607 36.776-22.387 52.648-22.401 98.362h-1.371c-0.018-45.717 2.878-62.161 22.563-99.007 8.73-16.396 10.393-23.307 10.412-42.394 0.045-19.54 18.558-37.916 22.684-42.079 0.949-0.959 2.139-1.363 3.314-1.354 4.646 0.084 9.581 5.473 9.646 5.478 4.234 4.277 4.89 11.396 4.904 15.891 0 1.627-0.094 2.916-0.157 3.607 8.962 3.256 11.516 14.271 11.523 24.811 0 5.147-0.615 10.236-1.473 14.393-2.655 12.859-10.904 33.902-23.792 46.812-12.553 12.583-12.522 23.829-12.539 40.359-3e-3 10.086 2.133 28.948 3.771 41.899l-1.36 0.174c-1.636-12.984-3.778-31.83-3.781-42.076z" fill="#333"/> <path d="m464.78 134.88c5.979-18.99-3.734-26.983-3.734-26.983 0-15.059-18.716-24.015-18.716-24.015l-0.544 0.543s0.024 0.453 0.072 1.265c3.483 1.286 6.853 4.799 6.853 4.799 6.183 6.183 4.495 19.485 4.495 19.485 9.038 2.84 11.669 14.045 11.574 24.906zm-1.456 13.69c-0.879 4.27-2.404 9.476-4.505 14.976 7e-3 -8e-3 0.014-0.013 0.021-0.022 11.922-15.965 6.006-28.488 5.94-28.626-0.045 4.894-0.64 9.715-1.456 13.672z" fill="#333"/> <path d="m414.24 127.96c0-19.11 18.361-37.472 22.483-41.594 1.024-1.025 2.28-1.283 3.59-1.096v-1e-3c-3.572-3.573-3.406-4.462-15.527 11.637-11.99 15.926-10.599 33.791-10.567 34.172 0.014-1.007 0.021-2.037 0.021-3.118z" fill="#F9F9F9"/> <path d="m413.46 129c3e-3 -5.29 0.992-19.506 10.77-32.5 3.965-5.269 6.616-8.721 8.542-10.889 1.934-2.141 3.118-3.133 4.502-3.177 1.483 0.058 2.293 1.176 3.517 2.354l0.199 0.202v1.08l-0.785-0.116c-0.227-0.036-0.447-0.05-0.662-0.05-0.888 6e-3 -1.645 0.26-2.344 0.95-4.118 4.083-22.326 22.43-22.282 41.111 0 1.085-9e-3 2.118-0.021 3.126l-1.365 0.071c-0.015-0.137-0.071-0.867-0.071-2.162zm20.336-42.477c-1.864 2.096-4.514 5.541-8.472 10.8-2.717 3.605-4.738 7.316-6.238 10.897 5.815-11.03 14.479-19.646 17.144-22.333 0.712-0.719 1.558-1.125 2.432-1.28-0.607-0.556-1.049-0.84-1.388-0.803-0.016-1e-3 -0.031-2e-3 -0.048-2e-3 -0.539 1e-3 -1.627 0.663-3.43 2.721z" fill="#333"/> <path d="m453.41 105.44s-13.618 2.685-17.054 21.497c0 0-0.182 3.257 1.355-1.357 1.538-4.613 4.921-15.112 16.797-15.112s-1.098-5.028-1.098-5.028z" opacity=".5"/> <path d="m440.34 92.204s-4.885 0.221-4.885-2.171c0-2.391 1.086-9.587 3.98-12.481 2.895-2.895 9.407-4.522 9.407-1.809s0.543 3.979-2.985 5.697c-3.527 1.719-0.633 7.507-0.633 7.507s-0.723 3.257-4.884 3.257z" fill="#CAC3BE"/> <path d="m450.11 117.17s-5.337-1.447-5.337-5.337c0-3.889 12.392-11.307 17.276-9.858 4.886 1.447-5.065 11.034-11.939 15.195z" fill="#CAC3BE"/> <path d="m681.68 280.22c1.663-12.933 4.074-33.537 4.074-44.337 0-16.487 0-28.103-12.74-40.845-12.739-12.739-20.984-33.724-23.607-46.463-2.623-12.741-2.997-34.475 10.118-38.596 0 0-1.688-13.302 4.496-19.485 0 0 7.869-8.244 11.991-4.122s22.482 22.483 22.482 41.594 1.874 26.229 10.492 42.717c8.619 16.487 16.113 19.109 22.483 64.826 2.376 17.052 3.865 30.557 4.799 40.791" fill="#F9F9F9"/> <path d="m681 280.13c1.663-12.919 4.073-33.535 4.071-44.252-0.018-16.529 0.011-27.775-12.54-40.359-12.89-12.908-21.138-33.953-23.795-46.811-0.856-4.158-1.473-9.245-1.473-14.394 9e-3 -10.54 2.562-21.554 11.524-24.811-0.064-0.691-0.157-1.978-0.157-3.603 0.015-4.497 0.666-11.619 4.896-15.883 0.075-0.017 5.006-5.406 9.656-5.49 1.173-8e-3 2.363 0.397 3.314 1.354 4.124 4.163 22.639 22.537 22.684 42.079 0.017 19.082 1.819 25.925 10.414 42.398 8.536 16.324 16.207 19.301 22.554 65.051 2.377 17.06 3.867 30.578 4.805 40.821l-1.366 0.126c-0.932-10.225-2.422-23.719-4.796-40.76-6.395-45.682-13.713-47.951-22.411-64.604-8.646-16.501-10.588-23.896-10.571-43.033 0.045-18.68-18.161-37.028-22.28-41.11-0.702-0.692-1.458-0.946-2.346-0.955-1.772-0.017-4.001 1.212-5.72 2.502-1.725 1.283-2.945 2.56-2.959 2.573-3.763 3.721-4.521 10.563-4.505 14.928 0 2.377 0.204 3.983 0.204 3.987l0.073 0.567-0.546 0.172c-8.372 2.57-11.106 13.068-11.099 23.688 0 5.037 0.608 10.049 1.445 14.119 2.589 12.617 10.832 33.546 23.422 46.116 12.926 12.897 12.957 24.883 12.939 41.328-2e-3 10.881-2.416 31.477-4.078 44.425l-1.359-0.169z" fill="#333"/> <path d="m659.52 109.97s-1.688-13.302 4.496-19.485c0 0 3.368-3.514 6.852-4.799 0.048-0.812 0.072-1.265 0.072-1.265l-0.543-0.543s-18.717 8.956-18.717 24.015c0 0-9.712 7.994-3.733 26.983-0.094-10.861 2.535-22.066 11.573-24.906zm-11.573 24.923c-0.065 0.138-5.981 12.661 5.94 28.626 7e-3 0.01 0.013 0.015 0.02 0.022-2.1-5.5-3.625-10.706-4.505-14.976-0.814-3.956-1.41-8.777-1.455-13.672z" fill="#333"/> <path d="m698.49 127.96c0-19.11-18.36-37.472-22.482-41.594-1.025-1.025-2.281-1.283-3.591-1.096v-1e-3c3.573-3.573 3.407-4.462 15.528 11.637 11.99 15.926 10.598 33.791 10.566 34.172-0.012-1.007-0.021-2.037-0.021-3.118z" fill="#F9F9F9"/> <path d="m697.83 131.09c-0.014-1.011-0.022-2.044-0.022-3.129 0.045-18.679-18.164-37.028-22.282-41.107-0.699-0.693-1.456-0.948-2.343-0.957-0.218 0-0.438 0.02-0.663 0.053l-0.784 0.115v-1.079l0.199-0.199c1.221-1.18 2.032-2.298 3.516-2.356 1.382 0.044 2.566 1.039 4.5 3.18 1.928 2.165 4.577 5.618 8.544 10.886 9.778 12.994 10.767 27.21 10.767 32.5 3e-3 1.282-0.058 2.061-0.063 2.127l-1.369-0.034zm-21.336-45.206c2.663 2.687 11.324 11.298 17.141 22.322-1.501-3.578-3.521-7.285-6.234-10.887-3.961-5.259-6.607-8.703-8.475-10.8-1.859-2.122-2.958-2.762-3.476-2.718-0.34-0.037-0.781 0.248-1.388 0.803 0.874 0.155 1.721 0.561 2.432 1.28z" fill="#333"/> <path d="m659.31 105.44s13.618 2.685 17.055 21.497c0 0 0.182 3.257-1.356-1.357-1.537-4.613-4.92-15.112-16.796-15.112s1.097-5.028 1.097-5.028z" opacity=".5"/> <path d="m672.39 92.204s4.886 0.221 4.886-2.171c0-2.391-1.087-9.587-3.98-12.481-2.895-2.895-9.407-4.522-9.407-1.809s-0.544 3.979 2.984 5.697c3.528 1.719 0.634 7.507 0.634 7.507s0.722 3.257 4.883 3.257z" fill="#CAC3BE"/> <path d="m662.62 117.17s5.337-1.447 5.337-5.337c0-3.889-12.392-11.307-17.275-9.858-4.885 1.447 5.064 11.034 11.938 15.195z" fill="#CAC3BE"/> <path d="m735.46 80.955c9.15-14.565-5.416-22.034-11.951-25.583-6.536-3.548-33.8-20.915-47.059-26.704-13.258-5.788-30.998-18.487-46.684-24.089-15.687-5.602-26.329 14.191-26.329 14.191s20.743-15.418 31.547-4.615c10.804 10.805-3.15 39.616-5.401 53.571s5.853 43.217 25.21 43.217c18.451 0 21.902 2.109 48.245-7.082 1.328-0.617 2.672-1.116 4.038-1.431 1.842-0.664 3.567-1.147 5.191-1.483 7.914-2.749 15.679-8.032 23.193-19.992z" fill="#333"/> <path d="m603.44 18.771s20.743-15.418 31.547-4.615c10.804 10.805-3.15 39.616-5.401 53.571-1.354 8.401 1.049 22.344 7.396 32.117-6.376-20.518 3.299-44.884 7.065-69.538 1.345-8.796 0.81-15.053-0.428-19.478-4.683-2.443-9.352-4.643-13.85-6.25-15.686-5.6-26.329 14.193-26.329 14.193z" fill="#515151"/> <path d="m735.46 80.955c6.462-10.286 1.096-17.028-4.916-21.355-9.62 3.678-6.95 15.309-12.878 28.577-7.147 15.997-35.73 21.795-36.078 21.865 5.344-1 11.884-2.842 21.45-6.18 1.328-0.617 2.672-1.116 4.038-1.431 1.842-0.664 3.567-1.147 5.191-1.483 7.914-2.75 15.679-8.033 23.193-19.993z" fill="#515151"/> <path d="m461.67 108.69c16.656-5.853 29.261-20.709 22.959-43.667-5.788-21.086-12.688-55.819 14.118-64.141-3.863-0.541-8.27 0.096-13.698 1.453-16.434 4.107-39.401 17.926-59.756 28.384-20.354 10.456-24.276 9.712-33.986 14.754-9.711 5.042-7.096 8.402-2.801 19.98 4.295 11.577 12.885 12.885 20.914 20.915 8.03 8.03 19.381 15.198 19.381 15.198s16.213 12.977 32.869 7.124z" fill="#515151"/> <path d="m485.05 2.339c-14.783 3.695-34.849 15.242-53.549 25.138 4e-3 -1e-3 7e-3 -2e-3 0.01-4e-3 -2.086 1.909-6.005 3.993-12.262 6.266l-0.021 9e-3c0.013-7e-3 0.027-0.014 0.04-0.021-3.279 1.585-6.045 2.824-8.446 3.835-35.347 20.178 18.001 58.704 18.665 59.182 13.678 6.281 27.634 8.68 37.184 1.708 21.572-15.752 4.109-31.161 6.849-65.746 2.645-33.387 23.688-31.965 25.144-31.827-3.844-0.522-8.225 0.112-13.614 1.46z" fill="#333"/> </svg>