<?xml version='1.0' encoding='utf-8'?>
<svg xmlns="http://www.w3.org/2000/svg" width="254.56mm" height="59.716mm" version="1.1" viewBox="0 0 254.56 59.716"> <defs> <filter id="q" x="-.079443" y="-.21164" width="1.1589" height="1.4233" color-interpolation-filters="sRGB"> <feGaussianBlur stdDeviation="2.3787003"/> </filter> <filter id="a" x="-.21825" y="-.4209" width="1.4365" height="2.0001" color-interpolation-filters="sRGB"> <feFlood flood-color="rgb(206,129,76)" in="SourceGraphic" result="flood"/> <feGaussianBlur in="SourceGraphic" result="blur" stdDeviation="0.557 1.108"/> <feOffset dx="0.000000" dy="1.000000" in="blur" result="offset"/> <feComposite in="flood" in2="offset" operator="out" result="comp1"/> <feComposite in="comp1" in2="SourceGraphic" operator="atop" result="comp2"/> </filter> <filter id="s" x="-.10978" y="-.098128" width="1.2196" height="1.1963" color-interpolation-filters="sRGB"> <feGaussianBlur stdDeviation="1.4654298"/> </filter> <filter id="b" x="-.25584" y="-.85441" width="1.5601" height="2.8706" color-interpolation-filters="sRGB"> <feFlood flood-color="rgb(77,77,77)" in="SourceGraphic" result="flood"/> <feGaussianBlur in="SourceGraphic" result="blur" stdDeviation="2.200000"/> <feOffset dx="1.000000" dy="1.000000" in="blur" result="offset"/> <feComposite in="flood" in2="offset" operator="out" result="comp1"/> <feComposite in="comp1" in2="SourceGraphic" operator="atop" result="comp2"/> </filter> <filter id="r" x="-.1125" y="-.30239" width="1.225" height="1.6048" color-interpolation-filters="sRGB"> <feGaussianBlur stdDeviation="1.5896999"/> </filter> <filter id="p" x="-.091211" y="-.34436" width="1.1902" height="1.7182" color-interpolation-filters="sRGB"> <feFlood flood-color="rgb(186,158,151)" in="SourceGraphic" result="flood"/> <feGaussianBlur in="SourceGraphic" result="blur" stdDeviation="4.863222"/> <feOffset dx="1.000000" dy="1.000000" in="blur" result="offset"/> <feComposite in="flood" in2="offset" operator="out" result="comp1"/> <feComposite in="comp1" in2="SourceGraphic" operator="atop" result="comp2"/> </filter> <linearGradient id="o" x1="139.22" x2="142.71" y1="157.29" y2="144.88" gradientUnits="userSpaceOnUse"> <stop stop-color="#ca763e" offset="0"/> <stop stop-color="#d6966b" stop-opacity=".99608" offset=".14847"/> <stop stop-color="#ac612f" offset="1"/> </linearGradient> <linearGradient id="n" x1="111.16" x2="137.74" y1="160.87" y2="149.45" gradientUnits="userSpaceOnUse"> <stop stop-color="#fefcfb" offset="0"/> <stop stop-color="#deaa87" stop-opacity=".80503" offset="1"/> </linearGradient> <linearGradient id="m" x1="128.06" x2="135.99" y1="172.71" y2="156.26" gradientTransform="matrix(1.0068 0 0 1.0077 9.5361 147.49)" gradientUnits="userSpaceOnUse"> <stop stop-color="#ce7d46" offset="0"/> <stop stop-color="#d38e5e" stop-opacity=".99454" offset="1"/> </linearGradient> <linearGradient id="l" x1="66.697" x2="30.837" y1="153.25" y2="165.96" gradientTransform="matrix(1.0068 0 0 1.0077 9.5361 147.49)" gradientUnits="userSpaceOnUse"> <stop stop-color="#ac612f" offset="0"/> <stop stop-color="#784421" offset="1"/> </linearGradient> <linearGradient id="k" x1="109.64" x2="109.64" y1="140.83" y2="131.43" gradientTransform="matrix(1.0068 0 0 1.0077 9.5361 147.49)" gradientUnits="userSpaceOnUse"> <stop stop-color="#d58f60" offset="0"/> <stop stop-color="#a05a2c" offset="1"/> </linearGradient> <linearGradient id="j" x1="188.28" x2="187.39" y1="173.59" y2="164.78" gradientUnits="userSpaceOnUse"> <stop stop-color="#784421" offset=".21731"/> <stop stop-color="#b36531" offset="1"/> </linearGradient> <linearGradient id="i" x1="160.22" x2="159.5" y1="172.41" y2="170.53" gradientTransform="rotate(12.244 152.16 244.17)" gradientUnits="userSpaceOnUse"> <stop stop-color="#c9804f" stop-opacity=".54918" offset="0"/> <stop stop-color="#edd1be" stop-opacity="0" offset="1"/> </linearGradient> <linearGradient id="h" x1="185.05" x2="188.17" y1="157.4" y2="165.74" gradientUnits="userSpaceOnUse"> <stop stop-color="#c46e36" offset="0"/> <stop stop-color="#784421" offset=".99808"/> </linearGradient> <linearGradient id="g" x1="160.22" x2="159.54" y1="172.41" y2="170.78" gradientTransform="rotate(5.5448 218.62 428.53)" gradientUnits="userSpaceOnUse"> <stop stop-color="#c78355" stop-opacity=".55738" offset="0"/> <stop stop-color="#edd1be" stop-opacity="0" offset="1"/> </linearGradient> <linearGradient id="f" x1="160.22" x2="159.42" y1="172.41" y2="170.58" gradientTransform="rotate(5.5448 79.077 54.827)" gradientUnits="userSpaceOnUse"> <stop stop-color="#c78355" stop-opacity=".55191" offset="0"/> <stop stop-color="#edd1be" stop-opacity="0" offset="1"/> </linearGradient> <linearGradient id="e" x1="99.485" x2="124.41" y1="167.19" y2="164.91" gradientUnits="userSpaceOnUse"> <stop stop-color="#ac612f" offset="0"/> <stop stop-color="#ac612f" offset="1"/> </linearGradient> <linearGradient id="d" x1="160.22" x2="159.42" y1="172.41" y2="170.58" gradientUnits="userSpaceOnUse"> <stop stop-color="#784421" stop-opacity=".62022" offset="0"/> <stop stop-color="#edd1be" stop-opacity="0" offset="1"/> </linearGradient> <linearGradient id="c" x1="81.174" x2="21.59" y1="172.04" y2="179.62" gradientTransform="matrix(1.0068 0 0 1.0077 9.5361 147.49)" gradientUnits="userSpaceOnUse"> <stop stop-color="#784421" offset="0"/> <stop stop-color="#784421" offset="1"/> </linearGradient> </defs> <g transform="translate(-24.063 -278.83)"> <path d="m170 287.48 2.3495 0.23925c3.7857 1.3199 2.9232 8.0786-0.0101 9.1032l-1.911 0.62549z" fill="#e5bea2"/> <g transform="matrix(.98483 -.20931 .20911 .98576 -16.746 175.03)" stroke-linecap="square" stroke-linejoin="round" stroke-opacity=".98824"> <path d="m116.88 138.5c-0.0835 1.8617 3.4833 6.4693 6.9507 9.6905 2.5966 2.4122 5.8425 5.9974 7.0802 6.8019 1.1289 0.71054 7.7463 1.1953 10.778 2.7329 4.8599 2.4649 12.661 1.9696 16.729-0.81992 6.3132-4.3289 1.9322-9.1182-0.46577-9.9692-16.05-5.6964-36.02-6.1443-41.073-8.4362z" fill="url(#o)" stroke-width=".49639"/> <path transform="matrix(.99546 .021402 .021402 .89921 -2.8736 12.034)" d="m127.13 142.47c12.715-1.3945 29.457 3.8842 32.19 5.3556 2.1007 1.131 0.57918 4.92-1.1749 5.8744-3.4791 1.8931-20.499 1.7096-26.35-2.4524-2.1063-1.4983-7.2347-8.4959-4.6653-8.7777z" fill="#f4e3d7" filter="url(#r)" opacity=".30608" stroke-width=".5248" style="mix-blend-mode:normal"/> </g> <path d="m31.351 312.26c24.698-7.2704 41.701-12.629 64.762-24.251 7.3912-4.5606 16.333-2.8738 24.529-1.9264 11.291 13.856 27.414 20.94 44.204 27.089 9.2344 0.0862 17.812-11.904 27.048-7.0997 1.4024 2.252 14.567-6.2571 19.49 0.78631 3.665 4.5723-10.068 5.8936-4.4515 5.7923 5.375-1.5374 18.32 5.0883 11.831 10.337-8.727-0.30678-17.54-2.0495-26.164 0.0908-7.5774 2.1276-15.325 2.4542-23.087 3.2829-8.6349 1.949-17.643 1.7445-26.076 4.6708-8.2198 1.1577-15.735-3.6715-23.522-5.5456-9.9434-3.6695-13.388-6.9916-23.935-5.0541-18.851 7.2501-59.434 7.3606-60.226 7.9573 0 0-4.4058-4.5434-4.4029-16.129z" fill="#e9c6af"/> <path transform="matrix(1.0068 0 0 1.0077 9.5361 147.49)" d="m76.474 144.2c2.0561-1.4686 14.99-1.2946 20.101 0.71522 21.684 8.528 29.443 24.707 51.76 21.234l-11.544 2.2134c-10.446 3.8942-13.603 1.2961-15.606-4.756-14.466-9.2144-30.042-18.87-44.711-19.406z" fill="url(#n)" filter="url(#q)" stroke-linecap="square" stroke-linejoin="round" stroke-opacity=".98824" stroke-width=".49639"/> <path d="m151 305.31 18.081 9.2034s-24.883 7.1162-27.183 6.279-54.109-29.031-54.109-29.031 11.31-6.1751 15.869-6.3149c17.289-0.53012 47.343 19.864 47.343 19.864z" fill="url(#m)" stroke-linecap="square" stroke-linejoin="round" stroke-opacity=".98824" stroke-width=".5"/> <path d="m74.936 297.52-50.682 8.5239c-0.90276 14.334 1.1963 24.048 10.613 31.817 1.6745 1.3816 35.71-10.11 61.113-17.429z" fill="url(#l)"/> <path d="m99.698 286.34c10.374 15.932 49.744 22.153 53.373 20.004-10.664-8.1564-14.253-8.9636-25.856-19.28-14.327-3.4273-22.102-3.4291-27.517-0.72364z" fill="url(#k)" stroke-linecap="square" stroke-linejoin="round" stroke-opacity=".98824" stroke-width=".5"/> <g transform="translate(-172.71 99.278)"> <path transform="matrix(.22573 -.13035 -.07814 -.16809 306.5 259.91)" d="m77.104 206.64c-2.9706 4.388 20.458 28.34 29.997 24.586 5.5748-2.1941-3.061-11.122-10.329-24.664-3.1786-5.9224-5.3922-21.009-19.668 0.078z" fill="#fdfdfd" filter="url(#s)" opacity=".05" style="mix-blend-mode:normal"/> <path transform="matrix(1.0068 .006679 -.0066727 1.0077 147.74 50.814)" d="m162.54 161.7c-2.0821-6.574-0.1223-9.7347 7.6113-14.414 9.0527-4.1167 12.295-4.9951 31.691-3.5012 0 0 22.398-5.2663 32.59-5.3371 24.317-0.16872 55.294 3.1251 55.294 3.1251l-0.41631 12.046-0.62106 17.971c-18.783 2.8277-34.992-3.0806-44.35-6.244-23.326-7.8856-35.125-2.2645-51.175-3.3966-3.5784 0.4421-7.8609 1.2813-11.732 1.5062-4.8244 0.77579-11.065 0.21531-10.615-2.0973-2.9413 1.5977-5.6998 1.7041-8.2784 0.34141z" fill="#f4e3d7" filter="url(#p)" stroke-linecap="square" stroke-linejoin="round" stroke-opacity=".98824" stroke-width=".49639"/> <g transform="matrix(1.0068 0 0 1.0077 217.7 -17.131)" stroke-width=".99279"> <path transform="matrix(.28224 -.21322 .21322 .28224 30.766 210.3)" d="m129.03 159.64c-9.0854-0.80606-12.176-0.95496-19.298 3.2111 9.9334-1.8202 8.9199-1.177 19.592 2.5164 1.2196-1.3194 1.6647-4.4081-0.29373-5.7276z" fill="#f4eed7" filter="url(#b)" opacity=".98742"/> <path transform="matrix(.2622 -.23743 .23743 .2622 21.142 215.28)" d="m129.03 159.64c-9.0854-0.80606-12.176-0.95496-19.298 3.2111 9.9334-1.8202 8.9199-1.177 19.592 2.5164 1.2196-1.3194 1.6647-4.4081-0.29373-5.7276z" fill="#f4eed7" filter="url(#b)" opacity=".98742"/> <path d="m102.25 231.84c-0.0332 0.10852-2.2064-0.72067-2.0715-1.695 0.97931-7.0725 9.9156-7.3341 9.9156-7.3341s-7.5612 1.4025-7.8441 9.0292z" fill="#ac9393" stroke-linecap="square" stroke-linejoin="round" stroke-opacity=".98824" stroke-width=".49639"/> <path d="m94.1 230.99c-0.0059 0.0258-2.0186 0.59552-2.7913-2.2664-0.96727-3.5824 7.4618-7.0911 7.4618-7.0911s-5.6706 5.2978-4.6705 9.3575z" fill="#ac9393" stroke-linecap="square" stroke-linejoin="round" stroke-opacity=".98824" stroke-width=".49639"/> <path d="m150.2 229.95c-0.28562-5.4636 3.5727-12.049 3.5727-12.049l-1.307 12.138s-1.4358-0.11074-2.2657-0.0895z" fill="#ac9393" stroke-linecap="square" stroke-linejoin="round" stroke-opacity=".98824" stroke-width=".49639"/> <path d="m172.25 233.88s-2.9661-0.91809-3.0074-0.92871c-0.3978-7.6095 4.7905-17.325 4.7905-17.325s-1.8207 7.7954-1.7831 18.253z" fill="#ac9393" stroke-linecap="square" stroke-linejoin="round" stroke-opacity=".98824" stroke-width=".49639"/> <path d="m198.25 240.89s-2.3496-0.34721-2.4771-0.37595c-0.39779-7.6096 5.2436-20.486 5.2436-20.486s-2.8041 10.404-2.7665 20.862z" fill="#ac9393" stroke-linecap="square" stroke-linejoin="round" stroke-opacity=".98824" stroke-width=".49639"/> <path d="m164.01 207.42s-2.2072 0.0667-2.576 0.0883c-3.5438 6.7458-2.2269 15.673-2.2269 15.673s0.39511-6.2776 4.8029-15.761z" fill="#ac9393" opacity=".49895" stroke-linecap="square" stroke-linejoin="round" stroke-opacity=".98824" stroke-width=".49639"/> <path d="m190.84 208.43s-2.631-0.16782-3.0384-0.19275c-3.5438 6.7458-2.1951 16.181-2.1951 16.181 1.063-7.1831 4.7561-13.818 5.2334-15.988z" fill="#ac9393" stroke-linecap="square" stroke-linejoin="round" stroke-opacity=".98824" stroke-width=".49639"/> <path d="m142.53 210.24s-1.6164 0.31169-3.3988 0.66445c-3.5438 6.7458-2.1187 16.782-2.1187 16.782s1.1097-7.963 5.5175-17.447z" fill="#ac9393" opacity=".54927" stroke-linecap="square" stroke-linejoin="round" stroke-opacity=".98824" stroke-width=".49639"/> <path d="m219.29 210.91s-2.631-0.16782-3.0384-0.19275c-3.5438 6.7458-3.9483 20.802-3.9483 20.802 1.063-7.1831 6.5093-18.44 6.9866-20.609z" fill="#ac9393" stroke-linecap="square" stroke-linejoin="round" stroke-opacity=".98824" stroke-width=".49639"/> </g> </g> <g transform="matrix(1.0068 0 0 1.0077 9.5361 147.49)" stroke-width=".99279"> <g stroke-width=".99279"> <path d="m207.8 174.2c5.196-3.6604-0.7332-8.1461-4.6002-9.5922-7.997-2.9905-12.847 1.533-26.956 4.9255-21.228 5.1044-48.302 7.2141-48.302 7.2141s9.3432 3.5682 17.862 3.2192c9.5581-0.39161 35.845-5.4912 35.845-5.4912 7.3314-1.1132 17.77-0.82745 26.152-0.27539z" fill="url(#j)" stroke-linecap="square" stroke-linejoin="round" stroke-opacity=".98824" stroke-width=".49639"/> <path d="m183.02 174.27c-1.0785-0.11898-11.739 2.9321-34.99 5.5466l20.013-4.2527s12.164-1.4338 15.37-2.4325c1.1877-0.36994 23.61 0.44762 24.386 1.0684-13.598-0.93935-21.875-0.23005-24.78 0.0702z" fill="url(#i)"/> </g> <path transform="matrix(.79744 .62291 -.86359 .5752 191.28 -54.364)" d="m208.05 171.06s-5.3336 2.7525-5.9166 5.4467c-0.0721 0.33321 0.37337 0.80867 0.35943 0.87125 2.1191-1.1162 5.939-5.0763 5.7512-5.6872z" fill="#fdfbf9" filter="url(#a)"/> <g stroke-width=".99279"> <path d="m183.97 156.97s9.4546-2.8954 14.116-1.0934c1.7629 0.68155 4.8647 3.3794 3.317 4.5988-6.9545 5.4788-14.054 7.0127-32.138 11.044-19.591 8.2299-32.294 11.363-34.184 11.452-10.162 0.47965-15.458-1.4312-16.176-3.4239z" fill="url(#h)" stroke-linecap="square" stroke-linejoin="round" stroke-opacity=".98824" stroke-width=".49639"/> <path d="m200.31 161.3c-3.6873 0.93805-11.654 4.3436-31.319 10.274l-0.31154 0.15577c20.326-4.572 25.797-6.2214 31.631-10.43z" fill="url(#g)"/> <path d="m168.79 171.57c-1.9448 0.95577-24.158 10.197-34.437 11.457 4.013-0.95201 26.638-9.0638 34.437-11.457z" fill="url(#f)"/> </g> <path transform="matrix(.99246 .2276 -.2276 .99246 39.005 -43.174)" d="m200.49 158.15s-5.3336 2.7525-5.9166 5.4467c-0.0721 0.33321 0.34383 0.82822 0.32989 0.8908 2.1191-1.1162 5.9686-5.0959 5.7807-5.7068z" fill="#fdfbf9" filter="url(#a)"/> <g stroke-width=".99279"> <path d="m77.725 143.16c10.396-0.52654 30.363 7.228 48.232 22.663 3.5761 3.089 13.734 1.7479 16.183 1.203 22.471-5.0005 16.747-3.7082 19.705-5.4188 13.498-7.8076 18.891-6.2242 20.076-5.9316 5.5362 1.367-4.0581 13.137-54.593 27.165-6.6111-0.28541-20.066-8.1996-32.387-9.4331-25.298-2.5328-27.653-20.197-29.983-24.529 3.217-1.3109 12.767-5.7187 12.767-5.7187z" fill="url(#e)" stroke-linecap="square" stroke-linejoin="round" stroke-opacity=".98824" stroke-width=".49639"/> <path d="m182.55 158.32c-10.643 6.9837-15.482 11.124-56.027 24.305l3.3044-0.80773c32.695-7.2632 53.687-20.912 52.723-23.498z" fill="url(#d)"/> </g> <path d="m183.41 156.81s-5.4621 2.8075-6.0451 5.5018c-0.0721 0.33321 0.37337 0.80867 0.35943 0.87125 2.1191-1.1162 6.0726-5.1514 5.8796-5.7607z" fill="#fdfbf9" filter="url(#a)"/> </g> <path d="m135.71 313.72c-27.309-21.377-43.498-21.578-43.451-21.781-3.76 1.4827-6.2263 2.902-17.765 6.062-16.086 2.7938-35.004 6.2101-34.634 6.0007 8.4449-0.65622 45.733-7.1534 50.873-9.1506 4.7391 0.84825 5.7093-4.6362 44.977 18.868z" fill="#cc7d45" opacity=".55765"/> <path d="m95.98 320.43c-4.4416 1.6015-60.966 19.25-61.113 17.429l-3.5937-3.449c14.719-4.3193 40.062-5.3342 55.052-20.364 2.3244 2.4067 5.0354 4.3766 9.6551 6.3837z" fill="url(#c)"/> <g transform="matrix(1.0068 0 0 1.0077 9.5361 147.49)" stroke-width=".99279"> <path d="m69.978 151.02s-1.0751 7.0826-2.6698 8.1715c-8.3572 5.7067-30.009 14.186-29.7 14.538 8.1796-5.2034 32.382-19.741 32.37-22.71z" fill="#bc703d"/> <path d="m70.29 150.18c-2.0069 8.8099 11.243 19.251 11.994 19.683l-7.3451-3.031c-6.4048-4.4289-8.3799-10.663-4.6485-16.652z" fill="#a15b2c"/> <path d="m69.978 151.02s-1.758 6.2664-3.3194 7.4025c-8.1831 5.9537-29.572 15.075-29.253 15.419 10.298-6.423 31.16-19.295 32.572-22.821z" fill="#a15b2c"/> </g> </g> </svg>