<?xml version='1.0' encoding='utf-8'?>
<svg xmlns:xlink="http://www.w3.org/1999/xlink" xmlns="http://www.w3.org/2000/svg" enable-background="new 0 0 4465.146 4000" version="1.1" viewBox="0 0 4465.1 4e3"> <symbol id="a" viewBox="-26.001 -25 52.002 50"> <path d="m8.626 24.985c-8.455-1.46-10.141-17.355-1.97-19.022 3.783-0.72 9.383 4.985 8.274 12.513-0.216 3.243-2.73 6.787-6.304 6.509zm-23.83-5.684c-1.358-7.678 4.225-14.03 8.429-13.381 7.565 1.261 6.414 16.49-1.867 18.732-3.325 0.882-6.062-2.342-6.562-5.351zm27.675-18.805c-2.174-11.04 13.089-9.902 13.47 2.455 1.065 10.242-12.29 8.792-13.47-2.455zm-37.966 5.177c-3.284-10.243 10.404-18.996 12.827-9.966 1.283 4.825-1.352 10.428-5.811 12.618-2.589 1.452-6.093 0.219-7.016-2.652zm14.31-30.56c4.095-0.113 7.616 2.699 11.688 2.908 3.455 0.527 6.549-1.271 9.656-2.447 3.564-1.525 11.575-0.662 5.854 10.721-2.641 4.182-5.471 8.578-9.803 11.189-15.12 9.372-30.263-22.287-17.395-22.371z"/> </symbol> <use transform="matrix(2.068 -1.519 -1.519 -2.068 4186.3 524.58)" x="-26.001" y="-25" width="52.002" height="50" overflow="visible" xlink:href="#a"/> <use transform="matrix(2.2971 1.1434 1.1434 -2.2971 3860.4 1251.5)" x="-26.001" y="-25" width="52.002" height="50" overflow="visible" xlink:href="#a"/> <use transform="matrix(-1.5351 2.0561 2.0561 1.5351 4030.1 358.46)" x="-26.001" y="-25" width="52.002" height="50" overflow="visible" xlink:href="#a"/> <use transform="matrix(1.3839 -2.1607 -2.1607 -1.3839 457.33 658.42)" x="-26.001" y="-25" width="52.002" height="50" overflow="visible" xlink:href="#a"/> <use transform="matrix(1.022 2.3536 2.3536 -1.022 4058.2 1804.4)" x="-26.001" y="-25" width="52.002" height="50" overflow="visible" xlink:href="#a"/> <use transform="matrix(-1.8817 -1.7444 -1.7444 1.8817 636.35 1662.6)" x="-26.001" y="-25" width="52.002" height="50" overflow="visible" xlink:href="#a"/> <use transform="matrix(-2.4968 -.5914 -.5914 2.4968 4260.7 1755)" x="-26.001" y="-25" width="52.002" height="50" overflow="visible" xlink:href="#a"/> <use transform="matrix(-1.879 -1.7473 -1.7473 1.879 2329 1650.2)" x="-26.001" y="-25" width="52.002" height="50" overflow="visible" xlink:href="#a"/> <use transform="matrix(-1.4546 2.1137 2.1137 1.4546 1826 289.05)" x="-26.001" y="-25" width="52.002" height="50" overflow="visible" xlink:href="#a"/> <use transform="matrix(2.5118 .524 .524 -2.5118 1661.6 2763.7)" x="-26.001" y="-25" width="52.002" height="50" overflow="visible" xlink:href="#a"/> <use transform="matrix(2.3208 1.0944 1.0944 -2.3208 3542.7 715.5)" x="-26.001" y="-25" width="52.002" height="50" overflow="visible" xlink:href="#a"/> <use transform="matrix(1.1119 -2.3125 -2.3125 -1.1119 2543.9 1710.3)" x="-26.001" y="-25" width="52.002" height="50" overflow="visible" xlink:href="#a"/> <use transform="matrix(-1.7914 -1.8371 -1.8371 1.7914 2800.3 3506.6)" x="-26.001" y="-25" width="52.002" height="50" overflow="visible" xlink:href="#a"/> <use transform="matrix(-1.3705 -2.1693 -2.1693 1.3705 2137 3332.5)" x="-26.001" y="-25" width="52.002" height="50" overflow="visible" xlink:href="#a"/> <use transform="matrix(1.3775 -2.1648 -2.1648 -1.3775 1428.4 2222.1)" x="-26.001" y="-25" width="52.002" height="50" overflow="visible" xlink:href="#a"/> <use transform="matrix(2.3977 -.9136 -.9136 -2.3977 1646 597.04)" x="-26.001" y="-25" width="52.002" height="50" overflow="visible" xlink:href="#a"/> <use transform="matrix(-2.5658 -.0265 -.0265 2.5658 2814.5 570.84)" x="-26.001" y="-25" width="52.002" height="50" overflow="visible" xlink:href="#a"/> <use transform="matrix(1.0633 -2.3352 -2.3352 -1.0633 1807.7 2036.8)" x="-26.001" y="-25" width="52.002" height="50" overflow="visible" xlink:href="#a"/> <use transform="matrix(-.2979 2.5485 2.5485 .2979 2229.9 1998.6)" x="-26.001" y="-25" width="52.002" height="50" overflow="visible" xlink:href="#a"/> <use transform="matrix(.7287 -2.4603 -2.4603 -.7287 2408.4 1108.4)" x="-26.001" y="-25" width="52.002" height="50" overflow="visible" xlink:href="#a"/> <use transform="matrix(1.9475 1.6707 1.6707 -1.9475 739.9 359.65)" x="-26.001" y="-25" width="52.002" height="50" overflow="visible" xlink:href="#a"/> <use transform="matrix(1.8169 1.8119 1.8119 -1.8169 3755.6 2546)" x="-26.001" y="-25" width="52.002" height="50" overflow="visible" xlink:href="#a"/> <use transform="matrix(2.2224 1.2825 1.2825 -2.2224 2686.2 1553.9)" x="-26.001" y="-25" width="52.002" height="50" overflow="visible" xlink:href="#a"/> <use transform="matrix(-2.5643 -.09 -.09 2.5643 3762.2 1475.7)" x="-26.001" y="-25" width="52.002" height="50" overflow="visible" xlink:href="#a"/> <use transform="matrix(.7699 2.4477 2.4477 -.7699 3517.6 1749.8)" x="-26.001" y="-25" width="52.002" height="50" overflow="visible" xlink:href="#a"/> <use transform="matrix(.3819 2.5373 2.5373 -.3819 4338.5 917.46)" x="-26.001" y="-25" width="52.002" height="50" overflow="visible" xlink:href="#a"/> <use transform="matrix(1.1937 -2.2713 -2.2713 -1.1937 2503.1 3743.5)" x="-26.001" y="-25" width="52.002" height="50" overflow="visible" xlink:href="#a"/> <use transform="matrix(.2797 2.5506 2.5506 -.2797 1033.3 2206.6)" x="-26.001" y="-25" width="52.002" height="50" overflow="visible" xlink:href="#a"/> <use transform="matrix(-1.6234 -1.987 -1.987 1.6234 2380.4 1857.4)" x="-26.001" y="-25" width="52.002" height="50" overflow="visible" xlink:href="#a"/> <use transform="matrix(1.2902 -2.2179 -2.2179 -1.2902 3567.9 1387)" x="-26.001" y="-25" width="52.002" height="50" overflow="visible" xlink:href="#a"/> <use transform="matrix(-1.103 -2.3167 -2.3167 1.103 2231.5 3681.9)" x="-26.001" y="-25" width="52.002" height="50" overflow="visible" xlink:href="#a"/> <use transform="matrix(1.0841 -2.3256 -2.3256 -1.0841 1742.2 1691.9)" x="-26.001" y="-25" width="52.002" height="50" overflow="visible" xlink:href="#a"/> <use transform="matrix(-2.3215 1.093 1.093 2.3215 1629.1 1143.6)" x="-26.001" y="-25" width="52.002" height="50" overflow="visible" xlink:href="#a"/> <use transform="matrix(2.5641 -.0949 -.0949 -2.5641 2209.6 2883.6)" x="-26.001" y="-25" width="52.002" height="50" overflow="visible" xlink:href="#a"/> <use transform="matrix(1.8634 1.7639 1.7639 -1.8634 3112.7 808.03)" x="-26.001" y="-25" width="52.002" height="50" overflow="visible" xlink:href="#a"/> <use transform="matrix(1.7017 -1.9205 -1.9205 -1.7017 3302.3 1800.3)" x="-26.001" y="-25" width="52.002" height="50" overflow="visible" xlink:href="#a"/> <use transform="matrix(-1.6235 1.987 1.987 1.6235 669.6 183.55)" x="-26.001" y="-25" width="52.002" height="50" overflow="visible" xlink:href="#a"/> <use transform="matrix(.2084 -2.5574 -2.5574 -.2084 3288.1 2792.2)" x="-26.001" y="-25" width="52.002" height="50" overflow="visible" xlink:href="#a"/> <use transform="matrix(-2.3371 1.0592 1.0592 2.3371 3488.5 2829.8)" x="-26.001" y="-25" width="52.002" height="50" overflow="visible" xlink:href="#a"/> <use transform="matrix(.665 2.4782 2.4782 -.665 3218.2 434.48)" x="-26.001" y="-25" width="52.002" height="50" overflow="visible" xlink:href="#a"/> <use transform="matrix(2.3776 .9647 .9647 -2.3776 1322.9 2644.6)" x="-26.001" y="-25" width="52.002" height="50" overflow="visible" xlink:href="#a"/> <use transform="matrix(1.5447 -2.0488 -2.0488 -1.5447 3884.1 1928)" x="-26.001" y="-25" width="52.002" height="50" overflow="visible" xlink:href="#a"/> <use transform="matrix(.4389 2.5281 2.5281 -.4389 1007.4 536.27)" x="-26.001" y="-25" width="52.002" height="50" overflow="visible" xlink:href="#a"/> <use transform="matrix(-1.9399 -1.6794 -1.6794 1.9399 2483.3 1506)" x="-26.001" y="-25" width="52.002" height="50" overflow="visible" xlink:href="#a"/> <use transform="matrix(-.931 -2.391 -2.391 .931 1810.9 2248)" x="-26.001" y="-25" width="52.002" height="50" overflow="visible" xlink:href="#a"/> <use transform="matrix(1.8595 1.7681 1.7681 -1.8595 1563.4 1331.6)" x="-26.001" y="-25" width="52.002" height="50" overflow="visible" xlink:href="#a"/> <use transform="matrix(-.1395 2.5621 2.5621 .1395 3075 1125.9)" x="-26.001" y="-25" width="52.002" height="50" overflow="visible" xlink:href="#a"/> <use transform="matrix(1.5527 -2.0428 -2.0428 -1.5527 3201.2 3098.8)" x="-26.001" y="-25" width="52.002" height="50" overflow="visible" xlink:href="#a"/> <use transform="matrix(2.5228 .4682 .4682 -2.5228 2197.1 3116)" x="-26.001" y="-25" width="52.002" height="50" overflow="visible" xlink:href="#a"/> <use transform="matrix(-2.0136 1.5904 1.5904 2.0136 2576.2 3155.7)" x="-26.001" y="-25" width="52.002" height="50" overflow="visible" xlink:href="#a"/> <use transform="matrix(2.4102 -.8802 -.8802 -2.4102 2703.3 763.45)" x="-26.001" y="-25" width="52.002" height="50" overflow="visible" xlink:href="#a"/> <use transform="matrix(2.4983 -.5849 -.5849 -2.4983 3572.2 2479.4)" x="-26.001" y="-25" width="52.002" height="50" overflow="visible" xlink:href="#a"/> <use transform="matrix(1.5749 2.0257 2.0257 -1.5749 2412 3586.9)" x="-26.001" y="-25" width="52.002" height="50" overflow="visible" xlink:href="#a"/> <use transform="matrix(-1.104 -2.3163 -2.3163 1.104 3104.7 2308.7)" x="-26.001" y="-25" width="52.002" height="50" overflow="visible" xlink:href="#a"/> <use transform="matrix(-1.2985 2.2131 2.2131 1.2985 2026.2 2986.1)" x="-26.001" y="-25" width="52.002" height="50" overflow="visible" xlink:href="#a"/> <use transform="matrix(-.0664 2.565 2.565 .0664 2197.9 1052.5)" x="-26.001" y="-25" width="52.002" height="50" overflow="visible" xlink:href="#a"/> <use transform="matrix(.986 2.3689 2.3689 -.986 195.22 1713.6)" x="-26.001" y="-25" width="52.002" height="50" overflow="visible" xlink:href="#a"/> <use transform="matrix(2.5316 .4182 .4182 -2.5316 3726.9 1700)" x="-26.001" y="-25" width="52.002" height="50" overflow="visible" xlink:href="#a"/> <use transform="matrix(1.6912 -1.9297 -1.9297 -1.6912 2211.3 2413.3)" x="-26.001" y="-25" width="52.002" height="50" overflow="visible" xlink:href="#a"/> <use transform="matrix(2.5609 .1593 .1593 -2.5609 4113.1 731.92)" x="-26.001" y="-25" width="52.002" height="50" overflow="visible" xlink:href="#a"/> <use transform="matrix(-.4393 2.528 2.528 .4393 1890.6 1533.8)" x="-26.001" y="-25" width="52.002" height="50" overflow="visible" xlink:href="#a"/> <use transform="matrix(2.4973 .5892 .5892 -2.4973 3486.6 1940.9)" x="-26.001" y="-25" width="52.002" height="50" overflow="visible" xlink:href="#a"/> <use transform="matrix(-1.8247 -1.804 -1.804 1.8247 3449.9 946.86)" x="-26.001" y="-25" width="52.002" height="50" overflow="visible" xlink:href="#a"/> <use transform="matrix(2.5386 -.3731 -.3731 -2.5386 2386.2 3005.6)" x="-26.001" y="-25" width="52.002" height="50" overflow="visible" xlink:href="#a"/> <use transform="matrix(-1.4264 2.1329 2.1329 1.4264 1788.9 468.94)" x="-26.001" y="-25" width="52.002" height="50" overflow="visible" xlink:href="#a"/> <use transform="matrix(-.7905 -2.4411 -2.4411 .7905 3974.7 590.31)" x="-26.001" y="-25" width="52.002" height="50" overflow="visible" xlink:href="#a"/> <use transform="matrix(-2.3311 1.0723 1.0723 2.3311 4304.1 720.83)" x="-26.001" y="-25" width="52.002" height="50" overflow="visible" xlink:href="#a"/> <use transform="matrix(-1.1568 -2.2903 -2.2903 1.1568 2377.6 3243.2)" x="-26.001" y="-25" width="52.002" height="50" overflow="visible" xlink:href="#a"/> <use transform="matrix(-1.0529 -2.3399 -2.3399 1.0529 1618 3186.8)" x="-26.001" y="-25" width="52.002" height="50" overflow="visible" xlink:href="#a"/> <use transform="matrix(2.478 -.666 -.666 -2.478 756.63 1491.4)" x="-26.001" y="-25" width="52.002" height="50" overflow="visible" xlink:href="#a"/> <use transform="matrix(1.804 -1.8246 -1.8246 -1.804 3670.7 329.61)" x="-26.001" y="-25" width="52.002" height="50" overflow="visible" xlink:href="#a"/> <use transform="matrix(-1.6488 1.966 1.966 1.6488 2741.6 1788.4)" x="-26.001" y="-25" width="52.002" height="50" overflow="visible" xlink:href="#a"/> <use transform="matrix(2.1939 -1.3307 -1.3307 -2.1939 1982.3 448.77)" x="-26.001" y="-25" width="52.002" height="50" overflow="visible" xlink:href="#a"/> <use transform="matrix(-.4259 -2.5303 -2.5303 .4259 3211.8 959.27)" x="-26.001" y="-25" width="52.002" height="50" overflow="visible" xlink:href="#a"/> <use transform="matrix(-1.2572 -2.2368 -2.2368 1.2572 2010.5 1208.5)" x="-26.001" y="-25" width="52.002" height="50" overflow="visible" xlink:href="#a"/> <use transform="matrix(-.1649 -2.5606 -2.5606 .1649 1609.1 2362.2)" x="-26.001" y="-25" width="52.002" height="50" overflow="visible" xlink:href="#a"/> <use transform="matrix(-2.5401 .3626 .3626 2.5401 859.3 135.36)" x="-26.001" y="-25" width="52.002" height="50" overflow="visible" xlink:href="#a"/> <use transform="matrix(-.9496 2.3837 2.3837 .9496 2209.2 2189.2)" x="-26.001" y="-25" width="52.002" height="50" overflow="visible" xlink:href="#a"/> <use transform="matrix(-1.2893 -2.2184 -2.2184 1.2893 4187.1 1408.5)" x="-26.001" y="-25" width="52.002" height="50" overflow="visible" xlink:href="#a"/> <use transform="matrix(-2.3427 -1.0468 -1.0468 2.3427 659.15 2094.3)" x="-26.001" y="-25" width="52.002" height="50" overflow="visible" xlink:href="#a"/> <use transform="matrix(-1.8276 1.801 1.801 1.8276 4167.2 1950.1)" x="-26.001" y="-25" width="52.002" height="50" overflow="visible" xlink:href="#a"/> <use transform="matrix(2.5541 -.2459 -.2459 -2.5541 1990.9 1004.5)" x="-26.001" y="-25" width="52.002" height="50" overflow="visible" xlink:href="#a"/> <use transform="matrix(-2.4697 -.6961 -.6961 2.4697 1085.3 2947.1)" x="-26.001" y="-25" width="52.002" height="50" overflow="visible" xlink:href="#a"/> <use transform="matrix(-1.448 2.1183 2.1183 1.448 2394.8 2306.6)" x="-26.001" y="-25" width="52.002" height="50" overflow="visible" xlink:href="#a"/> <use transform="matrix(1.7623 -1.865 -1.865 -1.7623 3615.1 522.55)" x="-26.001" y="-25" width="52.002" height="50" overflow="visible" xlink:href="#a"/> <use transform="matrix(2.4173 -.8604 -.8604 -2.4173 3413.8 91.96)" x="-26.001" y="-25" width="52.002" height="50" overflow="visible" xlink:href="#a"/> <use transform="matrix(-.2746 -2.5512 -2.5512 .2746 2733.8 2992.5)" x="-26.001" y="-25" width="52.002" height="50" overflow="visible" xlink:href="#a"/> <use transform="matrix(-1.0954 -2.3203 -2.3203 1.0954 1989 3198.8)" x="-26.001" y="-25" width="52.002" height="50" overflow="visible" xlink:href="#a"/> <use transform="matrix(-2.4386 .7981 .7981 2.4386 340.93 2049.7)" x="-26.001" y="-25" width="52.002" height="50" overflow="visible" xlink:href="#a"/> <use transform="matrix(-.5507 2.5061 2.5061 .5507 4046 1307.2)" x="-26.001" y="-25" width="52.002" height="50" overflow="visible" xlink:href="#a"/> <use transform="matrix(1.8897 -1.7357 -1.7357 -1.8897 2929.8 3365.3)" x="-26.001" y="-25" width="52.002" height="50" overflow="visible" xlink:href="#a"/> <use transform="matrix(2.0802 -1.5021 -1.5021 -2.0802 3843.6 2383.6)" x="-26.001" y="-25" width="52.002" height="50" overflow="visible" xlink:href="#a"/> <use transform="matrix(2.461 .7261 .7261 -2.461 3428.5 2596.1)" x="-26.001" y="-25" width="52.002" height="50" overflow="visible" xlink:href="#a"/> <use transform="matrix(-2.5338 -.4044 -.4044 2.5338 1441.1 3036.1)" x="-26.001" y="-25" width="52.002" height="50" overflow="visible" xlink:href="#a"/> <use transform="matrix(.7979 -2.4387 -2.4387 -.7979 2176.9 1791.9)" x="-26.001" y="-25" width="52.002" height="50" overflow="visible" xlink:href="#a"/> <use transform="matrix(.6067 2.4931 2.4931 -.6067 1787.5 3305.3)" x="-26.001" y="-25" width="52.002" height="50" overflow="visible" xlink:href="#a"/> <use transform="matrix(-2.4782 -.665 -.665 2.4782 1135 2717.2)" x="-26.001" y="-25" width="52.002" height="50" overflow="visible" xlink:href="#a"/> <use transform="matrix(.9479 -2.3844 -2.3844 -.9479 2018.6 2332.7)" x="-26.001" y="-25" width="52.002" height="50" overflow="visible" xlink:href="#a"/> <use transform="matrix(-2.5654 .0524 .0524 2.5654 66.494 1358.9)" x="-26.001" y="-25" width="52.002" height="50" overflow="visible" xlink:href="#a"/> <use transform="matrix(2.3387 -1.0557 -1.0557 -2.3387 1211.1 1848.6)" x="-26.001" y="-25" width="52.002" height="50" overflow="visible" xlink:href="#a"/> <use transform="matrix(-1.3441 -2.1857 -2.1857 1.3441 3679.1 1241.3)" x="-26.001" y="-25" width="52.002" height="50" overflow="visible" xlink:href="#a"/> <use transform="matrix(-.5449 -2.5074 -2.5074 .5449 2942.6 3016)" x="-26.001" y="-25" width="52.002" height="50" overflow="visible" xlink:href="#a"/> <use transform="matrix(-.0238 -2.5658 -2.5658 .0238 2637.9 1345.8)" x="-26.001" y="-25" width="52.002" height="50" overflow="visible" xlink:href="#a"/> <use transform="matrix(-2.5649 .0701 .0701 2.5649 1052 111.12)" x="-26.001" y="-25" width="52.002" height="50" overflow="visible" xlink:href="#a"/> <use transform="matrix(2.2152 1.2949 1.2949 -2.2152 2878.9 1599.6)" x="-26.001" y="-25" width="52.002" height="50" overflow="visible" xlink:href="#a"/> <use transform="matrix(-2.1848 1.3456 1.3456 2.1848 2512.8 3410.1)" x="-26.001" y="-25" width="52.002" height="50" overflow="visible" xlink:href="#a"/> <use transform="matrix(-2.5383 -.3753 -.3753 2.5383 3300.5 1996.7)" x="-26.001" y="-25" width="52.002" height="50" overflow="visible" xlink:href="#a"/> <use transform="matrix(2.5079 .5424 .5424 -2.5079 2924.4 2411.1)" x="-26.001" y="-25" width="52.002" height="50" overflow="visible" xlink:href="#a"/> <use transform="matrix(-2.1114 1.458 1.458 2.1114 2689.2 3358.2)" x="-26.001" y="-25" width="52.002" height="50" overflow="visible" xlink:href="#a"/> <use transform="matrix(.1389 2.5621 2.5621 -.1389 1845.2 1856.8)" x="-26.001" y="-25" width="52.002" height="50" overflow="visible" xlink:href="#a"/> <use transform="matrix(-2.042 1.5538 1.5538 2.042 1687 2560.6)" x="-26.001" y="-25" width="52.002" height="50" overflow="visible" xlink:href="#a"/> <use transform="matrix(-2.0131 1.591 1.591 2.0131 1539.7 1688.4)" x="-26.001" y="-25" width="52.002" height="50" overflow="visible" xlink:href="#a"/> <use transform="matrix(2.5634 .1142 .1142 -2.5634 4398 1114.3)" x="-26.001" y="-25" width="52.002" height="50" overflow="visible" xlink:href="#a"/> <use transform="matrix(1.5108 2.074 2.074 -1.5108 3109.4 3254.5)" x="-26.001" y="-25" width="52.002" height="50" overflow="visible" xlink:href="#a"/> <use transform="matrix(.0962 -2.5641 -2.5641 -.0962 3018.2 609.47)" x="-26.001" y="-25" width="52.002" height="50" overflow="visible" xlink:href="#a"/> <use transform="matrix(.661 -2.4793 -2.4793 -.661 1247.6 1032.1)" x="-26.001" y="-25" width="52.002" height="50" overflow="visible" xlink:href="#a"/> <use transform="matrix(2.4846 -.6407 -.6407 -2.4846 67.63 1161.8)" x="-26.001" y="-25" width="52.002" height="50" overflow="visible" xlink:href="#a"/> <use transform="matrix(1.8047 1.8239 1.8239 -1.8047 2566.2 939.98)" x="-26.001" y="-25" width="52.002" height="50" overflow="visible" xlink:href="#a"/> <use transform="matrix(-1.1891 -2.2737 -2.2737 1.1891 2743.9 200.11)" x="-26.001" y="-25" width="52.002" height="50" overflow="visible" xlink:href="#a"/> <use transform="matrix(1.8768 -1.7497 -1.7497 -1.8768 480.27 1950.5)" x="-26.001" y="-25" width="52.002" height="50" overflow="visible" xlink:href="#a"/> <use transform="matrix(1.3603 -2.1756 -2.1756 -1.3603 581.3 503.07)" x="-26.001" y="-25" width="52.002" height="50" overflow="visible" xlink:href="#a"/> <use transform="matrix(-1.817 1.8118 1.8118 1.817 1569.1 3389.1)" x="-26.001" y="-25" width="52.002" height="50" overflow="visible" xlink:href="#a"/> <use transform="matrix(1.2752 2.2266 2.2266 -1.2752 3105.4 1875.9)" x="-26.001" y="-25" width="52.002" height="50" overflow="visible" xlink:href="#a"/> <use transform="matrix(2.4878 .6284 .6284 -2.4878 2903.7 2630.6)" x="-26.001" y="-25" width="52.002" height="50" overflow="visible" xlink:href="#a"/> <use transform="matrix(-1.1182 2.3094 2.3094 1.1182 3217.9 622.74)" x="-26.001" y="-25" width="52.002" height="50" overflow="visible" xlink:href="#a"/> <use transform="matrix(-2.2221 -1.2829 -1.2829 2.2221 421.77 1298.8)" x="-26.001" y="-25" width="52.002" height="50" overflow="visible" xlink:href="#a"/> <use transform="matrix(.0916 2.5643 2.5643 -.0916 1076.6 1665.9)" x="-26.001" y="-25" width="52.002" height="50" overflow="visible" xlink:href="#a"/> <use transform="matrix(2.5155 .5062 .5062 -2.5155 2375.3 2536.7)" x="-26.001" y="-25" width="52.002" height="50" overflow="visible" xlink:href="#a"/> <use transform="matrix(-2.5655 -.0462 -.0462 2.5655 241.83 1351.5)" x="-26.001" y="-25" width="52.002" height="50" overflow="visible" xlink:href="#a"/> <use transform="matrix(-.1014 2.5639 2.5639 .1014 846.81 1696.1)" x="-26.001" y="-25" width="52.002" height="50" overflow="visible" xlink:href="#a"/> <use transform="matrix(-2.5601 -.1727 -.1727 2.5601 2201.5 2650)" x="-26.001" y="-25" width="52.002" height="50" overflow="visible" xlink:href="#a"/> <use transform="matrix(-.5069 -2.5153 -2.5153 .5069 1404.8 3244.3)" x="-26.001" y="-25" width="52.002" height="50" overflow="visible" xlink:href="#a"/> <use transform="matrix(-2.4218 -.8477 -.8477 2.4218 801.63 1901.3)" x="-26.001" y="-25" width="52.002" height="50" overflow="visible" xlink:href="#a"/> <use transform="matrix(1.4718 2.1018 2.1018 -1.4718 3033.1 1478.7)" x="-26.001" y="-25" width="52.002" height="50" overflow="visible" xlink:href="#a"/> <use transform="matrix(-2.4757 .6744 .6744 2.4757 961.61 1504.5)" x="-26.001" y="-25" width="52.002" height="50" overflow="visible" xlink:href="#a"/> <use transform="matrix(-1.8935 -1.7316 -1.7316 1.8935 1507.1 2597.3)" x="-26.001" y="-25" width="52.002" height="50" overflow="visible" xlink:href="#a"/> <use transform="matrix(-2.0815 1.5004 1.5004 2.0815 790.8 2649.6)" x="-26.001" y="-25" width="52.002" height="50" overflow="visible" xlink:href="#a"/> <use transform="matrix(.4957 -2.5176 -2.5176 -.4957 1607.7 388.53)" x="-26.001" y="-25" width="52.002" height="50" overflow="visible" xlink:href="#a"/> <use transform="matrix(1.3543 2.1794 2.1794 -1.3543 341.26 1532)" x="-26.001" y="-25" width="52.002" height="50" overflow="visible" xlink:href="#a"/> <use transform="matrix(1.6667 1.9509 1.9509 -1.6667 2028.2 2533.9)" x="-26.001" y="-25" width="52.002" height="50" overflow="visible" xlink:href="#a"/> <use transform="matrix(-.0195 2.5658 2.5658 .0195 1415.9 1838.7)" x="-26.001" y="-25" width="52.002" height="50" overflow="visible" xlink:href="#a"/> <use transform="matrix(-1.2737 2.2274 2.2274 1.2737 1399.8 2427.6)" x="-26.001" y="-25" width="52.002" height="50" overflow="visible" xlink:href="#a"/> <use transform="matrix(-1.3692 -2.1701 -2.1701 1.3692 830.38 2453.3)" x="-26.001" y="-25" width="52.002" height="50" overflow="visible" xlink:href="#a"/> <use transform="matrix(.5533 -2.5055 -2.5055 -.5533 4021 1110.8)" x="-26.001" y="-25" width="52.002" height="50" overflow="visible" xlink:href="#a"/> <use transform="matrix(.5567 -2.5048 -2.5048 -.5567 1461.4 128.15)" x="-26.001" y="-25" width="52.002" height="50" overflow="visible" xlink:href="#a"/> <use transform="matrix(-.9507 2.3833 2.3833 .9507 165.82 788.69)" x="-26.001" y="-25" width="52.002" height="50" overflow="visible" xlink:href="#a"/> <use transform="matrix(-2.0875 1.492 1.492 2.0875 3276.7 2428.1)" x="-26.001" y="-25" width="52.002" height="50" overflow="visible" xlink:href="#a"/> <use transform="matrix(-.2854 2.55 2.55 .2854 1438.5 1507.8)" x="-26.001" y="-25" width="52.002" height="50" overflow="visible" xlink:href="#a"/> <use transform="matrix(-2.5088 -.5384 -.5384 2.5088 2563.9 2422)" x="-26.001" y="-25" width="52.002" height="50" overflow="visible" xlink:href="#a"/> <use transform="matrix(-1.8353 1.7932 1.7932 1.8353 4374.5 1332.1)" x="-26.001" y="-25" width="52.002" height="50" overflow="visible" xlink:href="#a"/> <use transform="matrix(-.7324 -2.4591 -2.4591 .7324 623.4 1850.1)" x="-26.001" y="-25" width="52.002" height="50" overflow="visible" xlink:href="#a"/> <use transform="matrix(1.2087 2.2634 2.2634 -1.2087 572.42 2322.8)" x="-26.001" y="-25" width="52.002" height="50" overflow="visible" xlink:href="#a"/> <use transform="matrix(-1.0407 2.3454 2.3454 1.0407 3109.1 2082.4)" x="-26.001" y="-25" width="52.002" height="50" overflow="visible" xlink:href="#a"/> <use transform="matrix(-.5158 -2.5135 -2.5135 .5158 1081.5 911.03)" x="-26.001" y="-25" width="52.002" height="50" overflow="visible" xlink:href="#a"/> <use transform="matrix(-.6564 -2.4805 -2.4805 .6564 3335.1 774.1)" x="-26.001" y="-25" width="52.002" height="50" overflow="visible" xlink:href="#a"/> <use transform="matrix(1.5444 -2.0491 -2.0491 -1.5444 3912.7 820.55)" x="-26.001" y="-25" width="52.002" height="50" overflow="visible" xlink:href="#a"/> <use transform="matrix(-.9831 -2.3701 -2.3701 .9831 2965.9 969.9)" x="-26.001" y="-25" width="52.002" height="50" overflow="visible" xlink:href="#a"/> <use transform="matrix(-2.1925 1.3329 1.3329 2.1925 3351.9 2977.2)" x="-26.001" y="-25" width="52.002" height="50" overflow="visible" xlink:href="#a"/> <use transform="matrix(-1.0089 -2.3592 -2.3592 1.0089 3839.5 454.15)" x="-26.001" y="-25" width="52.002" height="50" overflow="visible" xlink:href="#a"/> <use transform="matrix(-1.1116 -2.3126 -2.3126 1.1116 1820 3089.8)" x="-26.001" y="-25" width="52.002" height="50" overflow="visible" xlink:href="#a"/> <use transform="matrix(1.9722 1.6414 1.6414 -1.9722 4218.6 1156.3)" x="-26.001" y="-25" width="52.002" height="50" overflow="visible" xlink:href="#a"/> <use transform="matrix(-1.2029 -2.2665 -2.2665 1.2029 790.06 576.03)" x="-26.001" y="-25" width="52.002" height="50" overflow="visible" xlink:href="#a"/> <use transform="matrix(.8148 2.4331 2.4331 -.8148 3085.4 2516.5)" x="-26.001" y="-25" width="52.002" height="50" overflow="visible" xlink:href="#a"/> <use transform="matrix(-.911 -2.3987 -2.3987 .911 3216.2 1491.6)" x="-26.001" y="-25" width="52.002" height="50" overflow="visible" xlink:href="#a"/> <use transform="matrix(1.3756 2.166 2.166 -1.3756 2913.2 2834.4)" x="-26.001" y="-25" width="52.002" height="50" overflow="visible" xlink:href="#a"/> <use transform="matrix(-2.564 -.0992 -.0992 2.564 918.47 353.53)" x="-26.001" y="-25" width="52.002" height="50" overflow="visible" xlink:href="#a"/> <use transform="matrix(1.0361 -2.3474 -2.3474 -1.0361 118.27 963.81)" x="-26.001" y="-25" width="52.002" height="50" overflow="visible" xlink:href="#a"/> <use transform="matrix(-1.9742 1.639 1.639 1.9742 3469.2 2143.5)" x="-26.001" y="-25" width="52.002" height="50" overflow="visible" xlink:href="#a"/> <use transform="matrix(.7982 -2.4386 -2.4386 -.7982 236.08 606.51)" x="-26.001" y="-25" width="52.002" height="50" overflow="visible" xlink:href="#a"/> <use transform="matrix(.5894 2.4973 2.4973 -.5894 3369 1605.6)" x="-26.001" y="-25" width="52.002" height="50" overflow="visible" xlink:href="#a"/> <use transform="matrix(2.4833 -.6459 -.6459 -2.4833 3903.1 1682.1)" x="-26.001" y="-25" width="52.002" height="50" overflow="visible" xlink:href="#a"/> <use transform="matrix(-2.0292 1.5704 1.5704 2.0292 401.06 1031.7)" x="-26.001" y="-25" width="52.002" height="50" overflow="visible" xlink:href="#a"/> <use transform="matrix(.2286 2.5557 2.5557 -.2286 1469.8 2021.8)" x="-26.001" y="-25" width="52.002" height="50" overflow="visible" xlink:href="#a"/> <use transform="matrix(2.553 .2571 .2571 -2.553 2733.2 2542.5)" x="-26.001" y="-25" width="52.002" height="50" overflow="visible" xlink:href="#a"/> <use transform="matrix(-1.7418 1.8841 1.8841 1.7418 2558.4 2897.7)" x="-26.001" y="-25" width="52.002" height="50" overflow="visible" xlink:href="#a"/> <use transform="matrix(-.6079 2.4929 2.4929 .6079 670.28 749.81)" x="-26.001" y="-25" width="52.002" height="50" overflow="visible" xlink:href="#a"/> <use transform="matrix(-.6435 -2.4839 -2.4839 .6435 2943.2 125.72)" x="-26.001" y="-25" width="52.002" height="50" overflow="visible" xlink:href="#a"/> <use transform="matrix(1.5728 2.0274 2.0274 -1.5728 1354.3 1335.6)" x="-26.001" y="-25" width="52.002" height="50" overflow="visible" xlink:href="#a"/> <use transform="matrix(-2.4355 -.8075 -.8075 2.4355 1424 1140)" x="-26.001" y="-25" width="52.002" height="50" overflow="visible" xlink:href="#a"/> <use transform="matrix(-2.2702 -1.1958 -1.1958 2.2702 2306.7 701.21)" x="-26.001" y="-25" width="52.002" height="50" overflow="visible" xlink:href="#a"/> <use transform="matrix(.0428 2.5655 2.5655 -.0428 1256.1 66.816)" x="-26.001" y="-25" width="52.002" height="50" overflow="visible" xlink:href="#a"/> <use transform="matrix(-2.5622 -.1384 -.1384 2.5622 2792.5 3199.1)" x="-26.001" y="-25" width="52.002" height="50" overflow="visible" xlink:href="#a"/> <use transform="matrix(-2.4995 -.58 -.58 2.4995 1222.4 2281.4)" x="-26.001" y="-25" width="52.002" height="50" overflow="visible" xlink:href="#a"/> <use transform="matrix(-2.5256 -.4531 -.4531 2.5256 3387 1385.7)" x="-26.001" y="-25" width="52.002" height="50" overflow="visible" xlink:href="#a"/> <use transform="matrix(-.1556 2.5612 2.5612 .1556 1877.7 632.94)" x="-26.001" y="-25" width="52.002" height="50" overflow="visible" xlink:href="#a"/> <use transform="matrix(-1.9247 -1.6968 -1.6968 1.9247 2094.3 3559.7)" x="-26.001" y="-25" width="52.002" height="50" overflow="visible" xlink:href="#a"/> <use transform="matrix(2.3917 .9294 .9294 -2.3917 1185.3 2489.1)" x="-26.001" y="-25" width="52.002" height="50" overflow="visible" xlink:href="#a"/> <use transform="matrix(2.3056 -1.126 -1.126 -2.3056 259.33 1132.6)" x="-26.001" y="-25" width="52.002" height="50" overflow="visible" xlink:href="#a"/> <use transform="matrix(-2.4506 .7605 .7605 2.4506 852.8 1301.6)" x="-26.001" y="-25" width="52.002" height="50" overflow="visible" xlink:href="#a"/> <use transform="matrix(-2.4984 -.5847 -.5847 2.4984 1895.9 3662.7)" x="-26.001" y="-25" width="52.002" height="50" overflow="visible" xlink:href="#a"/> <use transform="matrix(1.2676 2.2309 2.2309 -1.2676 1008.4 1112.7)" x="-26.001" y="-25" width="52.002" height="50" overflow="visible" xlink:href="#a"/> <use transform="matrix(2.5022 -.5682 -.5682 -2.5022 2119.8 1581.9)" x="-26.001" y="-25" width="52.002" height="50" overflow="visible" xlink:href="#a"/> <use transform="matrix(2.3551 -1.0185 -1.0185 -2.3551 2765.4 963.2)" x="-26.001" y="-25" width="52.002" height="50" overflow="visible" xlink:href="#a"/> <use transform="matrix(-1.1386 -2.2995 -2.2995 1.1386 1731.6 3528.2)" x="-26.001" y="-25" width="52.002" height="50" overflow="visible" xlink:href="#a"/> <use transform="matrix(.1495 2.5615 2.5615 -.1495 1706.6 786.62)" x="-26.001" y="-25" width="52.002" height="50" overflow="visible" xlink:href="#a"/> <use transform="matrix(-2.4782 -.665 -.665 2.4782 562.78 1145.4)" x="-26.001" y="-25" width="52.002" height="50" overflow="visible" xlink:href="#a"/> <use transform="matrix(-1.8637 1.7637 1.7637 1.8637 3775.2 667.69)" x="-26.001" y="-25" width="52.002" height="50" overflow="visible" xlink:href="#a"/> <use transform="matrix(.4137 2.5323 2.5323 -.4137 3467.4 332.35)" x="-26.001" y="-25" width="52.002" height="50" overflow="visible" xlink:href="#a"/> <use transform="matrix(2.544 .3346 .3346 -2.544 1084.1 2017.7)" x="-26.001" y="-25" width="52.002" height="50" overflow="visible" xlink:href="#a"/> <use transform="matrix(2.467 .7057 .7057 -2.467 4328.1 1546.2)" x="-26.001" y="-25" width="52.002" height="50" overflow="visible" xlink:href="#a"/> <use transform="matrix(2.4104 .8797 .8797 -2.4104 3296 1123.6)" x="-26.001" y="-25" width="52.002" height="50" overflow="visible" xlink:href="#a"/> <use transform="matrix(2.5235 -.4647 -.4647 -2.5235 2908.7 1974)" x="-26.001" y="-25" width="52.002" height="50" overflow="visible" xlink:href="#a"/> <use transform="matrix(-2.1566 -1.3903 -1.3903 2.1566 2422.6 516.92)" x="-26.001" y="-25" width="52.002" height="50" overflow="visible" xlink:href="#a"/> <use transform="matrix(2.244 1.2444 1.2444 -2.244 1937 3428.7)" x="-26.001" y="-25" width="52.002" height="50" overflow="visible" xlink:href="#a"/> <use transform="matrix(-2.2776 1.1817 1.1817 2.2776 2900.3 771.24)" x="-26.001" y="-25" width="52.002" height="50" overflow="visible" xlink:href="#a"/> <use transform="matrix(.8599 -2.4175 -2.4175 -.8599 2219.3 1248.2)" x="-26.001" y="-25" width="52.002" height="50" overflow="visible" xlink:href="#a"/> <use transform="matrix(1.616 -1.993 -1.993 -1.616 4049.1 2094.7)" x="-26.001" y="-25" width="52.002" height="50" overflow="visible" xlink:href="#a"/> <use transform="matrix(1.5929 -2.0116 -2.0116 -1.5929 3129.8 1666.9)" x="-26.001" y="-25" width="52.002" height="50" overflow="visible" xlink:href="#a"/> <use transform="matrix(.484 -2.5198 -2.5198 -.484 2998.4 436.14)" x="-26.001" y="-25" width="52.002" height="50" overflow="visible" xlink:href="#a"/> <use transform="matrix(.0843 2.5645 2.5645 -.0843 2629.9 542.26)" x="-26.001" y="-25" width="52.002" height="50" overflow="visible" xlink:href="#a"/> <use transform="matrix(-2.4732 -.6835 -.6835 2.4732 1426.2 339.89)" x="-26.001" y="-25" width="52.002" height="50" overflow="visible" xlink:href="#a"/> <use transform="matrix(-2.3873 .9405 .9405 2.3873 1984.1 1732.3)" x="-26.001" y="-25" width="52.002" height="50" overflow="visible" xlink:href="#a"/> <use transform="matrix(-1.1902 2.2732 2.2732 1.1902 3637.9 1046.4)" x="-26.001" y="-25" width="52.002" height="50" overflow="visible" xlink:href="#a"/> <use transform="matrix(-2.3528 -1.0238 -1.0238 2.3528 2548.8 1928.7)" x="-26.001" y="-25" width="52.002" height="50" overflow="visible" xlink:href="#a"/> <use transform="matrix(.459 -2.5245 -2.5245 -.459 2586.7 343.78)" x="-26.001" y="-25" width="52.002" height="50" overflow="visible" xlink:href="#a"/> <use transform="matrix(2.0688 1.5178 1.5178 -2.0688 639.96 1315.7)" x="-26.001" y="-25" width="52.002" height="50" overflow="visible" xlink:href="#a"/> <use transform="matrix(-1.413 -2.1418 -2.1418 1.413 1760 972.86)" x="-26.001" y="-25" width="52.002" height="50" overflow="visible" xlink:href="#a"/> <use transform="matrix(-2.1521 -1.3973 -1.3973 2.1521 3472.5 1180.4)" x="-26.001" y="-25" width="52.002" height="50" overflow="visible" xlink:href="#a"/> <use transform="matrix(-2.5202 .4823 .4823 2.5202 2141.7 843.63)" x="-26.001" y="-25" width="52.002" height="50" overflow="visible" xlink:href="#a"/> <use transform="matrix(-2.3009 1.1357 1.1357 2.3009 1307.8 673.53)" x="-26.001" y="-25" width="52.002" height="50" overflow="visible" xlink:href="#a"/> <use transform="matrix(.19 2.5589 2.5589 -.19 3569.2 1562.1)" x="-26.001" y="-25" width="52.002" height="50" overflow="visible" xlink:href="#a"/> <use transform="matrix(1.3587 2.1766 2.1766 -1.3587 3087.4 2725.7)" x="-26.001" y="-25" width="52.002" height="50" overflow="visible" xlink:href="#a"/> <use transform="matrix(-.5062 2.5155 2.5155 .5062 388.35 845.28)" x="-26.001" y="-25" width="52.002" height="50" overflow="visible" xlink:href="#a"/> <use transform="matrix(-2.5249 .457 .457 2.5249 2828.1 1393.9)" x="-26.001" y="-25" width="52.002" height="50" overflow="visible" xlink:href="#a"/> <use transform="matrix(-1.2693 -2.23 -2.23 1.2693 2939.6 1774)" x="-26.001" y="-25" width="52.002" height="50" overflow="visible" xlink:href="#a"/> <use transform="matrix(.1353 -2.5623 -2.5623 -.1353 3179.7 73.759)" x="-26.001" y="-25" width="52.002" height="50" overflow="visible" xlink:href="#a"/> <use transform="matrix(-1.3728 -2.1678 -2.1678 1.3728 2622.8 1147.3)" x="-26.001" y="-25" width="52.002" height="50" overflow="visible" xlink:href="#a"/> <use transform="matrix(.3306 2.5445 2.5445 -.3306 2833.2 348.31)" x="-26.001" y="-25" width="52.002" height="50" overflow="visible" xlink:href="#a"/> <use transform="matrix(2.5651 -.0658 -.0658 -2.5651 2025.9 2764.7)" x="-26.001" y="-25" width="52.002" height="50" overflow="visible" xlink:href="#a"/> <use transform="matrix(-1.8557 1.772 1.772 1.8557 510.03 299.86)" x="-26.001" y="-25" width="52.002" height="50" overflow="visible" xlink:href="#a"/> <use transform="matrix(-.1946 2.5585 2.5585 .1946 1294 1660.1)" x="-26.001" y="-25" width="52.002" height="50" overflow="visible" xlink:href="#a"/> <use transform="matrix(2.3239 -1.0877 -1.0877 -2.3239 1630.8 1892.9)" x="-26.001" y="-25" width="52.002" height="50" overflow="visible" xlink:href="#a"/> <use transform="matrix(-.7994 2.4382 2.4382 .7994 1449.8 543.01)" x="-26.001" y="-25" width="52.002" height="50" overflow="visible" xlink:href="#a"/> <use transform="matrix(-2.4827 -.648 -.648 2.4827 2575.1 2192.2)" x="-26.001" y="-25" width="52.002" height="50" overflow="visible" xlink:href="#a"/> <use transform="matrix(1.5844 2.0183 2.0183 -1.5844 453.14 2185.4)" x="-26.001" y="-25" width="52.002" height="50" overflow="visible" xlink:href="#a"/> <use transform="matrix(2.0664 -1.5211 -1.5211 -2.0664 941.2 2797.1)" x="-26.001" y="-25" width="52.002" height="50" overflow="visible" xlink:href="#a"/> <use transform="matrix(.4108 2.5328 2.5328 -.4108 2841.7 1164.9)" x="-26.001" y="-25" width="52.002" height="50" overflow="visible" xlink:href="#a"/> <use transform="matrix(.6778 -2.4748 -2.4748 -.6778 2986.8 1295.3)" x="-26.001" y="-25" width="52.002" height="50" overflow="visible" xlink:href="#a"/> <use transform="matrix(-2.4917 .6127 .6127 2.4917 1095.7 333.53)" x="-26.001" y="-25" width="52.002" height="50" overflow="visible" xlink:href="#a"/> <use transform="matrix(.0644 2.5651 2.5651 -.0644 2093.5 632.15)" x="-26.001" y="-25" width="52.002" height="50" overflow="visible" xlink:href="#a"/> <use transform="matrix(.9529 2.3824 2.3824 -.9529 1634.7 2976)" x="-26.001" y="-25" width="52.002" height="50" overflow="visible" xlink:href="#a"/> <use transform="matrix(.6437 2.4838 2.4838 -.6437 982.39 2588.9)" x="-26.001" y="-25" width="52.002" height="50" overflow="visible" xlink:href="#a"/> <use transform="matrix(.0204 2.5658 2.5658 -.0204 1653.2 193.22)" x="-26.001" y="-25" width="52.002" height="50" overflow="visible" xlink:href="#a"/> <use transform="matrix(1.6395 1.9738 1.9738 -1.6395 3120.6 2921.3)" x="-26.001" y="-25" width="52.002" height="50" overflow="visible" xlink:href="#a"/> <use transform="matrix(-2.1359 -1.4219 -1.4219 2.1359 2508.8 731.07)" x="-26.001" y="-25" width="52.002" height="50" overflow="visible" xlink:href="#a"/> <use transform="matrix(-.9197 2.3954 2.3954 .9197 4112.4 935.71)" x="-26.001" y="-25" width="52.002" height="50" overflow="visible" xlink:href="#a"/> <use transform="matrix(2.5524 -.263 -.263 -2.5524 2718.5 2760.3)" x="-26.001" y="-25" width="52.002" height="50" overflow="visible" xlink:href="#a"/> <use transform="matrix(2.5579 -.2023 -.2023 -2.5579 2546.2 2648.4)" x="-26.001" y="-25" width="52.002" height="50" overflow="visible" xlink:href="#a"/> <use transform="matrix(2.5221 -.4719 -.4719 -2.5221 1503.6 747.56)" x="-26.001" y="-25" width="52.002" height="50" overflow="visible" xlink:href="#a"/> <use transform="matrix(-2.2138 1.2972 1.2972 2.2138 2274 1443.3)" x="-26.001" y="-25" width="52.002" height="50" overflow="visible" xlink:href="#a"/> <use transform="matrix(-.7741 2.4463 2.4463 .7741 1328.4 863.69)" x="-26.001" y="-25" width="52.002" height="50" overflow="visible" xlink:href="#a"/> <use transform="matrix(.098 2.564 2.564 -.098 916.03 745.71)" x="-26.001" y="-25" width="52.002" height="50" overflow="visible" xlink:href="#a"/> <use transform="matrix(.6589 2.4799 2.4799 -.6589 3849.9 1022.9)" x="-26.001" y="-25" width="52.002" height="50" overflow="visible" xlink:href="#a"/> <use transform="matrix(-1.235 2.2491 2.2491 1.235 2057.6 3791.6)" x="-26.001" y="-25" width="52.002" height="50" overflow="visible" xlink:href="#a"/> <use transform="matrix(2.1474 -1.4045 -1.4045 -2.1474 2638.5 3601.2)" x="-26.001" y="-25" width="52.002" height="50" overflow="visible" xlink:href="#a"/> <use transform="matrix(-.5367 -2.5091 -2.5091 .5367 3685.6 861.26)" x="-26.001" y="-25" width="52.002" height="50" overflow="visible" xlink:href="#a"/> <use transform="matrix(-2.0712 1.5146 1.5146 2.0712 2354.9 3828.8)" x="-26.001" y="-25" width="52.002" height="50" overflow="visible" xlink:href="#a"/> <use transform="matrix(-2.1012 -1.4727 -1.4727 2.1012 2404.7 2084.5)" x="-26.001" y="-25" width="52.002" height="50" overflow="visible" xlink:href="#a"/> <use transform="matrix(2.5171 .4978 .4978 -2.5171 1273.8 2874)" x="-26.001" y="-25" width="52.002" height="50" overflow="visible" xlink:href="#a"/> <use transform="matrix(-.1501 -2.5615 -2.5615 .1501 2707.2 1997.5)" x="-26.001" y="-25" width="52.002" height="50" overflow="visible" xlink:href="#a"/> <use transform="matrix(-2.5654 -.0507 -.0507 2.5654 3836.6 2150)" x="-26.001" y="-25" width="52.002" height="50" overflow="visible" xlink:href="#a"/> <use transform="matrix(2.4112 -.8774 -.8774 -2.4112 352.43 432.25)" x="-26.001" y="-25" width="52.002" height="50" overflow="visible" xlink:href="#a"/> <use transform="matrix(2.5647 -.079 -.079 -2.5647 1465.7 2811.1)" x="-26.001" y="-25" width="52.002" height="50" overflow="visible" xlink:href="#a"/> <use transform="matrix(1.8206 1.8081 1.8081 -1.8206 3982.1 2270.6)" x="-26.001" y="-25" width="52.002" height="50" overflow="visible" xlink:href="#a"/> <use transform="matrix(2.0963 -1.4796 -1.4796 -2.0963 649.34 2481.9)" x="-26.001" y="-25" width="52.002" height="50" overflow="visible" xlink:href="#a"/> <use transform="matrix(-2.2224 -1.2825 -1.2825 2.2224 995.69 1853)" x="-26.001" y="-25" width="52.002" height="50" overflow="visible" xlink:href="#a"/> <use transform="matrix(1.3011 -2.2116 -2.2116 -1.3011 3653.5 2296.1)" x="-26.001" y="-25" width="52.002" height="50" overflow="visible" xlink:href="#a"/> <use transform="matrix(-.6115 2.492 2.492 .6115 1529.7 952.62)" x="-26.001" y="-25" width="52.002" height="50" overflow="visible" xlink:href="#a"/> <use transform="matrix(-.3589 -2.5407 -2.5407 .3589 3245.8 2617.6)" x="-26.001" y="-25" width="52.002" height="50" overflow="visible" xlink:href="#a"/> <use transform="matrix(2.1492 -1.4017 -1.4017 -2.1492 854.97 941.87)" x="-26.001" y="-25" width="52.002" height="50" overflow="visible" xlink:href="#a"/> <use transform="matrix(.2174 2.5567 2.5567 -.2174 1667.4 1501)" x="-26.001" y="-25" width="52.002" height="50" overflow="visible" xlink:href="#a"/> <use transform="matrix(.2419 2.5545 2.5545 -.2419 132.45 1542)" x="-26.001" y="-25" width="52.002" height="50" overflow="visible" xlink:href="#a"/> <use transform="matrix(2.5139 .5142 .5142 -2.5139 3286.2 243.83)" x="-26.001" y="-25" width="52.002" height="50" overflow="visible" xlink:href="#a"/> <use transform="matrix(-1.0662 -2.3339 -2.3339 1.0662 1265.5 2065.6)" x="-26.001" y="-25" width="52.002" height="50" overflow="visible" xlink:href="#a"/> <use transform="matrix(1.207 -2.2643 -2.2643 -1.207 3850.6 226.07)" x="-26.001" y="-25" width="52.002" height="50" overflow="visible" xlink:href="#a"/> <use transform="matrix(-1.7672 1.8603 1.8603 1.7672 2214.8 3935)" x="-26.001" y="-25" width="52.002" height="50" overflow="visible" xlink:href="#a"/> <use transform="matrix(1.3793 -2.1637 -2.1637 -1.3793 1825.7 1143.4)" x="-26.001" y="-25" width="52.002" height="50" overflow="visible" xlink:href="#a"/> <use transform="matrix(-1.691 1.9299 1.9299 1.691 4121.1 1605.7)" x="-26.001" y="-25" width="52.002" height="50" overflow="visible" xlink:href="#a"/> <use transform="matrix(2.5376 .3801 .3801 -2.5376 1636.3 2139.3)" x="-26.001" y="-25" width="52.002" height="50" overflow="visible" xlink:href="#a"/> <use transform="matrix(2.5659 -.0062 -.0062 -2.5659 1125.3 699.06)" x="-26.001" y="-25" width="52.002" height="50" overflow="visible" xlink:href="#a"/> <use transform="matrix(2.556 -.2249 -.2249 -2.556 3656.1 2084.5)" x="-26.001" y="-25" width="52.002" height="50" overflow="visible" xlink:href="#a"/> <use transform="matrix(-1.705 1.9175 1.9175 1.705 1244.5 3096.7)" x="-26.001" y="-25" width="52.002" height="50" overflow="visible" xlink:href="#a"/> <use transform="matrix(.7656 -2.449 -2.449 -.7656 3688.5 1897.8)" x="-26.001" y="-25" width="52.002" height="50" overflow="visible" xlink:href="#a"/> <use transform="matrix(.0729 -2.5649 -2.5649 -.0729 764.39 1122.8)" x="-26.001" y="-25" width="52.002" height="50" overflow="visible" xlink:href="#a"/> <use transform="matrix(-.9248 -2.3934 -2.3934 .9248 877.41 2073.3)" x="-26.001" y="-25" width="52.002" height="50" overflow="visible" xlink:href="#a"/> <use transform="matrix(.5614 2.5037 2.5037 -.5614 2770.8 2161)" x="-26.001" y="-25" width="52.002" height="50" overflow="visible" xlink:href="#a"/> <use transform="matrix(-.74 -2.4569 -2.4569 .74 3439.2 2344.4)" x="-26.001" y="-25" width="52.002" height="50" overflow="visible" xlink:href="#a"/> <use transform="matrix(-2.0432 1.5522 1.5522 2.0432 2750.1 2343.8)" x="-26.001" y="-25" width="52.002" height="50" overflow="visible" xlink:href="#a"/> <use transform="matrix(2.4856 -.6368 -.6368 -2.4856 1924.9 817.08)" x="-26.001" y="-25" width="52.002" height="50" overflow="visible" xlink:href="#a"/> <use transform="matrix(.1411 -2.562 -2.562 -.1411 1997.2 2144.8)" x="-26.001" y="-25" width="52.002" height="50" overflow="visible" xlink:href="#a"/> <use transform="matrix(-1.5079 2.076 2.076 1.5079 1206.5 1215.8)" x="-26.001" y="-25" width="52.002" height="50" overflow="visible" xlink:href="#a"/> <use transform="matrix(-.0392 -2.5656 -2.5656 .0392 2434.6 1302.4)" x="-26.001" y="-25" width="52.002" height="50" overflow="visible" xlink:href="#a"/> <use transform="matrix(1.7889 1.8394 1.8394 -1.7889 532.28 1491.5)" x="-26.001" y="-25" width="52.002" height="50" overflow="visible" xlink:href="#a"/> <use transform="matrix(-.477 2.5212 2.5212 .477 3201 1302.3)" x="-26.001" y="-25" width="52.002" height="50" overflow="visible" xlink:href="#a"/> <use transform="matrix(-1.8528 -1.7751 -1.7751 1.8528 1853.2 2667.8)" x="-26.001" y="-25" width="52.002" height="50" overflow="visible" xlink:href="#a"/> <use transform="matrix(.8899 -2.4066 -2.4066 -.8899 1007.4 2387.3)" x="-26.001" y="-25" width="52.002" height="50" overflow="visible" xlink:href="#a"/> <use transform="matrix(-1.4045 -2.1473 -2.1473 1.4045 1260 249.23)" x="-26.001" y="-25" width="52.002" height="50" overflow="visible" xlink:href="#a"/> <use transform="matrix(-.8376 2.4253 2.4253 .8376 1799 1331)" x="-26.001" y="-25" width="52.002" height="50" overflow="visible" xlink:href="#a"/> <use transform="matrix(-.4141 -2.5323 -2.5323 .4141 2036 1394.5)" x="-26.001" y="-25" width="52.002" height="50" overflow="visible" xlink:href="#a"/> <use transform="matrix(2.3292 -1.0765 -1.0765 -2.3292 424.91 1723.8)" x="-26.001" y="-25" width="52.002" height="50" overflow="visible" xlink:href="#a"/> <use transform="matrix(1.3388 2.1889 2.1889 -1.3388 1238.8 474.88)" x="-26.001" y="-25" width="52.002" height="50" overflow="visible" xlink:href="#a"/> <use transform="matrix(1.5951 -2.0098 -2.0098 -1.5951 1832.8 2879.2)" x="-26.001" y="-25" width="52.002" height="50" overflow="visible" xlink:href="#a"/> <use transform="matrix(-1.5979 2.0076 2.0076 1.5979 2380.3 2768.6)" x="-26.001" y="-25" width="52.002" height="50" overflow="visible" xlink:href="#a"/> <use transform="matrix(.0221 2.5658 2.5658 -.0221 615.48 938.05)" x="-26.001" y="-25" width="52.002" height="50" overflow="visible" xlink:href="#a"/> <use transform="matrix(2.2573 1.22 1.22 -2.2573 2945.3 2193.1)" x="-26.001" y="-25" width="52.002" height="50" overflow="visible" xlink:href="#a"/> <use transform="matrix(.4636 2.5237 2.5237 -.4636 2988.4 3166.2)" x="-26.001" y="-25" width="52.002" height="50" overflow="visible" xlink:href="#a"/> <use transform="matrix(2.057 -1.5338 -1.5338 -2.057 1044.4 1322.6)" x="-26.001" y="-25" width="52.002" height="50" overflow="visible" xlink:href="#a"/> <use transform="matrix(-2.1132 -1.4554 -1.4554 2.1132 2034.3 1953.5)" x="-26.001" y="-25" width="52.002" height="50" overflow="visible" xlink:href="#a"/> <use transform="matrix(2.4498 -.7631 -.7631 -2.4498 2353.5 904.99)" x="-26.001" y="-25" width="52.002" height="50" overflow="visible" xlink:href="#a"/> <use transform="matrix(-2.5364 -.388 -.388 2.5364 3406 546.64)" x="-26.001" y="-25" width="52.002" height="50" overflow="visible" xlink:href="#a"/> <use transform="matrix(.865 2.4157 2.4157 -.865 1196.6 1472.8)" x="-26.001" y="-25" width="52.002" height="50" overflow="visible" xlink:href="#a"/> <use transform="matrix(-2.3905 .9323 .9323 2.3905 3957.7 1481.5)" x="-26.001" y="-25" width="52.002" height="50" overflow="visible" xlink:href="#a"/> <use transform="matrix(1.3019 2.2111 2.2111 -1.3019 2291.8 3442.5)" x="-26.001" y="-25" width="52.002" height="50" overflow="visible" xlink:href="#a"/> <use transform="matrix(-1.8989 -1.7256 -1.7256 1.8989 265.27 1881.5)" x="-26.001" y="-25" width="52.002" height="50" overflow="visible" xlink:href="#a"/> <use transform="matrix(-.865 2.4157 2.4157 .865 3623.3 2691.8)" x="-26.001" y="-25" width="52.002" height="50" overflow="visible" xlink:href="#a"/> <use transform="matrix(2.1319 -1.4278 -1.4278 -2.1319 3078.5 262.27)" x="-26.001" y="-25" width="52.002" height="50" overflow="visible" xlink:href="#a"/> <use transform="matrix(-2.5449 -.3279 -.3279 2.5449 3282.9 2205)" x="-26.001" y="-25" width="52.002" height="50" overflow="visible" xlink:href="#a"/> <use transform="matrix(-2.5182 .4927 .4927 2.5182 1835.3 2442.8)" x="-26.001" y="-25" width="52.002" height="50" overflow="visible" xlink:href="#a"/> <use transform="matrix(-.5476 2.5068 2.5068 .5476 3628.8 142.13)" x="-26.001" y="-25" width="52.002" height="50" overflow="visible" xlink:href="#a"/> <use transform="matrix(1.0409 2.3453 2.3453 -1.0409 797.36 2256.2)" x="-26.001" y="-25" width="52.002" height="50" overflow="visible" xlink:href="#a"/> </svg>